solid ascii
 facet normal 0.866021 0.500008 5.12958e-05
  outer loop
   vertex 19882.8 6168.72 -1257.56
   vertex 19783.2 6341.21 -1273.24
   vertex 19783.2 6341.21 -1240.27
  endloop
 endfacet
 facet normal 0.866016 0.500016 5.12956e-05
  outer loop
   vertex 19683.6 6513.7 -1257.56
   vertex 19783.2 6341.21 -1240.27
   vertex 19783.2 6341.21 -1273.24
  endloop
 endfacet
 facet normal 0.866024 0.500003 -6.64477e-06
  outer loop
   vertex 19586.5 6681.95 -1210.92
   vertex 19661.9 6551.27 -1186.3
   vertex 19683.6 6513.7 -1257.56
  endloop
 endfacet
 facet normal 0.866019 0.500011 -1.2277e-05
  outer loop
   vertex 19783.2 6341.21 -1240.27
   vertex 19683.6 6513.7 -1257.56
   vertex 19661.9 6551.27 -1186.3
  endloop
 endfacet
 facet normal 0.866015 0.500019 -1.59705e-07
  outer loop
   vertex 19494.2 6841.8 -1134.47
   vertex 19550.2 6744.79 -1098.57
   vertex 19586.5 6681.95 -1210.92
  endloop
 endfacet
 facet normal 0.866022 0.500005 9.90031e-06
  outer loop
   vertex 19661.9 6551.27 -1186.3
   vertex 19586.5 6681.95 -1210.92
   vertex 19550.2 6744.79 -1098.57
  endloop
 endfacet
 facet normal 0.86602 0.500009 -1.14031e-06
  outer loop
   vertex 19409 6989.33 -1030.07
   vertex 19451.5 6915.64 -980.507
   vertex 19494.2 6841.8 -1134.47
  endloop
 endfacet
 facet normal 0.866016 0.500017 -6.1234e-06
  outer loop
   vertex 19494.2 6841.8 -1134.47
   vertex 19451.5 6915.64 -980.507
   vertex 19550.2 6744.79 -1098.57
  endloop
 endfacet
 facet normal 0.866021 0.500007 -5.37613e-06
  outer loop
   vertex 19451.5 6915.64 -980.507
   vertex 19409 6989.33 -1030.07
   vertex 19365.7 7064.22 -834.87
  endloop
 endfacet
 facet normal 0.866021 0.500008 -5.87799e-06
  outer loop
   vertex 19333 7120.9 -900.317
   vertex 19365.7 7064.22 -834.87
   vertex 19409 6989.33 -1030.07
  endloop
 endfacet
 facet normal 0.86602 0.50001 7.75084e-07
  outer loop
   vertex 19292.9 7190.35 -663.296
   vertex 19365.7 7064.22 -834.87
   vertex 19268.1 7233.27 -748.392
  endloop
 endfacet
 facet normal 0.866019 0.500011 -2.56979e-06
  outer loop
   vertex 19333 7120.9 -900.317
   vertex 19268.1 7233.27 -748.392
   vertex 19365.7 7064.22 -834.87
  endloop
 endfacet
 facet normal 0.866016 0.500017 5.59317e-06
  outer loop
   vertex 19268.1 7233.27 -748.392
   vertex 19215.9 7323.68 -578.039
   vertex 19292.9 7190.35 -663.296
  endloop
 endfacet
 facet normal 0.866014 0.500019 1.97939e-07
  outer loop
   vertex 19233.9 7292.59 -466.012
   vertex 19292.9 7190.35 -663.296
   vertex 19215.9 7323.68 -578.039
  endloop
 endfacet
 facet normal 0.866016 0.500017 -6.57399e-07
  outer loop
   vertex 19215.9 7323.68 -578.039
   vertex 19177.7 7389.89 -393.453
   vertex 19233.9 7292.59 -466.012
  endloop
 endfacet
 facet normal 0.866017 0.500015 2.25969e-06
  outer loop
   vertex 19190 7368.57 -242.563
   vertex 19233.9 7292.59 -466.012
   vertex 19177.7 7389.89 -393.453
  endloop
 endfacet
 facet normal 0.866025 0.500001 -5.07589e-07
  outer loop
   vertex 19177.7 7389.89 -393.453
   vertex 19154.4 7430.29 -199.179
   vertex 19190 7368.57 -242.563
  endloop
 endfacet
 facet normal 0.866026 0.499999 3.43437e-06
  outer loop
   vertex 19190 7368.57 -242.563
   vertex 19154.4 7430.29 -199.179
   vertex 19163 7415.31 6.46651e-10
  endloop
 endfacet
 facet normal 0.866059 0.499943 2.19039e-06
  outer loop
   vertex 19154.4 7430.29 199.179
   vertex 19163 7415.31 6.46651e-10
   vertex 19146.6 7443.86 -3.18056e-13
  endloop
 endfacet
 facet normal 0.866059 0.499943 -2.19039e-06
  outer loop
   vertex 19146.6 7443.86 -3.18056e-13
   vertex 19163 7415.31 6.46651e-10
   vertex 19154.4 7430.29 -199.179
  endloop
 endfacet
 facet normal 0.866017 0.500015 -8.73716e-06
  outer loop
   vertex 19979.9 6000.47 -1210.92
   vertex 19882.8 6168.72 -1257.56
   vertex 19904.5 6131.15 -1186.3
  endloop
 endfacet
 facet normal 0.866018 0.500012 -1.02652e-05
  outer loop
   vertex 19783.2 6341.21 -1240.27
   vertex 19904.5 6131.15 -1186.3
   vertex 19882.8 6168.72 -1257.56
  endloop
 endfacet
 facet normal 0.866019 0.500012 -1.34302e-05
  outer loop
   vertex 19904.5 6131.15 -1186.3
   vertex 19783.2 6341.21 -1240.27
   vertex 19783.2 6341.21 -1114.32
  endloop
 endfacet
 facet normal 0.866019 0.500011 -1.34302e-05
  outer loop
   vertex 19661.9 6551.27 -1186.3
   vertex 19783.2 6341.21 -1114.32
   vertex 19783.2 6341.21 -1240.27
  endloop
 endfacet
 facet normal 0.866021 0.500008 2.66975e-06
  outer loop
   vertex 19550.2 6744.79 -1098.57
   vertex 19658.9 6556.4 -1001.88
   vertex 19661.9 6551.27 -1186.3
  endloop
 endfacet
 facet normal 0.866017 0.500015 2.39175e-06
  outer loop
   vertex 19783.2 6341.21 -1114.32
   vertex 19661.9 6551.27 -1186.3
   vertex 19658.9 6556.4 -1001.88
  endloop
 endfacet
 facet normal 0.866017 0.500014 -4.96216e-07
  outer loop
   vertex 19451.5 6915.64 -980.507
   vertex 19544.6 6754.39 -855.618
   vertex 19550.2 6744.79 -1098.57
  endloop
 endfacet
 facet normal 0.866022 0.500006 -9.96452e-08
  outer loop
   vertex 19658.9 6556.4 -1001.88
   vertex 19550.2 6744.79 -1098.57
   vertex 19544.6 6754.39 -855.618
  endloop
 endfacet
 facet normal 0.866018 0.500013 -2.72871e-06
  outer loop
   vertex 19544.6 6754.39 -855.618
   vertex 19451.5 6915.64 -980.507
   vertex 19443.2 6930.07 -679.965
  endloop
 endfacet
 facet normal 0.866023 0.500005 -2.21372e-06
  outer loop
   vertex 19365.7 7064.22 -834.87
   vertex 19443.2 6930.07 -679.965
   vertex 19451.5 6915.64 -980.507
  endloop
 endfacet
 facet normal 0.866021 0.500008 5.74945e-07
  outer loop
   vertex 19355.4 7082.19 -477.098
   vertex 19443.2 6930.07 -679.965
   vertex 19292.9 7190.35 -663.296
  endloop
 endfacet
 facet normal 0.866021 0.500008 1.99393e-06
  outer loop
   vertex 19365.7 7064.22 -834.87
   vertex 19292.9 7190.35 -663.296
   vertex 19443.2 6930.07 -679.965
  endloop
 endfacet
 facet normal 0.866018 0.500013 4.36591e-06
  outer loop
   vertex 19292.9 7190.35 -663.296
   vertex 19233.9 7292.59 -466.012
   vertex 19355.4 7082.19 -477.098
  endloop
 endfacet
 facet normal 0.866018 0.500013 -8.08902e-07
  outer loop
   vertex 19233.9 7292.59 -466.012
   vertex 19282.2 7208.86 -248.479
   vertex 19355.4 7082.19 -477.098
  endloop
 endfacet
 facet normal 0.866015 0.500018 1.27393e-06
  outer loop
   vertex 19233.9 7292.59 -466.012
   vertex 19190 7368.57 -242.563
   vertex 19282.2 7208.86 -248.479
  endloop
 endfacet
 facet normal 0.866015 0.500018 -3.00832e-06
  outer loop
   vertex 19226 7306.24 -7.65681e-09
   vertex 19282.2 7208.86 -248.479
   vertex 19190 7368.57 -242.563
  endloop
 endfacet
 facet normal 0.866014 0.50002 -2.12426e-06
  outer loop
   vertex 19190 7368.57 -242.563
   vertex 19163 7415.31 6.46651e-10
   vertex 19226 7306.24 -7.65681e-09
  endloop
 endfacet
 facet normal 0.866014 0.50002 2.12426e-06
  outer loop
   vertex 19190 7368.57 242.563
   vertex 19226 7306.24 -7.65681e-09
   vertex 19163 7415.31 6.46651e-10
  endloop
 endfacet
 facet normal 0.866025 0.500001 5.07589e-07
  outer loop
   vertex 19177.7 7389.89 393.453
   vertex 19190 7368.57 242.563
   vertex 19154.4 7430.29 199.179
  endloop
 endfacet
 facet normal 0.866026 0.499999 -3.43437e-06
  outer loop
   vertex 19163 7415.31 6.46651e-10
   vertex 19154.4 7430.29 199.179
   vertex 19190 7368.57 242.563
  endloop
 endfacet
 facet normal 0.866023 0.500004 4.55408e-06
  outer loop
   vertex 20072.2 5840.62 -1134.47
   vertex 19979.9 6000.47 -1210.92
   vertex 20016.2 5937.64 -1098.57
  endloop
 endfacet
 facet normal 0.866019 0.500012 1.02679e-05
  outer loop
   vertex 20016.2 5937.64 -1098.57
   vertex 19979.9 6000.47 -1210.92
   vertex 19904.5 6131.15 -1186.3
  endloop
 endfacet
 facet normal 0.866021 0.500008 -2.66975e-06
  outer loop
   vertex 20016.2 5937.64 -1098.57
   vertex 19904.5 6131.15 -1186.3
   vertex 19907.4 6126.02 -1001.88
  endloop
 endfacet
 facet normal 0.86602 0.500009 -2.61338e-06
  outer loop
   vertex 19783.2 6341.21 -1114.32
   vertex 19907.4 6126.02 -1001.88
   vertex 19904.5 6131.15 -1186.3
  endloop
 endfacet
 facet normal 0.86602 0.50001 -0
  outer loop
   vertex 19907.4 6126.02 -1001.88
   vertex 19783.2 6341.21 -1114.32
   vertex 19783.2 6341.21 -858.288
  endloop
 endfacet
 facet normal 0.866016 0.500016 -0
  outer loop
   vertex 19783.2 6341.21 -858.288
   vertex 19783.2 6341.21 -1114.32
   vertex 19658.9 6556.4 -1001.88
  endloop
 endfacet
 facet normal 0.866017 0.500015 -1.90206e-06
  outer loop
   vertex 19783.2 6341.21 -858.288
   vertex 19658.9 6556.4 -1001.88
   vertex 19660.6 6553.47 -679.53
  endloop
 endfacet
 facet normal 0.866021 0.500008 -1.99309e-06
  outer loop
   vertex 19544.6 6754.39 -855.618
   vertex 19660.6 6553.47 -679.53
   vertex 19658.9 6556.4 -1001.88
  endloop
 endfacet
 facet normal 0.86602 0.50001 1.78832e-06
  outer loop
   vertex 19660.6 6553.47 -679.53
   vertex 19544.6 6754.39 -855.618
   vertex 19546.4 6751.25 -473.471
  endloop
 endfacet
 facet normal 0.86602 0.500009 1.7808e-06
  outer loop
   vertex 19443.2 6930.07 -679.965
   vertex 19546.4 6751.25 -473.471
   vertex 19544.6 6754.39 -855.618
  endloop
 endfacet
 facet normal 0.866021 0.500008 1.54913e-06
  outer loop
   vertex 19443.4 6929.7 -245.094
   vertex 19546.4 6751.25 -473.471
   vertex 19355.4 7082.19 -477.098
  endloop
 endfacet
 facet normal 0.866021 0.500008 6.26706e-07
  outer loop
   vertex 19443.2 6930.07 -679.965
   vertex 19355.4 7082.19 -477.098
   vertex 19546.4 6751.25 -473.471
  endloop
 endfacet
 facet normal 0.86602 0.500009 1.55874e-06
  outer loop
   vertex 19354 7084.5 2.64043e-08
   vertex 19443.4 6929.7 -245.094
   vertex 19282.2 7208.86 -248.479
  endloop
 endfacet
 facet normal 0.86602 0.500009 2.33142e-06
  outer loop
   vertex 19355.4 7082.19 -477.098
   vertex 19282.2 7208.86 -248.479
   vertex 19443.4 6929.7 -245.094
  endloop
 endfacet
 facet normal 0.86602 0.500009 -1.46925e-06
  outer loop
   vertex 19282.2 7208.86 248.479
   vertex 19354 7084.5 2.64043e-08
   vertex 19226 7306.24 -7.65681e-09
  endloop
 endfacet
 facet normal 0.86602 0.500009 1.46925e-06
  outer loop
   vertex 19226 7306.24 -7.65681e-09
   vertex 19354 7084.5 2.64043e-08
   vertex 19282.2 7208.86 -248.479
  endloop
 endfacet
 facet normal 0.866015 0.500018 -1.27393e-06
  outer loop
   vertex 19233.9 7292.59 466.012
   vertex 19282.2 7208.86 248.479
   vertex 19190 7368.57 242.563
  endloop
 endfacet
 facet normal 0.866015 0.500018 3.00832e-06
  outer loop
   vertex 19226 7306.24 -7.65681e-09
   vertex 19190 7368.57 242.563
   vertex 19282.2 7208.86 248.479
  endloop
 endfacet
 facet normal 0.866016 0.500017 6.57399e-07
  outer loop
   vertex 19215.9 7323.68 578.039
   vertex 19233.9 7292.59 466.012
   vertex 19177.7 7389.89 393.453
  endloop
 endfacet
 facet normal 0.866017 0.500015 -2.25969e-06
  outer loop
   vertex 19190 7368.57 242.563
   vertex 19177.7 7389.89 393.453
   vertex 19233.9 7292.59 466.012
  endloop
 endfacet
 facet normal 0.866018 0.500013 -5.9676e-06
  outer loop
   vertex 20157.4 5693.09 -1030.07
   vertex 20072.2 5840.62 -1134.47
   vertex 20114.8 5766.78 -980.507
  endloop
 endfacet
 facet normal 0.866021 0.500008 -8.96156e-06
  outer loop
   vertex 20016.2 5937.64 -1098.57
   vertex 20114.8 5766.78 -980.507
   vertex 20072.2 5840.62 -1134.47
  endloop
 endfacet
 facet normal 0.866018 0.500013 4.38162e-07
  outer loop
   vertex 20114.8 5766.78 -980.507
   vertex 20016.2 5937.64 -1098.57
   vertex 20021.7 5928.03 -855.618
  endloop
 endfacet
 facet normal 0.866022 0.500006 9.96452e-08
  outer loop
   vertex 19907.4 6126.02 -1001.88
   vertex 20021.7 5928.03 -855.618
   vertex 20016.2 5937.64 -1098.57
  endloop
 endfacet
 facet normal 0.86602 0.500009 1.97399e-06
  outer loop
   vertex 19783.2 6341.21 -858.288
   vertex 19905.7 6128.95 -679.53
   vertex 19907.4 6126.02 -1001.88
  endloop
 endfacet
 facet normal 0.866021 0.500008 1.99309e-06
  outer loop
   vertex 20021.7 5928.03 -855.618
   vertex 19907.4 6126.02 -1001.88
   vertex 19905.7 6128.95 -679.53
  endloop
 endfacet
 facet normal 0.866017 0.500014 0
  outer loop
   vertex 19660.6 6553.47 -679.53
   vertex 19783.2 6341.21 -470.837
   vertex 19783.2 6341.21 -858.288
  endloop
 endfacet
 facet normal 0.866021 0.500008 -0
  outer loop
   vertex 19905.7 6128.95 -679.53
   vertex 19783.2 6341.21 -858.288
   vertex 19783.2 6341.21 -470.837
  endloop
 endfacet
 facet normal 0.866017 0.500014 3.06398e-08
  outer loop
   vertex 19783.2 6341.21 -470.837
   vertex 19660.6 6553.47 -679.53
   vertex 19662.4 6550.46 -241.622
  endloop
 endfacet
 facet normal 0.866019 0.500011 8.19945e-09
  outer loop
   vertex 19546.4 6751.25 -473.471
   vertex 19662.4 6550.46 -241.622
   vertex 19660.6 6553.47 -679.53
  endloop
 endfacet
 facet normal 0.866019 0.500011 -2.59903e-06
  outer loop
   vertex 19547.8 6748.96 -8.87064e-09
   vertex 19662.4 6550.46 -241.622
   vertex 19443.4 6929.7 -245.094
  endloop
 endfacet
 facet normal 0.866019 0.500011 -8.62677e-07
  outer loop
   vertex 19546.4 6751.25 -473.471
   vertex 19443.4 6929.7 -245.094
   vertex 19662.4 6550.46 -241.622
  endloop
 endfacet
 facet normal 0.866018 0.500012 -1.00248e-06
  outer loop
   vertex 19443.4 6929.7 -245.094
   vertex 19354 7084.5 2.64043e-08
   vertex 19547.8 6748.96 -8.87064e-09
  endloop
 endfacet
 facet normal 0.866018 0.500012 1.00248e-06
  outer loop
   vertex 19354 7084.5 2.64043e-08
   vertex 19443.4 6929.7 245.094
   vertex 19547.8 6748.96 -8.87064e-09
  endloop
 endfacet
 facet normal 0.86602 0.500009 -1.55874e-06
  outer loop
   vertex 19354 7084.5 2.64043e-08
   vertex 19282.2 7208.86 248.479
   vertex 19443.4 6929.7 245.094
  endloop
 endfacet
 facet normal 0.86602 0.500009 -2.33142e-06
  outer loop
   vertex 19355.4 7082.19 477.098
   vertex 19443.4 6929.7 245.094
   vertex 19282.2 7208.86 248.479
  endloop
 endfacet
 facet normal 0.866018 0.500013 -4.36591e-06
  outer loop
   vertex 19292.9 7190.35 663.296
   vertex 19355.4 7082.19 477.098
   vertex 19233.9 7292.59 466.012
  endloop
 endfacet
 facet normal 0.866018 0.500013 8.08902e-07
  outer loop
   vertex 19233.9 7292.59 466.012
   vertex 19355.4 7082.19 477.098
   vertex 19282.2 7208.86 248.479
  endloop
 endfacet
 facet normal 0.866016 0.500017 -5.59317e-06
  outer loop
   vertex 19268.1 7233.27 748.392
   vertex 19292.9 7190.35 663.296
   vertex 19215.9 7323.68 578.039
  endloop
 endfacet
 facet normal 0.866014 0.500019 -1.97939e-07
  outer loop
   vertex 19233.9 7292.59 466.012
   vertex 19215.9 7323.68 578.039
   vertex 19292.9 7190.35 663.296
  endloop
 endfacet
 facet normal 0.866019 0.500011 -2.50579e-06
  outer loop
   vertex 20114.8 5766.78 -980.507
   vertex 20200.6 5618.2 -834.87
   vertex 20157.4 5693.09 -1030.07
  endloop
 endfacet
 facet normal 0.866016 0.500016 1.51676e-07
  outer loop
   vertex 20233.4 5561.52 -900.317
   vertex 20157.4 5693.09 -1030.07
   vertex 20200.6 5618.2 -834.87
  endloop
 endfacet
 facet normal 0.866018 0.500012 1.87537e-06
  outer loop
   vertex 20021.7 5928.03 -855.618
   vertex 20123.2 5752.35 -679.965
   vertex 20114.8 5766.78 -980.507
  endloop
 endfacet
 facet normal 0.866017 0.500014 2.01784e-06
  outer loop
   vertex 20200.6 5618.2 -834.87
   vertex 20114.8 5766.78 -980.507
   vertex 20123.2 5752.35 -679.965
  endloop
 endfacet
 facet normal 0.86602 0.50001 -1.78832e-06
  outer loop
   vertex 19905.7 6128.95 -679.53
   vertex 20019.9 5931.18 -473.471
   vertex 20021.7 5928.03 -855.618
  endloop
 endfacet
 facet normal 0.86602 0.500009 -1.7808e-06
  outer loop
   vertex 20123.2 5752.35 -679.965
   vertex 20021.7 5928.03 -855.618
   vertex 20019.9 5931.18 -473.471
  endloop
 endfacet
 facet normal 0.866021 0.500008 2.44583e-08
  outer loop
   vertex 19783.2 6341.21 -470.837
   vertex 19904 6131.96 -241.622
   vertex 19905.7 6128.95 -679.53
  endloop
 endfacet
 facet normal 0.866019 0.500011 -8.19945e-09
  outer loop
   vertex 20019.9 5931.18 -473.471
   vertex 19905.7 6128.95 -679.53
   vertex 19904 6131.96 -241.622
  endloop
 endfacet
 facet normal 0.866017 0.500014 0
  outer loop
   vertex 19662.4 6550.46 -241.622
   vertex 19783.2 6341.21 -1.13687e-13
   vertex 19783.2 6341.21 -470.837
  endloop
 endfacet
 facet normal 0.866021 0.500008 0
  outer loop
   vertex 19783.2 6341.21 -470.837
   vertex 19783.2 6341.21 -1.13687e-13
   vertex 19904 6131.96 -241.622
  endloop
 endfacet
 facet normal 0.866019 0.500011 3.1562e-06
  outer loop
   vertex 19662.4 6550.46 241.622
   vertex 19783.2 6341.21 -1.13687e-13
   vertex 19547.8 6748.96 -8.87064e-09
  endloop
 endfacet
 facet normal 0.866019 0.500011 -3.1562e-06
  outer loop
   vertex 19662.4 6550.46 -241.622
   vertex 19547.8 6748.96 -8.87064e-09
   vertex 19783.2 6341.21 -1.13687e-13
  endloop
 endfacet
 facet normal 0.866019 0.500011 2.59903e-06
  outer loop
   vertex 19547.8 6748.96 -8.87064e-09
   vertex 19443.4 6929.7 245.094
   vertex 19662.4 6550.46 241.622
  endloop
 endfacet
 facet normal 0.866019 0.500011 8.62677e-07
  outer loop
   vertex 19546.4 6751.25 473.471
   vertex 19662.4 6550.46 241.622
   vertex 19443.4 6929.7 245.094
  endloop
 endfacet
 facet normal 0.866021 0.500008 -1.54913e-06
  outer loop
   vertex 19443.4 6929.7 245.094
   vertex 19355.4 7082.19 477.098
   vertex 19546.4 6751.25 473.471
  endloop
 endfacet
 facet normal 0.866021 0.500008 -6.26706e-07
  outer loop
   vertex 19443.2 6930.07 679.965
   vertex 19546.4 6751.25 473.471
   vertex 19355.4 7082.19 477.098
  endloop
 endfacet
 facet normal 0.866021 0.500008 -5.74945e-07
  outer loop
   vertex 19355.4 7082.19 477.098
   vertex 19292.9 7190.35 663.296
   vertex 19443.2 6930.07 679.965
  endloop
 endfacet
 facet normal 0.866021 0.500008 -1.99393e-06
  outer loop
   vertex 19365.7 7064.22 834.87
   vertex 19443.2 6930.07 679.965
   vertex 19292.9 7190.35 663.296
  endloop
 endfacet
 facet normal 0.86602 0.50001 -7.75084e-07
  outer loop
   vertex 19292.9 7190.35 663.296
   vertex 19268.1 7233.27 748.392
   vertex 19365.7 7064.22 834.87
  endloop
 endfacet
 facet normal 0.866019 0.500011 2.56979e-06
  outer loop
   vertex 19333 7120.9 900.317
   vertex 19365.7 7064.22 834.87
   vertex 19268.1 7233.27 748.392
  endloop
 endfacet
 facet normal 0.86602 0.50001 -7.75084e-07
  outer loop
   vertex 20273.4 5492.07 -663.296
   vertex 20298.2 5449.15 -748.392
   vertex 20200.6 5618.2 -834.87
  endloop
 endfacet
 facet normal 0.866019 0.500012 5.15496e-06
  outer loop
   vertex 20200.6 5618.2 -834.87
   vertex 20298.2 5449.15 -748.392
   vertex 20233.4 5561.52 -900.317
  endloop
 endfacet
 facet normal 0.866018 0.500014 4.54388e-06
  outer loop
   vertex 20211 5600.23 -477.098
   vertex 20273.4 5492.07 -663.296
   vertex 20123.2 5752.35 -679.965
  endloop
 endfacet
 facet normal 0.866018 0.500013 3.0193e-06
  outer loop
   vertex 20200.6 5618.2 -834.87
   vertex 20123.2 5752.35 -679.965
   vertex 20273.4 5492.07 -663.296
  endloop
 endfacet
 facet normal 0.866021 0.500008 -1.54913e-06
  outer loop
   vertex 20123 5752.72 -245.094
   vertex 20211 5600.23 -477.098
   vertex 20019.9 5931.18 -473.471
  endloop
 endfacet
 facet normal 0.866021 0.500008 -6.26706e-07
  outer loop
   vertex 20123.2 5752.35 -679.965
   vertex 20019.9 5931.18 -473.471
   vertex 20211 5600.23 -477.098
  endloop
 endfacet
 facet normal 0.866019 0.500011 2.59903e-06
  outer loop
   vertex 20018.6 5933.46 8.8705e-09
   vertex 20123 5752.72 -245.094
   vertex 19904 6131.96 -241.622
  endloop
 endfacet
 facet normal 0.866019 0.500011 8.62677e-07
  outer loop
   vertex 20019.9 5931.18 -473.471
   vertex 19904 6131.96 -241.622
   vertex 20123 5752.72 -245.094
  endloop
 endfacet
 facet normal 0.866021 0.500008 -2.51755e-07
  outer loop
   vertex 19904 6131.96 -241.622
   vertex 19783.2 6341.21 -1.13687e-13
   vertex 20018.6 5933.46 8.8705e-09
  endloop
 endfacet
 facet normal 0.866021 0.500008 2.51755e-07
  outer loop
   vertex 19904 6131.96 241.622
   vertex 20018.6 5933.46 8.8705e-09
   vertex 19783.2 6341.21 -1.13687e-13
  endloop
 endfacet
 facet normal 0.866017 0.500014 0
  outer loop
   vertex 19662.4 6550.46 241.622
   vertex 19783.2 6341.21 470.837
   vertex 19783.2 6341.21 -1.13687e-13
  endloop
 endfacet
 facet normal 0.866021 0.500008 0
  outer loop
   vertex 19783.2 6341.21 -1.13687e-13
   vertex 19783.2 6341.21 470.837
   vertex 19904 6131.96 241.622
  endloop
 endfacet
 facet normal 0.866017 0.500014 -3.06398e-08
  outer loop
   vertex 19783.2 6341.21 470.837
   vertex 19662.4 6550.46 241.622
   vertex 19660.6 6553.47 679.53
  endloop
 endfacet
 facet normal 0.866019 0.500011 -8.19945e-09
  outer loop
   vertex 19546.4 6751.25 473.471
   vertex 19660.6 6553.47 679.53
   vertex 19662.4 6550.46 241.622
  endloop
 endfacet
 facet normal 0.86602 0.50001 -1.78832e-06
  outer loop
   vertex 19660.6 6553.47 679.53
   vertex 19546.4 6751.25 473.471
   vertex 19544.6 6754.39 855.618
  endloop
 endfacet
 facet normal 0.86602 0.500009 -1.7808e-06
  outer loop
   vertex 19443.2 6930.07 679.965
   vertex 19544.6 6754.39 855.618
   vertex 19546.4 6751.25 473.471
  endloop
 endfacet
 facet normal 0.866018 0.500013 2.72871e-06
  outer loop
   vertex 19544.6 6754.39 855.618
   vertex 19443.2 6930.07 679.965
   vertex 19451.5 6915.64 980.507
  endloop
 endfacet
 facet normal 0.866023 0.500005 2.21372e-06
  outer loop
   vertex 19365.7 7064.22 834.87
   vertex 19451.5 6915.64 980.507
   vertex 19443.2 6930.07 679.965
  endloop
 endfacet
 facet normal 0.866021 0.500007 5.37613e-06
  outer loop
   vertex 19451.5 6915.64 980.507
   vertex 19365.7 7064.22 834.87
   vertex 19409 6989.33 1030.07
  endloop
 endfacet
 facet normal 0.866021 0.500008 5.87799e-06
  outer loop
   vertex 19333 7120.9 900.317
   vertex 19409 6989.33 1030.07
   vertex 19365.7 7064.22 834.87
  endloop
 endfacet
 facet normal 0.866024 0.500002 4.08391e-06
  outer loop
   vertex 20298.2 5449.15 -748.392
   vertex 20273.4 5492.07 -663.296
   vertex 20350.4 5358.74 -578.039
  endloop
 endfacet
 facet normal 0.866024 0.500003 5.78181e-06
  outer loop
   vertex 20332.5 5389.83 -466.012
   vertex 20350.4 5358.74 -578.039
   vertex 20273.4 5492.07 -663.296
  endloop
 endfacet
 facet normal 0.866021 0.500008 8.9795e-06
  outer loop
   vertex 20273.4 5492.07 -663.296
   vertex 20211 5600.23 -477.098
   vertex 20332.5 5389.83 -466.012
  endloop
 endfacet
 facet normal 0.866021 0.500007 -3.77927e-06
  outer loop
   vertex 20211 5600.23 -477.098
   vertex 20284.1 5473.56 -248.479
   vertex 20332.5 5389.83 -466.012
  endloop
 endfacet
 facet normal 0.86602 0.500009 -2.5473e-06
  outer loop
   vertex 20212.3 5597.92 -2.64041e-08
   vertex 20284.1 5473.56 -248.479
   vertex 20123 5752.72 -245.094
  endloop
 endfacet
 facet normal 0.86602 0.500009 -2.33142e-06
  outer loop
   vertex 20211 5600.23 -477.098
   vertex 20123 5752.72 -245.094
   vertex 20284.1 5473.56 -248.479
  endloop
 endfacet
 facet normal 0.866018 0.500013 -4.65931e-07
  outer loop
   vertex 20123 5752.72 245.094
   vertex 20212.3 5597.92 -2.64041e-08
   vertex 20018.6 5933.46 8.8705e-09
  endloop
 endfacet
 facet normal 0.866018 0.500013 4.65931e-07
  outer loop
   vertex 20123 5752.72 -245.094
   vertex 20018.6 5933.46 8.8705e-09
   vertex 20212.3 5597.92 -2.64041e-08
  endloop
 endfacet
 facet normal 0.866019 0.500011 -2.59903e-06
  outer loop
   vertex 20018.6 5933.46 8.8705e-09
   vertex 19904 6131.96 241.622
   vertex 20123 5752.72 245.094
  endloop
 endfacet
 facet normal 0.866019 0.500011 -8.62677e-07
  outer loop
   vertex 20019.9 5931.18 473.471
   vertex 20123 5752.72 245.094
   vertex 19904 6131.96 241.622
  endloop
 endfacet
 facet normal 0.866021 0.500008 -2.44583e-08
  outer loop
   vertex 19783.2 6341.21 470.837
   vertex 19905.7 6128.95 679.53
   vertex 19904 6131.96 241.622
  endloop
 endfacet
 facet normal 0.866019 0.500011 8.19945e-09
  outer loop
   vertex 20019.9 5931.18 473.471
   vertex 19904 6131.96 241.622
   vertex 19905.7 6128.95 679.53
  endloop
 endfacet
 facet normal 0.866017 0.500014 0
  outer loop
   vertex 19660.6 6553.47 679.53
   vertex 19783.2 6341.21 858.288
   vertex 19783.2 6341.21 470.837
  endloop
 endfacet
 facet normal 0.866021 0.500008 -0
  outer loop
   vertex 19905.7 6128.95 679.53
   vertex 19783.2 6341.21 470.837
   vertex 19783.2 6341.21 858.288
  endloop
 endfacet
 facet normal 0.866017 0.500015 1.90206e-06
  outer loop
   vertex 19783.2 6341.21 858.288
   vertex 19660.6 6553.47 679.53
   vertex 19658.9 6556.4 1001.88
  endloop
 endfacet
 facet normal 0.866021 0.500008 1.99309e-06
  outer loop
   vertex 19544.6 6754.39 855.618
   vertex 19658.9 6556.4 1001.88
   vertex 19660.6 6553.47 679.53
  endloop
 endfacet
 facet normal 0.866017 0.500014 4.96216e-07
  outer loop
   vertex 19451.5 6915.64 980.507
   vertex 19550.2 6744.79 1098.57
   vertex 19544.6 6754.39 855.618
  endloop
 endfacet
 facet normal 0.866022 0.500006 9.96452e-08
  outer loop
   vertex 19658.9 6556.4 1001.88
   vertex 19544.6 6754.39 855.618
   vertex 19550.2 6744.79 1098.57
  endloop
 endfacet
 facet normal 0.86602 0.500009 1.14031e-06
  outer loop
   vertex 19409 6989.33 1030.07
   vertex 19494.2 6841.8 1134.47
   vertex 19451.5 6915.64 980.507
  endloop
 endfacet
 facet normal 0.866016 0.500017 6.1234e-06
  outer loop
   vertex 19451.5 6915.64 980.507
   vertex 19494.2 6841.8 1134.47
   vertex 19550.2 6744.79 1098.57
  endloop
 endfacet
 facet normal 0.866015 0.500019 8.04802e-08
  outer loop
   vertex 20350.4 5358.74 -578.039
   vertex 20332.5 5389.83 -466.012
   vertex 20388.7 5292.53 -393.453
  endloop
 endfacet
 facet normal 0.866016 0.500017 -2.58051e-06
  outer loop
   vertex 20376.3 5313.85 -242.563
   vertex 20388.7 5292.53 -393.453
   vertex 20332.5 5389.83 -466.012
  endloop
 endfacet
 facet normal 0.866019 0.500011 -5.50109e-06
  outer loop
   vertex 20332.5 5389.83 -466.012
   vertex 20284.1 5473.56 -248.479
   vertex 20376.3 5313.85 -242.563
  endloop
 endfacet
 facet normal 0.866019 0.500011 -1.59233e-06
  outer loop
   vertex 20340.4 5376.19 7.65692e-09
   vertex 20376.3 5313.85 -242.563
   vertex 20284.1 5473.56 -248.479
  endloop
 endfacet
 facet normal 0.86602 0.500009 -2.4518e-06
  outer loop
   vertex 20284.1 5473.56 -248.479
   vertex 20212.3 5597.92 -2.64041e-08
   vertex 20340.4 5376.19 7.65692e-09
  endloop
 endfacet
 facet normal 0.86602 0.500009 2.4518e-06
  outer loop
   vertex 20212.3 5597.92 -2.64041e-08
   vertex 20284.1 5473.56 248.479
   vertex 20340.4 5376.19 7.65692e-09
  endloop
 endfacet
 facet normal 0.86602 0.500009 2.5473e-06
  outer loop
   vertex 20212.3 5597.92 -2.64041e-08
   vertex 20123 5752.72 245.094
   vertex 20284.1 5473.56 248.479
  endloop
 endfacet
 facet normal 0.86602 0.500009 2.33142e-06
  outer loop
   vertex 20211 5600.23 477.098
   vertex 20284.1 5473.56 248.479
   vertex 20123 5752.72 245.094
  endloop
 endfacet
 facet normal 0.866021 0.500008 1.54913e-06
  outer loop
   vertex 20123 5752.72 245.094
   vertex 20019.9 5931.18 473.471
   vertex 20211 5600.23 477.098
  endloop
 endfacet
 facet normal 0.866021 0.500008 6.26706e-07
  outer loop
   vertex 20123.2 5752.35 679.965
   vertex 20211 5600.23 477.098
   vertex 20019.9 5931.18 473.471
  endloop
 endfacet
 facet normal 0.86602 0.50001 1.78832e-06
  outer loop
   vertex 19905.7 6128.95 679.53
   vertex 20021.7 5928.03 855.618
   vertex 20019.9 5931.18 473.471
  endloop
 endfacet
 facet normal 0.86602 0.500009 1.7808e-06
  outer loop
   vertex 20123.2 5752.35 679.965
   vertex 20019.9 5931.18 473.471
   vertex 20021.7 5928.03 855.618
  endloop
 endfacet
 facet normal 0.86602 0.500009 -1.97399e-06
  outer loop
   vertex 19783.2 6341.21 858.288
   vertex 19907.4 6126.02 1001.88
   vertex 19905.7 6128.95 679.53
  endloop
 endfacet
 facet normal 0.866021 0.500008 -1.99309e-06
  outer loop
   vertex 20021.7 5928.03 855.618
   vertex 19905.7 6128.95 679.53
   vertex 19907.4 6126.02 1001.88
  endloop
 endfacet
 facet normal 0.86602 0.50001 -0
  outer loop
   vertex 19907.4 6126.02 1001.88
   vertex 19783.2 6341.21 858.288
   vertex 19783.2 6341.21 1114.32
  endloop
 endfacet
 facet normal 0.866016 0.500016 -0
  outer loop
   vertex 19783.2 6341.21 1114.32
   vertex 19783.2 6341.21 858.288
   vertex 19658.9 6556.4 1001.88
  endloop
 endfacet
 facet normal 0.866021 0.500008 -2.66975e-06
  outer loop
   vertex 19550.2 6744.79 1098.57
   vertex 19661.9 6551.27 1186.3
   vertex 19658.9 6556.4 1001.88
  endloop
 endfacet
 facet normal 0.866017 0.500015 -2.39175e-06
  outer loop
   vertex 19783.2 6341.21 1114.32
   vertex 19658.9 6556.4 1001.88
   vertex 19661.9 6551.27 1186.3
  endloop
 endfacet
 facet normal 0.866015 0.500019 1.59705e-07
  outer loop
   vertex 19494.2 6841.8 1134.47
   vertex 19586.5 6681.95 1210.92
   vertex 19550.2 6744.79 1098.57
  endloop
 endfacet
 facet normal 0.866022 0.500005 -9.90031e-06
  outer loop
   vertex 19661.9 6551.27 1186.3
   vertex 19550.2 6744.79 1098.57
   vertex 19586.5 6681.95 1210.92
  endloop
 endfacet
 facet normal 0.866027 0.499998 1.01614e-06
  outer loop
   vertex 20388.7 5292.53 -393.453
   vertex 20376.3 5313.85 -242.563
   vertex 20412 5252.14 -199.179
  endloop
 endfacet
 facet normal 0.866025 0.5 4.91394e-06
  outer loop
   vertex 20412 5252.14 -199.179
   vertex 20376.3 5313.85 -242.563
   vertex 20403.3 5267.12 -6.46651e-10
  endloop
 endfacet
 facet normal 0.866028 0.499995 -3.69661e-06
  outer loop
   vertex 20376.3 5313.85 242.563
   vertex 20403.3 5267.12 -6.46651e-10
   vertex 20340.4 5376.19 7.65692e-09
  endloop
 endfacet
 facet normal 0.866028 0.499995 3.69661e-06
  outer loop
   vertex 20376.3 5313.85 -242.563
   vertex 20340.4 5376.19 7.65692e-09
   vertex 20403.3 5267.12 -6.46651e-10
  endloop
 endfacet
 facet normal 0.866019 0.500011 5.50109e-06
  outer loop
   vertex 20332.5 5389.83 466.012
   vertex 20376.3 5313.85 242.563
   vertex 20284.1 5473.56 248.479
  endloop
 endfacet
 facet normal 0.866019 0.500011 1.59233e-06
  outer loop
   vertex 20340.4 5376.19 7.65692e-09
   vertex 20284.1 5473.56 248.479
   vertex 20376.3 5313.85 242.563
  endloop
 endfacet
 facet normal 0.866021 0.500008 -8.9795e-06
  outer loop
   vertex 20273.4 5492.07 663.296
   vertex 20332.5 5389.83 466.012
   vertex 20211 5600.23 477.098
  endloop
 endfacet
 facet normal 0.866021 0.500007 3.77927e-06
  outer loop
   vertex 20211 5600.23 477.098
   vertex 20332.5 5389.83 466.012
   vertex 20284.1 5473.56 248.479
  endloop
 endfacet
 facet normal 0.866018 0.500014 -4.54388e-06
  outer loop
   vertex 20211 5600.23 477.098
   vertex 20123.2 5752.35 679.965
   vertex 20273.4 5492.07 663.296
  endloop
 endfacet
 facet normal 0.866018 0.500013 -3.0193e-06
  outer loop
   vertex 20200.6 5618.2 834.87
   vertex 20273.4 5492.07 663.296
   vertex 20123.2 5752.35 679.965
  endloop
 endfacet
 facet normal 0.866018 0.500012 -1.87537e-06
  outer loop
   vertex 20021.7 5928.03 855.618
   vertex 20114.8 5766.78 980.507
   vertex 20123.2 5752.35 679.965
  endloop
 endfacet
 facet normal 0.866017 0.500014 -2.01784e-06
  outer loop
   vertex 20200.6 5618.2 834.87
   vertex 20123.2 5752.35 679.965
   vertex 20114.8 5766.78 980.507
  endloop
 endfacet
 facet normal 0.866018 0.500013 -4.38162e-07
  outer loop
   vertex 20114.8 5766.78 980.507
   vertex 20021.7 5928.03 855.618
   vertex 20016.2 5937.64 1098.57
  endloop
 endfacet
 facet normal 0.866022 0.500006 -9.96452e-08
  outer loop
   vertex 19907.4 6126.02 1001.88
   vertex 20016.2 5937.64 1098.57
   vertex 20021.7 5928.03 855.618
  endloop
 endfacet
 facet normal 0.866021 0.500008 2.66975e-06
  outer loop
   vertex 20016.2 5937.64 1098.57
   vertex 19907.4 6126.02 1001.88
   vertex 19904.5 6131.15 1186.3
  endloop
 endfacet
 facet normal 0.86602 0.500009 2.61338e-06
  outer loop
   vertex 19783.2 6341.21 1114.32
   vertex 19904.5 6131.15 1186.3
   vertex 19907.4 6126.02 1001.88
  endloop
 endfacet
 facet normal 0.866019 0.500012 1.34302e-05
  outer loop
   vertex 19904.5 6131.15 1186.3
   vertex 19783.2 6341.21 1114.32
   vertex 19783.2 6341.21 1240.27
  endloop
 endfacet
 facet normal 0.866019 0.500011 1.34302e-05
  outer loop
   vertex 19661.9 6551.27 1186.3
   vertex 19783.2 6341.21 1240.27
   vertex 19783.2 6341.21 1114.32
  endloop
 endfacet
 facet normal 0.866024 0.500003 6.64477e-06
  outer loop
   vertex 19586.5 6681.95 1210.92
   vertex 19683.6 6513.7 1257.56
   vertex 19661.9 6551.27 1186.3
  endloop
 endfacet
 facet normal 0.866019 0.500011 1.2277e-05
  outer loop
   vertex 19783.2 6341.21 1240.27
   vertex 19661.9 6551.27 1186.3
   vertex 19683.6 6513.7 1257.56
  endloop
 endfacet
 facet normal 0.865982 0.500076 -2.68271e-06
  outer loop
   vertex 20412 5252.14 -199.179
   vertex 20403.3 5267.12 -6.46651e-10
   vertex 20419.8 5238.56 1.76698e-13
  endloop
 endfacet
 facet normal 0.865982 0.500076 2.68271e-06
  outer loop
   vertex 20412 5252.14 199.179
   vertex 20419.8 5238.56 1.76698e-13
   vertex 20403.3 5267.12 -6.46651e-10
  endloop
 endfacet
 facet normal 0.866027 0.499998 -1.01614e-06
  outer loop
   vertex 20388.7 5292.53 393.453
   vertex 20412 5252.14 199.179
   vertex 20376.3 5313.85 242.563
  endloop
 endfacet
 facet normal 0.866025 0.5 -4.91394e-06
  outer loop
   vertex 20403.3 5267.12 -6.46651e-10
   vertex 20376.3 5313.85 242.563
   vertex 20412 5252.14 199.179
  endloop
 endfacet
 facet normal 0.866015 0.500019 -8.04802e-08
  outer loop
   vertex 20350.4 5358.74 578.039
   vertex 20388.7 5292.53 393.453
   vertex 20332.5 5389.83 466.012
  endloop
 endfacet
 facet normal 0.866016 0.500017 2.58051e-06
  outer loop
   vertex 20376.3 5313.85 242.563
   vertex 20332.5 5389.83 466.012
   vertex 20388.7 5292.53 393.453
  endloop
 endfacet
 facet normal 0.866024 0.500002 -4.08391e-06
  outer loop
   vertex 20298.2 5449.15 748.392
   vertex 20350.4 5358.74 578.039
   vertex 20273.4 5492.07 663.296
  endloop
 endfacet
 facet normal 0.866024 0.500003 -5.78181e-06
  outer loop
   vertex 20332.5 5389.83 466.012
   vertex 20273.4 5492.07 663.296
   vertex 20350.4 5358.74 578.039
  endloop
 endfacet
 facet normal 0.86602 0.50001 7.75084e-07
  outer loop
   vertex 20273.4 5492.07 663.296
   vertex 20200.6 5618.2 834.87
   vertex 20298.2 5449.15 748.392
  endloop
 endfacet
 facet normal 0.866019 0.500012 -5.15496e-06
  outer loop
   vertex 20200.6 5618.2 834.87
   vertex 20233.4 5561.52 900.317
   vertex 20298.2 5449.15 748.392
  endloop
 endfacet
 facet normal 0.866019 0.500011 2.50579e-06
  outer loop
   vertex 20114.8 5766.78 980.507
   vertex 20157.4 5693.09 1030.07
   vertex 20200.6 5618.2 834.87
  endloop
 endfacet
 facet normal 0.866016 0.500016 -1.51676e-07
  outer loop
   vertex 20233.4 5561.52 900.317
   vertex 20200.6 5618.2 834.87
   vertex 20157.4 5693.09 1030.07
  endloop
 endfacet
 facet normal 0.866018 0.500013 5.9676e-06
  outer loop
   vertex 20157.4 5693.09 1030.07
   vertex 20114.8 5766.78 980.507
   vertex 20072.2 5840.62 1134.47
  endloop
 endfacet
 facet normal 0.866021 0.500008 8.96156e-06
  outer loop
   vertex 20016.2 5937.64 1098.57
   vertex 20072.2 5840.62 1134.47
   vertex 20114.8 5766.78 980.507
  endloop
 endfacet
 facet normal 0.866023 0.500004 -4.55408e-06
  outer loop
   vertex 20072.2 5840.62 1134.47
   vertex 20016.2 5937.64 1098.57
   vertex 19979.9 6000.47 1210.92
  endloop
 endfacet
 facet normal 0.866019 0.500012 -1.02679e-05
  outer loop
   vertex 19979.9 6000.47 1210.92
   vertex 20016.2 5937.64 1098.57
   vertex 19904.5 6131.15 1186.3
  endloop
 endfacet
 facet normal 0.866017 0.500015 8.73716e-06
  outer loop
   vertex 19979.9 6000.47 1210.92
   vertex 19904.5 6131.15 1186.3
   vertex 19882.8 6168.72 1257.56
  endloop
 endfacet
 facet normal 0.866018 0.500012 1.02652e-05
  outer loop
   vertex 19783.2 6341.21 1240.27
   vertex 19882.8 6168.72 1257.56
   vertex 19904.5 6131.15 1186.3
  endloop
 endfacet
 facet normal 0.866021 0.500008 -5.12958e-05
  outer loop
   vertex 19882.8 6168.72 1257.56
   vertex 19783.2 6341.21 1240.27
   vertex 19783.2 6341.21 1273.24
  endloop
 endfacet
 facet normal 0.866016 0.500016 -5.12956e-05
  outer loop
   vertex 19683.6 6513.7 1257.56
   vertex 19783.2 6341.21 1273.24
   vertex 19783.2 6341.21 1240.27
  endloop
 endfacet
endsolid
