solid ascii
 facet normal -1 0 0
  outer loop
   vertex -3882.35 199.179 -1257.56
   vertex -3882.35 0 -1273.24
   vertex -3882.35 6.46764e-10 -1240.27
  endloop
 endfacet
 facet normal -1 0 0
  outer loop
   vertex -3882.35 -199.179 -1257.56
   vertex -3882.35 6.46764e-10 -1240.27
   vertex -3882.35 0 -1273.24
  endloop
 endfacet
 facet normal -1 0 -0
  outer loop
   vertex -3882.35 -393.453 -1210.92
   vertex -3882.35 -242.563 -1186.3
   vertex -3882.35 -199.179 -1257.56
  endloop
 endfacet
 facet normal -1 0 0
  outer loop
   vertex -3882.35 6.46764e-10 -1240.27
   vertex -3882.35 -199.179 -1257.56
   vertex -3882.35 -242.563 -1186.3
  endloop
 endfacet
 facet normal -1 0 -0
  outer loop
   vertex -3882.35 -578.039 -1134.47
   vertex -3882.35 -466.012 -1098.57
   vertex -3882.35 -393.453 -1210.92
  endloop
 endfacet
 facet normal -1 0 0
  outer loop
   vertex -3882.35 -242.563 -1186.3
   vertex -3882.35 -393.453 -1210.92
   vertex -3882.35 -466.012 -1098.57
  endloop
 endfacet
 facet normal -1 0 -0
  outer loop
   vertex -3882.35 -748.392 -1030.07
   vertex -3882.35 -663.296 -980.507
   vertex -3882.35 -578.039 -1134.47
  endloop
 endfacet
 facet normal -1 0 0
  outer loop
   vertex -3882.35 -466.012 -1098.57
   vertex -3882.35 -578.039 -1134.47
   vertex -3882.35 -663.296 -980.507
  endloop
 endfacet
 facet normal -1 0 0
  outer loop
   vertex -3882.35 -663.296 -980.507
   vertex -3882.35 -748.392 -1030.07
   vertex -3882.35 -834.87 -834.87
  endloop
 endfacet
 facet normal -1 0 -0
  outer loop
   vertex -3882.35 -900.317 -900.317
   vertex -3882.35 -834.87 -834.87
   vertex -3882.35 -748.392 -1030.07
  endloop
 endfacet
 facet normal -1 0 0
  outer loop
   vertex -3882.35 -980.507 -663.296
   vertex -3882.35 -834.87 -834.87
   vertex -3882.35 -1030.07 -748.392
  endloop
 endfacet
 facet normal -1 0 0
  outer loop
   vertex -3882.35 -900.317 -900.317
   vertex -3882.35 -1030.07 -748.392
   vertex -3882.35 -834.87 -834.87
  endloop
 endfacet
 facet normal -1 0 0
  outer loop
   vertex -3882.35 -1030.07 -748.392
   vertex -3882.35 -1134.47 -578.039
   vertex -3882.35 -980.507 -663.296
  endloop
 endfacet
 facet normal -1 0 0
  outer loop
   vertex -3882.35 -1098.57 -466.012
   vertex -3882.35 -980.507 -663.296
   vertex -3882.35 -1134.47 -578.039
  endloop
 endfacet
 facet normal -1 0 0
  outer loop
   vertex -3882.35 -1134.47 -578.039
   vertex -3882.35 -1210.92 -393.453
   vertex -3882.35 -1098.57 -466.012
  endloop
 endfacet
 facet normal -1 0 0
  outer loop
   vertex -3882.35 -1186.3 -242.563
   vertex -3882.35 -1098.57 -466.012
   vertex -3882.35 -1210.92 -393.453
  endloop
 endfacet
 facet normal -1 0 0
  outer loop
   vertex -3882.35 -1210.92 -393.453
   vertex -3882.35 -1257.56 -199.179
   vertex -3882.35 -1186.3 -242.563
  endloop
 endfacet
 facet normal -1 0 0
  outer loop
   vertex -3882.35 -1240.27 6.46651e-10
   vertex -3882.35 -1186.3 -242.563
   vertex -3882.35 -1257.56 -199.179
  endloop
 endfacet
 facet normal -1 -0 0
  outer loop
   vertex -3882.35 -1257.56 199.179
   vertex -3882.35 -1240.27 6.46651e-10
   vertex -3882.35 -1273.24 -2.82716e-13
  endloop
 endfacet
 facet normal -1 0 0
  outer loop
   vertex -3882.35 -1257.56 -199.179
   vertex -3882.35 -1273.24 -2.82716e-13
   vertex -3882.35 -1240.27 6.46651e-10
  endloop
 endfacet
 facet normal -1 0 0
  outer loop
   vertex -3882.35 393.453 -1210.92
   vertex -3882.35 199.179 -1257.56
   vertex -3882.35 242.563 -1186.3
  endloop
 endfacet
 facet normal -1 0 0
  outer loop
   vertex -3882.35 6.46764e-10 -1240.27
   vertex -3882.35 242.563 -1186.3
   vertex -3882.35 199.179 -1257.56
  endloop
 endfacet
 facet normal -1 0 -0
  outer loop
   vertex -3882.35 -242.563 -1186.3
   vertex -3882.35 -7.65692e-09 -1114.32
   vertex -3882.35 6.46764e-10 -1240.27
  endloop
 endfacet
 facet normal -1 0 0
  outer loop
   vertex -3882.35 6.46764e-10 -1240.27
   vertex -3882.35 -7.65692e-09 -1114.32
   vertex -3882.35 242.563 -1186.3
  endloop
 endfacet
 facet normal -1 0 -0
  outer loop
   vertex -3882.35 -466.012 -1098.57
   vertex -3882.35 -248.479 -1001.88
   vertex -3882.35 -242.563 -1186.3
  endloop
 endfacet
 facet normal -1 0 0
  outer loop
   vertex -3882.35 -7.65692e-09 -1114.32
   vertex -3882.35 -242.563 -1186.3
   vertex -3882.35 -248.479 -1001.88
  endloop
 endfacet
 facet normal -1 0 -0
  outer loop
   vertex -3882.35 -663.296 -980.507
   vertex -3882.35 -477.098 -855.618
   vertex -3882.35 -466.012 -1098.57
  endloop
 endfacet
 facet normal -1 0 0
  outer loop
   vertex -3882.35 -248.479 -1001.88
   vertex -3882.35 -466.012 -1098.57
   vertex -3882.35 -477.098 -855.618
  endloop
 endfacet
 facet normal -1 0 0
  outer loop
   vertex -3882.35 -477.098 -855.618
   vertex -3882.35 -663.296 -980.507
   vertex -3882.35 -679.965 -679.965
  endloop
 endfacet
 facet normal -1 0 0
  outer loop
   vertex -3882.35 -679.965 -679.965
   vertex -3882.35 -663.296 -980.507
   vertex -3882.35 -834.87 -834.87
  endloop
 endfacet
 facet normal -1 0 0
  outer loop
   vertex -3882.35 -855.618 -477.098
   vertex -3882.35 -679.965 -679.965
   vertex -3882.35 -980.507 -663.296
  endloop
 endfacet
 facet normal -1 0 0
  outer loop
   vertex -3882.35 -679.965 -679.965
   vertex -3882.35 -834.87 -834.87
   vertex -3882.35 -980.507 -663.296
  endloop
 endfacet
 facet normal -1 0 0
  outer loop
   vertex -3882.35 -980.507 -663.296
   vertex -3882.35 -1098.57 -466.012
   vertex -3882.35 -855.618 -477.098
  endloop
 endfacet
 facet normal -1 0 0
  outer loop
   vertex -3882.35 -1001.88 -248.479
   vertex -3882.35 -855.618 -477.098
   vertex -3882.35 -1098.57 -466.012
  endloop
 endfacet
 facet normal -1 0 0
  outer loop
   vertex -3882.35 -1098.57 -466.012
   vertex -3882.35 -1186.3 -242.563
   vertex -3882.35 -1001.88 -248.479
  endloop
 endfacet
 facet normal -1 0 0
  outer loop
   vertex -3882.35 -1114.32 -7.65681e-09
   vertex -3882.35 -1001.88 -248.479
   vertex -3882.35 -1186.3 -242.563
  endloop
 endfacet
 facet normal -1 0 0
  outer loop
   vertex -3882.35 -1186.3 -242.563
   vertex -3882.35 -1240.27 6.46651e-10
   vertex -3882.35 -1114.32 -7.65681e-09
  endloop
 endfacet
 facet normal -1 0 -0
  outer loop
   vertex -3882.35 -1240.27 6.46651e-10
   vertex -3882.35 -1186.3 242.563
   vertex -3882.35 -1114.32 -7.65681e-09
  endloop
 endfacet
 facet normal -1 -0 0
  outer loop
   vertex -3882.35 -1210.92 393.453
   vertex -3882.35 -1186.3 242.563
   vertex -3882.35 -1257.56 199.179
  endloop
 endfacet
 facet normal -1 0 0
  outer loop
   vertex -3882.35 -1240.27 6.46651e-10
   vertex -3882.35 -1257.56 199.179
   vertex -3882.35 -1186.3 242.563
  endloop
 endfacet
 facet normal -1 0 0
  outer loop
   vertex -3882.35 578.039 -1134.47
   vertex -3882.35 393.453 -1210.92
   vertex -3882.35 466.012 -1098.57
  endloop
 endfacet
 facet normal -1 0 0
  outer loop
   vertex -3882.35 242.563 -1186.3
   vertex -3882.35 466.012 -1098.57
   vertex -3882.35 393.453 -1210.92
  endloop
 endfacet
 facet normal -1 0 0
  outer loop
   vertex -3882.35 466.012 -1098.57
   vertex -3882.35 242.563 -1186.3
   vertex -3882.35 248.479 -1001.88
  endloop
 endfacet
 facet normal -1 0 0
  outer loop
   vertex -3882.35 248.479 -1001.88
   vertex -3882.35 242.563 -1186.3
   vertex -3882.35 -7.65692e-09 -1114.32
  endloop
 endfacet
 facet normal -1 0 0
  outer loop
   vertex -3882.35 248.479 -1001.88
   vertex -3882.35 -7.65692e-09 -1114.32
   vertex -3882.35 2.64042e-08 -858.288
  endloop
 endfacet
 facet normal -1 0 0
  outer loop
   vertex -3882.35 -248.479 -1001.88
   vertex -3882.35 2.64042e-08 -858.288
   vertex -3882.35 -7.65692e-09 -1114.32
  endloop
 endfacet
 facet normal -1 0 0
  outer loop
   vertex -3882.35 2.64042e-08 -858.288
   vertex -3882.35 -248.479 -1001.88
   vertex -3882.35 -245.094 -679.53
  endloop
 endfacet
 facet normal -1 0 0
  outer loop
   vertex -3882.35 -245.094 -679.53
   vertex -3882.35 -248.479 -1001.88
   vertex -3882.35 -477.098 -855.618
  endloop
 endfacet
 facet normal -1 0 0
  outer loop
   vertex -3882.35 -245.094 -679.53
   vertex -3882.35 -477.098 -855.618
   vertex -3882.35 -473.471 -473.471
  endloop
 endfacet
 facet normal -1 0 0
  outer loop
   vertex -3882.35 -679.965 -679.965
   vertex -3882.35 -473.471 -473.471
   vertex -3882.35 -477.098 -855.618
  endloop
 endfacet
 facet normal -1 -0 0
  outer loop
   vertex -3882.35 -679.53 -245.094
   vertex -3882.35 -473.471 -473.471
   vertex -3882.35 -855.618 -477.098
  endloop
 endfacet
 facet normal -1 0 0
  outer loop
   vertex -3882.35 -679.965 -679.965
   vertex -3882.35 -855.618 -477.098
   vertex -3882.35 -473.471 -473.471
  endloop
 endfacet
 facet normal -1 -0 0
  outer loop
   vertex -3882.35 -858.288 2.64043e-08
   vertex -3882.35 -679.53 -245.094
   vertex -3882.35 -1001.88 -248.479
  endloop
 endfacet
 facet normal -1 0 0
  outer loop
   vertex -3882.35 -679.53 -245.094
   vertex -3882.35 -855.618 -477.098
   vertex -3882.35 -1001.88 -248.479
  endloop
 endfacet
 facet normal -1 -0 0
  outer loop
   vertex -3882.35 -1001.88 248.479
   vertex -3882.35 -858.288 2.64043e-08
   vertex -3882.35 -1114.32 -7.65681e-09
  endloop
 endfacet
 facet normal -1 0 0
  outer loop
   vertex -3882.35 -1001.88 -248.479
   vertex -3882.35 -1114.32 -7.65681e-09
   vertex -3882.35 -858.288 2.64043e-08
  endloop
 endfacet
 facet normal -1 -0 0
  outer loop
   vertex -3882.35 -1098.57 466.012
   vertex -3882.35 -1001.88 248.479
   vertex -3882.35 -1186.3 242.563
  endloop
 endfacet
 facet normal -1 0 0
  outer loop
   vertex -3882.35 -1001.88 248.479
   vertex -3882.35 -1114.32 -7.65681e-09
   vertex -3882.35 -1186.3 242.563
  endloop
 endfacet
 facet normal -1 -0 0
  outer loop
   vertex -3882.35 -1134.47 578.039
   vertex -3882.35 -1098.57 466.012
   vertex -3882.35 -1210.92 393.453
  endloop
 endfacet
 facet normal -1 0 0
  outer loop
   vertex -3882.35 -1186.3 242.563
   vertex -3882.35 -1210.92 393.453
   vertex -3882.35 -1098.57 466.012
  endloop
 endfacet
 facet normal -1 0 0
  outer loop
   vertex -3882.35 748.392 -1030.07
   vertex -3882.35 578.039 -1134.47
   vertex -3882.35 663.296 -980.507
  endloop
 endfacet
 facet normal -1 0 0
  outer loop
   vertex -3882.35 466.012 -1098.57
   vertex -3882.35 663.296 -980.507
   vertex -3882.35 578.039 -1134.47
  endloop
 endfacet
 facet normal -1 0 0
  outer loop
   vertex -3882.35 663.296 -980.507
   vertex -3882.35 466.012 -1098.57
   vertex -3882.35 477.098 -855.618
  endloop
 endfacet
 facet normal -1 0 0
  outer loop
   vertex -3882.35 248.479 -1001.88
   vertex -3882.35 477.098 -855.618
   vertex -3882.35 466.012 -1098.57
  endloop
 endfacet
 facet normal -1 0 -0
  outer loop
   vertex -3882.35 2.64042e-08 -858.288
   vertex -3882.35 245.094 -679.53
   vertex -3882.35 248.479 -1001.88
  endloop
 endfacet
 facet normal -1 -0 0
  outer loop
   vertex -3882.35 245.094 -679.53
   vertex -3882.35 477.098 -855.618
   vertex -3882.35 248.479 -1001.88
  endloop
 endfacet
 facet normal -1 0 -0
  outer loop
   vertex -3882.35 -245.094 -679.53
   vertex -3882.35 -8.8707e-09 -470.837
   vertex -3882.35 2.64042e-08 -858.288
  endloop
 endfacet
 facet normal -1 0 0
  outer loop
   vertex -3882.35 245.094 -679.53
   vertex -3882.35 2.64042e-08 -858.288
   vertex -3882.35 -8.8707e-09 -470.837
  endloop
 endfacet
 facet normal -1 0 0
  outer loop
   vertex -3882.35 -8.8707e-09 -470.837
   vertex -3882.35 -245.094 -679.53
   vertex -3882.35 -241.622 -241.622
  endloop
 endfacet
 facet normal -1 0 0
  outer loop
   vertex -3882.35 -473.471 -473.471
   vertex -3882.35 -241.622 -241.622
   vertex -3882.35 -245.094 -679.53
  endloop
 endfacet
 facet normal -1 -0 0
  outer loop
   vertex -3882.35 -470.837 -8.87064e-09
   vertex -3882.35 -241.622 -241.622
   vertex -3882.35 -679.53 -245.094
  endloop
 endfacet
 facet normal -1 0 0
  outer loop
   vertex -3882.35 -473.471 -473.471
   vertex -3882.35 -679.53 -245.094
   vertex -3882.35 -241.622 -241.622
  endloop
 endfacet
 facet normal -1 0 0
  outer loop
   vertex -3882.35 -679.53 -245.094
   vertex -3882.35 -858.288 2.64043e-08
   vertex -3882.35 -470.837 -8.87064e-09
  endloop
 endfacet
 facet normal -1 0 0
  outer loop
   vertex -3882.35 -679.53 245.094
   vertex -3882.35 -470.837 -8.87064e-09
   vertex -3882.35 -858.288 2.64043e-08
  endloop
 endfacet
 facet normal -1 0 0
  outer loop
   vertex -3882.35 -858.288 2.64043e-08
   vertex -3882.35 -1001.88 248.479
   vertex -3882.35 -679.53 245.094
  endloop
 endfacet
 facet normal -1 0 0
  outer loop
   vertex -3882.35 -679.53 245.094
   vertex -3882.35 -1001.88 248.479
   vertex -3882.35 -855.618 477.098
  endloop
 endfacet
 facet normal -1 -0 0
  outer loop
   vertex -3882.35 -980.507 663.296
   vertex -3882.35 -855.618 477.098
   vertex -3882.35 -1098.57 466.012
  endloop
 endfacet
 facet normal -1 0 0
  outer loop
   vertex -3882.35 -1001.88 248.479
   vertex -3882.35 -1098.57 466.012
   vertex -3882.35 -855.618 477.098
  endloop
 endfacet
 facet normal -1 -0 0
  outer loop
   vertex -3882.35 -1030.07 748.392
   vertex -3882.35 -980.507 663.296
   vertex -3882.35 -1134.47 578.039
  endloop
 endfacet
 facet normal -1 0 0
  outer loop
   vertex -3882.35 -1098.57 466.012
   vertex -3882.35 -1134.47 578.039
   vertex -3882.35 -980.507 663.296
  endloop
 endfacet
 facet normal -1 0 0
  outer loop
   vertex -3882.35 663.296 -980.507
   vertex -3882.35 834.87 -834.87
   vertex -3882.35 748.392 -1030.07
  endloop
 endfacet
 facet normal -1 0 0
  outer loop
   vertex -3882.35 900.317 -900.317
   vertex -3882.35 748.392 -1030.07
   vertex -3882.35 834.87 -834.87
  endloop
 endfacet
 facet normal -1 0 0
  outer loop
   vertex -3882.35 477.098 -855.618
   vertex -3882.35 679.965 -679.965
   vertex -3882.35 663.296 -980.507
  endloop
 endfacet
 facet normal -1 -0 0
  outer loop
   vertex -3882.35 679.965 -679.965
   vertex -3882.35 834.87 -834.87
   vertex -3882.35 663.296 -980.507
  endloop
 endfacet
 facet normal -1 0 -0
  outer loop
   vertex -3882.35 245.094 -679.53
   vertex -3882.35 473.471 -473.471
   vertex -3882.35 477.098 -855.618
  endloop
 endfacet
 facet normal -1 0 0
  outer loop
   vertex -3882.35 679.965 -679.965
   vertex -3882.35 477.098 -855.618
   vertex -3882.35 473.471 -473.471
  endloop
 endfacet
 facet normal -1 0 -0
  outer loop
   vertex -3882.35 -8.8707e-09 -470.837
   vertex -3882.35 241.622 -241.622
   vertex -3882.35 245.094 -679.53
  endloop
 endfacet
 facet normal -1 0 0
  outer loop
   vertex -3882.35 473.471 -473.471
   vertex -3882.35 245.094 -679.53
   vertex -3882.35 241.622 -241.622
  endloop
 endfacet
 facet normal -1 0 0
  outer loop
   vertex -3882.35 241.622 -241.622
   vertex -3882.35 -8.8707e-09 -470.837
   vertex -3882.35 -2.27374e-13 -1.13687e-13
  endloop
 endfacet
 facet normal -1 0 0
  outer loop
   vertex -3882.35 -2.27374e-13 -1.13687e-13
   vertex -3882.35 -8.8707e-09 -470.837
   vertex -3882.35 -241.622 -241.622
  endloop
 endfacet
 facet normal -1 -0 0
  outer loop
   vertex -3882.35 -241.622 241.622
   vertex -3882.35 -2.27374e-13 -1.13687e-13
   vertex -3882.35 -470.837 -8.87064e-09
  endloop
 endfacet
 facet normal -1 0 0
  outer loop
   vertex -3882.35 -241.622 -241.622
   vertex -3882.35 -470.837 -8.87064e-09
   vertex -3882.35 -2.27374e-13 -1.13687e-13
  endloop
 endfacet
 facet normal -1 0 0
  outer loop
   vertex -3882.35 -470.837 -8.87064e-09
   vertex -3882.35 -679.53 245.094
   vertex -3882.35 -241.622 241.622
  endloop
 endfacet
 facet normal -1 0 0
  outer loop
   vertex -3882.35 -473.471 473.471
   vertex -3882.35 -241.622 241.622
   vertex -3882.35 -679.53 245.094
  endloop
 endfacet
 facet normal -1 0 0
  outer loop
   vertex -3882.35 -679.53 245.094
   vertex -3882.35 -855.618 477.098
   vertex -3882.35 -473.471 473.471
  endloop
 endfacet
 facet normal -1 0 0
  outer loop
   vertex -3882.35 -679.965 679.965
   vertex -3882.35 -473.471 473.471
   vertex -3882.35 -855.618 477.098
  endloop
 endfacet
 facet normal -1 0 0
  outer loop
   vertex -3882.35 -855.618 477.098
   vertex -3882.35 -980.507 663.296
   vertex -3882.35 -679.965 679.965
  endloop
 endfacet
 facet normal -1 0 0
  outer loop
   vertex -3882.35 -679.965 679.965
   vertex -3882.35 -980.507 663.296
   vertex -3882.35 -834.87 834.87
  endloop
 endfacet
 facet normal -1 0 0
  outer loop
   vertex -3882.35 -980.507 663.296
   vertex -3882.35 -1030.07 748.392
   vertex -3882.35 -834.87 834.87
  endloop
 endfacet
 facet normal -1 -0 0
  outer loop
   vertex -3882.35 -900.317 900.317
   vertex -3882.35 -834.87 834.87
   vertex -3882.35 -1030.07 748.392
  endloop
 endfacet
 facet normal -1 -0 0
  outer loop
   vertex -3882.35 980.507 -663.296
   vertex -3882.35 1030.07 -748.392
   vertex -3882.35 834.87 -834.87
  endloop
 endfacet
 facet normal -1 0 0
  outer loop
   vertex -3882.35 900.317 -900.317
   vertex -3882.35 834.87 -834.87
   vertex -3882.35 1030.07 -748.392
  endloop
 endfacet
 facet normal -1 -0 0
  outer loop
   vertex -3882.35 855.618 -477.098
   vertex -3882.35 980.507 -663.296
   vertex -3882.35 679.965 -679.965
  endloop
 endfacet
 facet normal -1 0 0
  outer loop
   vertex -3882.35 679.965 -679.965
   vertex -3882.35 980.507 -663.296
   vertex -3882.35 834.87 -834.87
  endloop
 endfacet
 facet normal -1 0 0
  outer loop
   vertex -3882.35 679.53 -245.094
   vertex -3882.35 855.618 -477.098
   vertex -3882.35 473.471 -473.471
  endloop
 endfacet
 facet normal -1 0 0
  outer loop
   vertex -3882.35 679.965 -679.965
   vertex -3882.35 473.471 -473.471
   vertex -3882.35 855.618 -477.098
  endloop
 endfacet
 facet normal -1 0 0
  outer loop
   vertex -3882.35 470.837 8.8705e-09
   vertex -3882.35 679.53 -245.094
   vertex -3882.35 241.622 -241.622
  endloop
 endfacet
 facet normal -1 0 0
  outer loop
   vertex -3882.35 473.471 -473.471
   vertex -3882.35 241.622 -241.622
   vertex -3882.35 679.53 -245.094
  endloop
 endfacet
 facet normal -1 0 0
  outer loop
   vertex -3882.35 241.622 -241.622
   vertex -3882.35 -2.27374e-13 -1.13687e-13
   vertex -3882.35 470.837 8.8705e-09
  endloop
 endfacet
 facet normal -1 -0 0
  outer loop
   vertex -3882.35 241.622 241.622
   vertex -3882.35 470.837 8.8705e-09
   vertex -3882.35 -2.27374e-13 -1.13687e-13
  endloop
 endfacet
 facet normal -1 0 0
  outer loop
   vertex -3882.35 -241.622 241.622
   vertex -3882.35 8.87047e-09 470.837
   vertex -3882.35 -2.27374e-13 -1.13687e-13
  endloop
 endfacet
 facet normal -1 0 0
  outer loop
   vertex -3882.35 241.622 241.622
   vertex -3882.35 -2.27374e-13 -1.13687e-13
   vertex -3882.35 8.87047e-09 470.837
  endloop
 endfacet
 facet normal -1 0 0
  outer loop
   vertex -3882.35 8.87047e-09 470.837
   vertex -3882.35 -241.622 241.622
   vertex -3882.35 -245.094 679.53
  endloop
 endfacet
 facet normal -1 0 -0
  outer loop
   vertex -3882.35 -473.471 473.471
   vertex -3882.35 -245.094 679.53
   vertex -3882.35 -241.622 241.622
  endloop
 endfacet
 facet normal -1 0 0
  outer loop
   vertex -3882.35 -245.094 679.53
   vertex -3882.35 -473.471 473.471
   vertex -3882.35 -477.098 855.618
  endloop
 endfacet
 facet normal -1 0 -0
  outer loop
   vertex -3882.35 -679.965 679.965
   vertex -3882.35 -477.098 855.618
   vertex -3882.35 -473.471 473.471
  endloop
 endfacet
 facet normal -1 0 0
  outer loop
   vertex -3882.35 -477.098 855.618
   vertex -3882.35 -679.965 679.965
   vertex -3882.35 -663.296 980.507
  endloop
 endfacet
 facet normal -1 0 0
  outer loop
   vertex -3882.35 -679.965 679.965
   vertex -3882.35 -834.87 834.87
   vertex -3882.35 -663.296 980.507
  endloop
 endfacet
 facet normal -1 0 0
  outer loop
   vertex -3882.35 -663.296 980.507
   vertex -3882.35 -834.87 834.87
   vertex -3882.35 -748.392 1030.07
  endloop
 endfacet
 facet normal -1 0 0
  outer loop
   vertex -3882.35 -900.317 900.317
   vertex -3882.35 -748.392 1030.07
   vertex -3882.35 -834.87 834.87
  endloop
 endfacet
 facet normal -1 0 0
  outer loop
   vertex -3882.35 1030.07 -748.392
   vertex -3882.35 980.507 -663.296
   vertex -3882.35 1134.47 -578.039
  endloop
 endfacet
 facet normal -1 -0 0
  outer loop
   vertex -3882.35 1098.57 -466.012
   vertex -3882.35 1134.47 -578.039
   vertex -3882.35 980.507 -663.296
  endloop
 endfacet
 facet normal -1 0 0
  outer loop
   vertex -3882.35 980.507 -663.296
   vertex -3882.35 855.618 -477.098
   vertex -3882.35 1098.57 -466.012
  endloop
 endfacet
 facet normal -1 -0 0
  outer loop
   vertex -3882.35 1001.88 -248.479
   vertex -3882.35 1098.57 -466.012
   vertex -3882.35 855.618 -477.098
  endloop
 endfacet
 facet normal -1 0 0
  outer loop
   vertex -3882.35 858.288 -2.64041e-08
   vertex -3882.35 1001.88 -248.479
   vertex -3882.35 679.53 -245.094
  endloop
 endfacet
 facet normal -1 -0 0
  outer loop
   vertex -3882.35 679.53 -245.094
   vertex -3882.35 1001.88 -248.479
   vertex -3882.35 855.618 -477.098
  endloop
 endfacet
 facet normal -1 0 0
  outer loop
   vertex -3882.35 679.53 245.094
   vertex -3882.35 858.288 -2.64041e-08
   vertex -3882.35 470.837 8.8705e-09
  endloop
 endfacet
 facet normal -1 0 0
  outer loop
   vertex -3882.35 858.288 -2.64041e-08
   vertex -3882.35 679.53 -245.094
   vertex -3882.35 470.837 8.8705e-09
  endloop
 endfacet
 facet normal -1 0 0
  outer loop
   vertex -3882.35 470.837 8.8705e-09
   vertex -3882.35 241.622 241.622
   vertex -3882.35 679.53 245.094
  endloop
 endfacet
 facet normal -1 -0 0
  outer loop
   vertex -3882.35 473.471 473.471
   vertex -3882.35 679.53 245.094
   vertex -3882.35 241.622 241.622
  endloop
 endfacet
 facet normal -1 0 0
  outer loop
   vertex -3882.35 8.87047e-09 470.837
   vertex -3882.35 245.094 679.53
   vertex -3882.35 241.622 241.622
  endloop
 endfacet
 facet normal -1 0 0
  outer loop
   vertex -3882.35 473.471 473.471
   vertex -3882.35 241.622 241.622
   vertex -3882.35 245.094 679.53
  endloop
 endfacet
 facet normal -1 0 0
  outer loop
   vertex -3882.35 245.094 679.53
   vertex -3882.35 8.87047e-09 470.837
   vertex -3882.35 -2.64042e-08 858.288
  endloop
 endfacet
 facet normal -1 0 -0
  outer loop
   vertex -3882.35 -245.094 679.53
   vertex -3882.35 -2.64042e-08 858.288
   vertex -3882.35 8.87047e-09 470.837
  endloop
 endfacet
 facet normal -1 0 0
  outer loop
   vertex -3882.35 -2.64042e-08 858.288
   vertex -3882.35 -245.094 679.53
   vertex -3882.35 -248.479 1001.88
  endloop
 endfacet
 facet normal -1 0 0
  outer loop
   vertex -3882.35 -245.094 679.53
   vertex -3882.35 -477.098 855.618
   vertex -3882.35 -248.479 1001.88
  endloop
 endfacet
 facet normal -1 0 0
  outer loop
   vertex -3882.35 -663.296 980.507
   vertex -3882.35 -466.012 1098.57
   vertex -3882.35 -477.098 855.618
  endloop
 endfacet
 facet normal -1 0 0
  outer loop
   vertex -3882.35 -248.479 1001.88
   vertex -3882.35 -477.098 855.618
   vertex -3882.35 -466.012 1098.57
  endloop
 endfacet
 facet normal -1 0 0
  outer loop
   vertex -3882.35 -748.392 1030.07
   vertex -3882.35 -578.039 1134.47
   vertex -3882.35 -663.296 980.507
  endloop
 endfacet
 facet normal -1 0 0
  outer loop
   vertex -3882.35 -466.012 1098.57
   vertex -3882.35 -663.296 980.507
   vertex -3882.35 -578.039 1134.47
  endloop
 endfacet
 facet normal -1 0 0
  outer loop
   vertex -3882.35 1134.47 -578.039
   vertex -3882.35 1098.57 -466.012
   vertex -3882.35 1210.92 -393.453
  endloop
 endfacet
 facet normal -1 -0 0
  outer loop
   vertex -3882.35 1186.3 -242.563
   vertex -3882.35 1210.92 -393.453
   vertex -3882.35 1098.57 -466.012
  endloop
 endfacet
 facet normal -1 0 0
  outer loop
   vertex -3882.35 1098.57 -466.012
   vertex -3882.35 1001.88 -248.479
   vertex -3882.35 1186.3 -242.563
  endloop
 endfacet
 facet normal -1 0 -0
  outer loop
   vertex -3882.35 1001.88 -248.479
   vertex -3882.35 1114.32 7.65692e-09
   vertex -3882.35 1186.3 -242.563
  endloop
 endfacet
 facet normal -1 0 0
  outer loop
   vertex -3882.35 1001.88 -248.479
   vertex -3882.35 858.288 -2.64041e-08
   vertex -3882.35 1114.32 7.65692e-09
  endloop
 endfacet
 facet normal -1 -0 0
  outer loop
   vertex -3882.35 1001.88 248.479
   vertex -3882.35 1114.32 7.65692e-09
   vertex -3882.35 858.288 -2.64041e-08
  endloop
 endfacet
 facet normal -1 0 0
  outer loop
   vertex -3882.35 858.288 -2.64041e-08
   vertex -3882.35 679.53 245.094
   vertex -3882.35 1001.88 248.479
  endloop
 endfacet
 facet normal -1 0 -0
  outer loop
   vertex -3882.35 679.53 245.094
   vertex -3882.35 855.618 477.098
   vertex -3882.35 1001.88 248.479
  endloop
 endfacet
 facet normal -1 0 0
  outer loop
   vertex -3882.35 679.53 245.094
   vertex -3882.35 473.471 473.471
   vertex -3882.35 855.618 477.098
  endloop
 endfacet
 facet normal -1 -0 0
  outer loop
   vertex -3882.35 679.965 679.965
   vertex -3882.35 855.618 477.098
   vertex -3882.35 473.471 473.471
  endloop
 endfacet
 facet normal -1 0 0
  outer loop
   vertex -3882.35 245.094 679.53
   vertex -3882.35 477.098 855.618
   vertex -3882.35 473.471 473.471
  endloop
 endfacet
 facet normal -1 0 0
  outer loop
   vertex -3882.35 679.965 679.965
   vertex -3882.35 473.471 473.471
   vertex -3882.35 477.098 855.618
  endloop
 endfacet
 facet normal -1 0 0
  outer loop
   vertex -3882.35 -2.64042e-08 858.288
   vertex -3882.35 248.479 1001.88
   vertex -3882.35 245.094 679.53
  endloop
 endfacet
 facet normal -1 0 -0
  outer loop
   vertex -3882.35 245.094 679.53
   vertex -3882.35 248.479 1001.88
   vertex -3882.35 477.098 855.618
  endloop
 endfacet
 facet normal -1 0 0
  outer loop
   vertex -3882.35 -248.479 1001.88
   vertex -3882.35 7.65692e-09 1114.32
   vertex -3882.35 -2.64042e-08 858.288
  endloop
 endfacet
 facet normal -1 0 0
  outer loop
   vertex -3882.35 248.479 1001.88
   vertex -3882.35 -2.64042e-08 858.288
   vertex -3882.35 7.65692e-09 1114.32
  endloop
 endfacet
 facet normal -1 0 0
  outer loop
   vertex -3882.35 -466.012 1098.57
   vertex -3882.35 -242.563 1186.3
   vertex -3882.35 -248.479 1001.88
  endloop
 endfacet
 facet normal -1 0 -0
  outer loop
   vertex -3882.35 -248.479 1001.88
   vertex -3882.35 -242.563 1186.3
   vertex -3882.35 7.65692e-09 1114.32
  endloop
 endfacet
 facet normal -1 0 0
  outer loop
   vertex -3882.35 -578.039 1134.47
   vertex -3882.35 -393.453 1210.92
   vertex -3882.35 -466.012 1098.57
  endloop
 endfacet
 facet normal -1 0 0
  outer loop
   vertex -3882.35 -242.563 1186.3
   vertex -3882.35 -466.012 1098.57
   vertex -3882.35 -393.453 1210.92
  endloop
 endfacet
 facet normal -1 0 0
  outer loop
   vertex -3882.35 1210.92 -393.453
   vertex -3882.35 1186.3 -242.563
   vertex -3882.35 1257.56 -199.179
  endloop
 endfacet
 facet normal -1 -0 0
  outer loop
   vertex -3882.35 1240.27 -6.46651e-10
   vertex -3882.35 1257.56 -199.179
   vertex -3882.35 1186.3 -242.563
  endloop
 endfacet
 facet normal -1 0 0
  outer loop
   vertex -3882.35 1186.3 242.563
   vertex -3882.35 1240.27 -6.46651e-10
   vertex -3882.35 1114.32 7.65692e-09
  endloop
 endfacet
 facet normal -1 -0 0
  outer loop
   vertex -3882.35 1114.32 7.65692e-09
   vertex -3882.35 1240.27 -6.46651e-10
   vertex -3882.35 1186.3 -242.563
  endloop
 endfacet
 facet normal -1 0 0
  outer loop
   vertex -3882.35 1098.57 466.012
   vertex -3882.35 1186.3 242.563
   vertex -3882.35 1001.88 248.479
  endloop
 endfacet
 facet normal -1 0 0
  outer loop
   vertex -3882.35 1114.32 7.65692e-09
   vertex -3882.35 1001.88 248.479
   vertex -3882.35 1186.3 242.563
  endloop
 endfacet
 facet normal -1 0 0
  outer loop
   vertex -3882.35 980.507 663.296
   vertex -3882.35 1098.57 466.012
   vertex -3882.35 855.618 477.098
  endloop
 endfacet
 facet normal -1 0 0
  outer loop
   vertex -3882.35 1001.88 248.479
   vertex -3882.35 855.618 477.098
   vertex -3882.35 1098.57 466.012
  endloop
 endfacet
 facet normal -1 0 0
  outer loop
   vertex -3882.35 855.618 477.098
   vertex -3882.35 679.965 679.965
   vertex -3882.35 980.507 663.296
  endloop
 endfacet
 facet normal -1 0 -0
  outer loop
   vertex -3882.35 679.965 679.965
   vertex -3882.35 834.87 834.87
   vertex -3882.35 980.507 663.296
  endloop
 endfacet
 facet normal -1 0 -0
  outer loop
   vertex -3882.35 477.098 855.618
   vertex -3882.35 663.296 980.507
   vertex -3882.35 679.965 679.965
  endloop
 endfacet
 facet normal -1 0 0
  outer loop
   vertex -3882.35 679.965 679.965
   vertex -3882.35 663.296 980.507
   vertex -3882.35 834.87 834.87
  endloop
 endfacet
 facet normal -1 0 0
  outer loop
   vertex -3882.35 663.296 980.507
   vertex -3882.35 477.098 855.618
   vertex -3882.35 466.012 1098.57
  endloop
 endfacet
 facet normal -1 0 -0
  outer loop
   vertex -3882.35 248.479 1001.88
   vertex -3882.35 466.012 1098.57
   vertex -3882.35 477.098 855.618
  endloop
 endfacet
 facet normal -1 0 0
  outer loop
   vertex -3882.35 466.012 1098.57
   vertex -3882.35 248.479 1001.88
   vertex -3882.35 242.563 1186.3
  endloop
 endfacet
 facet normal -1 0 -0
  outer loop
   vertex -3882.35 7.65692e-09 1114.32
   vertex -3882.35 242.563 1186.3
   vertex -3882.35 248.479 1001.88
  endloop
 endfacet
 facet normal -1 0 0
  outer loop
   vertex -3882.35 242.563 1186.3
   vertex -3882.35 7.65692e-09 1114.32
   vertex -3882.35 -6.46651e-10 1240.27
  endloop
 endfacet
 facet normal -1 0 0
  outer loop
   vertex -3882.35 7.65692e-09 1114.32
   vertex -3882.35 -242.563 1186.3
   vertex -3882.35 -6.46651e-10 1240.27
  endloop
 endfacet
 facet normal -1 0 0
  outer loop
   vertex -3882.35 -393.453 1210.92
   vertex -3882.35 -199.179 1257.56
   vertex -3882.35 -242.563 1186.3
  endloop
 endfacet
 facet normal -1 0 0
  outer loop
   vertex -3882.35 -6.46651e-10 1240.27
   vertex -3882.35 -242.563 1186.3
   vertex -3882.35 -199.179 1257.56
  endloop
 endfacet
 facet normal -1 0 0
  outer loop
   vertex -3882.35 1257.56 -199.179
   vertex -3882.35 1240.27 -6.46651e-10
   vertex -3882.35 1273.24 2.82716e-13
  endloop
 endfacet
 facet normal -1 -0 0
  outer loop
   vertex -3882.35 1257.56 199.179
   vertex -3882.35 1273.24 2.82716e-13
   vertex -3882.35 1240.27 -6.46651e-10
  endloop
 endfacet
 facet normal -1 0 0
  outer loop
   vertex -3882.35 1210.92 393.453
   vertex -3882.35 1257.56 199.179
   vertex -3882.35 1186.3 242.563
  endloop
 endfacet
 facet normal -1 0 0
  outer loop
   vertex -3882.35 1240.27 -6.46651e-10
   vertex -3882.35 1186.3 242.563
   vertex -3882.35 1257.56 199.179
  endloop
 endfacet
 facet normal -1 0 0
  outer loop
   vertex -3882.35 1134.47 578.039
   vertex -3882.35 1210.92 393.453
   vertex -3882.35 1098.57 466.012
  endloop
 endfacet
 facet normal -1 0 0
  outer loop
   vertex -3882.35 1186.3 242.563
   vertex -3882.35 1098.57 466.012
   vertex -3882.35 1210.92 393.453
  endloop
 endfacet
 facet normal -1 0 0
  outer loop
   vertex -3882.35 1030.07 748.392
   vertex -3882.35 1134.47 578.039
   vertex -3882.35 980.507 663.296
  endloop
 endfacet
 facet normal -1 0 0
  outer loop
   vertex -3882.35 1098.57 466.012
   vertex -3882.35 980.507 663.296
   vertex -3882.35 1134.47 578.039
  endloop
 endfacet
 facet normal -1 0 0
  outer loop
   vertex -3882.35 980.507 663.296
   vertex -3882.35 834.87 834.87
   vertex -3882.35 1030.07 748.392
  endloop
 endfacet
 facet normal -1 0 0
  outer loop
   vertex -3882.35 900.317 900.317
   vertex -3882.35 1030.07 748.392
   vertex -3882.35 834.87 834.87
  endloop
 endfacet
 facet normal -1 0 -0
  outer loop
   vertex -3882.35 663.296 980.507
   vertex -3882.35 748.392 1030.07
   vertex -3882.35 834.87 834.87
  endloop
 endfacet
 facet normal -1 0 0
  outer loop
   vertex -3882.35 900.317 900.317
   vertex -3882.35 834.87 834.87
   vertex -3882.35 748.392 1030.07
  endloop
 endfacet
 facet normal -1 0 0
  outer loop
   vertex -3882.35 748.392 1030.07
   vertex -3882.35 663.296 980.507
   vertex -3882.35 578.039 1134.47
  endloop
 endfacet
 facet normal -1 0 -0
  outer loop
   vertex -3882.35 466.012 1098.57
   vertex -3882.35 578.039 1134.47
   vertex -3882.35 663.296 980.507
  endloop
 endfacet
 facet normal -1 0 0
  outer loop
   vertex -3882.35 578.039 1134.47
   vertex -3882.35 466.012 1098.57
   vertex -3882.35 393.453 1210.92
  endloop
 endfacet
 facet normal -1 0 -0
  outer loop
   vertex -3882.35 242.563 1186.3
   vertex -3882.35 393.453 1210.92
   vertex -3882.35 466.012 1098.57
  endloop
 endfacet
 facet normal -1 0 0
  outer loop
   vertex -3882.35 393.453 1210.92
   vertex -3882.35 242.563 1186.3
   vertex -3882.35 199.179 1257.56
  endloop
 endfacet
 facet normal -1 0 -0
  outer loop
   vertex -3882.35 -6.46651e-10 1240.27
   vertex -3882.35 199.179 1257.56
   vertex -3882.35 242.563 1186.3
  endloop
 endfacet
 facet normal -1 0 0
  outer loop
   vertex -3882.35 -199.179 1257.56
   vertex -3882.35 -1.55927e-13 1273.24
   vertex -3882.35 -6.46651e-10 1240.27
  endloop
 endfacet
 facet normal -1 0 -0
  outer loop
   vertex -3882.35 -6.46651e-10 1240.27
   vertex -3882.35 -1.55927e-13 1273.24
   vertex -3882.35 199.179 1257.56
  endloop
 endfacet
endsolid
