solid ascii
 facet normal 0.866019 0.500011 0
  outer loop
   vertex 22262.6 6790.81 -2027.37
   vertex 22362.5 6617.88 -2017.62
   vertex 22362.5 6617.88 -2037.18
  endloop
 endfacet
 facet normal 0.866019 0.500011 -0
  outer loop
   vertex 22462.3 6444.96 -2027.37
   vertex 22362.5 6617.88 -2037.18
   vertex 22362.5 6617.88 -2017.62
  endloop
 endfacet
 facet normal 0.866021 0.500007 -4.55124e-06
  outer loop
   vertex 22163.8 6962.07 -1998.04
   vertex 22239.4 6831.05 -1986.84
   vertex 22262.6 6790.81 -2027.37
  endloop
 endfacet
 facet normal 0.866019 0.500011 -9.60857e-06
  outer loop
   vertex 22239.4 6831.05 -1986.84
   vertex 22362.5 6617.88 -2017.62
   vertex 22262.6 6790.81 -2027.37
  endloop
 endfacet
 facet normal 0.866021 0.500007 -1.02991e-05
  outer loop
   vertex 22066.8 7130.01 -1949.46
   vertex 22123.2 7032.41 -1935.32
   vertex 22163.8 6962.07 -1998.04
  endloop
 endfacet
 facet normal 0.866021 0.500007 -9.80508e-06
  outer loop
   vertex 22123.2 7032.41 -1935.32
   vertex 22239.4 6831.05 -1986.84
   vertex 22163.8 6962.07 -1998.04
  endloop
 endfacet
 facet normal 0.866017 0.500015 -7.74576e-06
  outer loop
   vertex 21972.7 7293.03 -1882.11
   vertex 22016.2 7217.72 -1863.89
   vertex 22066.8 7130.01 -1949.46
  endloop
 endfacet
 facet normal 0.866021 0.500008 1.13399e-06
  outer loop
   vertex 22123.2 7032.41 -1935.32
   vertex 22066.8 7130.01 -1949.46
   vertex 22016.2 7217.72 -1863.89
  endloop
 endfacet
 facet normal 0.866024 0.500002 9.15163e-06
  outer loop
   vertex 21882.3 7449.54 -1796.63
   vertex 21917.2 7389.13 -1773.56
   vertex 21972.7 7293.03 -1882.11
  endloop
 endfacet
 facet normal 0.866017 0.500015 -6.04992e-06
  outer loop
   vertex 21972.7 7293.03 -1882.11
   vertex 21917.2 7389.13 -1773.56
   vertex 22016.2 7217.72 -1863.89
  endloop
 endfacet
 facet normal 0.866019 0.50001 -3.89886e-07
  outer loop
   vertex 21796.6 7598.04 -1693.85
   vertex 21825.4 7548.14 -1665.37
   vertex 21882.3 7449.54 -1796.63
  endloop
 endfacet
 facet normal 0.866024 0.500002 7.89408e-06
  outer loop
   vertex 21917.2 7389.13 -1773.56
   vertex 21882.3 7449.54 -1796.63
   vertex 21825.4 7548.14 -1665.37
  endloop
 endfacet
 facet normal 0.866024 0.500003 4.76964e-06
  outer loop
   vertex 21716.3 7737.1 -1574.76
   vertex 21740.5 7695.17 -1540.38
   vertex 21796.6 7598.04 -1693.85
  endloop
 endfacet
 facet normal 0.86602 0.50001 -1.14963e-06
  outer loop
   vertex 21825.4 7548.14 -1665.37
   vertex 21796.6 7598.04 -1693.85
   vertex 21740.5 7695.17 -1540.38
  endloop
 endfacet
 facet normal 0.866024 0.500003 5.08513e-06
  outer loop
   vertex 21740.5 7695.17 -1540.38
   vertex 21716.3 7737.1 -1574.76
   vertex 21662.7 7829.96 -1399.59
  endloop
 endfacet
 facet normal 0.866023 0.500004 4.37519e-06
  outer loop
   vertex 21662.7 7829.96 -1399.59
   vertex 21716.3 7737.1 -1574.76
   vertex 21642.2 7865.39 -1440.5
  endloop
 endfacet
 facet normal 0.866019 0.500011 -1.17649e-06
  outer loop
   vertex 21592.3 7951.88 -1243.95
   vertex 21662.7 7829.96 -1399.59
   vertex 21575.1 7981.66 -1292.37
  endloop
 endfacet
 facet normal 0.866022 0.500006 6.94713e-06
  outer loop
   vertex 21642.2 7865.39 -1440.5
   vertex 21575.1 7981.66 -1292.37
   vertex 21662.7 7829.96 -1399.59
  endloop
 endfacet
 facet normal 0.866019 0.500011 -1.31879e-06
  outer loop
   vertex 21575.1 7981.66 -1292.37
   vertex 21515.5 8084.79 -1131.8
   vertex 21592.3 7951.88 -1243.95
  endloop
 endfacet
 facet normal 0.866016 0.500016 -9.81309e-06
  outer loop
   vertex 21529.8 8060.13 -1074.17
   vertex 21592.3 7951.88 -1243.95
   vertex 21515.5 8084.79 -1131.8
  endloop
 endfacet
 facet normal 0.866014 0.50002 -7.20892e-06
  outer loop
   vertex 21515.5 8084.79 -1131.8
   vertex 21464.2 8173.8 -960.32
   vertex 21529.8 8060.13 -1074.17
  endloop
 endfacet
 facet normal 0.86602 0.50001 7.27147e-06
  outer loop
   vertex 21475.7 8153.82 -890.565
   vertex 21529.8 8060.13 -1074.17
   vertex 21464.2 8173.8 -960.32
  endloop
 endfacet
 facet normal 0.866026 0.499999 3.20521e-06
  outer loop
   vertex 21464.2 8173.8 -960.32
   vertex 21421.4 8247.83 -779.595
   vertex 21475.7 8153.82 -890.565
  endloop
 endfacet
 facet normal 0.866024 0.500002 -1.35814e-07
  outer loop
   vertex 21430.5 8232.05 -692.642
   vertex 21475.7 8153.82 -890.565
   vertex 21421.4 8247.83 -779.595
  endloop
 endfacet
 facet normal 0.866025 0.500001 -3.3648e-07
  outer loop
   vertex 21421.4 8247.83 -779.595
   vertex 21387.7 8306.15 -591.362
   vertex 21430.5 8232.05 -692.642
  endloop
 endfacet
 facet normal 0.866025 0.500001 -8.95477e-08
  outer loop
   vertex 21394.8 8293.91 -478.657
   vertex 21430.5 8232.05 -692.642
   vertex 21387.7 8306.15 -591.362
  endloop
 endfacet
 facet normal 0.86602 0.50001 1.17917e-06
  outer loop
   vertex 21387.7 8306.15 -591.362
   vertex 21363.5 8348.22 -397.434
   vertex 21394.8 8293.91 -478.657
  endloop
 endfacet
 facet normal 0.866019 0.500012 -8.56666e-07
  outer loop
   vertex 21369.1 8338.52 -246.151
   vertex 21394.8 8293.91 -478.657
   vertex 21363.5 8348.22 -397.434
  endloop
 endfacet
 facet normal 0.866013 0.500021 -9.40421e-08
  outer loop
   vertex 21363.5 8348.22 -397.434
   vertex 21348.8 8373.63 -199.679
   vertex 21369.1 8338.52 -246.151
  endloop
 endfacet
 facet normal 0.866014 0.500019 1.42488e-06
  outer loop
   vertex 21353.7 8365.18 7.46583e-06
   vertex 21369.1 8338.52 -246.151
   vertex 21348.8 8373.63 -199.679
  endloop
 endfacet
 facet normal 0.866023 0.500005 -6.07434e-07
  outer loop
   vertex 21348.8 8373.63 199.679
   vertex 21353.7 8365.18 7.46583e-06
   vertex 21343.9 8382.12 -6.21974e-13
  endloop
 endfacet
 facet normal 0.866023 0.500005 6.07434e-07
  outer loop
   vertex 21348.8 8373.63 -199.679
   vertex 21343.9 8382.12 -6.21974e-13
   vertex 21353.7 8365.18 7.46583e-06
  endloop
 endfacet
 facet normal 0.866021 0.500007 4.55122e-06
  outer loop
   vertex 22561.2 6273.7 -1998.04
   vertex 22462.3 6444.96 -2027.37
   vertex 22485.6 6404.71 -1986.84
  endloop
 endfacet
 facet normal 0.866019 0.500011 9.60854e-06
  outer loop
   vertex 22362.5 6617.88 -2017.62
   vertex 22485.6 6404.71 -1986.84
   vertex 22462.3 6444.96 -2027.37
  endloop
 endfacet
 facet normal 0.86602 0.50001 -0
  outer loop
   vertex 22485.6 6404.71 -1986.84
   vertex 22362.5 6617.88 -2017.62
   vertex 22362.5 6617.88 -1951.31
  endloop
 endfacet
 facet normal 0.86602 0.50001 0
  outer loop
   vertex 22239.4 6831.05 -1986.84
   vertex 22362.5 6617.88 -1951.31
   vertex 22362.5 6617.88 -2017.62
  endloop
 endfacet
 facet normal 0.866021 0.500008 -1.35064e-05
  outer loop
   vertex 22123.2 7032.41 -1935.32
   vertex 22234.1 6840.28 -1892.03
   vertex 22239.4 6831.05 -1986.84
  endloop
 endfacet
 facet normal 0.866021 0.500008 -1.35981e-05
  outer loop
   vertex 22362.5 6617.88 -1951.31
   vertex 22239.4 6831.05 -1986.84
   vertex 22234.1 6840.28 -1892.03
  endloop
 endfacet
 facet normal 0.86602 0.500009 6.02718e-07
  outer loop
   vertex 22016.2 7217.72 -1863.89
   vertex 22112.7 7050.59 -1810.45
   vertex 22123.2 7032.41 -1935.32
  endloop
 endfacet
 facet normal 0.86602 0.50001 3.45537e-07
  outer loop
   vertex 22234.1 6840.28 -1892.03
   vertex 22123.2 7032.41 -1935.32
   vertex 22112.7 7050.59 -1810.45
  endloop
 endfacet
 facet normal 0.866018 0.500012 1.61994e-06
  outer loop
   vertex 21917.2 7389.13 -1773.56
   vertex 22000.5 7244.78 -1708.23
   vertex 22016.2 7217.72 -1863.89
  endloop
 endfacet
 facet normal 0.86602 0.500009 2.36095e-06
  outer loop
   vertex 22016.2 7217.72 -1863.89
   vertex 22000.5 7244.78 -1708.23
   vertex 22112.7 7050.59 -1810.45
  endloop
 endfacet
 facet normal 0.866022 0.500006 -6.2097e-07
  outer loop
   vertex 21825.4 7548.14 -1665.37
   vertex 21897.5 7423.26 -1586.9
   vertex 21917.2 7389.13 -1773.56
  endloop
 endfacet
 facet normal 0.866019 0.500011 -1.76926e-06
  outer loop
   vertex 21917.2 7389.13 -1773.56
   vertex 21897.5 7423.26 -1586.9
   vertex 22000.5 7244.78 -1708.23
  endloop
 endfacet
 facet normal 0.86602 0.50001 -1.28542e-06
  outer loop
   vertex 21740.5 7695.17 -1540.38
   vertex 21803 7586.96 -1447.71
   vertex 21825.4 7548.14 -1665.37
  endloop
 endfacet
 facet normal 0.866022 0.500006 -4.29912e-07
  outer loop
   vertex 21897.5 7423.26 -1586.9
   vertex 21825.4 7548.14 -1665.37
   vertex 21803 7586.96 -1447.71
  endloop
 endfacet
 facet normal 0.86602 0.50001 -1.60829e-06
  outer loop
   vertex 21803 7586.96 -1447.71
   vertex 21740.5 7695.17 -1540.38
   vertex 21716.7 7736.42 -1291.58
  endloop
 endfacet
 facet normal 0.866021 0.500008 -1.21877e-06
  outer loop
   vertex 21662.7 7829.96 -1399.59
   vertex 21716.7 7736.42 -1291.58
   vertex 21740.5 7695.17 -1540.38
  endloop
 endfacet
 facet normal 0.86602 0.50001 -1.1125e-06
  outer loop
   vertex 21638.6 7871.63 -1119
   vertex 21716.7 7736.42 -1291.58
   vertex 21592.3 7951.88 -1243.95
  endloop
 endfacet
 facet normal 0.86602 0.500009 2.2929e-07
  outer loop
   vertex 21592.3 7951.88 -1243.95
   vertex 21716.7 7736.42 -1291.58
   vertex 21662.7 7829.96 -1399.59
  endloop
 endfacet
 facet normal 0.866021 0.500008 -2.78014e-06
  outer loop
   vertex 21592.3 7951.88 -1243.95
   vertex 21529.8 8060.13 -1074.17
   vertex 21638.6 7871.63 -1119
  endloop
 endfacet
 facet normal 0.866021 0.500007 1.47932e-06
  outer loop
   vertex 21569 7992.17 -929.972
   vertex 21638.6 7871.63 -1119
   vertex 21529.8 8060.13 -1074.17
  endloop
 endfacet
 facet normal 0.866018 0.500013 5.14821e-06
  outer loop
   vertex 21529.8 8060.13 -1074.17
   vertex 21475.7 8153.82 -890.565
   vertex 21569 7992.17 -929.972
  endloop
 endfacet
 facet normal 0.866017 0.500015 -5.38733e-06
  outer loop
   vertex 21508.4 8097.25 -723.878
   vertex 21569 7992.17 -929.972
   vertex 21475.7 8153.82 -890.565
  endloop
 endfacet
 facet normal 0.866018 0.500013 -6.062e-06
  outer loop
   vertex 21475.7 8153.82 -890.565
   vertex 21430.5 8232.05 -692.642
   vertex 21508.4 8097.25 -723.878
  endloop
 endfacet
 facet normal 0.866018 0.500012 3.67508e-07
  outer loop
   vertex 21430.5 8232.05 -692.642
   vertex 21457.2 8185.77 -499.649
   vertex 21508.4 8097.25 -723.878
  endloop
 endfacet
 facet normal 0.866022 0.500005 -1.7989e-06
  outer loop
   vertex 21430.5 8232.05 -692.642
   vertex 21394.8 8293.91 -478.657
   vertex 21457.2 8185.77 -499.649
  endloop
 endfacet
 facet normal 0.866023 0.500005 7.16676e-07
  outer loop
   vertex 21416.5 8256.42 -256.81
   vertex 21457.2 8185.77 -499.649
   vertex 21394.8 8293.91 -478.657
  endloop
 endfacet
 facet normal 0.866022 0.500005 8.15235e-07
  outer loop
   vertex 21394.8 8293.91 -478.657
   vertex 21369.1 8338.52 -246.151
   vertex 21416.5 8256.42 -256.81
  endloop
 endfacet
 facet normal 0.866022 0.500005 1.78296e-06
  outer loop
   vertex 21386.8 8307.76 -4.74229e-05
   vertex 21416.5 8256.42 -256.81
   vertex 21369.1 8338.52 -246.151
  endloop
 endfacet
 facet normal 0.866019 0.500011 -2.67743e-06
  outer loop
   vertex 21369.1 8338.52 246.151
   vertex 21386.8 8307.76 -4.74229e-05
   vertex 21353.7 8365.18 7.46583e-06
  endloop
 endfacet
 facet normal 0.866019 0.500011 2.67743e-06
  outer loop
   vertex 21353.7 8365.18 7.46583e-06
   vertex 21386.8 8307.76 -4.74229e-05
   vertex 21369.1 8338.52 -246.151
  endloop
 endfacet
 facet normal 0.866013 0.500021 9.4042e-08
  outer loop
   vertex 21363.5 8348.22 397.434
   vertex 21369.1 8338.52 246.151
   vertex 21348.8 8373.63 199.679
  endloop
 endfacet
 facet normal 0.866014 0.500019 -1.42488e-06
  outer loop
   vertex 21353.7 8365.18 7.46583e-06
   vertex 21348.8 8373.63 199.679
   vertex 21369.1 8338.52 246.151
  endloop
 endfacet
 facet normal 0.866021 0.500007 1.02991e-05
  outer loop
   vertex 22658.2 6105.75 -1949.46
   vertex 22561.2 6273.7 -1998.04
   vertex 22601.8 6203.35 -1935.32
  endloop
 endfacet
 facet normal 0.866021 0.500007 9.80507e-06
  outer loop
   vertex 22485.6 6404.71 -1986.84
   vertex 22601.8 6203.35 -1935.32
   vertex 22561.2 6273.7 -1998.04
  endloop
 endfacet
 facet normal 0.866021 0.500008 1.35064e-05
  outer loop
   vertex 22601.8 6203.35 -1935.32
   vertex 22485.6 6404.71 -1986.84
   vertex 22490.9 6395.48 -1892.03
  endloop
 endfacet
 facet normal 0.866021 0.500008 1.35981e-05
  outer loop
   vertex 22362.5 6617.88 -1951.31
   vertex 22490.9 6395.48 -1892.03
   vertex 22485.6 6404.71 -1986.84
  endloop
 endfacet
 facet normal 0.866022 0.500006 0
  outer loop
   vertex 22234.1 6840.28 -1892.03
   vertex 22362.5 6617.88 -1821.07
   vertex 22362.5 6617.88 -1951.31
  endloop
 endfacet
 facet normal 0.866022 0.500006 -0
  outer loop
   vertex 22490.9 6395.48 -1892.03
   vertex 22362.5 6617.88 -1951.31
   vertex 22362.5 6617.88 -1821.07
  endloop
 endfacet
 facet normal 0.86602 0.50001 1.38218e-06
  outer loop
   vertex 22112.7 7050.59 -1810.45
   vertex 22233.9 6840.62 -1724.85
   vertex 22234.1 6840.28 -1892.03
  endloop
 endfacet
 facet normal 0.866022 0.500006 1.392e-06
  outer loop
   vertex 22362.5 6617.88 -1821.07
   vertex 22234.1 6840.28 -1892.03
   vertex 22233.9 6840.62 -1724.85
  endloop
 endfacet
 facet normal 0.866021 0.500008 6.09255e-06
  outer loop
   vertex 22000.5 7244.78 -1708.23
   vertex 22111.7 7052.27 -1605.94
   vertex 22112.7 7050.59 -1810.45
  endloop
 endfacet
 facet normal 0.866019 0.500011 6.05404e-06
  outer loop
   vertex 22233.9 6840.62 -1724.85
   vertex 22112.7 7050.59 -1810.45
   vertex 22111.7 7052.27 -1605.94
  endloop
 endfacet
 facet normal 0.86602 0.500009 2.87101e-06
  outer loop
   vertex 21897.5 7423.26 -1586.9
   vertex 21997.8 7249.44 -1466.56
   vertex 22000.5 7244.78 -1708.23
  endloop
 endfacet
 facet normal 0.866022 0.500006 2.93308e-06
  outer loop
   vertex 22000.5 7244.78 -1708.23
   vertex 21997.8 7249.44 -1466.56
   vertex 22111.7 7052.27 -1605.94
  endloop
 endfacet
 facet normal 0.866022 0.500007 -9.32561e-07
  outer loop
   vertex 21997.8 7249.44 -1466.56
   vertex 21897.5 7423.26 -1586.9
   vertex 21892.7 7431.54 -1308.41
  endloop
 endfacet
 facet normal 0.866021 0.500007 -9.34221e-07
  outer loop
   vertex 21803 7586.96 -1447.71
   vertex 21892.7 7431.54 -1308.41
   vertex 21897.5 7423.26 -1586.9
  endloop
 endfacet
 facet normal 0.866021 0.500008 1.46786e-06
  outer loop
   vertex 21892.7 7431.54 -1308.41
   vertex 21803 7586.96 -1447.71
   vertex 21796.2 7598.72 -1132.58
  endloop
 endfacet
 facet normal 0.866021 0.500007 1.51738e-06
  outer loop
   vertex 21716.7 7736.42 -1291.58
   vertex 21796.2 7598.72 -1132.58
   vertex 21803 7586.96 -1447.71
  endloop
 endfacet
 facet normal 0.866021 0.500007 1.41702e-06
  outer loop
   vertex 21708.3 7751 -939.535
   vertex 21796.2 7598.72 -1132.58
   vertex 21638.6 7871.63 -1119
  endloop
 endfacet
 facet normal 0.866021 0.500007 1.32319e-06
  outer loop
   vertex 21716.7 7736.42 -1291.58
   vertex 21638.6 7871.63 -1119
   vertex 21796.2 7598.72 -1132.58
  endloop
 endfacet
 facet normal 0.866021 0.500007 2.26681e-06
  outer loop
   vertex 21629.2 7887.95 -729.259
   vertex 21708.3 7751 -939.535
   vertex 21569 7992.17 -929.972
  endloop
 endfacet
 facet normal 0.866021 0.500007 1.28667e-06
  outer loop
   vertex 21638.6 7871.63 -1119
   vertex 21569 7992.17 -929.972
   vertex 21708.3 7751 -939.535
  endloop
 endfacet
 facet normal 0.866022 0.500005 1.00054e-06
  outer loop
   vertex 21569 7992.17 -929.972
   vertex 21508.4 8097.25 -723.878
   vertex 21629.2 7887.95 -729.259
  endloop
 endfacet
 facet normal 0.866022 0.500005 8.21803e-07
  outer loop
   vertex 21559.5 8008.66 -501.595
   vertex 21629.2 7887.95 -729.259
   vertex 21508.4 8097.25 -723.878
  endloop
 endfacet
 facet normal 0.866021 0.500008 2.3878e-06
  outer loop
   vertex 21508.4 8097.25 -723.878
   vertex 21457.2 8185.77 -499.649
   vertex 21559.5 8008.66 -501.595
  endloop
 endfacet
 facet normal 0.866021 0.500008 -2.2599e-06
  outer loop
   vertex 21500 8111.64 -257.193
   vertex 21559.5 8008.66 -501.595
   vertex 21457.2 8185.77 -499.649
  endloop
 endfacet
 facet normal 0.866019 0.50001 -1.39892e-06
  outer loop
   vertex 21457.2 8185.77 -499.649
   vertex 21416.5 8256.42 -256.81
   vertex 21500 8111.64 -257.193
  endloop
 endfacet
 facet normal 0.866019 0.50001 2.66012e-06
  outer loop
   vertex 21451.9 8194.96 4.73825e-05
   vertex 21500 8111.64 -257.193
   vertex 21416.5 8256.42 -256.81
  endloop
 endfacet
 facet normal 0.866022 0.500007 1.44113e-06
  outer loop
   vertex 21416.5 8256.42 -256.81
   vertex 21386.8 8307.76 -4.74229e-05
   vertex 21451.9 8194.96 4.73825e-05
  endloop
 endfacet
 facet normal 0.866022 0.500007 -1.44113e-06
  outer loop
   vertex 21416.5 8256.42 256.81
   vertex 21451.9 8194.96 4.73825e-05
   vertex 21386.8 8307.76 -4.74229e-05
  endloop
 endfacet
 facet normal 0.866022 0.500005 -8.15235e-07
  outer loop
   vertex 21394.8 8293.91 478.657
   vertex 21416.5 8256.42 256.81
   vertex 21369.1 8338.52 246.151
  endloop
 endfacet
 facet normal 0.866022 0.500005 -1.78296e-06
  outer loop
   vertex 21386.8 8307.76 -4.74229e-05
   vertex 21369.1 8338.52 246.151
   vertex 21416.5 8256.42 256.81
  endloop
 endfacet
 facet normal 0.86602 0.50001 -1.17917e-06
  outer loop
   vertex 21387.7 8306.15 591.362
   vertex 21394.8 8293.91 478.657
   vertex 21363.5 8348.22 397.434
  endloop
 endfacet
 facet normal 0.866019 0.500012 8.56665e-07
  outer loop
   vertex 21369.1 8338.52 246.151
   vertex 21363.5 8348.22 397.434
   vertex 21394.8 8293.91 478.657
  endloop
 endfacet
 facet normal 0.866016 0.500016 1.26953e-05
  outer loop
   vertex 22752.3 5942.74 -1882.11
   vertex 22658.2 6105.75 -1949.46
   vertex 22708.8 6018.04 -1863.89
  endloop
 endfacet
 facet normal 0.866021 0.500008 1.35037e-06
  outer loop
   vertex 22601.8 6203.35 -1935.32
   vertex 22708.8 6018.04 -1863.89
   vertex 22658.2 6105.75 -1949.46
  endloop
 endfacet
 facet normal 0.866021 0.500008 1.26556e-06
  outer loop
   vertex 22708.8 6018.04 -1863.89
   vertex 22601.8 6203.35 -1935.32
   vertex 22612.3 6185.18 -1810.45
  endloop
 endfacet
 facet normal 0.86602 0.50001 1.54762e-06
  outer loop
   vertex 22490.9 6395.48 -1892.03
   vertex 22612.3 6185.18 -1810.45
   vertex 22601.8 6203.35 -1935.32
  endloop
 endfacet
 facet normal 0.86602 0.500009 7.7015e-08
  outer loop
   vertex 22612.3 6185.18 -1810.45
   vertex 22490.9 6395.48 -1892.03
   vertex 22491.1 6395.15 -1724.85
  endloop
 endfacet
 facet normal 0.866022 0.500006 6.744e-08
  outer loop
   vertex 22362.5 6617.88 -1821.07
   vertex 22491.1 6395.15 -1724.85
   vertex 22490.9 6395.48 -1892.03
  endloop
 endfacet
 facet normal 0.866022 0.500006 0
  outer loop
   vertex 22233.9 6840.62 -1724.85
   vertex 22362.5 6617.88 -1610.91
   vertex 22362.5 6617.88 -1821.07
  endloop
 endfacet
 facet normal 0.866022 0.500006 -0
  outer loop
   vertex 22491.1 6395.15 -1724.85
   vertex 22362.5 6617.88 -1821.07
   vertex 22362.5 6617.88 -1610.91
  endloop
 endfacet
 facet normal 0.866019 0.500012 4.32893e-06
  outer loop
   vertex 22111.7 7052.27 -1605.94
   vertex 22235.5 6837.87 -1472.41
   vertex 22233.9 6840.62 -1724.85
  endloop
 endfacet
 facet normal 0.866021 0.500008 4.27402e-06
  outer loop
   vertex 22235.5 6837.87 -1472.41
   vertex 22362.5 6617.88 -1610.91
   vertex 22233.9 6840.62 -1724.85
  endloop
 endfacet
 facet normal 0.866021 0.500007 -5.06783e-06
  outer loop
   vertex 22235.5 6837.87 -1472.41
   vertex 22111.7 7052.27 -1605.94
   vertex 22114.1 7048.1 -1312.55
  endloop
 endfacet
 facet normal 0.866019 0.500011 -5.00876e-06
  outer loop
   vertex 21997.8 7249.44 -1466.56
   vertex 22114.1 7048.1 -1312.55
   vertex 22111.7 7052.27 -1605.94
  endloop
 endfacet
 facet normal 0.866018 0.500013 -1.46194e-06
  outer loop
   vertex 22114.1 7048.1 -1312.55
   vertex 21997.8 7249.44 -1466.56
   vertex 22000 7245.77 -1133.74
  endloop
 endfacet
 facet normal 0.866021 0.500007 -1.54133e-06
  outer loop
   vertex 21892.7 7431.54 -1308.41
   vertex 22000 7245.77 -1133.74
   vertex 21997.8 7249.44 -1466.56
  endloop
 endfacet
 facet normal 0.866021 0.500007 -2.0481e-06
  outer loop
   vertex 22000 7245.77 -1133.74
   vertex 21892.7 7431.54 -1308.41
   vertex 21893.7 7429.85 -937.587
  endloop
 endfacet
 facet normal 0.866019 0.500011 -2.02159e-06
  outer loop
   vertex 21796.2 7598.72 -1132.58
   vertex 21893.7 7429.85 -937.587
   vertex 21892.7 7431.54 -1308.41
  endloop
 endfacet
 facet normal 0.866019 0.500011 -2.84948e-06
  outer loop
   vertex 21795.6 7599.73 -725.03
   vertex 21893.7 7429.85 -937.587
   vertex 21708.3 7751 -939.535
  endloop
 endfacet
 facet normal 0.866019 0.500011 -2.37942e-06
  outer loop
   vertex 21893.7 7429.85 -937.587
   vertex 21796.2 7598.72 -1132.58
   vertex 21708.3 7751 -939.535
  endloop
 endfacet
 facet normal 0.866019 0.500012 2.52525e-06
  outer loop
   vertex 21706.2 7754.58 -496.771
   vertex 21795.6 7599.73 -725.03
   vertex 21629.2 7887.95 -729.259
  endloop
 endfacet
 facet normal 0.866019 0.500012 -1.89723e-06
  outer loop
   vertex 21708.3 7751 -939.535
   vertex 21629.2 7887.95 -729.259
   vertex 21795.6 7599.73 -725.03
  endloop
 endfacet
 facet normal 0.866021 0.500008 -3.90592e-06
  outer loop
   vertex 21626.3 7893.02 -254.018
   vertex 21706.2 7754.58 -496.771
   vertex 21559.5 8008.66 -501.595
  endloop
 endfacet
 facet normal 0.866021 0.500008 -8.10184e-07
  outer loop
   vertex 21559.5 8008.66 -501.595
   vertex 21706.2 7754.58 -496.771
   vertex 21629.2 7887.95 -729.259
  endloop
 endfacet
 facet normal 0.86602 0.500009 -2.82769e-06
  outer loop
   vertex 21559.5 8008.66 -501.595
   vertex 21500 8111.64 -257.193
   vertex 21626.3 7893.02 -254.018
  endloop
 endfacet
 facet normal 0.86602 0.500009 4.92647e-06
  outer loop
   vertex 21557 8012.96 5.5897e-05
   vertex 21626.3 7893.02 -254.018
   vertex 21500 8111.64 -257.193
  endloop
 endfacet
 facet normal 0.866021 0.500007 3.93398e-06
  outer loop
   vertex 21500 8111.64 -257.193
   vertex 21451.9 8194.96 4.73825e-05
   vertex 21557 8012.96 5.5897e-05
  endloop
 endfacet
 facet normal 0.866021 0.500007 -3.93398e-06
  outer loop
   vertex 21557 8012.96 5.5897e-05
   vertex 21451.9 8194.96 4.73825e-05
   vertex 21500 8111.64 257.193
  endloop
 endfacet
 facet normal 0.866019 0.50001 1.39892e-06
  outer loop
   vertex 21457.2 8185.77 499.649
   vertex 21500 8111.64 257.193
   vertex 21416.5 8256.42 256.81
  endloop
 endfacet
 facet normal 0.866019 0.50001 -2.66012e-06
  outer loop
   vertex 21416.5 8256.42 256.81
   vertex 21500 8111.64 257.193
   vertex 21451.9 8194.96 4.73825e-05
  endloop
 endfacet
 facet normal 0.866022 0.500005 1.79889e-06
  outer loop
   vertex 21430.5 8232.05 692.642
   vertex 21457.2 8185.77 499.649
   vertex 21394.8 8293.91 478.657
  endloop
 endfacet
 facet normal 0.866023 0.500005 -7.16676e-07
  outer loop
   vertex 21416.5 8256.42 256.81
   vertex 21394.8 8293.91 478.657
   vertex 21457.2 8185.77 499.649
  endloop
 endfacet
 facet normal 0.866025 0.500001 3.3648e-07
  outer loop
   vertex 21421.4 8247.83 779.595
   vertex 21430.5 8232.05 692.642
   vertex 21387.7 8306.15 591.362
  endloop
 endfacet
 facet normal 0.866025 0.500001 8.95477e-08
  outer loop
   vertex 21394.8 8293.91 478.657
   vertex 21387.7 8306.15 591.362
   vertex 21430.5 8232.05 692.642
  endloop
 endfacet
 facet normal 0.866024 0.500002 -9.15167e-06
  outer loop
   vertex 22842.7 5786.23 -1796.63
   vertex 22752.3 5942.74 -1882.11
   vertex 22807.8 5846.63 -1773.56
  endloop
 endfacet
 facet normal 0.866015 0.500017 8.4141e-06
  outer loop
   vertex 22708.8 6018.04 -1863.89
   vertex 22807.8 5846.63 -1773.56
   vertex 22752.3 5942.74 -1882.11
  endloop
 endfacet
 facet normal 0.866018 0.500013 -3.07404e-06
  outer loop
   vertex 22807.8 5846.63 -1773.56
   vertex 22708.8 6018.04 -1863.89
   vertex 22724.4 5990.99 -1708.23
  endloop
 endfacet
 facet normal 0.86602 0.500009 -3.84683e-06
  outer loop
   vertex 22612.3 6185.18 -1810.45
   vertex 22724.4 5990.99 -1708.23
   vertex 22708.8 6018.04 -1863.89
  endloop
 endfacet
 facet normal 0.86602 0.500009 -6.08213e-06
  outer loop
   vertex 22724.4 5990.99 -1708.23
   vertex 22612.3 6185.18 -1810.45
   vertex 22613.3 6183.49 -1605.94
  endloop
 endfacet
 facet normal 0.866019 0.500011 -6.05403e-06
  outer loop
   vertex 22612.3 6185.18 -1810.45
   vertex 22491.1 6395.15 -1724.85
   vertex 22613.3 6183.49 -1605.94
  endloop
 endfacet
 facet normal 0.866019 0.500011 -5.2902e-06
  outer loop
   vertex 22613.3 6183.49 -1605.94
   vertex 22491.1 6395.15 -1724.85
   vertex 22489.5 6397.9 -1472.41
  endloop
 endfacet
 facet normal 0.866021 0.500008 -5.23457e-06
  outer loop
   vertex 22362.5 6617.88 -1610.91
   vertex 22489.5 6397.9 -1472.41
   vertex 22491.1 6395.15 -1724.85
  endloop
 endfacet
 facet normal 0.86602 0.50001 0
  outer loop
   vertex 22235.5 6837.87 -1472.41
   vertex 22362.5 6617.88 -1313.02
   vertex 22362.5 6617.88 -1610.91
  endloop
 endfacet
 facet normal 0.86602 0.50001 -0
  outer loop
   vertex 22489.5 6397.9 -1472.41
   vertex 22362.5 6617.88 -1610.91
   vertex 22362.5 6617.88 -1313.02
  endloop
 endfacet
 facet normal 0.86602 0.50001 3.10592e-07
  outer loop
   vertex 22362.5 6617.88 -1313.02
   vertex 22235.5 6837.87 -1472.41
   vertex 22237.5 6834.37 -1132.22
  endloop
 endfacet
 facet normal 0.866023 0.500004 2.30867e-07
  outer loop
   vertex 22114.1 7048.1 -1312.55
   vertex 22237.5 6834.37 -1132.22
   vertex 22235.5 6837.87 -1472.41
  endloop
 endfacet
 facet normal 0.866022 0.500007 3.72319e-06
  outer loop
   vertex 22237.5 6834.37 -1132.22
   vertex 22114.1 7048.1 -1312.55
   vertex 22117.2 7042.69 -933.389
  endloop
 endfacet
 facet normal 0.86602 0.500009 3.76893e-06
  outer loop
   vertex 22000 7245.77 -1133.74
   vertex 22117.2 7042.69 -933.389
   vertex 22114.1 7048.1 -1312.55
  endloop
 endfacet
 facet normal 0.866022 0.500006 -8.26338e-07
  outer loop
   vertex 22117.2 7042.69 -933.389
   vertex 22000 7245.77 -1133.74
   vertex 22003 7240.48 -718.914
  endloop
 endfacet
 facet normal 0.866022 0.500006 -8.2289e-07
  outer loop
   vertex 21893.7 7429.85 -937.587
   vertex 22003 7240.48 -718.914
   vertex 22000 7245.77 -1133.74
  endloop
 endfacet
 facet normal 0.866021 0.500007 4.68957e-06
  outer loop
   vertex 21895.8 7426.22 -490.533
   vertex 22003 7240.48 -718.914
   vertex 21795.6 7599.73 -725.03
  endloop
 endfacet
 facet normal 0.866021 0.500007 9.14582e-07
  outer loop
   vertex 21893.7 7429.85 -937.587
   vertex 21795.6 7599.73 -725.03
   vertex 22003 7240.48 -718.914
  endloop
 endfacet
 facet normal 0.866021 0.500008 -4.27599e-06
  outer loop
   vertex 21796.4 7598.4 -249.979
   vertex 21895.8 7426.22 -490.533
   vertex 21706.2 7754.58 -496.771
  endloop
 endfacet
 facet normal 0.866021 0.500008 5.70543e-06
  outer loop
   vertex 21795.6 7599.73 -725.03
   vertex 21706.2 7754.58 -496.771
   vertex 21895.8 7426.22 -490.533
  endloop
 endfacet
 facet normal 0.866021 0.500008 4.67443e-06
  outer loop
   vertex 21706 7754.98 1.01263e-05
   vertex 21796.4 7598.4 -249.979
   vertex 21626.3 7893.02 -254.018
  endloop
 endfacet
 facet normal 0.866021 0.500008 -4.37994e-06
  outer loop
   vertex 21706.2 7754.58 -496.771
   vertex 21626.3 7893.02 -254.018
   vertex 21796.4 7598.4 -249.979
  endloop
 endfacet
 facet normal 0.86602 0.500009 5.17961e-06
  outer loop
   vertex 21626.3 7893.02 -254.018
   vertex 21557 8012.96 5.5897e-05
   vertex 21706 7754.98 1.01263e-05
  endloop
 endfacet
 facet normal 0.86602 0.500009 -5.17961e-06
  outer loop
   vertex 21626.3 7893.02 254.018
   vertex 21706 7754.98 1.01263e-05
   vertex 21557 8012.96 5.5897e-05
  endloop
 endfacet
 facet normal 0.86602 0.500009 2.82769e-06
  outer loop
   vertex 21559.5 8008.66 501.595
   vertex 21626.3 7893.02 254.018
   vertex 21500 8111.64 257.193
  endloop
 endfacet
 facet normal 0.86602 0.500009 -4.92647e-06
  outer loop
   vertex 21557 8012.96 5.5897e-05
   vertex 21500 8111.64 257.193
   vertex 21626.3 7893.02 254.018
  endloop
 endfacet
 facet normal 0.866021 0.500008 -2.3878e-06
  outer loop
   vertex 21508.4 8097.25 723.878
   vertex 21559.5 8008.66 501.595
   vertex 21457.2 8185.77 499.649
  endloop
 endfacet
 facet normal 0.866021 0.500008 2.2599e-06
  outer loop
   vertex 21500 8111.64 257.193
   vertex 21457.2 8185.77 499.649
   vertex 21559.5 8008.66 501.595
  endloop
 endfacet
 facet normal 0.866018 0.500013 6.062e-06
  outer loop
   vertex 21475.7 8153.82 890.566
   vertex 21508.4 8097.25 723.878
   vertex 21430.5 8232.05 692.642
  endloop
 endfacet
 facet normal 0.866018 0.500012 -3.67508e-07
  outer loop
   vertex 21457.2 8185.77 499.649
   vertex 21430.5 8232.05 692.642
   vertex 21508.4 8097.25 723.878
  endloop
 endfacet
 facet normal 0.866026 0.499999 -3.20522e-06
  outer loop
   vertex 21464.2 8173.8 960.32
   vertex 21475.7 8153.82 890.566
   vertex 21421.4 8247.83 779.595
  endloop
 endfacet
 facet normal 0.866024 0.500002 1.35814e-07
  outer loop
   vertex 21430.5 8232.05 692.642
   vertex 21421.4 8247.83 779.595
   vertex 21475.7 8153.82 890.566
  endloop
 endfacet
 facet normal 0.866019 0.50001 3.89886e-07
  outer loop
   vertex 22928.4 5637.72 -1693.85
   vertex 22842.7 5786.23 -1796.63
   vertex 22899.6 5687.63 -1665.37
  endloop
 endfacet
 facet normal 0.866024 0.500002 -7.8941e-06
  outer loop
   vertex 22807.8 5846.63 -1773.56
   vertex 22899.6 5687.63 -1665.37
   vertex 22842.7 5786.23 -1796.63
  endloop
 endfacet
 facet normal 0.866022 0.500006 6.2097e-07
  outer loop
   vertex 22899.6 5687.63 -1665.37
   vertex 22807.8 5846.63 -1773.56
   vertex 22827.5 5812.51 -1586.9
  endloop
 endfacet
 facet normal 0.866019 0.500011 1.76926e-06
  outer loop
   vertex 22724.4 5990.99 -1708.23
   vertex 22827.5 5812.51 -1586.9
   vertex 22807.8 5846.63 -1773.56
  endloop
 endfacet
 facet normal 0.86602 0.500009 -2.87101e-06
  outer loop
   vertex 22827.5 5812.51 -1586.9
   vertex 22724.4 5990.99 -1708.23
   vertex 22727.1 5986.33 -1466.56
  endloop
 endfacet
 facet normal 0.866021 0.500007 -2.90887e-06
  outer loop
   vertex 22727.1 5986.33 -1466.56
   vertex 22724.4 5990.99 -1708.23
   vertex 22613.3 6183.49 -1605.94
  endloop
 endfacet
 facet normal 0.866021 0.500007 4.24458e-06
  outer loop
   vertex 22489.5 6397.9 -1472.41
   vertex 22610.9 6187.67 -1312.55
   vertex 22613.3 6183.49 -1605.94
  endloop
 endfacet
 facet normal 0.866019 0.500011 4.16743e-06
  outer loop
   vertex 22727.1 5986.33 -1466.56
   vertex 22613.3 6183.49 -1605.94
   vertex 22610.9 6187.67 -1312.55
  endloop
 endfacet
 facet normal 0.86602 0.50001 -3.10591e-07
  outer loop
   vertex 22362.5 6617.88 -1313.02
   vertex 22487.5 6401.4 -1132.22
   vertex 22489.5 6397.9 -1472.41
  endloop
 endfacet
 facet normal 0.866023 0.500004 -2.30866e-07
  outer loop
   vertex 22610.9 6187.67 -1312.55
   vertex 22489.5 6397.9 -1472.41
   vertex 22487.5 6401.4 -1132.22
  endloop
 endfacet
 facet normal 0.866019 0.50001 -0
  outer loop
   vertex 22487.5 6401.4 -1132.22
   vertex 22362.5 6617.88 -1313.02
   vertex 22362.5 6617.88 -931.523
  endloop
 endfacet
 facet normal 0.866019 0.50001 0
  outer loop
   vertex 22237.5 6834.37 -1132.22
   vertex 22362.5 6617.88 -931.523
   vertex 22362.5 6617.88 -1313.02
  endloop
 endfacet
 facet normal 0.866019 0.50001 3.66671e-08
  outer loop
   vertex 22362.5 6617.88 -931.523
   vertex 22237.5 6834.37 -1132.22
   vertex 22239.2 6831.41 -714.955
  endloop
 endfacet
 facet normal 0.86602 0.500009 2.55089e-08
  outer loop
   vertex 22117.2 7042.69 -933.389
   vertex 22239.2 6831.41 -714.955
   vertex 22237.5 6834.37 -1132.22
  endloop
 endfacet
 facet normal 0.866021 0.500007 -2.90316e-06
  outer loop
   vertex 22239.2 6831.41 -714.955
   vertex 22117.2 7042.69 -933.389
   vertex 22119.6 7038.57 -485.774
  endloop
 endfacet
 facet normal 0.866021 0.500007 -2.89926e-06
  outer loop
   vertex 22003 7240.48 -718.914
   vertex 22119.6 7038.57 -485.774
   vertex 22117.2 7042.69 -933.389
  endloop
 endfacet
 facet normal 0.866019 0.500011 1.95546e-06
  outer loop
   vertex 22005 7237.05 -246.557
   vertex 22119.6 7038.57 -485.774
   vertex 21895.8 7426.22 -490.533
  endloop
 endfacet
 facet normal 0.866019 0.500011 1.05316e-06
  outer loop
   vertex 22003 7240.48 -718.914
   vertex 21895.8 7426.22 -490.533
   vertex 22119.6 7038.57 -485.774
  endloop
 endfacet
 facet normal 0.866022 0.500006 8.53323e-07
  outer loop
   vertex 21896.7 7424.6 -2.13903e-05
   vertex 22005 7237.05 -246.557
   vertex 21796.4 7598.4 -249.979
  endloop
 endfacet
 facet normal 0.866022 0.500006 -2.51258e-06
  outer loop
   vertex 21895.8 7426.22 -490.533
   vertex 21796.4 7598.4 -249.979
   vertex 22005 7237.05 -246.557
  endloop
 endfacet
 facet normal 0.86602 0.500009 3.65155e-06
  outer loop
   vertex 21796.4 7598.4 -249.979
   vertex 21706 7754.98 1.01263e-05
   vertex 21896.7 7424.6 -2.13903e-05
  endloop
 endfacet
 facet normal 0.86602 0.500009 -3.65155e-06
  outer loop
   vertex 21896.7 7424.6 -2.13903e-05
   vertex 21706 7754.98 1.01263e-05
   vertex 21796.4 7598.4 249.979
  endloop
 endfacet
 facet normal 0.866021 0.500008 -4.67443e-06
  outer loop
   vertex 21706 7754.98 1.01263e-05
   vertex 21626.3 7893.02 254.018
   vertex 21796.4 7598.4 249.979
  endloop
 endfacet
 facet normal 0.866021 0.500008 4.37994e-06
  outer loop
   vertex 21706.2 7754.58 496.77
   vertex 21796.4 7598.4 249.979
   vertex 21626.3 7893.02 254.018
  endloop
 endfacet
 facet normal 0.866021 0.500008 3.90592e-06
  outer loop
   vertex 21626.3 7893.02 254.018
   vertex 21559.5 8008.66 501.595
   vertex 21706.2 7754.58 496.77
  endloop
 endfacet
 facet normal 0.866021 0.500008 8.10184e-07
  outer loop
   vertex 21629.2 7887.95 729.259
   vertex 21706.2 7754.58 496.77
   vertex 21559.5 8008.66 501.595
  endloop
 endfacet
 facet normal 0.866022 0.500005 -1.00054e-06
  outer loop
   vertex 21569 7992.17 929.972
   vertex 21629.2 7887.95 729.259
   vertex 21508.4 8097.25 723.878
  endloop
 endfacet
 facet normal 0.866022 0.500005 -8.21803e-07
  outer loop
   vertex 21629.2 7887.95 729.259
   vertex 21559.5 8008.66 501.595
   vertex 21508.4 8097.25 723.878
  endloop
 endfacet
 facet normal 0.866018 0.500013 -5.14821e-06
  outer loop
   vertex 21529.8 8060.13 1074.17
   vertex 21569 7992.17 929.972
   vertex 21475.7 8153.82 890.566
  endloop
 endfacet
 facet normal 0.866017 0.500015 5.38733e-06
  outer loop
   vertex 21508.4 8097.25 723.878
   vertex 21475.7 8153.82 890.566
   vertex 21569 7992.17 929.972
  endloop
 endfacet
 facet normal 0.866014 0.50002 7.20892e-06
  outer loop
   vertex 21515.5 8084.79 1131.8
   vertex 21529.8 8060.13 1074.17
   vertex 21464.2 8173.8 960.32
  endloop
 endfacet
 facet normal 0.86602 0.50001 -7.27148e-06
  outer loop
   vertex 21475.7 8153.82 890.566
   vertex 21464.2 8173.8 960.32
   vertex 21529.8 8060.13 1074.17
  endloop
 endfacet
 facet normal 0.866024 0.500003 -4.76962e-06
  outer loop
   vertex 23008.7 5498.66 -1574.76
   vertex 22928.4 5637.72 -1693.85
   vertex 22984.5 5540.59 -1540.38
  endloop
 endfacet
 facet normal 0.86602 0.50001 1.14963e-06
  outer loop
   vertex 22899.6 5687.63 -1665.37
   vertex 22984.5 5540.59 -1540.38
   vertex 22928.4 5637.72 -1693.85
  endloop
 endfacet
 facet normal 0.86602 0.50001 1.28542e-06
  outer loop
   vertex 22984.5 5540.59 -1540.38
   vertex 22899.6 5687.63 -1665.37
   vertex 22922 5648.8 -1447.71
  endloop
 endfacet
 facet normal 0.866022 0.500006 4.29911e-07
  outer loop
   vertex 22922 5648.8 -1447.71
   vertex 22899.6 5687.63 -1665.37
   vertex 22827.5 5812.51 -1586.9
  endloop
 endfacet
 facet normal 0.866022 0.500007 9.3256e-07
  outer loop
   vertex 22727.1 5986.33 -1466.56
   vertex 22832.3 5804.23 -1308.41
   vertex 22827.5 5812.51 -1586.9
  endloop
 endfacet
 facet normal 0.866021 0.500007 9.3422e-07
  outer loop
   vertex 22922 5648.8 -1447.71
   vertex 22827.5 5812.51 -1586.9
   vertex 22832.3 5804.23 -1308.41
  endloop
 endfacet
 facet normal 0.866018 0.500013 1.46194e-06
  outer loop
   vertex 22610.9 6187.67 -1312.55
   vertex 22725 5989.99 -1133.74
   vertex 22727.1 5986.33 -1466.56
  endloop
 endfacet
 facet normal 0.866021 0.500007 1.54133e-06
  outer loop
   vertex 22832.3 5804.23 -1308.41
   vertex 22727.1 5986.33 -1466.56
   vertex 22725 5989.99 -1133.74
  endloop
 endfacet
 facet normal 0.866023 0.500004 7.92112e-07
  outer loop
   vertex 22487.5 6401.4 -1132.22
   vertex 22607.8 6193.07 -933.389
   vertex 22610.9 6187.67 -1312.55
  endloop
 endfacet
 facet normal 0.866018 0.500012 6.35327e-07
  outer loop
   vertex 22610.9 6187.67 -1312.55
   vertex 22607.8 6193.07 -933.389
   vertex 22725 5989.99 -1133.74
  endloop
 endfacet
 facet normal 0.866019 0.50001 -3.66671e-08
  outer loop
   vertex 22362.5 6617.88 -931.523
   vertex 22485.8 6404.36 -714.955
   vertex 22487.5 6401.4 -1132.22
  endloop
 endfacet
 facet normal 0.866024 0.500003 3.17659e-08
  outer loop
   vertex 22487.5 6401.4 -1132.22
   vertex 22485.8 6404.36 -714.955
   vertex 22607.8 6193.07 -933.389
  endloop
 endfacet
 facet normal 0.866019 0.50001 0
  outer loop
   vertex 22239.2 6831.41 -714.955
   vertex 22362.5 6617.88 -484.026
   vertex 22362.5 6617.88 -931.523
  endloop
 endfacet
 facet normal 0.866019 0.50001 -0
  outer loop
   vertex 22485.8 6404.36 -714.955
   vertex 22362.5 6617.88 -931.523
   vertex 22362.5 6617.88 -484.026
  endloop
 endfacet
 facet normal 0.866019 0.500011 2.18347e-07
  outer loop
   vertex 22362.5 6617.88 -484.026
   vertex 22239.2 6831.41 -714.955
   vertex 22240.2 6829.74 -244.635
  endloop
 endfacet
 facet normal 0.866023 0.500004 1.88997e-07
  outer loop
   vertex 22119.6 7038.57 -485.774
   vertex 22240.2 6829.74 -244.635
   vertex 22239.2 6831.41 -714.955
  endloop
 endfacet
 facet normal 0.866021 0.500008 -1.41274e-06
  outer loop
   vertex 22120.5 7037.06 -2.05202e-05
   vertex 22240.2 6829.74 -244.635
   vertex 22005 7237.05 -246.557
  endloop
 endfacet
 facet normal 0.866021 0.500008 4.65879e-06
  outer loop
   vertex 22119.6 7038.57 -485.774
   vertex 22005 7237.05 -246.557
   vertex 22240.2 6829.74 -244.635
  endloop
 endfacet
 facet normal 0.866021 0.500008 -1.20265e-06
  outer loop
   vertex 22005 7237.05 -246.557
   vertex 21896.7 7424.6 -2.13903e-05
   vertex 22120.5 7037.06 -2.05202e-05
  endloop
 endfacet
 facet normal 0.866021 0.500008 1.20265e-06
  outer loop
   vertex 22005 7237.05 246.557
   vertex 22120.5 7037.06 -2.05202e-05
   vertex 21896.7 7424.6 -2.13903e-05
  endloop
 endfacet
 facet normal 0.866022 0.500006 -8.53323e-07
  outer loop
   vertex 21896.7 7424.6 -2.13903e-05
   vertex 21796.4 7598.4 249.979
   vertex 22005 7237.05 246.557
  endloop
 endfacet
 facet normal 0.866022 0.500006 2.51258e-06
  outer loop
   vertex 21895.8 7426.22 490.533
   vertex 22005 7237.05 246.557
   vertex 21796.4 7598.4 249.979
  endloop
 endfacet
 facet normal 0.866021 0.500008 4.27599e-06
  outer loop
   vertex 21796.4 7598.4 249.979
   vertex 21706.2 7754.58 496.77
   vertex 21895.8 7426.22 490.533
  endloop
 endfacet
 facet normal 0.866021 0.500008 -4.64944e-06
  outer loop
   vertex 21795.6 7599.73 725.03
   vertex 21895.8 7426.22 490.533
   vertex 21706.2 7754.58 496.77
  endloop
 endfacet
 facet normal 0.866019 0.500011 -2.03518e-06
  outer loop
   vertex 21706.2 7754.58 496.77
   vertex 21629.2 7887.95 729.259
   vertex 21795.6 7599.73 725.03
  endloop
 endfacet
 facet normal 0.866019 0.500011 1.35074e-06
  outer loop
   vertex 21795.6 7599.73 725.03
   vertex 21629.2 7887.95 729.259
   vertex 21708.3 7751 939.535
  endloop
 endfacet
 facet normal 0.866021 0.500007 -2.26681e-06
  outer loop
   vertex 21629.2 7887.95 729.259
   vertex 21569 7992.17 929.972
   vertex 21708.3 7751 939.535
  endloop
 endfacet
 facet normal 0.866021 0.500007 -1.28667e-06
  outer loop
   vertex 21638.6 7871.63 1119
   vertex 21708.3 7751 939.535
   vertex 21569 7992.17 929.972
  endloop
 endfacet
 facet normal 0.866021 0.500008 4.4752e-06
  outer loop
   vertex 21592.3 7951.88 1243.95
   vertex 21638.6 7871.63 1119
   vertex 21529.8 8060.13 1074.17
  endloop
 endfacet
 facet normal 0.866021 0.500007 -1.47932e-06
  outer loop
   vertex 21569 7992.17 929.972
   vertex 21529.8 8060.13 1074.17
   vertex 21638.6 7871.63 1119
  endloop
 endfacet
 facet normal 0.866021 0.500008 -1.25694e-06
  outer loop
   vertex 21575.1 7981.66 1292.37
   vertex 21592.3 7951.88 1243.95
   vertex 21515.5 8084.79 1131.8
  endloop
 endfacet
 facet normal 0.866017 0.500015 1.03907e-05
  outer loop
   vertex 21529.8 8060.13 1074.17
   vertex 21515.5 8084.79 1131.8
   vertex 21592.3 7951.88 1243.95
  endloop
 endfacet
 facet normal 0.866023 0.500004 -6.0566e-06
  outer loop
   vertex 22984.5 5540.59 -1540.38
   vertex 23062.3 5405.81 -1399.59
   vertex 23008.7 5498.66 -1574.76
  endloop
 endfacet
 facet normal 0.866024 0.500002 -7.50562e-06
  outer loop
   vertex 23008.7 5498.66 -1574.76
   vertex 23062.3 5405.81 -1399.59
   vertex 23082.8 5370.38 -1440.5
  endloop
 endfacet
 facet normal 0.86602 0.50001 1.60829e-06
  outer loop
   vertex 22922 5648.8 -1447.71
   vertex 23008.3 5499.35 -1291.58
   vertex 22984.5 5540.59 -1540.38
  endloop
 endfacet
 facet normal 0.86602 0.50001 1.58195e-06
  outer loop
   vertex 23062.3 5405.81 -1399.59
   vertex 22984.5 5540.59 -1540.38
   vertex 23008.3 5499.35 -1291.58
  endloop
 endfacet
 facet normal 0.86602 0.500009 -2.21754e-06
  outer loop
   vertex 22832.3 5804.23 -1308.41
   vertex 22928.8 5637.04 -1132.58
   vertex 22922 5648.8 -1447.71
  endloop
 endfacet
 facet normal 0.866021 0.500007 -2.32355e-06
  outer loop
   vertex 23008.3 5499.35 -1291.58
   vertex 22922 5648.8 -1447.71
   vertex 22928.8 5637.04 -1132.58
  endloop
 endfacet
 facet normal 0.866021 0.500007 1.38689e-06
  outer loop
   vertex 22725 5989.99 -1133.74
   vertex 22831.3 5805.91 -937.587
   vertex 22832.3 5804.23 -1308.41
  endloop
 endfacet
 facet normal 0.866019 0.500012 1.35973e-06
  outer loop
   vertex 22928.8 5637.04 -1132.58
   vertex 22832.3 5804.23 -1308.41
   vertex 22831.3 5805.91 -937.587
  endloop
 endfacet
 facet normal 0.866019 0.500012 7.18626e-07
  outer loop
   vertex 22607.8 6193.07 -933.389
   vertex 22721.9 5995.29 -718.914
   vertex 22725 5989.99 -1133.74
  endloop
 endfacet
 facet normal 0.866021 0.500007 8.06182e-07
  outer loop
   vertex 22831.3 5805.91 -937.587
   vertex 22725 5989.99 -1133.74
   vertex 22721.9 5995.29 -718.914
  endloop
 endfacet
 facet normal 0.866023 0.500004 -8.37547e-07
  outer loop
   vertex 22485.8 6404.36 -714.955
   vertex 22605.4 6197.19 -485.774
   vertex 22607.8 6193.07 -933.389
  endloop
 endfacet
 facet normal 0.866019 0.500011 -9.2015e-07
  outer loop
   vertex 22721.9 5995.29 -718.914
   vertex 22607.8 6193.07 -933.389
   vertex 22605.4 6197.19 -485.774
  endloop
 endfacet
 facet normal 0.866019 0.500011 -2.18347e-07
  outer loop
   vertex 22362.5 6617.88 -484.026
   vertex 22484.8 6406.02 -244.635
   vertex 22485.8 6404.36 -714.955
  endloop
 endfacet
 facet normal 0.866023 0.500004 -1.88997e-07
  outer loop
   vertex 22485.8 6404.36 -714.955
   vertex 22484.8 6406.02 -244.635
   vertex 22605.4 6197.19 -485.774
  endloop
 endfacet
 facet normal 0.866019 0.500011 -0
  outer loop
   vertex 22484.8 6406.02 -244.635
   vertex 22362.5 6617.88 -484.026
   vertex 22362.5 6617.88 -1.61635e-13
  endloop
 endfacet
 facet normal 0.866019 0.500011 0
  outer loop
   vertex 22240.2 6829.74 -244.635
   vertex 22362.5 6617.88 -1.61635e-13
   vertex 22362.5 6617.88 -484.026
  endloop
 endfacet
 facet normal 0.86602 0.500009 2.1733e-06
  outer loop
   vertex 22240.2 6829.74 244.635
   vertex 22362.5 6617.88 -1.61635e-13
   vertex 22120.5 7037.06 -2.05202e-05
  endloop
 endfacet
 facet normal 0.86602 0.500009 -2.1733e-06
  outer loop
   vertex 22362.5 6617.88 -1.61635e-13
   vertex 22240.2 6829.74 -244.635
   vertex 22120.5 7037.06 -2.05202e-05
  endloop
 endfacet
 facet normal 0.866021 0.500008 1.41274e-06
  outer loop
   vertex 22120.5 7037.06 -2.05202e-05
   vertex 22005 7237.05 246.557
   vertex 22240.2 6829.74 244.635
  endloop
 endfacet
 facet normal 0.866021 0.500008 -4.65879e-06
  outer loop
   vertex 22240.2 6829.74 244.635
   vertex 22005 7237.05 246.557
   vertex 22119.6 7038.57 485.774
  endloop
 endfacet
 facet normal 0.866019 0.500011 -1.95546e-06
  outer loop
   vertex 22005 7237.05 246.557
   vertex 21895.8 7426.22 490.533
   vertex 22119.6 7038.57 485.774
  endloop
 endfacet
 facet normal 0.866019 0.500011 -1.05316e-06
  outer loop
   vertex 22003 7240.48 718.914
   vertex 22119.6 7038.57 485.774
   vertex 21895.8 7426.22 490.533
  endloop
 endfacet
 facet normal 0.866021 0.500008 -4.14441e-06
  outer loop
   vertex 21895.8 7426.22 490.533
   vertex 21795.6 7599.73 725.03
   vertex 22003 7240.48 718.914
  endloop
 endfacet
 facet normal 0.866021 0.500008 -3.7874e-07
  outer loop
   vertex 22003 7240.48 718.914
   vertex 21795.6 7599.73 725.03
   vertex 21893.7 7429.85 937.587
  endloop
 endfacet
 facet normal 0.866019 0.50001 2.24483e-06
  outer loop
   vertex 21795.6 7599.73 725.03
   vertex 21708.3 7751 939.535
   vertex 21893.7 7429.85 937.587
  endloop
 endfacet
 facet normal 0.866019 0.50001 3.04127e-06
  outer loop
   vertex 21708.3 7751 939.535
   vertex 21796.2 7598.72 1132.58
   vertex 21893.7 7429.85 937.587
  endloop
 endfacet
 facet normal 0.866022 0.500007 -8.35161e-07
  outer loop
   vertex 21708.3 7751 939.535
   vertex 21638.6 7871.63 1119
   vertex 21796.2 7598.72 1132.58
  endloop
 endfacet
 facet normal 0.866022 0.500007 -2.05254e-06
  outer loop
   vertex 21716.7 7736.42 1291.58
   vertex 21796.2 7598.72 1132.58
   vertex 21638.6 7871.63 1119
  endloop
 endfacet
 facet normal 0.866019 0.500011 2.18627e-06
  outer loop
   vertex 21638.6 7871.63 1119
   vertex 21592.3 7951.88 1243.95
   vertex 21716.7 7736.42 1291.58
  endloop
 endfacet
 facet normal 0.866019 0.50001 8.44218e-07
  outer loop
   vertex 21662.7 7829.96 1399.59
   vertex 21716.7 7736.42 1291.58
   vertex 21592.3 7951.88 1243.95
  endloop
 endfacet
 facet normal 0.866021 0.500008 -1.64803e-06
  outer loop
   vertex 21592.3 7951.88 1243.95
   vertex 21575.1 7981.66 1292.37
   vertex 21662.7 7829.96 1399.59
  endloop
 endfacet
 facet normal 0.866023 0.500004 -9.7844e-06
  outer loop
   vertex 21642.2 7865.39 1440.5
   vertex 21662.7 7829.96 1399.59
   vertex 21575.1 7981.66 1292.37
  endloop
 endfacet
 facet normal 0.866019 0.500011 1.17649e-06
  outer loop
   vertex 23132.7 5283.89 -1243.95
   vertex 23149.9 5254.11 -1292.37
   vertex 23062.3 5405.81 -1399.59
  endloop
 endfacet
 facet normal 0.866023 0.500004 -1.0649e-05
  outer loop
   vertex 23082.8 5370.38 -1440.5
   vertex 23062.3 5405.81 -1399.59
   vertex 23149.9 5254.11 -1292.37
  endloop
 endfacet
 facet normal 0.866019 0.50001 4.75203e-07
  outer loop
   vertex 23086.4 5364.14 -1119
   vertex 23132.7 5283.89 -1243.95
   vertex 23008.3 5499.35 -1291.58
  endloop
 endfacet
 facet normal 0.866019 0.50001 8.44218e-07
  outer loop
   vertex 23062.3 5405.81 -1399.59
   vertex 23008.3 5499.35 -1291.58
   vertex 23132.7 5283.89 -1243.95
  endloop
 endfacet
 facet normal 0.866021 0.500007 -1.00675e-07
  outer loop
   vertex 23016.7 5484.77 -939.535
   vertex 23086.4 5364.14 -1119
   vertex 22928.8 5637.04 -1132.58
  endloop
 endfacet
 facet normal 0.866021 0.500007 -2.79528e-06
  outer loop
   vertex 23008.3 5499.35 -1291.58
   vertex 22928.8 5637.04 -1132.58
   vertex 23086.4 5364.14 -1119
  endloop
 endfacet
 facet normal 0.866019 0.50001 2.24483e-06
  outer loop
   vertex 22929.4 5636.04 -725.03
   vertex 23016.7 5484.77 -939.535
   vertex 22831.3 5805.91 -937.587
  endloop
 endfacet
 facet normal 0.866019 0.50001 3.04127e-06
  outer loop
   vertex 23016.7 5484.77 -939.535
   vertex 22928.8 5637.04 -1132.58
   vertex 22831.3 5805.91 -937.587
  endloop
 endfacet
 facet normal 0.866021 0.500008 -4.14441e-06
  outer loop
   vertex 22829.2 5809.55 -490.533
   vertex 22929.4 5636.04 -725.03
   vertex 22721.9 5995.29 -718.914
  endloop
 endfacet
 facet normal 0.866021 0.500008 -3.7874e-07
  outer loop
   vertex 22721.9 5995.29 -718.914
   vertex 22929.4 5636.04 -725.03
   vertex 22831.3 5805.91 -937.587
  endloop
 endfacet
 facet normal 0.866019 0.500011 -1.95546e-06
  outer loop
   vertex 22720 5998.72 -246.557
   vertex 22829.2 5809.55 -490.533
   vertex 22605.4 6197.19 -485.774
  endloop
 endfacet
 facet normal 0.866019 0.500011 -1.05316e-06
  outer loop
   vertex 22721.9 5995.29 -718.914
   vertex 22605.4 6197.19 -485.774
   vertex 22829.2 5809.55 -490.533
  endloop
 endfacet
 facet normal 0.866021 0.500008 1.41274e-06
  outer loop
   vertex 22604.5 6198.71 2.05202e-05
   vertex 22720 5998.72 -246.557
   vertex 22484.8 6406.02 -244.635
  endloop
 endfacet
 facet normal 0.866021 0.500008 -4.65879e-06
  outer loop
   vertex 22484.8 6406.02 -244.635
   vertex 22720 5998.72 -246.557
   vertex 22605.4 6197.19 -485.774
  endloop
 endfacet
 facet normal 0.86602 0.500009 2.1733e-06
  outer loop
   vertex 22484.8 6406.02 -244.635
   vertex 22362.5 6617.88 -1.61635e-13
   vertex 22604.5 6198.71 2.05202e-05
  endloop
 endfacet
 facet normal 0.86602 0.500009 -2.1733e-06
  outer loop
   vertex 22484.8 6406.02 244.635
   vertex 22604.5 6198.71 2.05202e-05
   vertex 22362.5 6617.88 -1.61635e-13
  endloop
 endfacet
 facet normal 0.866019 0.500011 0
  outer loop
   vertex 22240.2 6829.74 244.635
   vertex 22362.5 6617.88 484.026
   vertex 22362.5 6617.88 -1.61635e-13
  endloop
 endfacet
 facet normal 0.866019 0.500011 -0
  outer loop
   vertex 22484.8 6406.02 244.635
   vertex 22362.5 6617.88 -1.61635e-13
   vertex 22362.5 6617.88 484.026
  endloop
 endfacet
 facet normal 0.866019 0.500011 -2.18347e-07
  outer loop
   vertex 22362.5 6617.88 484.026
   vertex 22240.2 6829.74 244.635
   vertex 22239.2 6831.41 714.955
  endloop
 endfacet
 facet normal 0.866023 0.500004 -1.88997e-07
  outer loop
   vertex 22239.2 6831.41 714.955
   vertex 22240.2 6829.74 244.635
   vertex 22119.6 7038.57 485.774
  endloop
 endfacet
 facet normal 0.866023 0.500004 -8.37547e-07
  outer loop
   vertex 22239.2 6831.41 714.955
   vertex 22119.6 7038.57 485.774
   vertex 22117.2 7042.69 933.389
  endloop
 endfacet
 facet normal 0.866019 0.500011 -9.2015e-07
  outer loop
   vertex 22003 7240.48 718.914
   vertex 22117.2 7042.69 933.389
   vertex 22119.6 7038.57 485.774
  endloop
 endfacet
 facet normal 0.866019 0.500012 7.18626e-07
  outer loop
   vertex 22117.2 7042.69 933.389
   vertex 22003 7240.48 718.914
   vertex 22000 7245.77 1133.74
  endloop
 endfacet
 facet normal 0.866021 0.500007 8.06182e-07
  outer loop
   vertex 21893.7 7429.85 937.587
   vertex 22000 7245.77 1133.74
   vertex 22003 7240.48 718.914
  endloop
 endfacet
 facet normal 0.866021 0.500007 1.38689e-06
  outer loop
   vertex 22000 7245.77 1133.74
   vertex 21893.7 7429.85 937.587
   vertex 21892.7 7431.54 1308.41
  endloop
 endfacet
 facet normal 0.866019 0.500012 1.35973e-06
  outer loop
   vertex 21796.2 7598.72 1132.58
   vertex 21892.7 7431.54 1308.41
   vertex 21893.7 7429.85 937.587
  endloop
 endfacet
 facet normal 0.86602 0.500009 -2.21754e-06
  outer loop
   vertex 21892.7 7431.54 1308.41
   vertex 21796.2 7598.72 1132.58
   vertex 21803 7586.96 1447.71
  endloop
 endfacet
 facet normal 0.866021 0.500007 -2.32355e-06
  outer loop
   vertex 21716.7 7736.42 1291.58
   vertex 21803 7586.96 1447.71
   vertex 21796.2 7598.72 1132.58
  endloop
 endfacet
 facet normal 0.86602 0.50001 1.60829e-06
  outer loop
   vertex 21803 7586.96 1447.71
   vertex 21716.7 7736.42 1291.58
   vertex 21740.5 7695.17 1540.38
  endloop
 endfacet
 facet normal 0.86602 0.50001 1.58195e-06
  outer loop
   vertex 21662.7 7829.96 1399.59
   vertex 21740.5 7695.17 1540.38
   vertex 21716.7 7736.42 1291.58
  endloop
 endfacet
 facet normal 0.866023 0.500004 -6.0566e-06
  outer loop
   vertex 21740.5 7695.17 1540.38
   vertex 21662.7 7829.96 1399.59
   vertex 21716.3 7737.1 1574.76
  endloop
 endfacet
 facet normal 0.866024 0.500002 -7.50562e-06
  outer loop
   vertex 21716.3 7737.1 1574.76
   vertex 21662.7 7829.96 1399.59
   vertex 21642.2 7865.39 1440.5
  endloop
 endfacet
 facet normal 0.86602 0.50001 2.0625e-06
  outer loop
   vertex 23149.9 5254.11 -1292.37
   vertex 23132.7 5283.89 -1243.95
   vertex 23209.4 5150.97 -1131.8
  endloop
 endfacet
 facet normal 0.866017 0.500015 1.03907e-05
  outer loop
   vertex 23195.2 5175.64 -1074.17
   vertex 23209.4 5150.97 -1131.8
   vertex 23132.7 5283.89 -1243.95
  endloop
 endfacet
 facet normal 0.866021 0.500007 3.50178e-06
  outer loop
   vertex 23132.7 5283.89 -1243.95
   vertex 23086.4 5364.14 -1119
   vertex 23195.2 5175.64 -1074.17
  endloop
 endfacet
 facet normal 0.866022 0.500006 -9.30448e-07
  outer loop
   vertex 23155.9 5243.59 -929.972
   vertex 23195.2 5175.64 -1074.17
   vertex 23086.4 5364.14 -1119
  endloop
 endfacet
 facet normal 0.866021 0.500007 -2.26681e-06
  outer loop
   vertex 23095.8 5347.81 -729.259
   vertex 23155.9 5243.59 -929.972
   vertex 23016.7 5484.77 -939.535
  endloop
 endfacet
 facet normal 0.866021 0.500007 3.83799e-08
  outer loop
   vertex 23155.9 5243.59 -929.972
   vertex 23086.4 5364.14 -1119
   vertex 23016.7 5484.77 -939.535
  endloop
 endfacet
 facet normal 0.866019 0.500011 -2.03518e-06
  outer loop
   vertex 23018.8 5481.19 -496.77
   vertex 23095.8 5347.81 -729.259
   vertex 22929.4 5636.04 -725.03
  endloop
 endfacet
 facet normal 0.866019 0.500011 1.35074e-06
  outer loop
   vertex 22929.4 5636.04 -725.03
   vertex 23095.8 5347.81 -729.259
   vertex 23016.7 5484.77 -939.535
  endloop
 endfacet
 facet normal 0.866021 0.500008 4.27599e-06
  outer loop
   vertex 22928.6 5637.36 -249.979
   vertex 23018.8 5481.19 -496.77
   vertex 22829.2 5809.55 -490.533
  endloop
 endfacet
 facet normal 0.866021 0.500008 -4.64944e-06
  outer loop
   vertex 22929.4 5636.04 -725.03
   vertex 22829.2 5809.55 -490.533
   vertex 23018.8 5481.19 -496.77
  endloop
 endfacet
 facet normal 0.866022 0.500006 1.29808e-07
  outer loop
   vertex 22828.3 5811.16 2.13903e-05
   vertex 22928.6 5637.36 -249.979
   vertex 22720 5998.72 -246.557
  endloop
 endfacet
 facet normal 0.866022 0.500006 2.51258e-06
  outer loop
   vertex 22829.2 5809.55 -490.533
   vertex 22720 5998.72 -246.557
   vertex 22928.6 5637.36 -249.979
  endloop
 endfacet
 facet normal 0.866021 0.500008 -1.71365e-06
  outer loop
   vertex 22720 5998.72 246.557
   vertex 22828.3 5811.16 2.13903e-05
   vertex 22604.5 6198.71 2.05202e-05
  endloop
 endfacet
 facet normal 0.866021 0.500008 1.71365e-06
  outer loop
   vertex 22720 5998.72 -246.557
   vertex 22604.5 6198.71 2.05202e-05
   vertex 22828.3 5811.16 2.13903e-05
  endloop
 endfacet
 facet normal 0.866021 0.500008 -1.41274e-06
  outer loop
   vertex 22604.5 6198.71 2.05202e-05
   vertex 22484.8 6406.02 244.635
   vertex 22720 5998.72 246.557
  endloop
 endfacet
 facet normal 0.866021 0.500008 4.65879e-06
  outer loop
   vertex 22605.4 6197.19 485.774
   vertex 22720 5998.72 246.557
   vertex 22484.8 6406.02 244.635
  endloop
 endfacet
 facet normal 0.866019 0.500011 2.18347e-07
  outer loop
   vertex 22362.5 6617.88 484.026
   vertex 22485.8 6404.36 714.955
   vertex 22484.8 6406.02 244.635
  endloop
 endfacet
 facet normal 0.866023 0.500004 1.88997e-07
  outer loop
   vertex 22605.4 6197.19 485.774
   vertex 22484.8 6406.02 244.635
   vertex 22485.8 6404.36 714.955
  endloop
 endfacet
 facet normal 0.866019 0.50001 0
  outer loop
   vertex 22239.2 6831.41 714.955
   vertex 22362.5 6617.88 931.523
   vertex 22362.5 6617.88 484.026
  endloop
 endfacet
 facet normal 0.866019 0.50001 -0
  outer loop
   vertex 22485.8 6404.36 714.955
   vertex 22362.5 6617.88 484.026
   vertex 22362.5 6617.88 931.523
  endloop
 endfacet
 facet normal 0.866019 0.50001 -3.66671e-08
  outer loop
   vertex 22362.5 6617.88 931.523
   vertex 22239.2 6831.41 714.955
   vertex 22237.5 6834.37 1132.22
  endloop
 endfacet
 facet normal 0.866024 0.500003 3.17659e-08
  outer loop
   vertex 22237.5 6834.37 1132.22
   vertex 22239.2 6831.41 714.955
   vertex 22117.2 7042.69 933.389
  endloop
 endfacet
 facet normal 0.866023 0.500004 7.92112e-07
  outer loop
   vertex 22237.5 6834.37 1132.22
   vertex 22117.2 7042.69 933.389
   vertex 22114.1 7048.1 1312.55
  endloop
 endfacet
 facet normal 0.866018 0.500012 6.35327e-07
  outer loop
   vertex 22114.1 7048.1 1312.55
   vertex 22117.2 7042.69 933.389
   vertex 22000 7245.77 1133.74
  endloop
 endfacet
 facet normal 0.866018 0.500013 1.46194e-06
  outer loop
   vertex 22114.1 7048.1 1312.55
   vertex 22000 7245.77 1133.74
   vertex 21997.8 7249.44 1466.56
  endloop
 endfacet
 facet normal 0.866021 0.500007 1.54133e-06
  outer loop
   vertex 21892.7 7431.54 1308.41
   vertex 21997.8 7249.44 1466.56
   vertex 22000 7245.77 1133.74
  endloop
 endfacet
 facet normal 0.866022 0.500007 9.3256e-07
  outer loop
   vertex 21997.8 7249.44 1466.56
   vertex 21892.7 7431.54 1308.41
   vertex 21897.5 7423.26 1586.9
  endloop
 endfacet
 facet normal 0.866021 0.500007 9.3422e-07
  outer loop
   vertex 21803 7586.96 1447.71
   vertex 21897.5 7423.26 1586.9
   vertex 21892.7 7431.54 1308.41
  endloop
 endfacet
 facet normal 0.86602 0.50001 1.28542e-06
  outer loop
   vertex 21740.5 7695.17 1540.38
   vertex 21825.4 7548.14 1665.37
   vertex 21803 7586.96 1447.71
  endloop
 endfacet
 facet normal 0.866022 0.500006 4.29911e-07
  outer loop
   vertex 21803 7586.96 1447.71
   vertex 21825.4 7548.14 1665.37
   vertex 21897.5 7423.26 1586.9
  endloop
 endfacet
 facet normal 0.866024 0.500003 -4.76962e-06
  outer loop
   vertex 21716.3 7737.1 1574.76
   vertex 21796.6 7598.04 1693.85
   vertex 21740.5 7695.17 1540.38
  endloop
 endfacet
 facet normal 0.86602 0.50001 1.14963e-06
  outer loop
   vertex 21825.4 7548.14 1665.37
   vertex 21740.5 7695.17 1540.38
   vertex 21796.6 7598.04 1693.85
  endloop
 endfacet
 facet normal 0.866014 0.50002 7.20892e-06
  outer loop
   vertex 23209.4 5150.97 -1131.8
   vertex 23195.2 5175.64 -1074.17
   vertex 23260.8 5061.96 -960.32
  endloop
 endfacet
 facet normal 0.86602 0.50001 -7.27148e-06
  outer loop
   vertex 23249.3 5081.94 -890.566
   vertex 23260.8 5061.96 -960.32
   vertex 23195.2 5175.64 -1074.17
  endloop
 endfacet
 facet normal 0.866018 0.500013 -5.14821e-06
  outer loop
   vertex 23195.2 5175.64 -1074.17
   vertex 23155.9 5243.59 -929.972
   vertex 23249.3 5081.94 -890.566
  endloop
 endfacet
 facet normal 0.866017 0.500015 6.74011e-06
  outer loop
   vertex 23216.6 5138.52 -723.878
   vertex 23249.3 5081.94 -890.566
   vertex 23155.9 5243.59 -929.972
  endloop
 endfacet
 facet normal 0.866023 0.500004 -4.02835e-07
  outer loop
   vertex 23155.9 5243.59 -929.972
   vertex 23095.8 5347.81 -729.259
   vertex 23216.6 5138.52 -723.878
  endloop
 endfacet
 facet normal 0.866023 0.500004 -3.6161e-07
  outer loop
   vertex 23165.5 5227.11 -501.595
   vertex 23216.6 5138.52 -723.878
   vertex 23095.8 5347.81 -729.259
  endloop
 endfacet
 facet normal 0.866021 0.500007 4.35875e-06
  outer loop
   vertex 23098.7 5342.74 -254.018
   vertex 23165.5 5227.11 -501.595
   vertex 23018.8 5481.19 -496.77
  endloop
 endfacet
 facet normal 0.866021 0.500007 1.36751e-06
  outer loop
   vertex 23018.8 5481.19 -496.77
   vertex 23165.5 5227.11 -501.595
   vertex 23095.8 5347.81 -729.259
  endloop
 endfacet
 facet normal 0.866021 0.500008 -5.18907e-06
  outer loop
   vertex 23019 5480.78 -1.01263e-05
   vertex 23098.7 5342.74 -254.018
   vertex 22928.6 5637.36 -249.979
  endloop
 endfacet
 facet normal 0.866021 0.500007 4.90894e-06
  outer loop
   vertex 23018.8 5481.19 -496.77
   vertex 22928.6 5637.36 -249.979
   vertex 23098.7 5342.74 -254.018
  endloop
 endfacet
 facet normal 0.86602 0.50001 -3.18868e-06
  outer loop
   vertex 22928.6 5637.36 -249.979
   vertex 22828.3 5811.16 2.13903e-05
   vertex 23019 5480.78 -1.01263e-05
  endloop
 endfacet
 facet normal 0.86602 0.50001 4.16535e-06
  outer loop
   vertex 22928.6 5637.36 249.979
   vertex 23019 5480.78 -1.01263e-05
   vertex 22828.3 5811.16 2.13903e-05
  endloop
 endfacet
 facet normal 0.866022 0.500006 3.80459e-07
  outer loop
   vertex 22828.3 5811.16 2.13903e-05
   vertex 22720 5998.72 246.557
   vertex 22928.6 5637.36 249.979
  endloop
 endfacet
 facet normal 0.866022 0.500006 -3.04031e-06
  outer loop
   vertex 22928.6 5637.36 249.979
   vertex 22720 5998.72 246.557
   vertex 22829.2 5809.55 490.533
  endloop
 endfacet
 facet normal 0.866019 0.500011 1.95546e-06
  outer loop
   vertex 22720 5998.72 246.557
   vertex 22605.4 6197.19 485.774
   vertex 22829.2 5809.55 490.533
  endloop
 endfacet
 facet normal 0.866019 0.500011 1.05316e-06
  outer loop
   vertex 22721.9 5995.29 718.914
   vertex 22829.2 5809.55 490.533
   vertex 22605.4 6197.19 485.774
  endloop
 endfacet
 facet normal 0.866021 0.500007 -2.90316e-06
  outer loop
   vertex 22485.8 6404.36 714.955
   vertex 22607.8 6193.07 933.389
   vertex 22605.4 6197.19 485.774
  endloop
 endfacet
 facet normal 0.866021 0.500007 -2.89926e-06
  outer loop
   vertex 22721.9 5995.29 718.914
   vertex 22605.4 6197.19 485.774
   vertex 22607.8 6193.07 933.389
  endloop
 endfacet
 facet normal 0.866019 0.50001 3.66671e-08
  outer loop
   vertex 22362.5 6617.88 931.523
   vertex 22487.5 6401.4 1132.22
   vertex 22485.8 6404.36 714.955
  endloop
 endfacet
 facet normal 0.86602 0.500009 2.55089e-08
  outer loop
   vertex 22607.8 6193.07 933.389
   vertex 22485.8 6404.36 714.955
   vertex 22487.5 6401.4 1132.22
  endloop
 endfacet
 facet normal 0.866019 0.50001 0
  outer loop
   vertex 22237.5 6834.37 1132.22
   vertex 22362.5 6617.88 1313.02
   vertex 22362.5 6617.88 931.523
  endloop
 endfacet
 facet normal 0.866019 0.50001 -0
  outer loop
   vertex 22487.5 6401.4 1132.22
   vertex 22362.5 6617.88 931.523
   vertex 22362.5 6617.88 1313.02
  endloop
 endfacet
 facet normal 0.86602 0.50001 -3.10591e-07
  outer loop
   vertex 22362.5 6617.88 1313.02
   vertex 22237.5 6834.37 1132.22
   vertex 22235.5 6837.87 1472.41
  endloop
 endfacet
 facet normal 0.866023 0.500004 -2.30866e-07
  outer loop
   vertex 22114.1 7048.1 1312.55
   vertex 22235.5 6837.87 1472.41
   vertex 22237.5 6834.37 1132.22
  endloop
 endfacet
 facet normal 0.866021 0.500007 4.24458e-06
  outer loop
   vertex 22235.5 6837.87 1472.41
   vertex 22114.1 7048.1 1312.55
   vertex 22111.7 7052.27 1605.94
  endloop
 endfacet
 facet normal 0.866019 0.500011 4.16743e-06
  outer loop
   vertex 21997.8 7249.44 1466.56
   vertex 22111.7 7052.27 1605.94
   vertex 22114.1 7048.1 1312.55
  endloop
 endfacet
 facet normal 0.86602 0.500009 -2.87101e-06
  outer loop
   vertex 21897.5 7423.26 1586.9
   vertex 22000.5 7244.78 1708.23
   vertex 21997.8 7249.44 1466.56
  endloop
 endfacet
 facet normal 0.866021 0.500007 -2.90887e-06
  outer loop
   vertex 21997.8 7249.44 1466.56
   vertex 22000.5 7244.78 1708.23
   vertex 22111.7 7052.27 1605.94
  endloop
 endfacet
 facet normal 0.866022 0.500006 6.2097e-07
  outer loop
   vertex 21825.4 7548.14 1665.37
   vertex 21917.2 7389.13 1773.56
   vertex 21897.5 7423.26 1586.9
  endloop
 endfacet
 facet normal 0.866019 0.500011 1.76926e-06
  outer loop
   vertex 22000.5 7244.78 1708.23
   vertex 21897.5 7423.26 1586.9
   vertex 21917.2 7389.13 1773.56
  endloop
 endfacet
 facet normal 0.866019 0.50001 3.89886e-07
  outer loop
   vertex 21796.6 7598.04 1693.85
   vertex 21882.3 7449.54 1796.63
   vertex 21825.4 7548.14 1665.37
  endloop
 endfacet
 facet normal 0.866024 0.500002 -7.8941e-06
  outer loop
   vertex 21917.2 7389.13 1773.56
   vertex 21825.4 7548.14 1665.37
   vertex 21882.3 7449.54 1796.63
  endloop
 endfacet
 facet normal 0.866028 0.499996 -2.09338e-06
  outer loop
   vertex 23260.8 5061.96 -960.32
   vertex 23249.3 5081.94 -890.566
   vertex 23303.6 4987.94 -779.595
  endloop
 endfacet
 facet normal 0.866026 0.499999 9.11911e-07
  outer loop
   vertex 23294.4 5003.71 -692.642
   vertex 23303.6 4987.94 -779.595
   vertex 23249.3 5081.94 -890.566
  endloop
 endfacet
 facet normal 0.866018 0.500012 7.9898e-06
  outer loop
   vertex 23249.3 5081.94 -890.566
   vertex 23216.6 5138.52 -723.878
   vertex 23294.4 5003.71 -692.642
  endloop
 endfacet
 facet normal 0.866019 0.500011 -1.15452e-06
  outer loop
   vertex 23267.7 5049.99 -499.649
   vertex 23294.4 5003.71 -692.642
   vertex 23216.6 5138.52 -723.878
  endloop
 endfacet
 facet normal 0.866021 0.500008 -2.3878e-06
  outer loop
   vertex 23216.6 5138.52 -723.878
   vertex 23165.5 5227.11 -501.595
   vertex 23267.7 5049.99 -499.649
  endloop
 endfacet
 facet normal 0.866021 0.500008 1.25631e-06
  outer loop
   vertex 23224.9 5124.13 -257.193
   vertex 23267.7 5049.99 -499.649
   vertex 23165.5 5227.11 -501.595
  endloop
 endfacet
 facet normal 0.86602 0.50001 2.30251e-06
  outer loop
   vertex 23165.5 5227.11 -501.595
   vertex 23098.7 5342.74 -254.018
   vertex 23224.9 5124.13 -257.193
  endloop
 endfacet
 facet normal 0.86602 0.50001 -4.40272e-06
  outer loop
   vertex 23168 5222.8 -5.5897e-05
   vertex 23224.9 5124.13 -257.193
   vertex 23098.7 5342.74 -254.018
  endloop
 endfacet
 facet normal 0.866021 0.500008 5.62648e-06
  outer loop
   vertex 23098.7 5342.74 254.018
   vertex 23168 5222.8 -5.5897e-05
   vertex 23019 5480.78 -1.01263e-05
  endloop
 endfacet
 facet normal 0.866021 0.500008 -5.62648e-06
  outer loop
   vertex 23098.7 5342.74 -254.018
   vertex 23019 5480.78 -1.01263e-05
   vertex 23168 5222.8 -5.5897e-05
  endloop
 endfacet
 facet normal 0.866021 0.500008 5.64278e-06
  outer loop
   vertex 23019 5480.78 -1.01263e-05
   vertex 22928.6 5637.36 249.979
   vertex 23098.7 5342.74 254.018
  endloop
 endfacet
 facet normal 0.866021 0.500008 -5.37787e-06
  outer loop
   vertex 23018.8 5481.19 496.771
   vertex 23098.7 5342.74 254.018
   vertex 22928.6 5637.36 249.979
  endloop
 endfacet
 facet normal 0.866021 0.500008 -5.2773e-06
  outer loop
   vertex 22928.6 5637.36 249.979
   vertex 22829.2 5809.55 490.533
   vertex 23018.8 5481.19 496.771
  endloop
 endfacet
 facet normal 0.866021 0.500008 5.70543e-06
  outer loop
   vertex 22929.4 5636.04 725.03
   vertex 23018.8 5481.19 496.771
   vertex 22829.2 5809.55 490.533
  endloop
 endfacet
 facet normal 0.866021 0.500007 4.68957e-06
  outer loop
   vertex 22829.2 5809.55 490.533
   vertex 22721.9 5995.29 718.914
   vertex 22929.4 5636.04 725.03
  endloop
 endfacet
 facet normal 0.866021 0.500007 9.14582e-07
  outer loop
   vertex 22831.3 5805.91 937.587
   vertex 22929.4 5636.04 725.03
   vertex 22721.9 5995.29 718.914
  endloop
 endfacet
 facet normal 0.866022 0.500006 -8.26338e-07
  outer loop
   vertex 22607.8 6193.07 933.389
   vertex 22725 5989.99 1133.74
   vertex 22721.9 5995.29 718.914
  endloop
 endfacet
 facet normal 0.866022 0.500006 -8.2289e-07
  outer loop
   vertex 22831.3 5805.91 937.587
   vertex 22721.9 5995.29 718.914
   vertex 22725 5989.99 1133.74
  endloop
 endfacet
 facet normal 0.866022 0.500007 3.72319e-06
  outer loop
   vertex 22487.5 6401.4 1132.22
   vertex 22610.9 6187.67 1312.55
   vertex 22607.8 6193.07 933.389
  endloop
 endfacet
 facet normal 0.86602 0.500009 3.76893e-06
  outer loop
   vertex 22725 5989.99 1133.74
   vertex 22607.8 6193.07 933.389
   vertex 22610.9 6187.67 1312.55
  endloop
 endfacet
 facet normal 0.86602 0.50001 3.10592e-07
  outer loop
   vertex 22362.5 6617.88 1313.02
   vertex 22489.5 6397.9 1472.41
   vertex 22487.5 6401.4 1132.22
  endloop
 endfacet
 facet normal 0.866023 0.500004 2.30867e-07
  outer loop
   vertex 22610.9 6187.67 1312.55
   vertex 22487.5 6401.4 1132.22
   vertex 22489.5 6397.9 1472.41
  endloop
 endfacet
 facet normal 0.86602 0.50001 0
  outer loop
   vertex 22235.5 6837.87 1472.41
   vertex 22362.5 6617.88 1610.91
   vertex 22362.5 6617.88 1313.02
  endloop
 endfacet
 facet normal 0.86602 0.50001 -0
  outer loop
   vertex 22489.5 6397.9 1472.41
   vertex 22362.5 6617.88 1313.02
   vertex 22362.5 6617.88 1610.91
  endloop
 endfacet
 facet normal 0.866019 0.500011 -5.2902e-06
  outer loop
   vertex 22111.7 7052.27 1605.94
   vertex 22233.9 6840.62 1724.85
   vertex 22235.5 6837.87 1472.41
  endloop
 endfacet
 facet normal 0.866021 0.500008 -5.23457e-06
  outer loop
   vertex 22362.5 6617.88 1610.91
   vertex 22235.5 6837.87 1472.41
   vertex 22233.9 6840.62 1724.85
  endloop
 endfacet
 facet normal 0.86602 0.500009 -6.08213e-06
  outer loop
   vertex 22000.5 7244.78 1708.23
   vertex 22112.7 7050.59 1810.45
   vertex 22111.7 7052.27 1605.94
  endloop
 endfacet
 facet normal 0.866019 0.500011 -6.05403e-06
  outer loop
   vertex 22112.7 7050.59 1810.45
   vertex 22233.9 6840.62 1724.85
   vertex 22111.7 7052.27 1605.94
  endloop
 endfacet
 facet normal 0.866018 0.500013 -3.07404e-06
  outer loop
   vertex 21917.2 7389.13 1773.56
   vertex 22016.2 7217.72 1863.89
   vertex 22000.5 7244.78 1708.23
  endloop
 endfacet
 facet normal 0.86602 0.500009 -3.84683e-06
  outer loop
   vertex 22112.7 7050.59 1810.45
   vertex 22000.5 7244.78 1708.23
   vertex 22016.2 7217.72 1863.89
  endloop
 endfacet
 facet normal 0.866024 0.500002 -9.15167e-06
  outer loop
   vertex 21882.3 7449.54 1796.63
   vertex 21972.7 7293.03 1882.11
   vertex 21917.2 7389.13 1773.56
  endloop
 endfacet
 facet normal 0.866015 0.500017 8.4141e-06
  outer loop
   vertex 22016.2 7217.72 1863.89
   vertex 21917.2 7389.13 1773.56
   vertex 21972.7 7293.03 1882.11
  endloop
 endfacet
 facet normal 0.866023 0.500005 -6.21405e-07
  outer loop
   vertex 23303.6 4987.94 -779.595
   vertex 23294.4 5003.71 -692.642
   vertex 23337.2 4929.61 -591.362
  endloop
 endfacet
 facet normal 0.866022 0.500005 -5.33847e-07
  outer loop
   vertex 23330.2 4941.86 -478.657
   vertex 23337.2 4929.61 -591.362
   vertex 23294.4 5003.71 -692.642
  endloop
 endfacet
 facet normal 0.866022 0.500007 7.27925e-08
  outer loop
   vertex 23294.4 5003.71 -692.642
   vertex 23267.7 5049.99 -499.649
   vertex 23330.2 4941.86 -478.657
  endloop
 endfacet
 facet normal 0.866022 0.500007 -1.08608e-06
  outer loop
   vertex 23330.2 4941.86 -478.657
   vertex 23267.7 5049.99 -499.649
   vertex 23308.5 4979.34 -256.81
  endloop
 endfacet
 facet normal 0.866019 0.50001 3.92762e-07
  outer loop
   vertex 23267.7 5049.99 -499.649
   vertex 23224.9 5124.13 -257.193
   vertex 23308.5 4979.34 -256.81
  endloop
 endfacet
 facet normal 0.866019 0.50001 -1.71004e-06
  outer loop
   vertex 23273 5040.8 -4.73825e-05
   vertex 23308.5 4979.34 -256.81
   vertex 23224.9 5124.13 -257.193
  endloop
 endfacet
 facet normal 0.866021 0.500007 2.98472e-06
  outer loop
   vertex 23224.9 5124.13 257.193
   vertex 23273 5040.8 -4.73825e-05
   vertex 23168 5222.8 -5.5897e-05
  endloop
 endfacet
 facet normal 0.866021 0.500007 -2.98472e-06
  outer loop
   vertex 23224.9 5124.13 -257.193
   vertex 23168 5222.8 -5.5897e-05
   vertex 23273 5040.8 -4.73825e-05
  endloop
 endfacet
 facet normal 0.86602 0.50001 -2.30251e-06
  outer loop
   vertex 23165.5 5227.11 501.595
   vertex 23224.9 5124.13 257.193
   vertex 23098.7 5342.74 254.018
  endloop
 endfacet
 facet normal 0.86602 0.50001 4.40272e-06
  outer loop
   vertex 23224.9 5124.13 257.193
   vertex 23168 5222.8 -5.5897e-05
   vertex 23098.7 5342.74 254.018
  endloop
 endfacet
 facet normal 0.866021 0.500007 -4.35875e-06
  outer loop
   vertex 23098.7 5342.74 254.018
   vertex 23018.8 5481.19 496.771
   vertex 23165.5 5227.11 501.595
  endloop
 endfacet
 facet normal 0.866021 0.500007 -1.36751e-06
  outer loop
   vertex 23165.5 5227.11 501.595
   vertex 23018.8 5481.19 496.771
   vertex 23095.8 5347.81 729.259
  endloop
 endfacet
 facet normal 0.866019 0.500012 2.52525e-06
  outer loop
   vertex 23018.8 5481.19 496.771
   vertex 22929.4 5636.04 725.03
   vertex 23095.8 5347.81 729.259
  endloop
 endfacet
 facet normal 0.866019 0.500012 -1.89723e-06
  outer loop
   vertex 23016.7 5484.77 939.535
   vertex 23095.8 5347.81 729.259
   vertex 22929.4 5636.04 725.03
  endloop
 endfacet
 facet normal 0.866019 0.500011 -2.84948e-06
  outer loop
   vertex 22929.4 5636.04 725.03
   vertex 22831.3 5805.91 937.587
   vertex 23016.7 5484.77 939.535
  endloop
 endfacet
 facet normal 0.866019 0.500011 -2.37942e-06
  outer loop
   vertex 22831.3 5805.91 937.587
   vertex 22928.8 5637.04 1132.58
   vertex 23016.7 5484.77 939.535
  endloop
 endfacet
 facet normal 0.866021 0.500007 -2.0481e-06
  outer loop
   vertex 22725 5989.99 1133.74
   vertex 22832.3 5804.23 1308.41
   vertex 22831.3 5805.91 937.587
  endloop
 endfacet
 facet normal 0.866019 0.500011 -2.02159e-06
  outer loop
   vertex 22928.8 5637.04 1132.58
   vertex 22831.3 5805.91 937.587
   vertex 22832.3 5804.23 1308.41
  endloop
 endfacet
 facet normal 0.866018 0.500013 -1.46194e-06
  outer loop
   vertex 22610.9 6187.67 1312.55
   vertex 22727.1 5986.33 1466.56
   vertex 22725 5989.99 1133.74
  endloop
 endfacet
 facet normal 0.866021 0.500007 -1.54133e-06
  outer loop
   vertex 22832.3 5804.23 1308.41
   vertex 22725 5989.99 1133.74
   vertex 22727.1 5986.33 1466.56
  endloop
 endfacet
 facet normal 0.866021 0.500007 -5.06783e-06
  outer loop
   vertex 22489.5 6397.9 1472.41
   vertex 22613.3 6183.49 1605.94
   vertex 22610.9 6187.67 1312.55
  endloop
 endfacet
 facet normal 0.866019 0.500011 -5.00876e-06
  outer loop
   vertex 22727.1 5986.33 1466.56
   vertex 22610.9 6187.67 1312.55
   vertex 22613.3 6183.49 1605.94
  endloop
 endfacet
 facet normal 0.866019 0.500012 4.32893e-06
  outer loop
   vertex 22613.3 6183.49 1605.94
   vertex 22489.5 6397.9 1472.41
   vertex 22491.1 6395.15 1724.85
  endloop
 endfacet
 facet normal 0.866021 0.500008 4.27402e-06
  outer loop
   vertex 22489.5 6397.9 1472.41
   vertex 22362.5 6617.88 1610.91
   vertex 22491.1 6395.15 1724.85
  endloop
 endfacet
 facet normal 0.866022 0.500006 -0
  outer loop
   vertex 22491.1 6395.15 1724.85
   vertex 22362.5 6617.88 1610.91
   vertex 22362.5 6617.88 1821.07
  endloop
 endfacet
 facet normal 0.866022 0.500006 0
  outer loop
   vertex 22233.9 6840.62 1724.85
   vertex 22362.5 6617.88 1821.07
   vertex 22362.5 6617.88 1610.91
  endloop
 endfacet
 facet normal 0.86602 0.500009 7.7015e-08
  outer loop
   vertex 22112.7 7050.59 1810.45
   vertex 22234.1 6840.28 1892.03
   vertex 22233.9 6840.62 1724.85
  endloop
 endfacet
 facet normal 0.866022 0.500006 6.744e-08
  outer loop
   vertex 22362.5 6617.88 1821.07
   vertex 22233.9 6840.62 1724.85
   vertex 22234.1 6840.28 1892.03
  endloop
 endfacet
 facet normal 0.866021 0.500008 1.26556e-06
  outer loop
   vertex 22016.2 7217.72 1863.89
   vertex 22123.2 7032.41 1935.32
   vertex 22112.7 7050.59 1810.45
  endloop
 endfacet
 facet normal 0.86602 0.50001 1.54762e-06
  outer loop
   vertex 22234.1 6840.28 1892.03
   vertex 22112.7 7050.59 1810.45
   vertex 22123.2 7032.41 1935.32
  endloop
 endfacet
 facet normal 0.866016 0.500016 1.26953e-05
  outer loop
   vertex 21972.7 7293.03 1882.11
   vertex 22066.8 7130.01 1949.46
   vertex 22016.2 7217.72 1863.89
  endloop
 endfacet
 facet normal 0.866021 0.500008 1.35037e-06
  outer loop
   vertex 22123.2 7032.41 1935.32
   vertex 22016.2 7217.72 1863.89
   vertex 22066.8 7130.01 1949.46
  endloop
 endfacet
 facet normal 0.866018 0.500012 -1.59931e-06
  outer loop
   vertex 23337.2 4929.61 -591.362
   vertex 23330.2 4941.86 -478.657
   vertex 23361.5 4887.54 -397.434
  endloop
 endfacet
 facet normal 0.866017 0.500015 5.93708e-07
  outer loop
   vertex 23355.9 4897.24 -246.151
   vertex 23361.5 4887.54 -397.434
   vertex 23330.2 4941.86 -478.657
  endloop
 endfacet
 facet normal 0.866021 0.500008 -1.30694e-06
  outer loop
   vertex 23330.2 4941.86 -478.657
   vertex 23308.5 4979.34 -256.81
   vertex 23355.9 4897.24 -246.151
  endloop
 endfacet
 facet normal 0.866021 0.500007 -2.14866e-06
  outer loop
   vertex 23338.2 4928 4.74229e-05
   vertex 23355.9 4897.24 -246.151
   vertex 23308.5 4979.34 -256.81
  endloop
 endfacet
 facet normal 0.86602 0.50001 1.52639e-06
  outer loop
   vertex 23308.5 4979.34 256.81
   vertex 23338.2 4928 4.74229e-05
   vertex 23273 5040.8 -4.73825e-05
  endloop
 endfacet
 facet normal 0.86602 0.50001 -1.52639e-06
  outer loop
   vertex 23308.5 4979.34 -256.81
   vertex 23273 5040.8 -4.73825e-05
   vertex 23338.2 4928 4.74229e-05
  endloop
 endfacet
 facet normal 0.866019 0.50001 -1.39892e-06
  outer loop
   vertex 23267.7 5049.99 499.649
   vertex 23308.5 4979.34 256.81
   vertex 23224.9 5124.13 257.193
  endloop
 endfacet
 facet normal 0.866019 0.50001 1.71004e-06
  outer loop
   vertex 23273 5040.8 -4.73825e-05
   vertex 23224.9 5124.13 257.193
   vertex 23308.5 4979.34 256.81
  endloop
 endfacet
 facet normal 0.86602 0.500009 1.84122e-06
  outer loop
   vertex 23216.6 5138.52 723.878
   vertex 23267.7 5049.99 499.649
   vertex 23165.5 5227.11 501.595
  endloop
 endfacet
 facet normal 0.86602 0.500009 -1.83983e-06
  outer loop
   vertex 23267.7 5049.99 499.649
   vertex 23224.9 5124.13 257.193
   vertex 23165.5 5227.11 501.595
  endloop
 endfacet
 facet normal 0.866022 0.500005 1.00054e-06
  outer loop
   vertex 23155.9 5243.59 929.972
   vertex 23216.6 5138.52 723.878
   vertex 23095.8 5347.81 729.259
  endloop
 endfacet
 facet normal 0.866022 0.500005 -2.654e-07
  outer loop
   vertex 23165.5 5227.11 501.595
   vertex 23095.8 5347.81 729.259
   vertex 23216.6 5138.52 723.878
  endloop
 endfacet
 facet normal 0.866021 0.500007 2.26681e-06
  outer loop
   vertex 23095.8 5347.81 729.259
   vertex 23016.7 5484.77 939.535
   vertex 23155.9 5243.59 929.972
  endloop
 endfacet
 facet normal 0.866021 0.500007 1.28667e-06
  outer loop
   vertex 23086.4 5364.14 1119
   vertex 23155.9 5243.59 929.972
   vertex 23016.7 5484.77 939.535
  endloop
 endfacet
 facet normal 0.866021 0.500007 1.41702e-06
  outer loop
   vertex 23016.7 5484.77 939.535
   vertex 22928.8 5637.04 1132.58
   vertex 23086.4 5364.14 1119
  endloop
 endfacet
 facet normal 0.866021 0.500007 1.32319e-06
  outer loop
   vertex 23008.3 5499.35 1291.58
   vertex 23086.4 5364.14 1119
   vertex 22928.8 5637.04 1132.58
  endloop
 endfacet
 facet normal 0.866021 0.500008 1.46786e-06
  outer loop
   vertex 22832.3 5804.23 1308.41
   vertex 22922 5648.8 1447.71
   vertex 22928.8 5637.04 1132.58
  endloop
 endfacet
 facet normal 0.866021 0.500007 1.51738e-06
  outer loop
   vertex 23008.3 5499.35 1291.58
   vertex 22928.8 5637.04 1132.58
   vertex 22922 5648.8 1447.71
  endloop
 endfacet
 facet normal 0.866022 0.500007 -9.32561e-07
  outer loop
   vertex 22727.1 5986.33 1466.56
   vertex 22827.5 5812.51 1586.9
   vertex 22832.3 5804.23 1308.41
  endloop
 endfacet
 facet normal 0.866021 0.500007 -9.34221e-07
  outer loop
   vertex 22922 5648.8 1447.71
   vertex 22832.3 5804.23 1308.41
   vertex 22827.5 5812.51 1586.9
  endloop
 endfacet
 facet normal 0.86602 0.500009 2.87101e-06
  outer loop
   vertex 22827.5 5812.51 1586.9
   vertex 22727.1 5986.33 1466.56
   vertex 22724.4 5990.99 1708.23
  endloop
 endfacet
 facet normal 0.866022 0.500006 2.93308e-06
  outer loop
   vertex 22724.4 5990.99 1708.23
   vertex 22727.1 5986.33 1466.56
   vertex 22613.3 6183.49 1605.94
  endloop
 endfacet
 facet normal 0.866021 0.500008 6.09255e-06
  outer loop
   vertex 22724.4 5990.99 1708.23
   vertex 22613.3 6183.49 1605.94
   vertex 22612.3 6185.18 1810.45
  endloop
 endfacet
 facet normal 0.866019 0.500011 6.05404e-06
  outer loop
   vertex 22491.1 6395.15 1724.85
   vertex 22612.3 6185.18 1810.45
   vertex 22613.3 6183.49 1605.94
  endloop
 endfacet
 facet normal 0.86602 0.50001 1.38218e-06
  outer loop
   vertex 22612.3 6185.18 1810.45
   vertex 22491.1 6395.15 1724.85
   vertex 22490.9 6395.48 1892.03
  endloop
 endfacet
 facet normal 0.866022 0.500006 1.392e-06
  outer loop
   vertex 22362.5 6617.88 1821.07
   vertex 22490.9 6395.48 1892.03
   vertex 22491.1 6395.15 1724.85
  endloop
 endfacet
 facet normal 0.866022 0.500006 0
  outer loop
   vertex 22234.1 6840.28 1892.03
   vertex 22362.5 6617.88 1951.31
   vertex 22362.5 6617.88 1821.07
  endloop
 endfacet
 facet normal 0.866022 0.500006 -0
  outer loop
   vertex 22490.9 6395.48 1892.03
   vertex 22362.5 6617.88 1821.07
   vertex 22362.5 6617.88 1951.31
  endloop
 endfacet
 facet normal 0.866021 0.500008 1.35064e-05
  outer loop
   vertex 22123.2 7032.41 1935.32
   vertex 22239.4 6831.05 1986.84
   vertex 22234.1 6840.28 1892.03
  endloop
 endfacet
 facet normal 0.866021 0.500008 1.35981e-05
  outer loop
   vertex 22362.5 6617.88 1951.31
   vertex 22234.1 6840.28 1892.03
   vertex 22239.4 6831.05 1986.84
  endloop
 endfacet
 facet normal 0.866021 0.500007 1.02991e-05
  outer loop
   vertex 22066.8 7130.01 1949.46
   vertex 22163.8 6962.07 1998.04
   vertex 22123.2 7032.41 1935.32
  endloop
 endfacet
 facet normal 0.866021 0.500007 9.80507e-06
  outer loop
   vertex 22239.4 6831.05 1986.84
   vertex 22123.2 7032.41 1935.32
   vertex 22163.8 6962.07 1998.04
  endloop
 endfacet
 facet normal 0.866011 0.500026 -3.16965e-07
  outer loop
   vertex 23361.5 4887.54 -397.434
   vertex 23355.9 4897.24 -246.151
   vertex 23376.2 4862.14 -199.679
  endloop
 endfacet
 facet normal 0.866011 0.500024 -1.70352e-06
  outer loop
   vertex 23376.2 4862.14 -199.679
   vertex 23355.9 4897.24 -246.151
   vertex 23371.3 4870.58 -7.46583e-06
  endloop
 endfacet
 facet normal 0.866017 0.500014 -3.20885e-06
  outer loop
   vertex 23355.9 4897.24 -246.151
   vertex 23338.2 4928 4.74229e-05
   vertex 23371.3 4870.58 -7.46583e-06
  endloop
 endfacet
 facet normal 0.866017 0.500014 3.20884e-06
  outer loop
   vertex 23355.9 4897.24 246.151
   vertex 23371.3 4870.58 -7.46583e-06
   vertex 23338.2 4928 4.74229e-05
  endloop
 endfacet
 facet normal 0.866021 0.500008 1.30694e-06
  outer loop
   vertex 23330.2 4941.86 478.657
   vertex 23355.9 4897.24 246.151
   vertex 23308.5 4979.34 256.81
  endloop
 endfacet
 facet normal 0.866021 0.500007 2.14866e-06
  outer loop
   vertex 23355.9 4897.24 246.151
   vertex 23338.2 4928 4.74229e-05
   vertex 23308.5 4979.34 256.81
  endloop
 endfacet
 facet normal 0.866022 0.500005 -5.90128e-07
  outer loop
   vertex 23294.4 5003.71 692.642
   vertex 23330.2 4941.86 478.657
   vertex 23267.7 5049.99 499.649
  endloop
 endfacet
 facet normal 0.866023 0.500005 7.16676e-07
  outer loop
   vertex 23308.5 4979.34 256.81
   vertex 23267.7 5049.99 499.649
   vertex 23330.2 4941.86 478.657
  endloop
 endfacet
 facet normal 0.866019 0.500012 -6.6319e-06
  outer loop
   vertex 23249.3 5081.94 890.565
   vertex 23294.4 5003.71 692.642
   vertex 23216.6 5138.52 723.878
  endloop
 endfacet
 facet normal 0.866019 0.500011 1.15452e-06
  outer loop
   vertex 23267.7 5049.99 499.649
   vertex 23216.6 5138.52 723.878
   vertex 23294.4 5003.71 692.642
  endloop
 endfacet
 facet normal 0.866018 0.500013 5.14821e-06
  outer loop
   vertex 23195.2 5175.64 1074.17
   vertex 23249.3 5081.94 890.565
   vertex 23155.9 5243.59 929.972
  endloop
 endfacet
 facet normal 0.866017 0.500015 -5.38733e-06
  outer loop
   vertex 23216.6 5138.52 723.878
   vertex 23155.9 5243.59 929.972
   vertex 23249.3 5081.94 890.565
  endloop
 endfacet
 facet normal 0.866021 0.500008 -4.4752e-06
  outer loop
   vertex 23132.7 5283.89 1243.95
   vertex 23195.2 5175.64 1074.17
   vertex 23086.4 5364.14 1119
  endloop
 endfacet
 facet normal 0.866021 0.500007 1.47932e-06
  outer loop
   vertex 23155.9 5243.59 929.972
   vertex 23086.4 5364.14 1119
   vertex 23195.2 5175.64 1074.17
  endloop
 endfacet
 facet normal 0.866019 0.500011 -2.18627e-06
  outer loop
   vertex 23086.4 5364.14 1119
   vertex 23008.3 5499.35 1291.58
   vertex 23132.7 5283.89 1243.95
  endloop
 endfacet
 facet normal 0.86602 0.50001 1.05293e-06
  outer loop
   vertex 23062.3 5405.81 1399.59
   vertex 23132.7 5283.89 1243.95
   vertex 23008.3 5499.35 1291.58
  endloop
 endfacet
 facet normal 0.86602 0.50001 -1.60829e-06
  outer loop
   vertex 22922 5648.8 1447.71
   vertex 22984.5 5540.59 1540.38
   vertex 23008.3 5499.35 1291.58
  endloop
 endfacet
 facet normal 0.866021 0.500008 -1.21877e-06
  outer loop
   vertex 23062.3 5405.81 1399.59
   vertex 23008.3 5499.35 1291.58
   vertex 22984.5 5540.59 1540.38
  endloop
 endfacet
 facet normal 0.86602 0.50001 -1.28542e-06
  outer loop
   vertex 22984.5 5540.59 1540.38
   vertex 22922 5648.8 1447.71
   vertex 22899.6 5687.63 1665.37
  endloop
 endfacet
 facet normal 0.866022 0.500006 -4.29912e-07
  outer loop
   vertex 22827.5 5812.51 1586.9
   vertex 22899.6 5687.63 1665.37
   vertex 22922 5648.8 1447.71
  endloop
 endfacet
 facet normal 0.866022 0.500006 -6.2097e-07
  outer loop
   vertex 22899.6 5687.63 1665.37
   vertex 22827.5 5812.51 1586.9
   vertex 22807.8 5846.63 1773.56
  endloop
 endfacet
 facet normal 0.866019 0.500011 -1.76926e-06
  outer loop
   vertex 22807.8 5846.63 1773.56
   vertex 22827.5 5812.51 1586.9
   vertex 22724.4 5990.99 1708.23
  endloop
 endfacet
 facet normal 0.866018 0.500012 1.61994e-06
  outer loop
   vertex 22807.8 5846.63 1773.56
   vertex 22724.4 5990.99 1708.23
   vertex 22708.8 6018.04 1863.89
  endloop
 endfacet
 facet normal 0.86602 0.500009 2.36095e-06
  outer loop
   vertex 22708.8 6018.04 1863.89
   vertex 22724.4 5990.99 1708.23
   vertex 22612.3 6185.18 1810.45
  endloop
 endfacet
 facet normal 0.86602 0.500009 6.02718e-07
  outer loop
   vertex 22708.8 6018.04 1863.89
   vertex 22612.3 6185.18 1810.45
   vertex 22601.8 6203.35 1935.32
  endloop
 endfacet
 facet normal 0.86602 0.50001 3.45537e-07
  outer loop
   vertex 22490.9 6395.48 1892.03
   vertex 22601.8 6203.35 1935.32
   vertex 22612.3 6185.18 1810.45
  endloop
 endfacet
 facet normal 0.866021 0.500008 -1.35064e-05
  outer loop
   vertex 22601.8 6203.35 1935.32
   vertex 22490.9 6395.48 1892.03
   vertex 22485.6 6404.71 1986.84
  endloop
 endfacet
 facet normal 0.866021 0.500008 -1.35981e-05
  outer loop
   vertex 22362.5 6617.88 1951.31
   vertex 22485.6 6404.71 1986.84
   vertex 22490.9 6395.48 1892.03
  endloop
 endfacet
 facet normal 0.86602 0.50001 0
  outer loop
   vertex 22239.4 6831.05 1986.84
   vertex 22362.5 6617.88 2017.62
   vertex 22362.5 6617.88 1951.31
  endloop
 endfacet
 facet normal 0.86602 0.50001 -0
  outer loop
   vertex 22485.6 6404.71 1986.84
   vertex 22362.5 6617.88 1951.31
   vertex 22362.5 6617.88 2017.62
  endloop
 endfacet
 facet normal 0.866021 0.500007 4.55122e-06
  outer loop
   vertex 22163.8 6962.07 1998.04
   vertex 22262.6 6790.81 2027.37
   vertex 22239.4 6831.05 1986.84
  endloop
 endfacet
 facet normal 0.866019 0.500011 9.60854e-06
  outer loop
   vertex 22362.5 6617.88 2017.62
   vertex 22239.4 6831.05 1986.84
   vertex 22262.6 6790.81 2027.37
  endloop
 endfacet
 facet normal 0.866041 0.499972 1.22138e-06
  outer loop
   vertex 23376.2 4862.14 -199.679
   vertex 23371.3 4870.58 -7.46583e-06
   vertex 23381.1 4853.64 2.26172e-13
  endloop
 endfacet
 facet normal 0.866041 0.499972 -1.22138e-06
  outer loop
   vertex 23381.1 4853.64 2.26172e-13
   vertex 23371.3 4870.58 -7.46583e-06
   vertex 23376.2 4862.14 199.679
  endloop
 endfacet
 facet normal 0.866011 0.500026 3.16965e-07
  outer loop
   vertex 23361.5 4887.54 397.434
   vertex 23376.2 4862.14 199.679
   vertex 23355.9 4897.24 246.151
  endloop
 endfacet
 facet normal 0.866011 0.500024 1.70352e-06
  outer loop
   vertex 23355.9 4897.24 246.151
   vertex 23376.2 4862.14 199.679
   vertex 23371.3 4870.58 -7.46583e-06
  endloop
 endfacet
 facet normal 0.866018 0.500012 1.59931e-06
  outer loop
   vertex 23337.2 4929.61 591.362
   vertex 23361.5 4887.54 397.434
   vertex 23330.2 4941.86 478.657
  endloop
 endfacet
 facet normal 0.866017 0.500015 -5.93708e-07
  outer loop
   vertex 23355.9 4897.24 246.151
   vertex 23330.2 4941.86 478.657
   vertex 23361.5 4887.54 397.434
  endloop
 endfacet
 facet normal 0.866025 0.500001 2.39233e-06
  outer loop
   vertex 23303.6 4987.94 779.595
   vertex 23337.2 4929.61 591.362
   vertex 23294.4 5003.71 692.642
  endloop
 endfacet
 facet normal 0.866024 0.500003 2.22148e-07
  outer loop
   vertex 23330.2 4941.86 478.657
   vertex 23294.4 5003.71 692.642
   vertex 23337.2 4929.61 591.362
  endloop
 endfacet
 facet normal 0.866028 0.499996 2.09337e-06
  outer loop
   vertex 23260.8 5061.96 960.32
   vertex 23303.6 4987.94 779.595
   vertex 23249.3 5081.94 890.565
  endloop
 endfacet
 facet normal 0.866027 0.499997 1.40056e-06
  outer loop
   vertex 23294.4 5003.71 692.642
   vertex 23249.3 5081.94 890.565
   vertex 23303.6 4987.94 779.595
  endloop
 endfacet
 facet normal 0.866014 0.50002 -7.20892e-06
  outer loop
   vertex 23209.4 5150.97 1131.8
   vertex 23260.8 5061.96 960.32
   vertex 23195.2 5175.64 1074.17
  endloop
 endfacet
 facet normal 0.86602 0.50001 7.27147e-06
  outer loop
   vertex 23249.3 5081.94 890.565
   vertex 23195.2 5175.64 1074.17
   vertex 23260.8 5061.96 960.32
  endloop
 endfacet
 facet normal 0.86602 0.50001 -2.0625e-06
  outer loop
   vertex 23149.9 5254.11 1292.37
   vertex 23209.4 5150.97 1131.8
   vertex 23132.7 5283.89 1243.95
  endloop
 endfacet
 facet normal 0.866017 0.500015 -1.03907e-05
  outer loop
   vertex 23195.2 5175.64 1074.17
   vertex 23132.7 5283.89 1243.95
   vertex 23209.4 5150.97 1131.8
  endloop
 endfacet
 facet normal 0.866019 0.500012 -4.866e-07
  outer loop
   vertex 23132.7 5283.89 1243.95
   vertex 23062.3 5405.81 1399.59
   vertex 23149.9 5254.11 1292.37
  endloop
 endfacet
 facet normal 0.866021 0.500007 7.8117e-06
  outer loop
   vertex 23082.8 5370.38 1440.5
   vertex 23149.9 5254.11 1292.37
   vertex 23062.3 5405.81 1399.59
  endloop
 endfacet
 facet normal 0.866024 0.500003 5.08513e-06
  outer loop
   vertex 22984.5 5540.59 1540.38
   vertex 23008.7 5498.66 1574.76
   vertex 23062.3 5405.81 1399.59
  endloop
 endfacet
 facet normal 0.866023 0.500004 4.37519e-06
  outer loop
   vertex 23062.3 5405.81 1399.59
   vertex 23008.7 5498.66 1574.76
   vertex 23082.8 5370.38 1440.5
  endloop
 endfacet
 facet normal 0.866024 0.500003 4.76964e-06
  outer loop
   vertex 23008.7 5498.66 1574.76
   vertex 22984.5 5540.59 1540.38
   vertex 22928.4 5637.72 1693.85
  endloop
 endfacet
 facet normal 0.86602 0.50001 -1.14963e-06
  outer loop
   vertex 22899.6 5687.63 1665.37
   vertex 22928.4 5637.72 1693.85
   vertex 22984.5 5540.59 1540.38
  endloop
 endfacet
 facet normal 0.866019 0.50001 -3.89886e-07
  outer loop
   vertex 22928.4 5637.72 1693.85
   vertex 22899.6 5687.63 1665.37
   vertex 22842.7 5786.23 1796.63
  endloop
 endfacet
 facet normal 0.866024 0.500002 7.89408e-06
  outer loop
   vertex 22807.8 5846.63 1773.56
   vertex 22842.7 5786.23 1796.63
   vertex 22899.6 5687.63 1665.37
  endloop
 endfacet
 facet normal 0.866024 0.500002 9.15163e-06
  outer loop
   vertex 22842.7 5786.23 1796.63
   vertex 22807.8 5846.63 1773.56
   vertex 22752.3 5942.74 1882.11
  endloop
 endfacet
 facet normal 0.866017 0.500015 -6.04992e-06
  outer loop
   vertex 22752.3 5942.74 1882.11
   vertex 22807.8 5846.63 1773.56
   vertex 22708.8 6018.04 1863.89
  endloop
 endfacet
 facet normal 0.866017 0.500015 -7.74576e-06
  outer loop
   vertex 22752.3 5942.74 1882.11
   vertex 22708.8 6018.04 1863.89
   vertex 22658.2 6105.75 1949.46
  endloop
 endfacet
 facet normal 0.866021 0.500008 1.13399e-06
  outer loop
   vertex 22601.8 6203.35 1935.32
   vertex 22658.2 6105.75 1949.46
   vertex 22708.8 6018.04 1863.89
  endloop
 endfacet
 facet normal 0.866021 0.500007 -1.02991e-05
  outer loop
   vertex 22658.2 6105.75 1949.46
   vertex 22601.8 6203.35 1935.32
   vertex 22561.2 6273.7 1998.04
  endloop
 endfacet
 facet normal 0.866021 0.500007 -9.80508e-06
  outer loop
   vertex 22601.8 6203.35 1935.32
   vertex 22485.6 6404.71 1986.84
   vertex 22561.2 6273.7 1998.04
  endloop
 endfacet
 facet normal 0.866021 0.500007 -4.55124e-06
  outer loop
   vertex 22561.2 6273.7 1998.04
   vertex 22485.6 6404.71 1986.84
   vertex 22462.3 6444.96 2027.37
  endloop
 endfacet
 facet normal 0.866019 0.500011 -9.60857e-06
  outer loop
   vertex 22485.6 6404.71 1986.84
   vertex 22362.5 6617.88 2017.62
   vertex 22462.3 6444.96 2027.37
  endloop
 endfacet
 facet normal 0.866019 0.500011 0
  outer loop
   vertex 22262.6 6790.81 2027.37
   vertex 22362.5 6617.88 2037.18
   vertex 22362.5 6617.88 2017.62
  endloop
 endfacet
 facet normal 0.866019 0.500011 -0
  outer loop
   vertex 22462.3 6444.96 2027.37
   vertex 22362.5 6617.88 2017.62
   vertex 22362.5 6617.88 2037.18
  endloop
 endfacet
endsolid
