solid ascii
 facet normal -1 0 0
  outer loop
   vertex -3892.86 199.679 -2027.37
   vertex -3892.86 0 -2037.18
   vertex -3892.86 7.46583e-06 -2017.62
  endloop
 endfacet
 facet normal -1 0 0
  outer loop
   vertex -3892.86 -199.679 -2027.37
   vertex -3892.86 7.46583e-06 -2017.62
   vertex -3892.86 0 -2037.18
  endloop
 endfacet
 facet normal -1 0 -0
  outer loop
   vertex -3892.86 -397.434 -1998.04
   vertex -3892.86 -246.151 -1986.84
   vertex -3892.86 -199.679 -2027.37
  endloop
 endfacet
 facet normal -1 0 0
  outer loop
   vertex -3892.86 7.46583e-06 -2017.62
   vertex -3892.86 -199.679 -2027.37
   vertex -3892.86 -246.151 -1986.84
  endloop
 endfacet
 facet normal -1 0 -0
  outer loop
   vertex -3892.86 -591.362 -1949.46
   vertex -3892.86 -478.657 -1935.32
   vertex -3892.86 -397.434 -1998.04
  endloop
 endfacet
 facet normal -1 0 0
  outer loop
   vertex -3892.86 -246.151 -1986.84
   vertex -3892.86 -397.434 -1998.04
   vertex -3892.86 -478.657 -1935.32
  endloop
 endfacet
 facet normal -1 0 -0
  outer loop
   vertex -3892.86 -779.595 -1882.11
   vertex -3892.86 -692.642 -1863.89
   vertex -3892.86 -591.362 -1949.46
  endloop
 endfacet
 facet normal -1 0 0
  outer loop
   vertex -3892.86 -478.657 -1935.32
   vertex -3892.86 -591.362 -1949.46
   vertex -3892.86 -692.642 -1863.89
  endloop
 endfacet
 facet normal -1 0 -0
  outer loop
   vertex -3892.86 -960.32 -1796.63
   vertex -3892.86 -890.565 -1773.56
   vertex -3892.86 -779.595 -1882.11
  endloop
 endfacet
 facet normal -1 0 0
  outer loop
   vertex -3892.86 -692.642 -1863.89
   vertex -3892.86 -779.595 -1882.11
   vertex -3892.86 -890.565 -1773.56
  endloop
 endfacet
 facet normal -1 0 -0
  outer loop
   vertex -3892.86 -1131.8 -1693.85
   vertex -3892.86 -1074.17 -1665.37
   vertex -3892.86 -960.32 -1796.63
  endloop
 endfacet
 facet normal -1 0 0
  outer loop
   vertex -3892.86 -890.565 -1773.56
   vertex -3892.86 -960.32 -1796.63
   vertex -3892.86 -1074.17 -1665.37
  endloop
 endfacet
 facet normal -1 0 -0
  outer loop
   vertex -3892.86 -1292.37 -1574.76
   vertex -3892.86 -1243.95 -1540.38
   vertex -3892.86 -1131.8 -1693.85
  endloop
 endfacet
 facet normal -1 0 0
  outer loop
   vertex -3892.86 -1131.8 -1693.85
   vertex -3892.86 -1243.95 -1540.38
   vertex -3892.86 -1074.17 -1665.37
  endloop
 endfacet
 facet normal -1 0 0
  outer loop
   vertex -3892.86 -1243.95 -1540.38
   vertex -3892.86 -1292.37 -1574.76
   vertex -3892.86 -1399.59 -1399.59
  endloop
 endfacet
 facet normal -1 0 0
  outer loop
   vertex -3892.86 -1292.37 -1574.76
   vertex -3892.86 -1440.5 -1440.5
   vertex -3892.86 -1399.59 -1399.59
  endloop
 endfacet
 facet normal -1 0 0
  outer loop
   vertex -3892.86 -1540.38 -1243.95
   vertex -3892.86 -1399.59 -1399.59
   vertex -3892.86 -1574.76 -1292.37
  endloop
 endfacet
 facet normal -1 -0 0
  outer loop
   vertex -3892.86 -1574.76 -1292.37
   vertex -3892.86 -1399.59 -1399.59
   vertex -3892.86 -1440.5 -1440.5
  endloop
 endfacet
 facet normal -1 0 0
  outer loop
   vertex -3892.86 -1574.76 -1292.37
   vertex -3892.86 -1693.85 -1131.8
   vertex -3892.86 -1540.38 -1243.95
  endloop
 endfacet
 facet normal -1 0 0
  outer loop
   vertex -3892.86 -1540.38 -1243.95
   vertex -3892.86 -1693.85 -1131.8
   vertex -3892.86 -1665.37 -1074.17
  endloop
 endfacet
 facet normal -1 0 0
  outer loop
   vertex -3892.86 -1693.85 -1131.8
   vertex -3892.86 -1796.63 -960.32
   vertex -3892.86 -1665.37 -1074.17
  endloop
 endfacet
 facet normal -1 0 0
  outer loop
   vertex -3892.86 -1773.56 -890.565
   vertex -3892.86 -1665.37 -1074.17
   vertex -3892.86 -1796.63 -960.32
  endloop
 endfacet
 facet normal -1 0 0
  outer loop
   vertex -3892.86 -1796.63 -960.32
   vertex -3892.86 -1882.11 -779.595
   vertex -3892.86 -1773.56 -890.565
  endloop
 endfacet
 facet normal -1 0 0
  outer loop
   vertex -3892.86 -1863.89 -692.642
   vertex -3892.86 -1773.56 -890.565
   vertex -3892.86 -1882.11 -779.595
  endloop
 endfacet
 facet normal -1 0 0
  outer loop
   vertex -3892.86 -1882.11 -779.595
   vertex -3892.86 -1949.46 -591.362
   vertex -3892.86 -1863.89 -692.642
  endloop
 endfacet
 facet normal -1 0 0
  outer loop
   vertex -3892.86 -1935.32 -478.657
   vertex -3892.86 -1863.89 -692.642
   vertex -3892.86 -1949.46 -591.362
  endloop
 endfacet
 facet normal -1 0 0
  outer loop
   vertex -3892.86 -1949.46 -591.362
   vertex -3892.86 -1998.04 -397.434
   vertex -3892.86 -1935.32 -478.657
  endloop
 endfacet
 facet normal -1 0 0
  outer loop
   vertex -3892.86 -1986.84 -246.151
   vertex -3892.86 -1935.32 -478.657
   vertex -3892.86 -1998.04 -397.434
  endloop
 endfacet
 facet normal -1 0 0
  outer loop
   vertex -3892.86 -1998.04 -397.434
   vertex -3892.86 -2027.37 -199.679
   vertex -3892.86 -1986.84 -246.151
  endloop
 endfacet
 facet normal -1 0 0
  outer loop
   vertex -3892.86 -2017.62 7.46583e-06
   vertex -3892.86 -1986.84 -246.151
   vertex -3892.86 -2027.37 -199.679
  endloop
 endfacet
 facet normal -1 -0 0
  outer loop
   vertex -3892.86 -2027.37 199.679
   vertex -3892.86 -2017.62 7.46583e-06
   vertex -3892.86 -2037.18 -4.52345e-13
  endloop
 endfacet
 facet normal -1 0 0
  outer loop
   vertex -3892.86 -2027.37 -199.679
   vertex -3892.86 -2037.18 -4.52345e-13
   vertex -3892.86 -2017.62 7.46583e-06
  endloop
 endfacet
 facet normal -1 -2.15313e-06 1.45152e-05
  outer loop
   vertex -3892.86 397.434 -1998.04
   vertex -3892.86 199.679 -2027.37
   vertex -3892.86 246.151 -1986.84
  endloop
 endfacet
 facet normal -1 5.57255e-07 1.14076e-05
  outer loop
   vertex -3892.86 7.46583e-06 -2017.62
   vertex -3892.86 246.151 -1986.84
   vertex -3892.86 199.679 -2027.37
  endloop
 endfacet
 facet normal -1 1.52324e-06 3.6822e-06
  outer loop
   vertex -3892.86 246.151 -1986.84
   vertex -3892.86 7.46583e-06 -2017.62
   vertex -3892.86 -4.74229e-05 -1951.31
  endloop
 endfacet
 facet normal -1 4.6042e-07 3.6822e-06
  outer loop
   vertex -3892.86 -246.151 -1986.84
   vertex -3892.86 -4.74229e-05 -1951.31
   vertex -3892.86 7.46583e-06 -2017.62
  endloop
 endfacet
 facet normal -1 0 -0
  outer loop
   vertex -3892.86 -478.657 -1935.32
   vertex -3892.86 -256.81 -1892.03
   vertex -3892.86 -246.151 -1986.84
  endloop
 endfacet
 facet normal -1 9.75996e-07 1.09726e-07
  outer loop
   vertex -3892.86 -246.151 -1986.84
   vertex -3892.86 -256.81 -1892.03
   vertex -3892.86 -4.74229e-05 -1951.31
  endloop
 endfacet
 facet normal -1 0 -0
  outer loop
   vertex -3892.86 -692.642 -1863.89
   vertex -3892.86 -499.649 -1810.45
   vertex -3892.86 -478.657 -1935.32
  endloop
 endfacet
 facet normal -1 0 0
  outer loop
   vertex -3892.86 -256.81 -1892.03
   vertex -3892.86 -478.657 -1935.32
   vertex -3892.86 -499.649 -1810.45
  endloop
 endfacet
 facet normal -1 0 -0
  outer loop
   vertex -3892.86 -890.565 -1773.56
   vertex -3892.86 -723.878 -1708.23
   vertex -3892.86 -692.642 -1863.89
  endloop
 endfacet
 facet normal -1 0 0
  outer loop
   vertex -3892.86 -499.649 -1810.45
   vertex -3892.86 -692.642 -1863.89
   vertex -3892.86 -723.878 -1708.23
  endloop
 endfacet
 facet normal -1 0 -0
  outer loop
   vertex -3892.86 -1074.17 -1665.37
   vertex -3892.86 -929.972 -1586.9
   vertex -3892.86 -890.565 -1773.56
  endloop
 endfacet
 facet normal -1 0 0
  outer loop
   vertex -3892.86 -723.878 -1708.23
   vertex -3892.86 -890.565 -1773.56
   vertex -3892.86 -929.972 -1586.9
  endloop
 endfacet
 facet normal -1 0 -0
  outer loop
   vertex -3892.86 -1243.95 -1540.38
   vertex -3892.86 -1119 -1447.71
   vertex -3892.86 -1074.17 -1665.37
  endloop
 endfacet
 facet normal -1 0 0
  outer loop
   vertex -3892.86 -929.972 -1586.9
   vertex -3892.86 -1074.17 -1665.37
   vertex -3892.86 -1119 -1447.71
  endloop
 endfacet
 facet normal -1 0 0
  outer loop
   vertex -3892.86 -1119 -1447.71
   vertex -3892.86 -1243.95 -1540.38
   vertex -3892.86 -1291.58 -1291.58
  endloop
 endfacet
 facet normal -1 0 -0
  outer loop
   vertex -3892.86 -1399.59 -1399.59
   vertex -3892.86 -1291.58 -1291.58
   vertex -3892.86 -1243.95 -1540.38
  endloop
 endfacet
 facet normal -1 0 0
  outer loop
   vertex -3892.86 -1447.71 -1119
   vertex -3892.86 -1291.58 -1291.58
   vertex -3892.86 -1540.38 -1243.95
  endloop
 endfacet
 facet normal -1 0 0
  outer loop
   vertex -3892.86 -1399.59 -1399.59
   vertex -3892.86 -1540.38 -1243.95
   vertex -3892.86 -1291.58 -1291.58
  endloop
 endfacet
 facet normal -1 0 0
  outer loop
   vertex -3892.86 -1540.38 -1243.95
   vertex -3892.86 -1665.37 -1074.17
   vertex -3892.86 -1447.71 -1119
  endloop
 endfacet
 facet normal -1 0 0
  outer loop
   vertex -3892.86 -1586.9 -929.972
   vertex -3892.86 -1447.71 -1119
   vertex -3892.86 -1665.37 -1074.17
  endloop
 endfacet
 facet normal -1 0 0
  outer loop
   vertex -3892.86 -1665.37 -1074.17
   vertex -3892.86 -1773.56 -890.565
   vertex -3892.86 -1586.9 -929.972
  endloop
 endfacet
 facet normal -1 0 0
  outer loop
   vertex -3892.86 -1708.23 -723.878
   vertex -3892.86 -1586.9 -929.972
   vertex -3892.86 -1773.56 -890.565
  endloop
 endfacet
 facet normal -1 0 0
  outer loop
   vertex -3892.86 -1773.56 -890.565
   vertex -3892.86 -1863.89 -692.642
   vertex -3892.86 -1708.23 -723.878
  endloop
 endfacet
 facet normal -1 0 0
  outer loop
   vertex -3892.86 -1810.45 -499.649
   vertex -3892.86 -1708.23 -723.878
   vertex -3892.86 -1863.89 -692.642
  endloop
 endfacet
 facet normal -1 0 0
  outer loop
   vertex -3892.86 -1863.89 -692.642
   vertex -3892.86 -1935.32 -478.657
   vertex -3892.86 -1810.45 -499.649
  endloop
 endfacet
 facet normal -1 0 0
  outer loop
   vertex -3892.86 -1892.03 -256.81
   vertex -3892.86 -1810.45 -499.649
   vertex -3892.86 -1935.32 -478.657
  endloop
 endfacet
 facet normal -1 0 0
  outer loop
   vertex -3892.86 -1935.32 -478.657
   vertex -3892.86 -1986.84 -246.151
   vertex -3892.86 -1892.03 -256.81
  endloop
 endfacet
 facet normal -1 1.09726e-07 9.75996e-07
  outer loop
   vertex -3892.86 -1892.03 -256.81
   vertex -3892.86 -1986.84 -246.151
   vertex -3892.86 -1951.31 -4.74229e-05
  endloop
 endfacet
 facet normal -1 3.6822e-06 1.52324e-06
  outer loop
   vertex -3892.86 -1986.84 246.151
   vertex -3892.86 -1951.31 -4.74229e-05
   vertex -3892.86 -2017.62 7.46583e-06
  endloop
 endfacet
 facet normal -1 3.6822e-06 4.6042e-07
  outer loop
   vertex -3892.86 -1986.84 -246.151
   vertex -3892.86 -2017.62 7.46583e-06
   vertex -3892.86 -1951.31 -4.74229e-05
  endloop
 endfacet
 facet normal -1 1.45152e-05 -2.15313e-06
  outer loop
   vertex -3892.86 -1998.04 397.434
   vertex -3892.86 -1986.84 246.151
   vertex -3892.86 -2027.37 199.679
  endloop
 endfacet
 facet normal -1 1.14076e-05 5.57255e-07
  outer loop
   vertex -3892.86 -2017.62 7.46583e-06
   vertex -3892.86 -2027.37 199.679
   vertex -3892.86 -1986.84 246.151
  endloop
 endfacet
 facet normal -1 -1.44328e-06 5.76191e-06
  outer loop
   vertex -3892.86 591.362 -1949.46
   vertex -3892.86 397.434 -1998.04
   vertex -3892.86 478.657 -1935.32
  endloop
 endfacet
 facet normal -1 -2.6823e-06 7.36653e-06
  outer loop
   vertex -3892.86 246.151 -1986.84
   vertex -3892.86 478.657 -1935.32
   vertex -3892.86 397.434 -1998.04
  endloop
 endfacet
 facet normal -1 6.78639e-07 -7.80168e-06
  outer loop
   vertex -3892.86 478.657 -1935.32
   vertex -3892.86 246.151 -1986.84
   vertex -3892.86 256.81 -1892.03
  endloop
 endfacet
 facet normal -1 -1.21118e-07 -7.71176e-06
  outer loop
   vertex -3892.86 -4.74229e-05 -1951.31
   vertex -3892.86 256.81 -1892.03
   vertex -3892.86 246.151 -1986.84
  endloop
 endfacet
 facet normal -1 8.52632e-08 -3.74886e-06
  outer loop
   vertex -3892.86 -256.81 -1892.03
   vertex -3892.86 4.73825e-05 -1821.07
   vertex -3892.86 -4.74229e-05 -1951.31
  endloop
 endfacet
 facet normal -1 -1.03593e-06 -3.74886e-06
  outer loop
   vertex -3892.86 256.81 -1892.03
   vertex -3892.86 -4.74229e-05 -1951.31
   vertex -3892.86 4.73825e-05 -1821.07
  endloop
 endfacet
 facet normal -1 -4.90953e-07 -1.46147e-06
  outer loop
   vertex -3892.86 -499.649 -1810.45
   vertex -3892.86 -257.193 -1724.85
   vertex -3892.86 -256.81 -1892.03
  endloop
 endfacet
 facet normal -1 -5.46781e-07 -1.4616e-06
  outer loop
   vertex -3892.86 4.73825e-05 -1821.07
   vertex -3892.86 -256.81 -1892.03
   vertex -3892.86 -257.193 -1724.85
  endloop
 endfacet
 facet normal -1 0 -0
  outer loop
   vertex -3892.86 -723.878 -1708.23
   vertex -3892.86 -501.595 -1605.94
   vertex -3892.86 -499.649 -1810.45
  endloop
 endfacet
 facet normal -1 -1.00357e-06 -9.55104e-09
  outer loop
   vertex -3892.86 -257.193 -1724.85
   vertex -3892.86 -499.649 -1810.45
   vertex -3892.86 -501.595 -1605.94
  endloop
 endfacet
 facet normal -1 0 -0
  outer loop
   vertex -3892.86 -929.972 -1586.9
   vertex -3892.86 -729.259 -1466.56
   vertex -3892.86 -723.878 -1708.23
  endloop
 endfacet
 facet normal -1 0 0
  outer loop
   vertex -3892.86 -501.595 -1605.94
   vertex -3892.86 -723.878 -1708.23
   vertex -3892.86 -729.259 -1466.56
  endloop
 endfacet
 facet normal -1 0 0
  outer loop
   vertex -3892.86 -729.259 -1466.56
   vertex -3892.86 -929.972 -1586.9
   vertex -3892.86 -939.535 -1308.41
  endloop
 endfacet
 facet normal -1 0 -0
  outer loop
   vertex -3892.86 -1119 -1447.71
   vertex -3892.86 -939.535 -1308.41
   vertex -3892.86 -929.972 -1586.9
  endloop
 endfacet
 facet normal -1 0 0
  outer loop
   vertex -3892.86 -939.535 -1308.41
   vertex -3892.86 -1119 -1447.71
   vertex -3892.86 -1132.58 -1132.58
  endloop
 endfacet
 facet normal -1 0 -0
  outer loop
   vertex -3892.86 -1291.58 -1291.58
   vertex -3892.86 -1132.58 -1132.58
   vertex -3892.86 -1119 -1447.71
  endloop
 endfacet
 facet normal -1 0 0
  outer loop
   vertex -3892.86 -1308.41 -939.535
   vertex -3892.86 -1132.58 -1132.58
   vertex -3892.86 -1447.71 -1119
  endloop
 endfacet
 facet normal -1 0 0
  outer loop
   vertex -3892.86 -1291.58 -1291.58
   vertex -3892.86 -1447.71 -1119
   vertex -3892.86 -1132.58 -1132.58
  endloop
 endfacet
 facet normal -1 0 0
  outer loop
   vertex -3892.86 -1466.56 -729.259
   vertex -3892.86 -1308.41 -939.535
   vertex -3892.86 -1586.9 -929.972
  endloop
 endfacet
 facet normal -1 0 0
  outer loop
   vertex -3892.86 -1447.71 -1119
   vertex -3892.86 -1586.9 -929.972
   vertex -3892.86 -1308.41 -939.535
  endloop
 endfacet
 facet normal -1 0 0
  outer loop
   vertex -3892.86 -1586.9 -929.972
   vertex -3892.86 -1708.23 -723.878
   vertex -3892.86 -1466.56 -729.259
  endloop
 endfacet
 facet normal -1 0 0
  outer loop
   vertex -3892.86 -1605.94 -501.595
   vertex -3892.86 -1466.56 -729.259
   vertex -3892.86 -1708.23 -723.878
  endloop
 endfacet
 facet normal -1 0 0
  outer loop
   vertex -3892.86 -1708.23 -723.878
   vertex -3892.86 -1810.45 -499.649
   vertex -3892.86 -1605.94 -501.595
  endloop
 endfacet
 facet normal -1 -9.55104e-09 -1.00357e-06
  outer loop
   vertex -3892.86 -1724.85 -257.193
   vertex -3892.86 -1605.94 -501.595
   vertex -3892.86 -1810.45 -499.649
  endloop
 endfacet
 facet normal -1 -1.46147e-06 -4.90953e-07
  outer loop
   vertex -3892.86 -1810.45 -499.649
   vertex -3892.86 -1892.03 -256.81
   vertex -3892.86 -1724.85 -257.193
  endloop
 endfacet
 facet normal -1 -1.4616e-06 -5.46781e-07
  outer loop
   vertex -3892.86 -1821.07 4.73825e-05
   vertex -3892.86 -1724.85 -257.193
   vertex -3892.86 -1892.03 -256.81
  endloop
 endfacet
 facet normal -1 -3.74886e-06 8.52632e-08
  outer loop
   vertex -3892.86 -1892.03 -256.81
   vertex -3892.86 -1951.31 -4.74229e-05
   vertex -3892.86 -1821.07 4.73825e-05
  endloop
 endfacet
 facet normal -1 -3.74886e-06 -1.03593e-06
  outer loop
   vertex -3892.86 -1892.03 256.81
   vertex -3892.86 -1821.07 4.73825e-05
   vertex -3892.86 -1951.31 -4.74229e-05
  endloop
 endfacet
 facet normal -1 -7.80168e-06 6.78639e-07
  outer loop
   vertex -3892.86 -1935.32 478.657
   vertex -3892.86 -1892.03 256.81
   vertex -3892.86 -1986.84 246.151
  endloop
 endfacet
 facet normal -1 -7.71176e-06 -1.21118e-07
  outer loop
   vertex -3892.86 -1951.31 -4.74229e-05
   vertex -3892.86 -1986.84 246.151
   vertex -3892.86 -1892.03 256.81
  endloop
 endfacet
 facet normal -1 5.76191e-06 -1.44328e-06
  outer loop
   vertex -3892.86 -1949.46 591.362
   vertex -3892.86 -1935.32 478.657
   vertex -3892.86 -1998.04 397.434
  endloop
 endfacet
 facet normal -1 7.36653e-06 -2.6823e-06
  outer loop
   vertex -3892.86 -1986.84 246.151
   vertex -3892.86 -1998.04 397.434
   vertex -3892.86 -1935.32 478.657
  endloop
 endfacet
 facet normal -1 7.08369e-06 -1.97976e-05
  outer loop
   vertex -3892.86 779.595 -1882.11
   vertex -3892.86 591.362 -1949.46
   vertex -3892.86 692.642 -1863.89
  endloop
 endfacet
 facet normal -1 -3.13286e-06 -7.7048e-06
  outer loop
   vertex -3892.86 478.657 -1935.32
   vertex -3892.86 692.642 -1863.89
   vertex -3892.86 591.362 -1949.46
  endloop
 endfacet
 facet normal -1 -2.58664e-06 -9.34124e-06
  outer loop
   vertex -3892.86 692.642 -1863.89
   vertex -3892.86 478.657 -1935.32
   vertex -3892.86 499.649 -1810.45
  endloop
 endfacet
 facet normal -1 2.84051e-07 -9.82385e-06
  outer loop
   vertex -3892.86 499.649 -1810.45
   vertex -3892.86 478.657 -1935.32
   vertex -3892.86 256.81 -1892.03
  endloop
 endfacet
 facet normal -1 -2.52745e-06 -1.45456e-06
  outer loop
   vertex -3892.86 499.649 -1810.45
   vertex -3892.86 256.81 -1892.03
   vertex -3892.86 257.193 -1724.85
  endloop
 endfacet
 facet normal -1 -4.03285e-07 -1.45942e-06
  outer loop
   vertex -3892.86 257.193 -1724.85
   vertex -3892.86 256.81 -1892.03
   vertex -3892.86 4.73825e-05 -1821.07
  endloop
 endfacet
 facet normal -1 0 0
  outer loop
   vertex -3892.86 -257.193 -1724.85
   vertex -3892.86 5.5897e-05 -1610.91
   vertex -3892.86 4.73825e-05 -1821.07
  endloop
 endfacet
 facet normal -1 -9.49252e-07 3.84592e-14
  outer loop
   vertex -3892.86 257.193 -1724.85
   vertex -3892.86 4.73825e-05 -1821.07
   vertex -3892.86 5.5897e-05 -1610.91
  endloop
 endfacet
 facet normal -1 -5.25165e-07 9.73728e-07
  outer loop
   vertex -3892.86 -501.595 -1605.94
   vertex -3892.86 -254.018 -1472.41
   vertex -3892.86 -257.193 -1724.85
  endloop
 endfacet
 facet normal -1 -4.30841e-07 9.72541e-07
  outer loop
   vertex -3892.86 5.5897e-05 -1610.91
   vertex -3892.86 -257.193 -1724.85
   vertex -3892.86 -254.018 -1472.41
  endloop
 endfacet
 facet normal -1 0 0
  outer loop
   vertex -3892.86 -254.018 -1472.41
   vertex -3892.86 -501.595 -1605.94
   vertex -3892.86 -496.771 -1312.55
  endloop
 endfacet
 facet normal -1 0 0
  outer loop
   vertex -3892.86 -729.259 -1466.56
   vertex -3892.86 -496.771 -1312.55
   vertex -3892.86 -501.595 -1605.94
  endloop
 endfacet
 facet normal -1 -4.90063e-07 7.39788e-07
  outer loop
   vertex -3892.86 -496.771 -1312.55
   vertex -3892.86 -729.259 -1466.56
   vertex -3892.86 -725.03 -1133.74
  endloop
 endfacet
 facet normal -1 5.46478e-07 7.26617e-07
  outer loop
   vertex -3892.86 -939.535 -1308.41
   vertex -3892.86 -725.03 -1133.74
   vertex -3892.86 -729.259 -1466.56
  endloop
 endfacet
 facet normal -1 6.0464e-07 6.55191e-07
  outer loop
   vertex -3892.86 -725.03 -1133.74
   vertex -3892.86 -939.535 -1308.41
   vertex -3892.86 -937.587 -937.587
  endloop
 endfacet
 facet normal -1 5.96808e-07 6.55232e-07
  outer loop
   vertex -3892.86 -1132.58 -1132.58
   vertex -3892.86 -937.587 -937.587
   vertex -3892.86 -939.535 -1308.41
  endloop
 endfacet
 facet normal -1 6.55191e-07 6.0464e-07
  outer loop
   vertex -3892.86 -1133.74 -725.03
   vertex -3892.86 -937.587 -937.587
   vertex -3892.86 -1308.41 -939.535
  endloop
 endfacet
 facet normal -1 6.55232e-07 5.96808e-07
  outer loop
   vertex -3892.86 -1132.58 -1132.58
   vertex -3892.86 -1308.41 -939.535
   vertex -3892.86 -937.587 -937.587
  endloop
 endfacet
 facet normal -1 7.39788e-07 -4.90063e-07
  outer loop
   vertex -3892.86 -1312.55 -496.771
   vertex -3892.86 -1133.74 -725.03
   vertex -3892.86 -1466.56 -729.259
  endloop
 endfacet
 facet normal -1 7.26617e-07 5.46478e-07
  outer loop
   vertex -3892.86 -1308.41 -939.535
   vertex -3892.86 -1466.56 -729.259
   vertex -3892.86 -1133.74 -725.03
  endloop
 endfacet
 facet normal -1 -0 0
  outer loop
   vertex -3892.86 -1472.41 -254.018
   vertex -3892.86 -1312.55 -496.771
   vertex -3892.86 -1605.94 -501.595
  endloop
 endfacet
 facet normal -1 0 0
  outer loop
   vertex -3892.86 -1466.56 -729.259
   vertex -3892.86 -1605.94 -501.595
   vertex -3892.86 -1312.55 -496.771
  endloop
 endfacet
 facet normal -1 9.73728e-07 -5.25165e-07
  outer loop
   vertex -3892.86 -1605.94 -501.595
   vertex -3892.86 -1724.85 -257.193
   vertex -3892.86 -1472.41 -254.018
  endloop
 endfacet
 facet normal -1 9.72541e-07 -4.30841e-07
  outer loop
   vertex -3892.86 -1610.91 5.5897e-05
   vertex -3892.86 -1472.41 -254.018
   vertex -3892.86 -1724.85 -257.193
  endloop
 endfacet
 facet normal -1 0 0
  outer loop
   vertex -3892.86 -1724.85 -257.193
   vertex -3892.86 -1821.07 4.73825e-05
   vertex -3892.86 -1610.91 5.5897e-05
  endloop
 endfacet
 facet normal -1 3.84592e-14 -9.49252e-07
  outer loop
   vertex -3892.86 -1724.85 257.193
   vertex -3892.86 -1610.91 5.5897e-05
   vertex -3892.86 -1821.07 4.73825e-05
  endloop
 endfacet
 facet normal -1 -1.45456e-06 -2.52745e-06
  outer loop
   vertex -3892.86 -1810.45 499.649
   vertex -3892.86 -1724.85 257.193
   vertex -3892.86 -1892.03 256.81
  endloop
 endfacet
 facet normal -1 -1.45942e-06 -4.03285e-07
  outer loop
   vertex -3892.86 -1892.03 256.81
   vertex -3892.86 -1724.85 257.193
   vertex -3892.86 -1821.07 4.73825e-05
  endloop
 endfacet
 facet normal -1 -9.34124e-06 -2.58664e-06
  outer loop
   vertex -3892.86 -1863.89 692.642
   vertex -3892.86 -1810.45 499.649
   vertex -3892.86 -1935.32 478.657
  endloop
 endfacet
 facet normal -1 -9.82385e-06 2.84051e-07
  outer loop
   vertex -3892.86 -1935.32 478.657
   vertex -3892.86 -1810.45 499.649
   vertex -3892.86 -1892.03 256.81
  endloop
 endfacet
 facet normal -1 -1.97976e-05 7.08369e-06
  outer loop
   vertex -3892.86 -1882.11 779.595
   vertex -3892.86 -1863.89 692.642
   vertex -3892.86 -1949.46 591.362
  endloop
 endfacet
 facet normal -1 -7.7048e-06 -3.13286e-06
  outer loop
   vertex -3892.86 -1935.32 478.657
   vertex -3892.86 -1949.46 591.362
   vertex -3892.86 -1863.89 692.642
  endloop
 endfacet
 facet normal -1 1.02984e-05 -2.1774e-05
  outer loop
   vertex -3892.86 960.32 -1796.63
   vertex -3892.86 779.595 -1882.11
   vertex -3892.86 890.566 -1773.56
  endloop
 endfacet
 facet normal -1 7.3097e-06 -1.87187e-05
  outer loop
   vertex -3892.86 692.642 -1863.89
   vertex -3892.86 890.566 -1773.56
   vertex -3892.86 779.595 -1882.11
  endloop
 endfacet
 facet normal -1 -1.35787e-06 2.72486e-07
  outer loop
   vertex -3892.86 890.566 -1773.56
   vertex -3892.86 692.642 -1863.89
   vertex -3892.86 723.878 -1708.23
  endloop
 endfacet
 facet normal -1 0 0
  outer loop
   vertex -3892.86 692.642 -1863.89
   vertex -3892.86 499.649 -1810.45
   vertex -3892.86 723.878 -1708.23
  endloop
 endfacet
 facet normal -1 -1.09313e-06 2.3979e-06
  outer loop
   vertex -3892.86 723.878 -1708.23
   vertex -3892.86 499.649 -1810.45
   vertex -3892.86 501.595 -1605.94
  endloop
 endfacet
 facet normal -1 -1.16703e-06 2.3986e-06
  outer loop
   vertex -3892.86 257.193 -1724.85
   vertex -3892.86 501.595 -1605.94
   vertex -3892.86 499.649 -1810.45
  endloop
 endfacet
 facet normal -1 -9.35376e-07 1.92248e-06
  outer loop
   vertex -3892.86 501.595 -1605.94
   vertex -3892.86 257.193 -1724.85
   vertex -3892.86 254.018 -1472.41
  endloop
 endfacet
 facet normal -1 -9.28878e-08 1.93308e-06
  outer loop
   vertex -3892.86 5.5897e-05 -1610.91
   vertex -3892.86 254.018 -1472.41
   vertex -3892.86 257.193 -1724.85
  endloop
 endfacet
 facet normal -1 -5.14261e-07 8.19546e-07
  outer loop
   vertex -3892.86 -254.018 -1472.41
   vertex -3892.86 1.01263e-05 -1313.02
   vertex -3892.86 5.5897e-05 -1610.91
  endloop
 endfacet
 facet normal -1 5.14261e-07 8.19546e-07
  outer loop
   vertex -3892.86 254.018 -1472.41
   vertex -3892.86 5.5897e-05 -1610.91
   vertex -3892.86 1.01263e-05 -1313.02
  endloop
 endfacet
 facet normal -1 -4.53703e-07 7.23039e-07
  outer loop
   vertex -3892.86 1.01263e-05 -1313.02
   vertex -3892.86 -254.018 -1472.41
   vertex -3892.86 -249.979 -1132.22
  endloop
 endfacet
 facet normal -1 4.68929e-07 7.12084e-07
  outer loop
   vertex -3892.86 -254.018 -1472.41
   vertex -3892.86 -496.771 -1312.55
   vertex -3892.86 -249.979 -1132.22
  endloop
 endfacet
 facet normal -1 5.25066e-07 6.35258e-07
  outer loop
   vertex -3892.86 -249.979 -1132.22
   vertex -3892.86 -496.771 -1312.55
   vertex -3892.86 -490.533 -933.389
  endloop
 endfacet
 facet normal -1 -5.57988e-07 6.53076e-07
  outer loop
   vertex -3892.86 -725.03 -1133.74
   vertex -3892.86 -490.533 -933.389
   vertex -3892.86 -496.771 -1312.55
  endloop
 endfacet
 facet normal -1 0 0
  outer loop
   vertex -3892.86 -490.533 -933.389
   vertex -3892.86 -725.03 -1133.74
   vertex -3892.86 -718.914 -718.914
  endloop
 endfacet
 facet normal -1 0 0
  outer loop
   vertex -3892.86 -937.587 -937.587
   vertex -3892.86 -718.914 -718.914
   vertex -3892.86 -725.03 -1133.74
  endloop
 endfacet
 facet normal -1 -0 0
  outer loop
   vertex -3892.86 -933.389 -490.533
   vertex -3892.86 -718.914 -718.914
   vertex -3892.86 -1133.74 -725.03
  endloop
 endfacet
 facet normal -1 0 0
  outer loop
   vertex -3892.86 -937.587 -937.587
   vertex -3892.86 -1133.74 -725.03
   vertex -3892.86 -718.914 -718.914
  endloop
 endfacet
 facet normal -1 6.35258e-07 5.25066e-07
  outer loop
   vertex -3892.86 -1132.22 -249.979
   vertex -3892.86 -933.389 -490.533
   vertex -3892.86 -1312.55 -496.771
  endloop
 endfacet
 facet normal -1 6.53076e-07 -5.57988e-07
  outer loop
   vertex -3892.86 -1133.74 -725.03
   vertex -3892.86 -1312.55 -496.771
   vertex -3892.86 -933.389 -490.533
  endloop
 endfacet
 facet normal -1 7.23039e-07 -4.53703e-07
  outer loop
   vertex -3892.86 -1313.02 1.01263e-05
   vertex -3892.86 -1132.22 -249.979
   vertex -3892.86 -1472.41 -254.018
  endloop
 endfacet
 facet normal -1 7.12084e-07 4.68929e-07
  outer loop
   vertex -3892.86 -1472.41 -254.018
   vertex -3892.86 -1132.22 -249.979
   vertex -3892.86 -1312.55 -496.771
  endloop
 endfacet
 facet normal -1 8.19546e-07 -5.14261e-07
  outer loop
   vertex -3892.86 -1472.41 -254.018
   vertex -3892.86 -1610.91 5.5897e-05
   vertex -3892.86 -1313.02 1.01263e-05
  endloop
 endfacet
 facet normal -1 8.19546e-07 5.14261e-07
  outer loop
   vertex -3892.86 -1472.41 254.018
   vertex -3892.86 -1313.02 1.01263e-05
   vertex -3892.86 -1610.91 5.5897e-05
  endloop
 endfacet
 facet normal -1 1.92248e-06 -9.35376e-07
  outer loop
   vertex -3892.86 -1605.94 501.595
   vertex -3892.86 -1472.41 254.018
   vertex -3892.86 -1724.85 257.193
  endloop
 endfacet
 facet normal -1 1.93308e-06 -9.28878e-08
  outer loop
   vertex -3892.86 -1610.91 5.5897e-05
   vertex -3892.86 -1724.85 257.193
   vertex -3892.86 -1472.41 254.018
  endloop
 endfacet
 facet normal -1 2.3979e-06 -1.09313e-06
  outer loop
   vertex -3892.86 -1708.23 723.878
   vertex -3892.86 -1605.94 501.595
   vertex -3892.86 -1810.45 499.649
  endloop
 endfacet
 facet normal -1 2.3986e-06 -1.16703e-06
  outer loop
   vertex -3892.86 -1724.85 257.193
   vertex -3892.86 -1810.45 499.649
   vertex -3892.86 -1605.94 501.595
  endloop
 endfacet
 facet normal -1 2.72486e-07 -1.35787e-06
  outer loop
   vertex -3892.86 -1773.56 890.566
   vertex -3892.86 -1708.23 723.878
   vertex -3892.86 -1863.89 692.642
  endloop
 endfacet
 facet normal -1 0 0
  outer loop
   vertex -3892.86 -1863.89 692.642
   vertex -3892.86 -1708.23 723.878
   vertex -3892.86 -1810.45 499.649
  endloop
 endfacet
 facet normal -1 -2.1774e-05 1.02984e-05
  outer loop
   vertex -3892.86 -1796.63 960.32
   vertex -3892.86 -1773.56 890.566
   vertex -3892.86 -1882.11 779.595
  endloop
 endfacet
 facet normal -1 -1.87187e-05 7.3097e-06
  outer loop
   vertex -3892.86 -1863.89 692.642
   vertex -3892.86 -1882.11 779.595
   vertex -3892.86 -1773.56 890.566
  endloop
 endfacet
 facet normal -1 2.32198e-06 -3.87399e-06
  outer loop
   vertex -3892.86 1131.8 -1693.85
   vertex -3892.86 960.32 -1796.63
   vertex -3892.86 1074.17 -1665.37
  endloop
 endfacet
 facet normal -1 1.31208e-05 -1.32406e-05
  outer loop
   vertex -3892.86 890.566 -1773.56
   vertex -3892.86 1074.17 -1665.37
   vertex -3892.86 960.32 -1796.63
  endloop
 endfacet
 facet normal -1 1.67345e-06 6.18635e-06
  outer loop
   vertex -3892.86 1074.17 -1665.37
   vertex -3892.86 890.566 -1773.56
   vertex -3892.86 929.972 -1586.9
  endloop
 endfacet
 facet normal -1 1.0144e-06 6.32548e-06
  outer loop
   vertex -3892.86 723.878 -1708.23
   vertex -3892.86 929.972 -1586.9
   vertex -3892.86 890.566 -1773.56
  endloop
 endfacet
 facet normal -1 1.78816e-06 5.01122e-06
  outer loop
   vertex -3892.86 929.972 -1586.9
   vertex -3892.86 723.878 -1708.23
   vertex -3892.86 729.259 -1466.56
  endloop
 endfacet
 facet normal -1 1.26566e-07 5.04821e-06
  outer loop
   vertex -3892.86 501.595 -1605.94
   vertex -3892.86 729.259 -1466.56
   vertex -3892.86 723.878 -1708.23
  endloop
 endfacet
 facet normal -1 -6.31423e-07 2.48605e-06
  outer loop
   vertex -3892.86 254.018 -1472.41
   vertex -3892.86 496.77 -1312.55
   vertex -3892.86 501.595 -1605.94
  endloop
 endfacet
 facet normal -1 1.67195e-06 2.52393e-06
  outer loop
   vertex -3892.86 496.77 -1312.55
   vertex -3892.86 729.259 -1466.56
   vertex -3892.86 501.595 -1605.94
  endloop
 endfacet
 facet normal -1 9.07407e-07 1.44608e-06
  outer loop
   vertex -3892.86 1.01263e-05 -1313.02
   vertex -3892.86 249.979 -1132.22
   vertex -3892.86 254.018 -1472.41
  endloop
 endfacet
 facet normal -1 6.0059e-08 1.43602e-06
  outer loop
   vertex -3892.86 254.018 -1472.41
   vertex -3892.86 249.979 -1132.22
   vertex -3892.86 496.77 -1312.55
  endloop
 endfacet
 facet normal -1 1.02758e-06 1.27992e-06
  outer loop
   vertex -3892.86 249.979 -1132.22
   vertex -3892.86 1.01263e-05 -1313.02
   vertex -3892.86 -2.13903e-05 -931.523
  endloop
 endfacet
 facet normal -1 -5.09325e-08 1.27992e-06
  outer loop
   vertex -3892.86 -249.979 -1132.22
   vertex -3892.86 -2.13903e-05 -931.523
   vertex -3892.86 1.01263e-05 -1313.02
  endloop
 endfacet
 facet normal -1 5.1026e-07 5.80919e-07
  outer loop
   vertex -3892.86 -2.13903e-05 -931.523
   vertex -3892.86 -249.979 -1132.22
   vertex -3892.86 -246.557 -714.955
  endloop
 endfacet
 facet normal -1 4.80355e-07 5.81164e-07
  outer loop
   vertex -3892.86 -490.533 -933.389
   vertex -3892.86 -246.557 -714.955
   vertex -3892.86 -249.979 -1132.22
  endloop
 endfacet
 facet normal -1 5.17275e-07 5.39927e-07
  outer loop
   vertex -3892.86 -246.557 -714.955
   vertex -3892.86 -490.533 -933.389
   vertex -3892.86 -485.774 -485.774
  endloop
 endfacet
 facet normal -1 5.07152e-07 5.40035e-07
  outer loop
   vertex -3892.86 -718.914 -718.914
   vertex -3892.86 -485.774 -485.774
   vertex -3892.86 -490.533 -933.389
  endloop
 endfacet
 facet normal -1 5.39927e-07 5.17275e-07
  outer loop
   vertex -3892.86 -714.955 -246.557
   vertex -3892.86 -485.774 -485.774
   vertex -3892.86 -933.389 -490.533
  endloop
 endfacet
 facet normal -1 5.40035e-07 5.07152e-07
  outer loop
   vertex -3892.86 -718.914 -718.914
   vertex -3892.86 -933.389 -490.533
   vertex -3892.86 -485.774 -485.774
  endloop
 endfacet
 facet normal -1 5.80919e-07 5.1026e-07
  outer loop
   vertex -3892.86 -931.523 -2.13903e-05
   vertex -3892.86 -714.955 -246.557
   vertex -3892.86 -1132.22 -249.979
  endloop
 endfacet
 facet normal -1 5.81164e-07 4.80355e-07
  outer loop
   vertex -3892.86 -933.389 -490.533
   vertex -3892.86 -1132.22 -249.979
   vertex -3892.86 -714.955 -246.557
  endloop
 endfacet
 facet normal -1 1.27992e-06 1.02758e-06
  outer loop
   vertex -3892.86 -1132.22 249.979
   vertex -3892.86 -931.523 -2.13903e-05
   vertex -3892.86 -1313.02 1.01263e-05
  endloop
 endfacet
 facet normal -1 1.27992e-06 -5.09325e-08
  outer loop
   vertex -3892.86 -1132.22 -249.979
   vertex -3892.86 -1313.02 1.01263e-05
   vertex -3892.86 -931.523 -2.13903e-05
  endloop
 endfacet
 facet normal -1 1.44608e-06 9.07407e-07
  outer loop
   vertex -3892.86 -1313.02 1.01263e-05
   vertex -3892.86 -1472.41 254.018
   vertex -3892.86 -1132.22 249.979
  endloop
 endfacet
 facet normal -1 1.43602e-06 6.0059e-08
  outer loop
   vertex -3892.86 -1472.41 254.018
   vertex -3892.86 -1312.55 496.77
   vertex -3892.86 -1132.22 249.979
  endloop
 endfacet
 facet normal -1 2.48605e-06 -6.31423e-07
  outer loop
   vertex -3892.86 -1472.41 254.018
   vertex -3892.86 -1605.94 501.595
   vertex -3892.86 -1312.55 496.77
  endloop
 endfacet
 facet normal -1 2.52393e-06 1.67195e-06
  outer loop
   vertex -3892.86 -1312.55 496.77
   vertex -3892.86 -1605.94 501.595
   vertex -3892.86 -1466.56 729.259
  endloop
 endfacet
 facet normal -1 5.01122e-06 1.78816e-06
  outer loop
   vertex -3892.86 -1586.9 929.972
   vertex -3892.86 -1466.56 729.259
   vertex -3892.86 -1708.23 723.878
  endloop
 endfacet
 facet normal -1 5.04821e-06 1.26566e-07
  outer loop
   vertex -3892.86 -1605.94 501.595
   vertex -3892.86 -1708.23 723.878
   vertex -3892.86 -1466.56 729.259
  endloop
 endfacet
 facet normal -1 6.18635e-06 1.67345e-06
  outer loop
   vertex -3892.86 -1665.37 1074.17
   vertex -3892.86 -1586.9 929.972
   vertex -3892.86 -1773.56 890.566
  endloop
 endfacet
 facet normal -1 6.32548e-06 1.0144e-06
  outer loop
   vertex -3892.86 -1708.23 723.878
   vertex -3892.86 -1773.56 890.566
   vertex -3892.86 -1586.9 929.972
  endloop
 endfacet
 facet normal -1 -3.87399e-06 2.32198e-06
  outer loop
   vertex -3892.86 -1693.85 1131.8
   vertex -3892.86 -1665.37 1074.17
   vertex -3892.86 -1796.63 960.32
  endloop
 endfacet
 facet normal -1 -1.32406e-05 1.31208e-05
  outer loop
   vertex -3892.86 -1773.56 890.566
   vertex -3892.86 -1796.63 960.32
   vertex -3892.86 -1665.37 1074.17
  endloop
 endfacet
 facet normal -1 -1.54541e-05 2.08375e-05
  outer loop
   vertex -3892.86 1292.37 -1574.76
   vertex -3892.86 1131.8 -1693.85
   vertex -3892.86 1243.95 -1540.38
  endloop
 endfacet
 facet normal -1 6.57833e-06 4.73719e-06
  outer loop
   vertex -3892.86 1074.17 -1665.37
   vertex -3892.86 1243.95 -1540.38
   vertex -3892.86 1131.8 -1693.85
  endloop
 endfacet
 facet normal -1 5.05143e-06 6.81114e-06
  outer loop
   vertex -3892.86 1243.95 -1540.38
   vertex -3892.86 1074.17 -1665.37
   vertex -3892.86 1119 -1447.71
  endloop
 endfacet
 facet normal -1 2.31964e-06 7.3738e-06
  outer loop
   vertex -3892.86 1074.17 -1665.37
   vertex -3892.86 929.972 -1586.9
   vertex -3892.86 1119 -1447.71
  endloop
 endfacet
 facet normal -1 1.38325e-06 4.33588e-06
  outer loop
   vertex -3892.86 729.259 -1466.56
   vertex -3892.86 939.535 -1308.41
   vertex -3892.86 929.972 -1586.9
  endloop
 endfacet
 facet normal -1 4.63886e-06 4.22408e-06
  outer loop
   vertex -3892.86 1119 -1447.71
   vertex -3892.86 929.972 -1586.9
   vertex -3892.86 939.535 -1308.41
  endloop
 endfacet
 facet normal -1 1.47019e-06 2.21936e-06
  outer loop
   vertex -3892.86 496.77 -1312.55
   vertex -3892.86 725.03 -1133.74
   vertex -3892.86 729.259 -1466.56
  endloop
 endfacet
 facet normal -1 2.96081e-06 2.2383e-06
  outer loop
   vertex -3892.86 729.259 -1466.56
   vertex -3892.86 725.03 -1133.74
   vertex -3892.86 939.535 -1308.41
  endloop
 endfacet
 facet normal -1 -4.88376e-08 1.28699e-06
  outer loop
   vertex -3892.86 249.979 -1132.22
   vertex -3892.86 490.533 -933.389
   vertex -3892.86 496.77 -1312.55
  endloop
 endfacet
 facet normal -1 2.17194e-06 1.32352e-06
  outer loop
   vertex -3892.86 725.03 -1133.74
   vertex -3892.86 496.77 -1312.55
   vertex -3892.86 490.533 -933.389
  endloop
 endfacet
 facet normal -1 4.72858e-07 5.8898e-07
  outer loop
   vertex -3892.86 -2.13903e-05 -931.523
   vertex -3892.86 246.557 -714.955
   vertex -3892.86 249.979 -1132.22
  endloop
 endfacet
 facet normal -1 5.27722e-07 5.8943e-07
  outer loop
   vertex -3892.86 490.533 -933.389
   vertex -3892.86 249.979 -1132.22
   vertex -3892.86 246.557 -714.955
  endloop
 endfacet
 facet normal -1 0 0
  outer loop
   vertex -3892.86 -246.557 -714.955
   vertex -3892.86 -2.05202e-05 -484.026
   vertex -3892.86 -2.13903e-05 -931.523
  endloop
 endfacet
 facet normal -1 9.90199e-07 -1.92517e-15
  outer loop
   vertex -3892.86 -2.13903e-05 -931.523
   vertex -3892.86 -2.05202e-05 -484.026
   vertex -3892.86 246.557 -714.955
  endloop
 endfacet
 facet normal -1 0 0
  outer loop
   vertex -3892.86 -2.05202e-05 -484.026
   vertex -3892.86 -246.557 -714.955
   vertex -3892.86 -244.635 -244.635
  endloop
 endfacet
 facet normal -1 0 0
  outer loop
   vertex -3892.86 -485.774 -485.774
   vertex -3892.86 -244.635 -244.635
   vertex -3892.86 -246.557 -714.955
  endloop
 endfacet
 facet normal -1 -0 0
  outer loop
   vertex -3892.86 -484.026 -2.05202e-05
   vertex -3892.86 -244.635 -244.635
   vertex -3892.86 -714.955 -246.557
  endloop
 endfacet
 facet normal -1 0 0
  outer loop
   vertex -3892.86 -485.774 -485.774
   vertex -3892.86 -714.955 -246.557
   vertex -3892.86 -244.635 -244.635
  endloop
 endfacet
 facet normal -1 0 0
  outer loop
   vertex -3892.86 -714.955 -246.557
   vertex -3892.86 -931.523 -2.13903e-05
   vertex -3892.86 -484.026 -2.05202e-05
  endloop
 endfacet
 facet normal -1 -1.92517e-15 9.90199e-07
  outer loop
   vertex -3892.86 -714.955 246.557
   vertex -3892.86 -484.026 -2.05202e-05
   vertex -3892.86 -931.523 -2.13903e-05
  endloop
 endfacet
 facet normal -1 5.8898e-07 4.72858e-07
  outer loop
   vertex -3892.86 -931.523 -2.13903e-05
   vertex -3892.86 -1132.22 249.979
   vertex -3892.86 -714.955 246.557
  endloop
 endfacet
 facet normal -1 5.8943e-07 5.27722e-07
  outer loop
   vertex -3892.86 -933.389 490.533
   vertex -3892.86 -714.955 246.557
   vertex -3892.86 -1132.22 249.979
  endloop
 endfacet
 facet normal -1 1.28699e-06 -4.88376e-08
  outer loop
   vertex -3892.86 -1132.22 249.979
   vertex -3892.86 -1312.55 496.77
   vertex -3892.86 -933.389 490.533
  endloop
 endfacet
 facet normal -1 1.32352e-06 2.17194e-06
  outer loop
   vertex -3892.86 -1133.74 725.03
   vertex -3892.86 -933.389 490.533
   vertex -3892.86 -1312.55 496.77
  endloop
 endfacet
 facet normal -1 2.21936e-06 1.47019e-06
  outer loop
   vertex -3892.86 -1312.55 496.77
   vertex -3892.86 -1466.56 729.259
   vertex -3892.86 -1133.74 725.03
  endloop
 endfacet
 facet normal -1 2.2383e-06 2.96081e-06
  outer loop
   vertex -3892.86 -1466.56 729.259
   vertex -3892.86 -1308.41 939.535
   vertex -3892.86 -1133.74 725.03
  endloop
 endfacet
 facet normal -1 4.33588e-06 1.38325e-06
  outer loop
   vertex -3892.86 -1466.56 729.259
   vertex -3892.86 -1586.9 929.972
   vertex -3892.86 -1308.41 939.535
  endloop
 endfacet
 facet normal -1 4.22408e-06 4.63886e-06
  outer loop
   vertex -3892.86 -1447.71 1119
   vertex -3892.86 -1308.41 939.535
   vertex -3892.86 -1586.9 929.972
  endloop
 endfacet
 facet normal -1 6.81114e-06 5.05143e-06
  outer loop
   vertex -3892.86 -1540.38 1243.95
   vertex -3892.86 -1447.71 1119
   vertex -3892.86 -1665.37 1074.17
  endloop
 endfacet
 facet normal -1 7.3738e-06 2.31964e-06
  outer loop
   vertex -3892.86 -1665.37 1074.17
   vertex -3892.86 -1447.71 1119
   vertex -3892.86 -1586.9 929.972
  endloop
 endfacet
 facet normal -1 2.08375e-05 -1.54541e-05
  outer loop
   vertex -3892.86 -1574.76 1292.37
   vertex -3892.86 -1540.38 1243.95
   vertex -3892.86 -1693.85 1131.8
  endloop
 endfacet
 facet normal -1 4.73719e-06 6.57833e-06
  outer loop
   vertex -3892.86 -1665.37 1074.17
   vertex -3892.86 -1693.85 1131.8
   vertex -3892.86 -1540.38 1243.95
  endloop
 endfacet
 facet normal -1 -1.5567e-05 2.06785e-05
  outer loop
   vertex -3892.86 1243.95 -1540.38
   vertex -3892.85 1399.59 -1399.59
   vertex -3892.86 1292.37 -1574.76
  endloop
 endfacet
 facet normal -1 -2.26979e-05 2.50433e-05
  outer loop
   vertex -3892.86 1440.5 -1440.5
   vertex -3892.86 1292.37 -1574.76
   vertex -3892.85 1399.59 -1399.59
  endloop
 endfacet
 facet normal -1 1.27457e-06 1.71858e-06
  outer loop
   vertex -3892.86 1119 -1447.71
   vertex -3892.85 1291.58 -1291.58
   vertex -3892.86 1243.95 -1540.38
  endloop
 endfacet
 facet normal -1 1.64724e-06 1.64724e-06
  outer loop
   vertex -3892.85 1399.59 -1399.59
   vertex -3892.86 1243.95 -1540.38
   vertex -3892.85 1291.58 -1291.58
  endloop
 endfacet
 facet normal -1 1.31633e-06 -5.67107e-08
  outer loop
   vertex -3892.86 939.535 -1308.41
   vertex -3892.86 1132.58 -1132.58
   vertex -3892.86 1119 -1447.71
  endloop
 endfacet
 facet normal -1 2.94414e-06 -1.26841e-07
  outer loop
   vertex -3892.85 1291.58 -1291.58
   vertex -3892.86 1119 -1447.71
   vertex -3892.86 1132.58 -1132.58
  endloop
 endfacet
 facet normal -1 1.14305e-06 6.00401e-09
  outer loop
   vertex -3892.86 725.03 -1133.74
   vertex -3892.86 937.587 -937.587
   vertex -3892.86 939.535 -1308.41
  endloop
 endfacet
 facet normal -1 1.25865e-06 6.61121e-09
  outer loop
   vertex -3892.86 1132.58 -1132.58
   vertex -3892.86 939.535 -1308.41
   vertex -3892.86 937.587 -937.587
  endloop
 endfacet
 facet normal -1 1.0544e-06 1.5547e-08
  outer loop
   vertex -3892.86 490.533 -933.389
   vertex -3892.86 718.914 -718.914
   vertex -3892.86 725.03 -1133.74
  endloop
 endfacet
 facet normal -1 1.13317e-06 1.67084e-08
  outer loop
   vertex -3892.86 937.587 -937.587
   vertex -3892.86 725.03 -1133.74
   vertex -3892.86 718.914 -718.914
  endloop
 endfacet
 facet normal -1 0 -0
  outer loop
   vertex -3892.86 246.557 -714.955
   vertex -3892.86 485.774 -485.774
   vertex -3892.86 490.533 -933.389
  endloop
 endfacet
 facet normal -1 1.05844e-06 1.12517e-08
  outer loop
   vertex -3892.86 718.914 -718.914
   vertex -3892.86 490.533 -933.389
   vertex -3892.86 485.774 -485.774
  endloop
 endfacet
 facet normal -1 9.94003e-07 4.062e-09
  outer loop
   vertex -3892.86 -2.05202e-05 -484.026
   vertex -3892.86 244.635 -244.635
   vertex -3892.86 246.557 -714.955
  endloop
 endfacet
 facet normal -1 0 0
  outer loop
   vertex -3892.86 485.774 -485.774
   vertex -3892.86 246.557 -714.955
   vertex -3892.86 244.635 -244.635
  endloop
 endfacet
 facet normal -1 5.04395e-07 5.04395e-07
  outer loop
   vertex -3892.86 244.635 -244.635
   vertex -3892.86 -2.05202e-05 -484.026
   vertex -3892.86 1.24719e-14 -1.61635e-13
  endloop
 endfacet
 facet normal -1 4.93583e-07 5.04395e-07
  outer loop
   vertex -3892.86 -2.05202e-05 -484.026
   vertex -3892.86 -244.635 -244.635
   vertex -3892.86 1.24719e-14 -1.61635e-13
  endloop
 endfacet
 facet normal -1 5.04395e-07 5.04395e-07
  outer loop
   vertex -3892.86 -244.635 244.635
   vertex -3892.86 1.24719e-14 -1.61635e-13
   vertex -3892.86 -484.026 -2.05202e-05
  endloop
 endfacet
 facet normal -1 5.04395e-07 4.93583e-07
  outer loop
   vertex -3892.86 -244.635 -244.635
   vertex -3892.86 -484.026 -2.05202e-05
   vertex -3892.86 1.24719e-14 -1.61635e-13
  endloop
 endfacet
 facet normal -1 4.062e-09 9.94003e-07
  outer loop
   vertex -3892.86 -484.026 -2.05202e-05
   vertex -3892.86 -714.955 246.557
   vertex -3892.86 -244.635 244.635
  endloop
 endfacet
 facet normal -1 0 0
  outer loop
   vertex -3892.86 -485.774 485.774
   vertex -3892.86 -244.635 244.635
   vertex -3892.86 -714.955 246.557
  endloop
 endfacet
 facet normal -1 0 0
  outer loop
   vertex -3892.86 -714.955 246.557
   vertex -3892.86 -933.389 490.533
   vertex -3892.86 -485.774 485.774
  endloop
 endfacet
 facet normal -1 1.12517e-08 1.05844e-06
  outer loop
   vertex -3892.86 -718.914 718.914
   vertex -3892.86 -485.774 485.774
   vertex -3892.86 -933.389 490.533
  endloop
 endfacet
 facet normal -1 1.5547e-08 1.0544e-06
  outer loop
   vertex -3892.86 -933.389 490.533
   vertex -3892.86 -1133.74 725.03
   vertex -3892.86 -718.914 718.914
  endloop
 endfacet
 facet normal -1 1.67084e-08 1.13317e-06
  outer loop
   vertex -3892.86 -937.587 937.587
   vertex -3892.86 -718.914 718.914
   vertex -3892.86 -1133.74 725.03
  endloop
 endfacet
 facet normal -1 6.00401e-09 1.14305e-06
  outer loop
   vertex -3892.86 -1133.74 725.03
   vertex -3892.86 -1308.41 939.535
   vertex -3892.86 -937.587 937.587
  endloop
 endfacet
 facet normal -1 6.61121e-09 1.25865e-06
  outer loop
   vertex -3892.86 -1132.58 1132.58
   vertex -3892.86 -937.587 937.587
   vertex -3892.86 -1308.41 939.535
  endloop
 endfacet
 facet normal -1 -5.67107e-08 1.31633e-06
  outer loop
   vertex -3892.86 -1308.41 939.535
   vertex -3892.86 -1447.71 1119
   vertex -3892.86 -1132.58 1132.58
  endloop
 endfacet
 facet normal -1 -1.26841e-07 2.94414e-06
  outer loop
   vertex -3892.85 -1291.58 1291.58
   vertex -3892.86 -1132.58 1132.58
   vertex -3892.86 -1447.71 1119
  endloop
 endfacet
 facet normal -1 1.71858e-06 1.27457e-06
  outer loop
   vertex -3892.86 -1447.71 1119
   vertex -3892.86 -1540.38 1243.95
   vertex -3892.85 -1291.58 1291.58
  endloop
 endfacet
 facet normal -1 1.64724e-06 1.64724e-06
  outer loop
   vertex -3892.85 -1399.59 1399.59
   vertex -3892.85 -1291.58 1291.58
   vertex -3892.86 -1540.38 1243.95
  endloop
 endfacet
 facet normal -1 2.06785e-05 -1.5567e-05
  outer loop
   vertex -3892.86 -1540.38 1243.95
   vertex -3892.86 -1574.76 1292.37
   vertex -3892.85 -1399.59 1399.59
  endloop
 endfacet
 facet normal -1 2.50433e-05 -2.26979e-05
  outer loop
   vertex -3892.86 -1440.5 1440.5
   vertex -3892.85 -1399.59 1399.59
   vertex -3892.86 -1574.76 1292.37
  endloop
 endfacet
 facet normal -1 -2.06785e-05 1.5567e-05
  outer loop
   vertex -3892.86 1540.38 -1243.95
   vertex -3892.86 1574.76 -1292.37
   vertex -3892.85 1399.59 -1399.59
  endloop
 endfacet
 facet normal -1 -2.50433e-05 2.26979e-05
  outer loop
   vertex -3892.86 1440.5 -1440.5
   vertex -3892.85 1399.59 -1399.59
   vertex -3892.86 1574.76 -1292.37
  endloop
 endfacet
 facet normal -1 -1.71858e-06 -1.27457e-06
  outer loop
   vertex -3892.86 1447.71 -1119
   vertex -3892.86 1540.38 -1243.95
   vertex -3892.85 1291.58 -1291.58
  endloop
 endfacet
 facet normal -1 -1.64724e-06 -1.64724e-06
  outer loop
   vertex -3892.85 1399.59 -1399.59
   vertex -3892.85 1291.58 -1291.58
   vertex -3892.86 1540.38 -1243.95
  endloop
 endfacet
 facet normal -1 5.67107e-08 -1.31633e-06
  outer loop
   vertex -3892.86 1308.41 -939.535
   vertex -3892.86 1447.71 -1119
   vertex -3892.86 1132.58 -1132.58
  endloop
 endfacet
 facet normal -1 1.26841e-07 -2.94414e-06
  outer loop
   vertex -3892.85 1291.58 -1291.58
   vertex -3892.86 1132.58 -1132.58
   vertex -3892.86 1447.71 -1119
  endloop
 endfacet
 facet normal -1 -6.00401e-09 -1.14305e-06
  outer loop
   vertex -3892.86 1133.74 -725.03
   vertex -3892.86 1308.41 -939.535
   vertex -3892.86 937.587 -937.587
  endloop
 endfacet
 facet normal -1 -6.61121e-09 -1.25865e-06
  outer loop
   vertex -3892.86 1132.58 -1132.58
   vertex -3892.86 937.587 -937.587
   vertex -3892.86 1308.41 -939.535
  endloop
 endfacet
 facet normal -1 -1.5547e-08 -1.0544e-06
  outer loop
   vertex -3892.86 933.389 -490.533
   vertex -3892.86 1133.74 -725.03
   vertex -3892.86 718.914 -718.914
  endloop
 endfacet
 facet normal -1 -1.67084e-08 -1.13317e-06
  outer loop
   vertex -3892.86 937.587 -937.587
   vertex -3892.86 718.914 -718.914
   vertex -3892.86 1133.74 -725.03
  endloop
 endfacet
 facet normal -1 0 0
  outer loop
   vertex -3892.86 714.955 -246.557
   vertex -3892.86 933.389 -490.533
   vertex -3892.86 485.774 -485.774
  endloop
 endfacet
 facet normal -1 -1.12517e-08 -1.05844e-06
  outer loop
   vertex -3892.86 718.914 -718.914
   vertex -3892.86 485.774 -485.774
   vertex -3892.86 933.389 -490.533
  endloop
 endfacet
 facet normal -1 -4.062e-09 -9.94003e-07
  outer loop
   vertex -3892.86 484.026 2.05202e-05
   vertex -3892.86 714.955 -246.557
   vertex -3892.86 244.635 -244.635
  endloop
 endfacet
 facet normal -1 0 0
  outer loop
   vertex -3892.86 485.774 -485.774
   vertex -3892.86 244.635 -244.635
   vertex -3892.86 714.955 -246.557
  endloop
 endfacet
 facet normal -1 -5.04395e-07 -5.04395e-07
  outer loop
   vertex -3892.86 244.635 -244.635
   vertex -3892.86 1.24719e-14 -1.61635e-13
   vertex -3892.86 484.026 2.05202e-05
  endloop
 endfacet
 facet normal -1 -5.04395e-07 -4.93583e-07
  outer loop
   vertex -3892.86 484.026 2.05202e-05
   vertex -3892.86 1.24719e-14 -1.61635e-13
   vertex -3892.86 244.635 244.635
  endloop
 endfacet
 facet normal -1 -5.04395e-07 -5.04395e-07
  outer loop
   vertex -3892.86 -244.635 244.635
   vertex -3892.86 2.05202e-05 484.026
   vertex -3892.86 1.24719e-14 -1.61635e-13
  endloop
 endfacet
 facet normal -1 -4.93583e-07 -5.04395e-07
  outer loop
   vertex -3892.86 244.635 244.635
   vertex -3892.86 1.24719e-14 -1.61635e-13
   vertex -3892.86 2.05202e-05 484.026
  endloop
 endfacet
 facet normal -1 -9.94003e-07 -4.062e-09
  outer loop
   vertex -3892.86 2.05202e-05 484.026
   vertex -3892.86 -244.635 244.635
   vertex -3892.86 -246.557 714.955
  endloop
 endfacet
 facet normal -1 0 -0
  outer loop
   vertex -3892.86 -485.774 485.774
   vertex -3892.86 -246.557 714.955
   vertex -3892.86 -244.635 244.635
  endloop
 endfacet
 facet normal -1 0 0
  outer loop
   vertex -3892.86 -246.557 714.955
   vertex -3892.86 -485.774 485.774
   vertex -3892.86 -490.533 933.389
  endloop
 endfacet
 facet normal -1 -1.05844e-06 -1.12517e-08
  outer loop
   vertex -3892.86 -718.914 718.914
   vertex -3892.86 -490.533 933.389
   vertex -3892.86 -485.774 485.774
  endloop
 endfacet
 facet normal -1 -1.0544e-06 -1.5547e-08
  outer loop
   vertex -3892.86 -490.533 933.389
   vertex -3892.86 -718.914 718.914
   vertex -3892.86 -725.03 1133.74
  endloop
 endfacet
 facet normal -1 -1.13317e-06 -1.67084e-08
  outer loop
   vertex -3892.86 -937.587 937.587
   vertex -3892.86 -725.03 1133.74
   vertex -3892.86 -718.914 718.914
  endloop
 endfacet
 facet normal -1 -1.14305e-06 -6.00401e-09
  outer loop
   vertex -3892.86 -725.03 1133.74
   vertex -3892.86 -937.587 937.587
   vertex -3892.86 -939.535 1308.41
  endloop
 endfacet
 facet normal -1 -1.25865e-06 -6.61121e-09
  outer loop
   vertex -3892.86 -1132.58 1132.58
   vertex -3892.86 -939.535 1308.41
   vertex -3892.86 -937.587 937.587
  endloop
 endfacet
 facet normal -1 -1.31633e-06 5.67107e-08
  outer loop
   vertex -3892.86 -939.535 1308.41
   vertex -3892.86 -1132.58 1132.58
   vertex -3892.86 -1119 1447.71
  endloop
 endfacet
 facet normal -1 -2.94414e-06 1.26841e-07
  outer loop
   vertex -3892.85 -1291.58 1291.58
   vertex -3892.86 -1119 1447.71
   vertex -3892.86 -1132.58 1132.58
  endloop
 endfacet
 facet normal -1 -1.27457e-06 -1.71858e-06
  outer loop
   vertex -3892.86 -1119 1447.71
   vertex -3892.85 -1291.58 1291.58
   vertex -3892.86 -1243.95 1540.38
  endloop
 endfacet
 facet normal -1 -1.64724e-06 -1.64724e-06
  outer loop
   vertex -3892.85 -1399.59 1399.59
   vertex -3892.86 -1243.95 1540.38
   vertex -3892.85 -1291.58 1291.58
  endloop
 endfacet
 facet normal -1 1.5567e-05 -2.06785e-05
  outer loop
   vertex -3892.86 -1243.95 1540.38
   vertex -3892.85 -1399.59 1399.59
   vertex -3892.86 -1292.37 1574.76
  endloop
 endfacet
 facet normal -1 2.26979e-05 -2.50433e-05
  outer loop
   vertex -3892.86 -1440.5 1440.5
   vertex -3892.86 -1292.37 1574.76
   vertex -3892.85 -1399.59 1399.59
  endloop
 endfacet
 facet normal -1 -2.08375e-05 1.54541e-05
  outer loop
   vertex -3892.86 1574.76 -1292.37
   vertex -3892.86 1540.38 -1243.95
   vertex -3892.86 1693.85 -1131.8
  endloop
 endfacet
 facet normal -1 -4.73719e-06 -6.57833e-06
  outer loop
   vertex -3892.86 1665.37 -1074.17
   vertex -3892.86 1693.85 -1131.8
   vertex -3892.86 1540.38 -1243.95
  endloop
 endfacet
 facet normal -1 -6.81114e-06 -5.05143e-06
  outer loop
   vertex -3892.86 1540.38 -1243.95
   vertex -3892.86 1447.71 -1119
   vertex -3892.86 1665.37 -1074.17
  endloop
 endfacet
 facet normal -1 -7.3738e-06 -2.31964e-06
  outer loop
   vertex -3892.86 1665.37 -1074.17
   vertex -3892.86 1447.71 -1119
   vertex -3892.86 1586.9 -929.972
  endloop
 endfacet
 facet normal -1 -4.33588e-06 -1.38325e-06
  outer loop
   vertex -3892.86 1466.56 -729.259
   vertex -3892.86 1586.9 -929.972
   vertex -3892.86 1308.41 -939.535
  endloop
 endfacet
 facet normal -1 -4.22408e-06 -4.63886e-06
  outer loop
   vertex -3892.86 1447.71 -1119
   vertex -3892.86 1308.41 -939.535
   vertex -3892.86 1586.9 -929.972
  endloop
 endfacet
 facet normal -1 -2.21936e-06 -1.47019e-06
  outer loop
   vertex -3892.86 1312.55 -496.77
   vertex -3892.86 1466.56 -729.259
   vertex -3892.86 1133.74 -725.03
  endloop
 endfacet
 facet normal -1 -2.2383e-06 -2.96081e-06
  outer loop
   vertex -3892.86 1466.56 -729.259
   vertex -3892.86 1308.41 -939.535
   vertex -3892.86 1133.74 -725.03
  endloop
 endfacet
 facet normal -1 -1.28699e-06 4.88376e-08
  outer loop
   vertex -3892.86 1132.22 -249.979
   vertex -3892.86 1312.55 -496.77
   vertex -3892.86 933.389 -490.533
  endloop
 endfacet
 facet normal -1 -1.32352e-06 -2.17194e-06
  outer loop
   vertex -3892.86 1133.74 -725.03
   vertex -3892.86 933.389 -490.533
   vertex -3892.86 1312.55 -496.77
  endloop
 endfacet
 facet normal -1 -5.8898e-07 -4.72858e-07
  outer loop
   vertex -3892.86 931.523 2.13903e-05
   vertex -3892.86 1132.22 -249.979
   vertex -3892.86 714.955 -246.557
  endloop
 endfacet
 facet normal -1 -5.8943e-07 -5.27722e-07
  outer loop
   vertex -3892.86 933.389 -490.533
   vertex -3892.86 714.955 -246.557
   vertex -3892.86 1132.22 -249.979
  endloop
 endfacet
 facet normal -1 -0 0
  outer loop
   vertex -3892.86 714.955 246.557
   vertex -3892.86 931.523 2.13903e-05
   vertex -3892.86 484.026 2.05202e-05
  endloop
 endfacet
 facet normal -1 1.92518e-15 -9.90199e-07
  outer loop
   vertex -3892.86 714.955 -246.557
   vertex -3892.86 484.026 2.05202e-05
   vertex -3892.86 931.523 2.13903e-05
  endloop
 endfacet
 facet normal -1 0 0
  outer loop
   vertex -3892.86 484.026 2.05202e-05
   vertex -3892.86 244.635 244.635
   vertex -3892.86 714.955 246.557
  endloop
 endfacet
 facet normal -1 -0 0
  outer loop
   vertex -3892.86 485.774 485.774
   vertex -3892.86 714.955 246.557
   vertex -3892.86 244.635 244.635
  endloop
 endfacet
 facet normal -1 0 0
  outer loop
   vertex -3892.86 2.05202e-05 484.026
   vertex -3892.86 246.557 714.955
   vertex -3892.86 244.635 244.635
  endloop
 endfacet
 facet normal -1 0 0
  outer loop
   vertex -3892.86 485.774 485.774
   vertex -3892.86 244.635 244.635
   vertex -3892.86 246.557 714.955
  endloop
 endfacet
 facet normal -1 0 0
  outer loop
   vertex -3892.86 246.557 714.955
   vertex -3892.86 2.05202e-05 484.026
   vertex -3892.86 2.13903e-05 931.523
  endloop
 endfacet
 facet normal -1 -9.90199e-07 1.92517e-15
  outer loop
   vertex -3892.86 2.13903e-05 931.523
   vertex -3892.86 2.05202e-05 484.026
   vertex -3892.86 -246.557 714.955
  endloop
 endfacet
 facet normal -1 -4.72858e-07 -5.8898e-07
  outer loop
   vertex -3892.86 2.13903e-05 931.523
   vertex -3892.86 -246.557 714.955
   vertex -3892.86 -249.979 1132.22
  endloop
 endfacet
 facet normal -1 -5.27722e-07 -5.8943e-07
  outer loop
   vertex -3892.86 -490.533 933.389
   vertex -3892.86 -249.979 1132.22
   vertex -3892.86 -246.557 714.955
  endloop
 endfacet
 facet normal -1 4.88376e-08 -1.28699e-06
  outer loop
   vertex -3892.86 -249.979 1132.22
   vertex -3892.86 -490.533 933.389
   vertex -3892.86 -496.77 1312.55
  endloop
 endfacet
 facet normal -1 -2.17194e-06 -1.32352e-06
  outer loop
   vertex -3892.86 -725.03 1133.74
   vertex -3892.86 -496.77 1312.55
   vertex -3892.86 -490.533 933.389
  endloop
 endfacet
 facet normal -1 -1.47019e-06 -2.21936e-06
  outer loop
   vertex -3892.86 -496.77 1312.55
   vertex -3892.86 -725.03 1133.74
   vertex -3892.86 -729.259 1466.56
  endloop
 endfacet
 facet normal -1 -2.96081e-06 -2.2383e-06
  outer loop
   vertex -3892.86 -729.259 1466.56
   vertex -3892.86 -725.03 1133.74
   vertex -3892.86 -939.535 1308.41
  endloop
 endfacet
 facet normal -1 -1.38325e-06 -4.33588e-06
  outer loop
   vertex -3892.86 -729.259 1466.56
   vertex -3892.86 -939.535 1308.41
   vertex -3892.86 -929.972 1586.9
  endloop
 endfacet
 facet normal -1 -4.63886e-06 -4.22408e-06
  outer loop
   vertex -3892.86 -1119 1447.71
   vertex -3892.86 -929.972 1586.9
   vertex -3892.86 -939.535 1308.41
  endloop
 endfacet
 facet normal -1 -5.05143e-06 -6.81114e-06
  outer loop
   vertex -3892.86 -1243.95 1540.38
   vertex -3892.86 -1074.17 1665.37
   vertex -3892.86 -1119 1447.71
  endloop
 endfacet
 facet normal -1 -2.31964e-06 -7.3738e-06
  outer loop
   vertex -3892.86 -1074.17 1665.37
   vertex -3892.86 -929.972 1586.9
   vertex -3892.86 -1119 1447.71
  endloop
 endfacet
 facet normal -1 1.54541e-05 -2.08375e-05
  outer loop
   vertex -3892.86 -1292.37 1574.76
   vertex -3892.86 -1131.8 1693.85
   vertex -3892.86 -1243.95 1540.38
  endloop
 endfacet
 facet normal -1 -6.57833e-06 -4.73719e-06
  outer loop
   vertex -3892.86 -1074.17 1665.37
   vertex -3892.86 -1243.95 1540.38
   vertex -3892.86 -1131.8 1693.85
  endloop
 endfacet
 facet normal -1 3.87399e-06 -2.32198e-06
  outer loop
   vertex -3892.86 1693.85 -1131.8
   vertex -3892.86 1665.37 -1074.17
   vertex -3892.86 1796.63 -960.32
  endloop
 endfacet
 facet normal -1 1.32406e-05 -1.31208e-05
  outer loop
   vertex -3892.86 1773.56 -890.566
   vertex -3892.86 1796.63 -960.32
   vertex -3892.86 1665.37 -1074.17
  endloop
 endfacet
 facet normal -1 -6.18635e-06 -1.67345e-06
  outer loop
   vertex -3892.86 1665.37 -1074.17
   vertex -3892.86 1586.9 -929.972
   vertex -3892.86 1773.56 -890.566
  endloop
 endfacet
 facet normal -1 -6.32548e-06 -1.0144e-06
  outer loop
   vertex -3892.86 1708.23 -723.878
   vertex -3892.86 1773.56 -890.566
   vertex -3892.86 1586.9 -929.972
  endloop
 endfacet
 facet normal -1 -5.01122e-06 -1.78816e-06
  outer loop
   vertex -3892.86 1586.9 -929.972
   vertex -3892.86 1466.56 -729.259
   vertex -3892.86 1708.23 -723.878
  endloop
 endfacet
 facet normal -1 -5.04821e-06 -1.26566e-07
  outer loop
   vertex -3892.86 1605.94 -501.595
   vertex -3892.86 1708.23 -723.878
   vertex -3892.86 1466.56 -729.259
  endloop
 endfacet
 facet normal -1 -2.48605e-06 6.31423e-07
  outer loop
   vertex -3892.86 1472.41 -254.018
   vertex -3892.86 1605.94 -501.595
   vertex -3892.86 1312.55 -496.77
  endloop
 endfacet
 facet normal -1 -2.52393e-06 -1.67195e-06
  outer loop
   vertex -3892.86 1312.55 -496.77
   vertex -3892.86 1605.94 -501.595
   vertex -3892.86 1466.56 -729.259
  endloop
 endfacet
 facet normal -1 -1.44608e-06 -9.07407e-07
  outer loop
   vertex -3892.86 1313.02 -1.01263e-05
   vertex -3892.86 1472.41 -254.018
   vertex -3892.86 1132.22 -249.979
  endloop
 endfacet
 facet normal -1 -1.43602e-06 -6.0059e-08
  outer loop
   vertex -3892.86 1472.41 -254.018
   vertex -3892.86 1312.55 -496.77
   vertex -3892.86 1132.22 -249.979
  endloop
 endfacet
 facet normal -1 -1.27992e-06 -1.02758e-06
  outer loop
   vertex -3892.86 1132.22 -249.979
   vertex -3892.86 931.523 2.13903e-05
   vertex -3892.86 1313.02 -1.01263e-05
  endloop
 endfacet
 facet normal -1 -1.27992e-06 5.09325e-08
  outer loop
   vertex -3892.86 1132.22 249.979
   vertex -3892.86 1313.02 -1.01263e-05
   vertex -3892.86 931.523 2.13903e-05
  endloop
 endfacet
 facet normal -1 -5.80919e-07 -5.1026e-07
  outer loop
   vertex -3892.86 931.523 2.13903e-05
   vertex -3892.86 714.955 246.557
   vertex -3892.86 1132.22 249.979
  endloop
 endfacet
 facet normal -1 -5.81164e-07 -4.80355e-07
  outer loop
   vertex -3892.86 933.389 490.533
   vertex -3892.86 1132.22 249.979
   vertex -3892.86 714.955 246.557
  endloop
 endfacet
 facet normal -1 -5.39927e-07 -5.17275e-07
  outer loop
   vertex -3892.86 714.955 246.557
   vertex -3892.86 485.774 485.774
   vertex -3892.86 933.389 490.533
  endloop
 endfacet
 facet normal -1 -5.40035e-07 -5.07152e-07
  outer loop
   vertex -3892.86 718.914 718.914
   vertex -3892.86 933.389 490.533
   vertex -3892.86 485.774 485.774
  endloop
 endfacet
 facet normal -1 -5.17275e-07 -5.39927e-07
  outer loop
   vertex -3892.86 246.557 714.955
   vertex -3892.86 490.533 933.389
   vertex -3892.86 485.774 485.774
  endloop
 endfacet
 facet normal -1 -5.07152e-07 -5.40035e-07
  outer loop
   vertex -3892.86 718.914 718.914
   vertex -3892.86 485.774 485.774
   vertex -3892.86 490.533 933.389
  endloop
 endfacet
 facet normal -1 -5.1026e-07 -5.80919e-07
  outer loop
   vertex -3892.86 2.13903e-05 931.523
   vertex -3892.86 249.979 1132.22
   vertex -3892.86 246.557 714.955
  endloop
 endfacet
 facet normal -1 -4.80355e-07 -5.81164e-07
  outer loop
   vertex -3892.86 490.533 933.389
   vertex -3892.86 246.557 714.955
   vertex -3892.86 249.979 1132.22
  endloop
 endfacet
 facet normal -1 -1.02758e-06 -1.27992e-06
  outer loop
   vertex -3892.86 -249.979 1132.22
   vertex -3892.86 -1.01263e-05 1313.02
   vertex -3892.86 2.13903e-05 931.523
  endloop
 endfacet
 facet normal -1 5.09325e-08 -1.27992e-06
  outer loop
   vertex -3892.86 249.979 1132.22
   vertex -3892.86 2.13903e-05 931.523
   vertex -3892.86 -1.01263e-05 1313.02
  endloop
 endfacet
 facet normal -1 -9.07407e-07 -1.44608e-06
  outer loop
   vertex -3892.86 -1.01263e-05 1313.02
   vertex -3892.86 -249.979 1132.22
   vertex -3892.86 -254.018 1472.41
  endloop
 endfacet
 facet normal -1 -6.0059e-08 -1.43602e-06
  outer loop
   vertex -3892.86 -254.018 1472.41
   vertex -3892.86 -249.979 1132.22
   vertex -3892.86 -496.77 1312.55
  endloop
 endfacet
 facet normal -1 6.31423e-07 -2.48605e-06
  outer loop
   vertex -3892.86 -254.018 1472.41
   vertex -3892.86 -496.77 1312.55
   vertex -3892.86 -501.595 1605.94
  endloop
 endfacet
 facet normal -1 -1.67195e-06 -2.52393e-06
  outer loop
   vertex -3892.86 -496.77 1312.55
   vertex -3892.86 -729.259 1466.56
   vertex -3892.86 -501.595 1605.94
  endloop
 endfacet
 facet normal -1 -1.78816e-06 -5.01122e-06
  outer loop
   vertex -3892.86 -929.972 1586.9
   vertex -3892.86 -723.878 1708.23
   vertex -3892.86 -729.259 1466.56
  endloop
 endfacet
 facet normal -1 -1.26566e-07 -5.04821e-06
  outer loop
   vertex -3892.86 -501.595 1605.94
   vertex -3892.86 -729.259 1466.56
   vertex -3892.86 -723.878 1708.23
  endloop
 endfacet
 facet normal -1 -1.67345e-06 -6.18635e-06
  outer loop
   vertex -3892.86 -1074.17 1665.37
   vertex -3892.86 -890.566 1773.56
   vertex -3892.86 -929.972 1586.9
  endloop
 endfacet
 facet normal -1 -1.0144e-06 -6.32548e-06
  outer loop
   vertex -3892.86 -723.878 1708.23
   vertex -3892.86 -929.972 1586.9
   vertex -3892.86 -890.566 1773.56
  endloop
 endfacet
 facet normal -1 -2.32198e-06 3.87399e-06
  outer loop
   vertex -3892.86 -1131.8 1693.85
   vertex -3892.86 -960.32 1796.63
   vertex -3892.86 -1074.17 1665.37
  endloop
 endfacet
 facet normal -1 -1.31208e-05 1.32406e-05
  outer loop
   vertex -3892.86 -890.566 1773.56
   vertex -3892.86 -1074.17 1665.37
   vertex -3892.86 -960.32 1796.63
  endloop
 endfacet
 facet normal -1 2.1774e-05 -1.02984e-05
  outer loop
   vertex -3892.86 1796.63 -960.32
   vertex -3892.86 1773.56 -890.566
   vertex -3892.86 1882.11 -779.595
  endloop
 endfacet
 facet normal -1 1.87187e-05 -7.3097e-06
  outer loop
   vertex -3892.86 1863.89 -692.642
   vertex -3892.86 1882.11 -779.595
   vertex -3892.86 1773.56 -890.566
  endloop
 endfacet
 facet normal -1 -2.72486e-07 1.35787e-06
  outer loop
   vertex -3892.86 1773.56 -890.566
   vertex -3892.86 1708.23 -723.878
   vertex -3892.86 1863.89 -692.642
  endloop
 endfacet
 facet normal -1 0 0
  outer loop
   vertex -3892.86 1863.89 -692.642
   vertex -3892.86 1708.23 -723.878
   vertex -3892.86 1810.45 -499.649
  endloop
 endfacet
 facet normal -1 -2.3979e-06 1.09313e-06
  outer loop
   vertex -3892.86 1708.23 -723.878
   vertex -3892.86 1605.94 -501.595
   vertex -3892.86 1810.45 -499.649
  endloop
 endfacet
 facet normal -1 -2.3986e-06 1.16703e-06
  outer loop
   vertex -3892.86 1724.85 -257.193
   vertex -3892.86 1810.45 -499.649
   vertex -3892.86 1605.94 -501.595
  endloop
 endfacet
 facet normal -1 -1.92248e-06 9.35376e-07
  outer loop
   vertex -3892.86 1605.94 -501.595
   vertex -3892.86 1472.41 -254.018
   vertex -3892.86 1724.85 -257.193
  endloop
 endfacet
 facet normal -1 -1.93308e-06 9.28878e-08
  outer loop
   vertex -3892.86 1610.91 -5.5897e-05
   vertex -3892.86 1724.85 -257.193
   vertex -3892.86 1472.41 -254.018
  endloop
 endfacet
 facet normal -1 -8.19546e-07 5.14261e-07
  outer loop
   vertex -3892.86 1472.41 254.018
   vertex -3892.86 1610.91 -5.5897e-05
   vertex -3892.86 1313.02 -1.01263e-05
  endloop
 endfacet
 facet normal -1 -8.19546e-07 -5.14261e-07
  outer loop
   vertex -3892.86 1472.41 -254.018
   vertex -3892.86 1313.02 -1.01263e-05
   vertex -3892.86 1610.91 -5.5897e-05
  endloop
 endfacet
 facet normal -1 -7.23039e-07 4.53703e-07
  outer loop
   vertex -3892.86 1313.02 -1.01263e-05
   vertex -3892.86 1132.22 249.979
   vertex -3892.86 1472.41 254.018
  endloop
 endfacet
 facet normal -1 -7.12084e-07 -4.68929e-07
  outer loop
   vertex -3892.86 1472.41 254.018
   vertex -3892.86 1132.22 249.979
   vertex -3892.86 1312.55 496.771
  endloop
 endfacet
 facet normal -1 -6.35258e-07 -5.25066e-07
  outer loop
   vertex -3892.86 1132.22 249.979
   vertex -3892.86 933.389 490.533
   vertex -3892.86 1312.55 496.771
  endloop
 endfacet
 facet normal -1 -6.53076e-07 5.57988e-07
  outer loop
   vertex -3892.86 1133.74 725.03
   vertex -3892.86 1312.55 496.771
   vertex -3892.86 933.389 490.533
  endloop
 endfacet
 facet normal -1 0 0
  outer loop
   vertex -3892.86 933.389 490.533
   vertex -3892.86 718.914 718.914
   vertex -3892.86 1133.74 725.03
  endloop
 endfacet
 facet normal -1 -0 0
  outer loop
   vertex -3892.86 937.587 937.587
   vertex -3892.86 1133.74 725.03
   vertex -3892.86 718.914 718.914
  endloop
 endfacet
 facet normal -1 0 0
  outer loop
   vertex -3892.86 490.533 933.389
   vertex -3892.86 725.03 1133.74
   vertex -3892.86 718.914 718.914
  endloop
 endfacet
 facet normal -1 0 0
  outer loop
   vertex -3892.86 937.587 937.587
   vertex -3892.86 718.914 718.914
   vertex -3892.86 725.03 1133.74
  endloop
 endfacet
 facet normal -1 -5.25066e-07 -6.35258e-07
  outer loop
   vertex -3892.86 249.979 1132.22
   vertex -3892.86 496.771 1312.55
   vertex -3892.86 490.533 933.389
  endloop
 endfacet
 facet normal -1 5.57988e-07 -6.53076e-07
  outer loop
   vertex -3892.86 725.03 1133.74
   vertex -3892.86 490.533 933.389
   vertex -3892.86 496.771 1312.55
  endloop
 endfacet
 facet normal -1 4.53703e-07 -7.23039e-07
  outer loop
   vertex -3892.86 -1.01263e-05 1313.02
   vertex -3892.86 254.018 1472.41
   vertex -3892.86 249.979 1132.22
  endloop
 endfacet
 facet normal -1 -4.68929e-07 -7.12084e-07
  outer loop
   vertex -3892.86 254.018 1472.41
   vertex -3892.86 496.771 1312.55
   vertex -3892.86 249.979 1132.22
  endloop
 endfacet
 facet normal -1 5.14261e-07 -8.19546e-07
  outer loop
   vertex -3892.86 254.018 1472.41
   vertex -3892.86 -1.01263e-05 1313.02
   vertex -3892.86 -5.5897e-05 1610.91
  endloop
 endfacet
 facet normal -1 -5.14261e-07 -8.19546e-07
  outer loop
   vertex -3892.86 -254.018 1472.41
   vertex -3892.86 -5.5897e-05 1610.91
   vertex -3892.86 -1.01263e-05 1313.02
  endloop
 endfacet
 facet normal -1 9.35376e-07 -1.92248e-06
  outer loop
   vertex -3892.86 -501.595 1605.94
   vertex -3892.86 -257.193 1724.85
   vertex -3892.86 -254.018 1472.41
  endloop
 endfacet
 facet normal -1 9.28878e-08 -1.93308e-06
  outer loop
   vertex -3892.86 -5.5897e-05 1610.91
   vertex -3892.86 -254.018 1472.41
   vertex -3892.86 -257.193 1724.85
  endloop
 endfacet
 facet normal -1 1.09313e-06 -2.3979e-06
  outer loop
   vertex -3892.86 -723.878 1708.23
   vertex -3892.86 -499.649 1810.45
   vertex -3892.86 -501.595 1605.94
  endloop
 endfacet
 facet normal -1 1.16703e-06 -2.3986e-06
  outer loop
   vertex -3892.86 -257.193 1724.85
   vertex -3892.86 -501.595 1605.94
   vertex -3892.86 -499.649 1810.45
  endloop
 endfacet
 facet normal -1 1.35787e-06 -2.72486e-07
  outer loop
   vertex -3892.86 -890.566 1773.56
   vertex -3892.86 -692.642 1863.89
   vertex -3892.86 -723.878 1708.23
  endloop
 endfacet
 facet normal -1 -0 0
  outer loop
   vertex -3892.86 -692.642 1863.89
   vertex -3892.86 -499.649 1810.45
   vertex -3892.86 -723.878 1708.23
  endloop
 endfacet
 facet normal -1 -1.02984e-05 2.1774e-05
  outer loop
   vertex -3892.86 -960.32 1796.63
   vertex -3892.86 -779.595 1882.11
   vertex -3892.86 -890.566 1773.56
  endloop
 endfacet
 facet normal -1 -7.3097e-06 1.87187e-05
  outer loop
   vertex -3892.86 -692.642 1863.89
   vertex -3892.86 -890.566 1773.56
   vertex -3892.86 -779.595 1882.11
  endloop
 endfacet
 facet normal -1 1.97976e-05 -7.08369e-06
  outer loop
   vertex -3892.86 1882.11 -779.595
   vertex -3892.86 1863.89 -692.642
   vertex -3892.86 1949.46 -591.362
  endloop
 endfacet
 facet normal -1 7.7048e-06 3.13286e-06
  outer loop
   vertex -3892.86 1935.32 -478.657
   vertex -3892.86 1949.46 -591.362
   vertex -3892.86 1863.89 -692.642
  endloop
 endfacet
 facet normal -1 9.34124e-06 2.58664e-06
  outer loop
   vertex -3892.86 1863.89 -692.642
   vertex -3892.86 1810.45 -499.649
   vertex -3892.86 1935.32 -478.657
  endloop
 endfacet
 facet normal -1 9.82385e-06 -2.84051e-07
  outer loop
   vertex -3892.86 1935.32 -478.657
   vertex -3892.86 1810.45 -499.649
   vertex -3892.86 1892.03 -256.81
  endloop
 endfacet
 facet normal -1 1.45456e-06 2.52745e-06
  outer loop
   vertex -3892.86 1810.45 -499.649
   vertex -3892.86 1724.85 -257.193
   vertex -3892.86 1892.03 -256.81
  endloop
 endfacet
 facet normal -1 1.45942e-06 4.03285e-07
  outer loop
   vertex -3892.86 1892.03 -256.81
   vertex -3892.86 1724.85 -257.193
   vertex -3892.86 1821.07 -4.73825e-05
  endloop
 endfacet
 facet normal -1 -0 0
  outer loop
   vertex -3892.86 1724.85 257.193
   vertex -3892.86 1821.07 -4.73825e-05
   vertex -3892.86 1610.91 -5.5897e-05
  endloop
 endfacet
 facet normal -1 -3.84592e-14 9.49252e-07
  outer loop
   vertex -3892.86 1724.85 -257.193
   vertex -3892.86 1610.91 -5.5897e-05
   vertex -3892.86 1821.07 -4.73825e-05
  endloop
 endfacet
 facet normal -1 -9.73728e-07 5.25165e-07
  outer loop
   vertex -3892.86 1605.94 501.595
   vertex -3892.86 1724.85 257.193
   vertex -3892.86 1472.41 254.018
  endloop
 endfacet
 facet normal -1 -9.72541e-07 4.30841e-07
  outer loop
   vertex -3892.86 1610.91 -5.5897e-05
   vertex -3892.86 1472.41 254.018
   vertex -3892.86 1724.85 257.193
  endloop
 endfacet
 facet normal -1 0 0
  outer loop
   vertex -3892.86 1472.41 254.018
   vertex -3892.86 1312.55 496.771
   vertex -3892.86 1605.94 501.595
  endloop
 endfacet
 facet normal -1 -0 0
  outer loop
   vertex -3892.86 1466.56 729.259
   vertex -3892.86 1605.94 501.595
   vertex -3892.86 1312.55 496.771
  endloop
 endfacet
 facet normal -1 -7.39788e-07 4.90063e-07
  outer loop
   vertex -3892.86 1312.55 496.771
   vertex -3892.86 1133.74 725.03
   vertex -3892.86 1466.56 729.259
  endloop
 endfacet
 facet normal -1 -7.26617e-07 -5.46478e-07
  outer loop
   vertex -3892.86 1308.41 939.535
   vertex -3892.86 1466.56 729.259
   vertex -3892.86 1133.74 725.03
  endloop
 endfacet
 facet normal -1 -6.55191e-07 -6.0464e-07
  outer loop
   vertex -3892.86 1133.74 725.03
   vertex -3892.86 937.587 937.587
   vertex -3892.86 1308.41 939.535
  endloop
 endfacet
 facet normal -1 -6.55232e-07 -5.96808e-07
  outer loop
   vertex -3892.86 1132.58 1132.58
   vertex -3892.86 1308.41 939.535
   vertex -3892.86 937.587 937.587
  endloop
 endfacet
 facet normal -1 -6.0464e-07 -6.55191e-07
  outer loop
   vertex -3892.86 725.03 1133.74
   vertex -3892.86 939.535 1308.41
   vertex -3892.86 937.587 937.587
  endloop
 endfacet
 facet normal -1 -5.96808e-07 -6.55232e-07
  outer loop
   vertex -3892.86 1132.58 1132.58
   vertex -3892.86 937.587 937.587
   vertex -3892.86 939.535 1308.41
  endloop
 endfacet
 facet normal -1 4.90063e-07 -7.39788e-07
  outer loop
   vertex -3892.86 496.771 1312.55
   vertex -3892.86 729.259 1466.56
   vertex -3892.86 725.03 1133.74
  endloop
 endfacet
 facet normal -1 -5.46478e-07 -7.26617e-07
  outer loop
   vertex -3892.86 939.535 1308.41
   vertex -3892.86 725.03 1133.74
   vertex -3892.86 729.259 1466.56
  endloop
 endfacet
 facet normal -1 0 0
  outer loop
   vertex -3892.86 254.018 1472.41
   vertex -3892.86 501.595 1605.94
   vertex -3892.86 496.771 1312.55
  endloop
 endfacet
 facet normal -1 0 0
  outer loop
   vertex -3892.86 729.259 1466.56
   vertex -3892.86 496.771 1312.55
   vertex -3892.86 501.595 1605.94
  endloop
 endfacet
 facet normal -1 5.25165e-07 -9.73728e-07
  outer loop
   vertex -3892.86 501.595 1605.94
   vertex -3892.86 254.018 1472.41
   vertex -3892.86 257.193 1724.85
  endloop
 endfacet
 facet normal -1 4.30841e-07 -9.72541e-07
  outer loop
   vertex -3892.86 -5.5897e-05 1610.91
   vertex -3892.86 257.193 1724.85
   vertex -3892.86 254.018 1472.41
  endloop
 endfacet
 facet normal -1 0 0
  outer loop
   vertex -3892.86 257.193 1724.85
   vertex -3892.86 -5.5897e-05 1610.91
   vertex -3892.86 -4.73825e-05 1821.07
  endloop
 endfacet
 facet normal -1 9.49252e-07 -3.84592e-14
  outer loop
   vertex -3892.86 -257.193 1724.85
   vertex -3892.86 -4.73825e-05 1821.07
   vertex -3892.86 -5.5897e-05 1610.91
  endloop
 endfacet
 facet normal -1 2.52745e-06 1.45456e-06
  outer loop
   vertex -3892.86 -499.649 1810.45
   vertex -3892.86 -256.81 1892.03
   vertex -3892.86 -257.193 1724.85
  endloop
 endfacet
 facet normal -1 4.03285e-07 1.45942e-06
  outer loop
   vertex -3892.86 -257.193 1724.85
   vertex -3892.86 -256.81 1892.03
   vertex -3892.86 -4.73825e-05 1821.07
  endloop
 endfacet
 facet normal -1 2.58664e-06 9.34124e-06
  outer loop
   vertex -3892.86 -692.642 1863.89
   vertex -3892.86 -478.657 1935.32
   vertex -3892.86 -499.649 1810.45
  endloop
 endfacet
 facet normal -1 -2.84051e-07 9.82385e-06
  outer loop
   vertex -3892.86 -499.649 1810.45
   vertex -3892.86 -478.657 1935.32
   vertex -3892.86 -256.81 1892.03
  endloop
 endfacet
 facet normal -1 -7.08369e-06 1.97976e-05
  outer loop
   vertex -3892.86 -779.595 1882.11
   vertex -3892.86 -591.362 1949.46
   vertex -3892.86 -692.642 1863.89
  endloop
 endfacet
 facet normal -1 3.13286e-06 7.7048e-06
  outer loop
   vertex -3892.86 -478.657 1935.32
   vertex -3892.86 -692.642 1863.89
   vertex -3892.86 -591.362 1949.46
  endloop
 endfacet
 facet normal -1 -5.76191e-06 1.44328e-06
  outer loop
   vertex -3892.86 1949.46 -591.362
   vertex -3892.86 1935.32 -478.657
   vertex -3892.86 1998.04 -397.434
  endloop
 endfacet
 facet normal -1 -7.36653e-06 2.6823e-06
  outer loop
   vertex -3892.86 1986.84 -246.151
   vertex -3892.86 1998.04 -397.434
   vertex -3892.86 1935.32 -478.657
  endloop
 endfacet
 facet normal -1 7.80168e-06 -6.78639e-07
  outer loop
   vertex -3892.86 1935.32 -478.657
   vertex -3892.86 1892.03 -256.81
   vertex -3892.86 1986.84 -246.151
  endloop
 endfacet
 facet normal -1 7.71176e-06 1.21118e-07
  outer loop
   vertex -3892.86 1951.31 4.74229e-05
   vertex -3892.86 1986.84 -246.151
   vertex -3892.86 1892.03 -256.81
  endloop
 endfacet
 facet normal -1 3.74886e-06 -8.52632e-08
  outer loop
   vertex -3892.86 1892.03 256.81
   vertex -3892.86 1951.31 4.74229e-05
   vertex -3892.86 1821.07 -4.73825e-05
  endloop
 endfacet
 facet normal -1 3.74886e-06 1.03593e-06
  outer loop
   vertex -3892.86 1892.03 -256.81
   vertex -3892.86 1821.07 -4.73825e-05
   vertex -3892.86 1951.31 4.74229e-05
  endloop
 endfacet
 facet normal -1 1.46147e-06 4.90953e-07
  outer loop
   vertex -3892.86 1810.45 499.649
   vertex -3892.86 1892.03 256.81
   vertex -3892.86 1724.85 257.193
  endloop
 endfacet
 facet normal -1 1.4616e-06 5.46781e-07
  outer loop
   vertex -3892.86 1821.07 -4.73825e-05
   vertex -3892.86 1724.85 257.193
   vertex -3892.86 1892.03 256.81
  endloop
 endfacet
 facet normal -1 0 0
  outer loop
   vertex -3892.86 1708.23 723.878
   vertex -3892.86 1810.45 499.649
   vertex -3892.86 1605.94 501.595
  endloop
 endfacet
 facet normal -1 9.55104e-09 1.00357e-06
  outer loop
   vertex -3892.86 1724.85 257.193
   vertex -3892.86 1605.94 501.595
   vertex -3892.86 1810.45 499.649
  endloop
 endfacet
 facet normal -1 0 0
  outer loop
   vertex -3892.86 1586.9 929.972
   vertex -3892.86 1708.23 723.878
   vertex -3892.86 1466.56 729.259
  endloop
 endfacet
 facet normal -1 0 0
  outer loop
   vertex -3892.86 1605.94 501.595
   vertex -3892.86 1466.56 729.259
   vertex -3892.86 1708.23 723.878
  endloop
 endfacet
 facet normal -1 0 0
  outer loop
   vertex -3892.86 1466.56 729.259
   vertex -3892.86 1308.41 939.535
   vertex -3892.86 1586.9 929.972
  endloop
 endfacet
 facet normal -1 0 0
  outer loop
   vertex -3892.86 1447.71 1119
   vertex -3892.86 1586.9 929.972
   vertex -3892.86 1308.41 939.535
  endloop
 endfacet
 facet normal -1 0 0
  outer loop
   vertex -3892.86 1308.41 939.535
   vertex -3892.86 1132.58 1132.58
   vertex -3892.86 1447.71 1119
  endloop
 endfacet
 facet normal -1 0 0
  outer loop
   vertex -3892.86 1291.58 1291.58
   vertex -3892.86 1447.71 1119
   vertex -3892.86 1132.58 1132.58
  endloop
 endfacet
 facet normal -1 0 -0
  outer loop
   vertex -3892.86 939.535 1308.41
   vertex -3892.86 1119 1447.71
   vertex -3892.86 1132.58 1132.58
  endloop
 endfacet
 facet normal -1 0 0
  outer loop
   vertex -3892.86 1291.58 1291.58
   vertex -3892.86 1132.58 1132.58
   vertex -3892.86 1119 1447.71
  endloop
 endfacet
 facet normal -1 0 -0
  outer loop
   vertex -3892.86 729.259 1466.56
   vertex -3892.86 929.972 1586.9
   vertex -3892.86 939.535 1308.41
  endloop
 endfacet
 facet normal -1 0 0
  outer loop
   vertex -3892.86 1119 1447.71
   vertex -3892.86 939.535 1308.41
   vertex -3892.86 929.972 1586.9
  endloop
 endfacet
 facet normal -1 0 0
  outer loop
   vertex -3892.86 929.972 1586.9
   vertex -3892.86 729.259 1466.56
   vertex -3892.86 723.878 1708.23
  endloop
 endfacet
 facet normal -1 0 -0
  outer loop
   vertex -3892.86 501.595 1605.94
   vertex -3892.86 723.878 1708.23
   vertex -3892.86 729.259 1466.56
  endloop
 endfacet
 facet normal -1 0 0
  outer loop
   vertex -3892.86 723.878 1708.23
   vertex -3892.86 501.595 1605.94
   vertex -3892.86 499.649 1810.45
  endloop
 endfacet
 facet normal -1 1.00357e-06 9.55104e-09
  outer loop
   vertex -3892.86 257.193 1724.85
   vertex -3892.86 499.649 1810.45
   vertex -3892.86 501.595 1605.94
  endloop
 endfacet
 facet normal -1 4.90953e-07 1.46147e-06
  outer loop
   vertex -3892.86 499.649 1810.45
   vertex -3892.86 257.193 1724.85
   vertex -3892.86 256.81 1892.03
  endloop
 endfacet
 facet normal -1 5.46781e-07 1.4616e-06
  outer loop
   vertex -3892.86 -4.73825e-05 1821.07
   vertex -3892.86 256.81 1892.03
   vertex -3892.86 257.193 1724.85
  endloop
 endfacet
 facet normal -1 -8.52632e-08 3.74886e-06
  outer loop
   vertex -3892.86 256.81 1892.03
   vertex -3892.86 -4.73825e-05 1821.07
   vertex -3892.86 4.74229e-05 1951.31
  endloop
 endfacet
 facet normal -1 1.03593e-06 3.74886e-06
  outer loop
   vertex -3892.86 -256.81 1892.03
   vertex -3892.86 4.74229e-05 1951.31
   vertex -3892.86 -4.73825e-05 1821.07
  endloop
 endfacet
 facet normal -1 -6.78639e-07 7.80168e-06
  outer loop
   vertex -3892.86 -478.657 1935.32
   vertex -3892.86 -246.151 1986.84
   vertex -3892.86 -256.81 1892.03
  endloop
 endfacet
 facet normal -1 1.21118e-07 7.71176e-06
  outer loop
   vertex -3892.86 4.74229e-05 1951.31
   vertex -3892.86 -256.81 1892.03
   vertex -3892.86 -246.151 1986.84
  endloop
 endfacet
 facet normal -1 1.44328e-06 -5.76191e-06
  outer loop
   vertex -3892.86 -591.362 1949.46
   vertex -3892.86 -397.434 1998.04
   vertex -3892.86 -478.657 1935.32
  endloop
 endfacet
 facet normal -1 2.6823e-06 -7.36653e-06
  outer loop
   vertex -3892.86 -246.151 1986.84
   vertex -3892.86 -478.657 1935.32
   vertex -3892.86 -397.434 1998.04
  endloop
 endfacet
 facet normal -1 -1.45152e-05 2.15313e-06
  outer loop
   vertex -3892.86 1998.04 -397.434
   vertex -3892.86 1986.84 -246.151
   vertex -3892.86 2027.37 -199.679
  endloop
 endfacet
 facet normal -1 -1.14076e-05 -5.57255e-07
  outer loop
   vertex -3892.86 2017.62 -7.46583e-06
   vertex -3892.86 2027.37 -199.679
   vertex -3892.86 1986.84 -246.151
  endloop
 endfacet
 facet normal -1 -3.6822e-06 -1.52324e-06
  outer loop
   vertex -3892.86 1986.84 -246.151
   vertex -3892.86 1951.31 4.74229e-05
   vertex -3892.86 2017.62 -7.46583e-06
  endloop
 endfacet
 facet normal -1 -3.6822e-06 -4.6042e-07
  outer loop
   vertex -3892.86 1986.84 246.151
   vertex -3892.86 2017.62 -7.46583e-06
   vertex -3892.86 1951.31 4.74229e-05
  endloop
 endfacet
 facet normal -1 0 0
  outer loop
   vertex -3892.86 1935.32 478.657
   vertex -3892.86 1986.84 246.151
   vertex -3892.86 1892.03 256.81
  endloop
 endfacet
 facet normal -1 -1.09726e-07 -9.75996e-07
  outer loop
   vertex -3892.86 1892.03 256.81
   vertex -3892.86 1986.84 246.151
   vertex -3892.86 1951.31 4.74229e-05
  endloop
 endfacet
 facet normal -1 0 0
  outer loop
   vertex -3892.86 1863.89 692.642
   vertex -3892.86 1935.32 478.657
   vertex -3892.86 1810.45 499.649
  endloop
 endfacet
 facet normal -1 0 0
  outer loop
   vertex -3892.86 1892.03 256.81
   vertex -3892.86 1810.45 499.649
   vertex -3892.86 1935.32 478.657
  endloop
 endfacet
 facet normal -1 0 0
  outer loop
   vertex -3892.86 1773.56 890.565
   vertex -3892.86 1863.89 692.642
   vertex -3892.86 1708.23 723.878
  endloop
 endfacet
 facet normal -1 0 0
  outer loop
   vertex -3892.86 1810.45 499.649
   vertex -3892.86 1708.23 723.878
   vertex -3892.86 1863.89 692.642
  endloop
 endfacet
 facet normal -1 0 0
  outer loop
   vertex -3892.86 1665.37 1074.17
   vertex -3892.86 1773.56 890.565
   vertex -3892.86 1586.9 929.972
  endloop
 endfacet
 facet normal -1 0 0
  outer loop
   vertex -3892.86 1708.23 723.878
   vertex -3892.86 1586.9 929.972
   vertex -3892.86 1773.56 890.565
  endloop
 endfacet
 facet normal -1 0 0
  outer loop
   vertex -3892.86 1540.38 1243.95
   vertex -3892.86 1665.37 1074.17
   vertex -3892.86 1447.71 1119
  endloop
 endfacet
 facet normal -1 0 0
  outer loop
   vertex -3892.86 1586.9 929.972
   vertex -3892.86 1447.71 1119
   vertex -3892.86 1665.37 1074.17
  endloop
 endfacet
 facet normal -1 0 0
  outer loop
   vertex -3892.86 1447.71 1119
   vertex -3892.86 1291.58 1291.58
   vertex -3892.86 1540.38 1243.95
  endloop
 endfacet
 facet normal -1 0 0
  outer loop
   vertex -3892.86 1399.59 1399.59
   vertex -3892.86 1540.38 1243.95
   vertex -3892.86 1291.58 1291.58
  endloop
 endfacet
 facet normal -1 0 -0
  outer loop
   vertex -3892.86 1119 1447.71
   vertex -3892.86 1243.95 1540.38
   vertex -3892.86 1291.58 1291.58
  endloop
 endfacet
 facet normal -1 0 0
  outer loop
   vertex -3892.86 1399.59 1399.59
   vertex -3892.86 1291.58 1291.58
   vertex -3892.86 1243.95 1540.38
  endloop
 endfacet
 facet normal -1 0 0
  outer loop
   vertex -3892.86 1243.95 1540.38
   vertex -3892.86 1119 1447.71
   vertex -3892.86 1074.17 1665.37
  endloop
 endfacet
 facet normal -1 0 -0
  outer loop
   vertex -3892.86 929.972 1586.9
   vertex -3892.86 1074.17 1665.37
   vertex -3892.86 1119 1447.71
  endloop
 endfacet
 facet normal -1 0 0
  outer loop
   vertex -3892.86 1074.17 1665.37
   vertex -3892.86 929.972 1586.9
   vertex -3892.86 890.565 1773.56
  endloop
 endfacet
 facet normal -1 0 -0
  outer loop
   vertex -3892.86 723.878 1708.23
   vertex -3892.86 890.565 1773.56
   vertex -3892.86 929.972 1586.9
  endloop
 endfacet
 facet normal -1 0 0
  outer loop
   vertex -3892.86 890.565 1773.56
   vertex -3892.86 723.878 1708.23
   vertex -3892.86 692.642 1863.89
  endloop
 endfacet
 facet normal -1 0 -0
  outer loop
   vertex -3892.86 499.649 1810.45
   vertex -3892.86 692.642 1863.89
   vertex -3892.86 723.878 1708.23
  endloop
 endfacet
 facet normal -1 0 0
  outer loop
   vertex -3892.86 692.642 1863.89
   vertex -3892.86 499.649 1810.45
   vertex -3892.86 478.657 1935.32
  endloop
 endfacet
 facet normal -1 0 -0
  outer loop
   vertex -3892.86 256.81 1892.03
   vertex -3892.86 478.657 1935.32
   vertex -3892.86 499.649 1810.45
  endloop
 endfacet
 facet normal -1 0 0
  outer loop
   vertex -3892.86 478.657 1935.32
   vertex -3892.86 256.81 1892.03
   vertex -3892.86 246.151 1986.84
  endloop
 endfacet
 facet normal -1 -9.75996e-07 -1.09726e-07
  outer loop
   vertex -3892.86 246.151 1986.84
   vertex -3892.86 256.81 1892.03
   vertex -3892.86 4.74229e-05 1951.31
  endloop
 endfacet
 facet normal -1 -1.52324e-06 -3.6822e-06
  outer loop
   vertex -3892.86 -246.151 1986.84
   vertex -3892.86 -7.46583e-06 2017.62
   vertex -3892.86 4.74229e-05 1951.31
  endloop
 endfacet
 facet normal -1 -4.6042e-07 -3.6822e-06
  outer loop
   vertex -3892.86 246.151 1986.84
   vertex -3892.86 4.74229e-05 1951.31
   vertex -3892.86 -7.46583e-06 2017.62
  endloop
 endfacet
 facet normal -1 2.15313e-06 -1.45152e-05
  outer loop
   vertex -3892.86 -397.434 1998.04
   vertex -3892.86 -199.679 2027.37
   vertex -3892.86 -246.151 1986.84
  endloop
 endfacet
 facet normal -1 -5.57255e-07 -1.14076e-05
  outer loop
   vertex -3892.86 -7.46583e-06 2017.62
   vertex -3892.86 -246.151 1986.84
   vertex -3892.86 -199.679 2027.37
  endloop
 endfacet
 facet normal -1 0 0
  outer loop
   vertex -3892.86 2027.37 -199.679
   vertex -3892.86 2017.62 -7.46583e-06
   vertex -3892.86 2037.18 4.52345e-13
  endloop
 endfacet
 facet normal -1 -0 0
  outer loop
   vertex -3892.86 2027.37 199.679
   vertex -3892.86 2037.18 4.52345e-13
   vertex -3892.86 2017.62 -7.46583e-06
  endloop
 endfacet
 facet normal -1 0 0
  outer loop
   vertex -3892.86 1998.04 397.434
   vertex -3892.86 2027.37 199.679
   vertex -3892.86 1986.84 246.151
  endloop
 endfacet
 facet normal -1 0 0
  outer loop
   vertex -3892.86 2017.62 -7.46583e-06
   vertex -3892.86 1986.84 246.151
   vertex -3892.86 2027.37 199.679
  endloop
 endfacet
 facet normal -1 0 0
  outer loop
   vertex -3892.86 1949.46 591.362
   vertex -3892.86 1998.04 397.434
   vertex -3892.86 1935.32 478.657
  endloop
 endfacet
 facet normal -1 0 0
  outer loop
   vertex -3892.86 1986.84 246.151
   vertex -3892.86 1935.32 478.657
   vertex -3892.86 1998.04 397.434
  endloop
 endfacet
 facet normal -1 0 0
  outer loop
   vertex -3892.86 1882.11 779.595
   vertex -3892.86 1949.46 591.362
   vertex -3892.86 1863.89 692.642
  endloop
 endfacet
 facet normal -1 0 0
  outer loop
   vertex -3892.86 1935.32 478.657
   vertex -3892.86 1863.89 692.642
   vertex -3892.86 1949.46 591.362
  endloop
 endfacet
 facet normal -1 0 0
  outer loop
   vertex -3892.86 1796.63 960.32
   vertex -3892.86 1882.11 779.595
   vertex -3892.86 1773.56 890.565
  endloop
 endfacet
 facet normal -1 0 0
  outer loop
   vertex -3892.86 1863.89 692.642
   vertex -3892.86 1773.56 890.565
   vertex -3892.86 1882.11 779.595
  endloop
 endfacet
 facet normal -1 0 0
  outer loop
   vertex -3892.86 1693.85 1131.8
   vertex -3892.86 1796.63 960.32
   vertex -3892.86 1665.37 1074.17
  endloop
 endfacet
 facet normal -1 0 0
  outer loop
   vertex -3892.86 1773.56 890.565
   vertex -3892.86 1665.37 1074.17
   vertex -3892.86 1796.63 960.32
  endloop
 endfacet
 facet normal -1 0 0
  outer loop
   vertex -3892.86 1574.76 1292.37
   vertex -3892.86 1693.85 1131.8
   vertex -3892.86 1540.38 1243.95
  endloop
 endfacet
 facet normal -1 -0 0
  outer loop
   vertex -3892.86 1540.38 1243.95
   vertex -3892.86 1693.85 1131.8
   vertex -3892.86 1665.37 1074.17
  endloop
 endfacet
 facet normal -1 0 0
  outer loop
   vertex -3892.86 1540.38 1243.95
   vertex -3892.86 1399.59 1399.59
   vertex -3892.86 1574.76 1292.37
  endloop
 endfacet
 facet normal -1 0 0
  outer loop
   vertex -3892.86 1574.76 1292.37
   vertex -3892.86 1399.59 1399.59
   vertex -3892.86 1440.5 1440.5
  endloop
 endfacet
 facet normal -1 0 -0
  outer loop
   vertex -3892.86 1243.95 1540.38
   vertex -3892.86 1292.37 1574.76
   vertex -3892.86 1399.59 1399.59
  endloop
 endfacet
 facet normal -1 -0 0
  outer loop
   vertex -3892.86 1292.37 1574.76
   vertex -3892.86 1440.5 1440.5
   vertex -3892.86 1399.59 1399.59
  endloop
 endfacet
 facet normal -1 0 0
  outer loop
   vertex -3892.86 1292.37 1574.76
   vertex -3892.86 1243.95 1540.38
   vertex -3892.86 1131.8 1693.85
  endloop
 endfacet
 facet normal -1 0 0
  outer loop
   vertex -3892.86 1131.8 1693.85
   vertex -3892.86 1243.95 1540.38
   vertex -3892.86 1074.17 1665.37
  endloop
 endfacet
 facet normal -1 0 0
  outer loop
   vertex -3892.86 1131.8 1693.85
   vertex -3892.86 1074.17 1665.37
   vertex -3892.86 960.32 1796.63
  endloop
 endfacet
 facet normal -1 0 -0
  outer loop
   vertex -3892.86 890.565 1773.56
   vertex -3892.86 960.32 1796.63
   vertex -3892.86 1074.17 1665.37
  endloop
 endfacet
 facet normal -1 0 0
  outer loop
   vertex -3892.86 960.32 1796.63
   vertex -3892.86 890.565 1773.56
   vertex -3892.86 779.595 1882.11
  endloop
 endfacet
 facet normal -1 0 -0
  outer loop
   vertex -3892.86 692.642 1863.89
   vertex -3892.86 779.595 1882.11
   vertex -3892.86 890.565 1773.56
  endloop
 endfacet
 facet normal -1 0 0
  outer loop
   vertex -3892.86 779.595 1882.11
   vertex -3892.86 692.642 1863.89
   vertex -3892.86 591.362 1949.46
  endloop
 endfacet
 facet normal -1 0 -0
  outer loop
   vertex -3892.86 478.657 1935.32
   vertex -3892.86 591.362 1949.46
   vertex -3892.86 692.642 1863.89
  endloop
 endfacet
 facet normal -1 0 0
  outer loop
   vertex -3892.86 591.362 1949.46
   vertex -3892.86 478.657 1935.32
   vertex -3892.86 397.434 1998.04
  endloop
 endfacet
 facet normal -1 0 -0
  outer loop
   vertex -3892.86 246.151 1986.84
   vertex -3892.86 397.434 1998.04
   vertex -3892.86 478.657 1935.32
  endloop
 endfacet
 facet normal -1 0 0
  outer loop
   vertex -3892.86 397.434 1998.04
   vertex -3892.86 246.151 1986.84
   vertex -3892.86 199.679 2027.37
  endloop
 endfacet
 facet normal -1 0 -0
  outer loop
   vertex -3892.86 -7.46583e-06 2017.62
   vertex -3892.86 199.679 2027.37
   vertex -3892.86 246.151 1986.84
  endloop
 endfacet
 facet normal -1 0 0
  outer loop
   vertex -3892.86 -199.679 2027.37
   vertex -3892.86 -2.49483e-13 2037.18
   vertex -3892.86 -7.46583e-06 2017.62
  endloop
 endfacet
 facet normal -1 0 0
  outer loop
   vertex -3892.86 199.679 2027.37
   vertex -3892.86 -7.46583e-06 2017.62
   vertex -3892.86 -2.49483e-13 2037.18
  endloop
 endfacet
endsolid
