solid ascii
 facet normal -1 0 -0
  outer loop
   vertex -3883.93 -199.43 -1514.82
   vertex -3883.93 -0.000517724 -1501.19
   vertex -3883.93 0 -1527.89
  endloop
 endfacet
 facet normal -1 0 0
  outer loop
   vertex -3883.93 0 -1527.89
   vertex -3883.93 -0.000517724 -1501.19
   vertex -3883.93 199.43 -1514.82
  endloop
 endfacet
 facet normal -1 0 -0
  outer loop
   vertex -3883.93 -395.447 -1475.83
   vertex -3883.93 -244.345 -1458.12
   vertex -3883.93 -199.43 -1514.82
  endloop
 endfacet
 facet normal -1 0 0
  outer loop
   vertex -3883.93 -0.000517724 -1501.19
   vertex -3883.93 -199.43 -1514.82
   vertex -3883.93 -244.345 -1458.12
  endloop
 endfacet
 facet normal -1 0 -0
  outer loop
   vertex -3883.93 -584.698 -1411.59
   vertex -3883.93 -472.231 -1386.99
   vertex -3883.93 -395.447 -1475.83
  endloop
 endfacet
 facet normal -1 0 0
  outer loop
   vertex -3883.93 -244.345 -1458.12
   vertex -3883.93 -395.447 -1475.83
   vertex -3883.93 -472.231 -1386.99
  endloop
 endfacet
 facet normal -1 0 -0
  outer loop
   vertex -3883.93 -763.945 -1323.19
   vertex -3883.93 -677.612 -1289.89
   vertex -3883.93 -584.698 -1411.59
  endloop
 endfacet
 facet normal -1 0 0
  outer loop
   vertex -3883.93 -472.231 -1386.99
   vertex -3883.93 -584.698 -1411.59
   vertex -3883.93 -677.612 -1289.89
  endloop
 endfacet
 facet normal -1 0 -0
  outer loop
   vertex -3883.93 -930.12 -1212.16
   vertex -3883.93 -861.882 -1168.9
   vertex -3883.93 -763.945 -1323.19
  endloop
 endfacet
 facet normal -1 0 0
  outer loop
   vertex -3883.93 -677.612 -1289.89
   vertex -3883.93 -763.945 -1323.19
   vertex -3883.93 -861.882 -1168.9
  endloop
 endfacet
 facet normal -1 0 0
  outer loop
   vertex -3883.93 -861.882 -1168.9
   vertex -3883.93 -930.12 -1212.16
   vertex -3883.93 -1025.8 -1025.8
  endloop
 endfacet
 facet normal -1 0 0
  outer loop
   vertex -3883.93 -1025.8 -1025.8
   vertex -3883.93 -930.12 -1212.16
   vertex -3883.93 -1080.38 -1080.38
  endloop
 endfacet
 facet normal -1 0 0
  outer loop
   vertex -3883.93 -1168.9 -861.882
   vertex -3883.93 -1025.8 -1025.8
   vertex -3883.93 -1212.16 -930.12
  endloop
 endfacet
 facet normal -1 -0 0
  outer loop
   vertex -3883.93 -1212.16 -930.12
   vertex -3883.93 -1025.8 -1025.8
   vertex -3883.93 -1080.38 -1080.38
  endloop
 endfacet
 facet normal -1 0 0
  outer loop
   vertex -3883.93 -1212.16 -930.12
   vertex -3883.93 -1323.19 -763.945
   vertex -3883.93 -1168.9 -861.882
  endloop
 endfacet
 facet normal -1 0 0
  outer loop
   vertex -3883.93 -1289.89 -677.612
   vertex -3883.93 -1168.9 -861.882
   vertex -3883.93 -1323.19 -763.945
  endloop
 endfacet
 facet normal -1 0 0
  outer loop
   vertex -3883.93 -1323.19 -763.945
   vertex -3883.93 -1411.59 -584.698
   vertex -3883.93 -1289.89 -677.612
  endloop
 endfacet
 facet normal -1 0 0
  outer loop
   vertex -3883.93 -1386.99 -472.231
   vertex -3883.93 -1289.89 -677.612
   vertex -3883.93 -1411.59 -584.698
  endloop
 endfacet
 facet normal -1 0 0
  outer loop
   vertex -3883.93 -1411.59 -584.698
   vertex -3883.93 -1475.83 -395.447
   vertex -3883.93 -1386.99 -472.231
  endloop
 endfacet
 facet normal -1 0 0
  outer loop
   vertex -3883.93 -1458.12 -244.345
   vertex -3883.93 -1386.99 -472.231
   vertex -3883.93 -1475.83 -395.447
  endloop
 endfacet
 facet normal -1 0 0
  outer loop
   vertex -3883.93 -1475.83 -395.447
   vertex -3883.93 -1514.82 -199.43
   vertex -3883.93 -1458.12 -244.345
  endloop
 endfacet
 facet normal -1 0 0
  outer loop
   vertex -3883.93 -1501.19 -0.000517724
   vertex -3883.93 -1458.12 -244.345
   vertex -3883.93 -1514.82 -199.43
  endloop
 endfacet
 facet normal -1 0 0
  outer loop
   vertex -3883.93 -1514.82 -199.43
   vertex -3883.93 -1527.89 -3.3926e-13
   vertex -3883.93 -1501.19 -0.000517724
  endloop
 endfacet
 facet normal -1 0 0
  outer loop
   vertex -3883.93 -1501.19 -0.000517724
   vertex -3883.93 -1527.89 -3.3926e-13
   vertex -3883.93 -1514.82 199.43
  endloop
 endfacet
 facet normal -1 0 0
  outer loop
   vertex -3883.93 395.447 -1475.83
   vertex -3883.93 199.43 -1514.82
   vertex -3883.93 244.346 -1458.12
  endloop
 endfacet
 facet normal -1 0 0
  outer loop
   vertex -3883.93 -0.000517724 -1501.19
   vertex -3883.93 244.346 -1458.12
   vertex -3883.93 199.43 -1514.82
  endloop
 endfacet
 facet normal -1 0 0
  outer loop
   vertex -3883.93 244.346 -1458.12
   vertex -3883.93 -0.000517724 -1501.19
   vertex -3883.93 0.000844048 -1403.95
  endloop
 endfacet
 facet normal -1 0 0
  outer loop
   vertex -3883.93 -244.345 -1458.12
   vertex -3883.93 0.000844048 -1403.95
   vertex -3883.93 -0.000517724 -1501.19
  endloop
 endfacet
 facet normal -1 0 -0
  outer loop
   vertex -3883.93 -472.231 -1386.99
   vertex -3883.93 -252.429 -1316.43
   vertex -3883.93 -244.345 -1458.12
  endloop
 endfacet
 facet normal -1 0 0
  outer loop
   vertex -3883.93 0.000844048 -1403.95
   vertex -3883.93 -244.345 -1458.12
   vertex -3883.93 -252.429 -1316.43
  endloop
 endfacet
 facet normal -1 0 -0
  outer loop
   vertex -3883.93 -677.612 -1289.89
   vertex -3883.93 -487.574 -1199.52
   vertex -3883.93 -472.231 -1386.99
  endloop
 endfacet
 facet normal -1 0 0
  outer loop
   vertex -3883.93 -252.429 -1316.43
   vertex -3883.93 -472.231 -1386.99
   vertex -3883.93 -487.574 -1199.52
  endloop
 endfacet
 facet normal -1 0 -0
  outer loop
   vertex -3883.93 -861.882 -1168.9
   vertex -3883.93 -700.126 -1056.58
   vertex -3883.93 -677.612 -1289.89
  endloop
 endfacet
 facet normal -1 0 0
  outer loop
   vertex -3883.93 -487.574 -1199.52
   vertex -3883.93 -677.612 -1289.89
   vertex -3883.93 -700.126 -1056.58
  endloop
 endfacet
 facet normal -1 0 0
  outer loop
   vertex -3883.93 -700.126 -1056.58
   vertex -3883.93 -861.882 -1168.9
   vertex -3883.93 -889.79 -889.79
  endloop
 endfacet
 facet normal -1 0 0
  outer loop
   vertex -3883.93 -889.79 -889.79
   vertex -3883.93 -861.882 -1168.9
   vertex -3883.93 -1025.8 -1025.8
  endloop
 endfacet
 facet normal -1 0 0
  outer loop
   vertex -3883.93 -1056.58 -700.126
   vertex -3883.93 -889.79 -889.79
   vertex -3883.93 -1168.9 -861.882
  endloop
 endfacet
 facet normal -1 0 0
  outer loop
   vertex -3883.93 -889.79 -889.79
   vertex -3883.93 -1025.8 -1025.8
   vertex -3883.93 -1168.9 -861.882
  endloop
 endfacet
 facet normal -1 0 0
  outer loop
   vertex -3883.93 -1168.9 -861.882
   vertex -3883.93 -1289.89 -677.612
   vertex -3883.93 -1056.58 -700.126
  endloop
 endfacet
 facet normal -1 0 0
  outer loop
   vertex -3883.93 -1199.52 -487.574
   vertex -3883.93 -1056.58 -700.126
   vertex -3883.93 -1289.89 -677.612
  endloop
 endfacet
 facet normal -1 0 0
  outer loop
   vertex -3883.93 -1289.89 -677.612
   vertex -3883.93 -1386.99 -472.231
   vertex -3883.93 -1199.52 -487.574
  endloop
 endfacet
 facet normal -1 0 0
  outer loop
   vertex -3883.93 -1316.43 -252.429
   vertex -3883.93 -1199.52 -487.574
   vertex -3883.93 -1386.99 -472.231
  endloop
 endfacet
 facet normal -1 0 0
  outer loop
   vertex -3883.93 -1386.99 -472.231
   vertex -3883.93 -1458.12 -244.345
   vertex -3883.93 -1316.43 -252.429
  endloop
 endfacet
 facet normal -1 0 0
  outer loop
   vertex -3883.93 -1403.95 0.000844048
   vertex -3883.93 -1316.43 -252.429
   vertex -3883.93 -1458.12 -244.345
  endloop
 endfacet
 facet normal -1 -0 0
  outer loop
   vertex -3883.93 -1458.12 244.346
   vertex -3883.93 -1403.95 0.000844048
   vertex -3883.93 -1501.19 -0.000517724
  endloop
 endfacet
 facet normal -1 0 0
  outer loop
   vertex -3883.93 -1458.12 -244.345
   vertex -3883.93 -1501.19 -0.000517724
   vertex -3883.93 -1403.95 0.000844048
  endloop
 endfacet
 facet normal -1 -0 0
  outer loop
   vertex -3883.93 -1475.83 395.447
   vertex -3883.93 -1458.12 244.346
   vertex -3883.93 -1514.82 199.43
  endloop
 endfacet
 facet normal -1 0 0
  outer loop
   vertex -3883.93 -1501.19 -0.000517724
   vertex -3883.93 -1514.82 199.43
   vertex -3883.93 -1458.12 244.346
  endloop
 endfacet
 facet normal -1 0 0
  outer loop
   vertex -3883.93 584.698 -1411.59
   vertex -3883.93 395.447 -1475.83
   vertex -3883.93 472.233 -1386.98
  endloop
 endfacet
 facet normal -1 0 0
  outer loop
   vertex -3883.93 244.346 -1458.12
   vertex -3883.93 472.233 -1386.98
   vertex -3883.93 395.447 -1475.83
  endloop
 endfacet
 facet normal -1 0 0
  outer loop
   vertex -3883.93 472.233 -1386.98
   vertex -3883.93 244.346 -1458.12
   vertex -3883.93 252.431 -1316.43
  endloop
 endfacet
 facet normal -1 0 0
  outer loop
   vertex -3883.93 252.431 -1316.43
   vertex -3883.93 244.346 -1458.12
   vertex -3883.93 0.000844048 -1403.95
  endloop
 endfacet
 facet normal -1 0 0
  outer loop
   vertex -3883.93 252.431 -1316.43
   vertex -3883.93 0.000844048 -1403.95
   vertex -3883.93 0.00146168 -1206.42
  endloop
 endfacet
 facet normal -1 0 0
  outer loop
   vertex -3883.93 0.00146168 -1206.42
   vertex -3883.93 0.000844048 -1403.95
   vertex -3883.93 -252.429 -1316.43
  endloop
 endfacet
 facet normal -1 0 0
  outer loop
   vertex -3883.93 -487.574 -1199.52
   vertex -3883.93 -250.321 -1063.75
   vertex -3883.93 -252.429 -1316.43
  endloop
 endfacet
 facet normal -1 0 0
  outer loop
   vertex -3883.93 0.00146168 -1206.42
   vertex -3883.93 -252.429 -1316.43
   vertex -3883.93 -250.321 -1063.75
  endloop
 endfacet
 facet normal -1 0 0
  outer loop
   vertex -3883.93 -250.321 -1063.75
   vertex -3883.93 -487.574 -1199.52
   vertex -3883.93 -485.236 -893.87
  endloop
 endfacet
 facet normal -1 0 0
  outer loop
   vertex -3883.93 -485.236 -893.87
   vertex -3883.93 -487.574 -1199.52
   vertex -3883.93 -700.126 -1056.58
  endloop
 endfacet
 facet normal -1 0 0
  outer loop
   vertex -3883.93 -485.236 -893.87
   vertex -3883.93 -700.126 -1056.58
   vertex -3883.93 -700.348 -700.348
  endloop
 endfacet
 facet normal -1 0 -0
  outer loop
   vertex -3883.93 -889.79 -889.79
   vertex -3883.93 -700.348 -700.348
   vertex -3883.93 -700.126 -1056.58
  endloop
 endfacet
 facet normal -1 0 0
  outer loop
   vertex -3883.93 -893.87 -485.236
   vertex -3883.93 -700.348 -700.348
   vertex -3883.93 -1056.58 -700.126
  endloop
 endfacet
 facet normal -1 0 0
  outer loop
   vertex -3883.93 -889.79 -889.79
   vertex -3883.93 -1056.58 -700.126
   vertex -3883.93 -700.348 -700.348
  endloop
 endfacet
 facet normal -1 -0 0
  outer loop
   vertex -3883.93 -1063.75 -250.321
   vertex -3883.93 -893.87 -485.236
   vertex -3883.93 -1199.52 -487.574
  endloop
 endfacet
 facet normal -1 0 0
  outer loop
   vertex -3883.93 -1199.52 -487.574
   vertex -3883.93 -893.87 -485.236
   vertex -3883.93 -1056.58 -700.126
  endloop
 endfacet
 facet normal -1 0 0
  outer loop
   vertex -3883.93 -1199.52 -487.574
   vertex -3883.93 -1316.43 -252.429
   vertex -3883.93 -1063.75 -250.321
  endloop
 endfacet
 facet normal -1 -0 0
  outer loop
   vertex -3883.93 -1206.42 0.00146168
   vertex -3883.93 -1063.75 -250.321
   vertex -3883.93 -1316.43 -252.429
  endloop
 endfacet
 facet normal -1 -0 0
  outer loop
   vertex -3883.93 -1316.43 252.431
   vertex -3883.93 -1206.42 0.00146168
   vertex -3883.93 -1403.95 0.000844048
  endloop
 endfacet
 facet normal -1 0 0
  outer loop
   vertex -3883.93 -1403.95 0.000844048
   vertex -3883.93 -1206.42 0.00146168
   vertex -3883.93 -1316.43 -252.429
  endloop
 endfacet
 facet normal -1 -0 0
  outer loop
   vertex -3883.93 -1386.98 472.233
   vertex -3883.93 -1316.43 252.431
   vertex -3883.93 -1458.12 244.346
  endloop
 endfacet
 facet normal -1 0 0
  outer loop
   vertex -3883.93 -1458.12 244.346
   vertex -3883.93 -1316.43 252.431
   vertex -3883.93 -1403.95 0.000844048
  endloop
 endfacet
 facet normal -1 -0 0
  outer loop
   vertex -3883.93 -1411.59 584.698
   vertex -3883.93 -1386.98 472.233
   vertex -3883.93 -1475.83 395.447
  endloop
 endfacet
 facet normal -1 0 0
  outer loop
   vertex -3883.93 -1458.12 244.346
   vertex -3883.93 -1475.83 395.447
   vertex -3883.93 -1386.98 472.233
  endloop
 endfacet
 facet normal -1 0 0
  outer loop
   vertex -3883.93 763.945 -1323.19
   vertex -3883.93 584.698 -1411.59
   vertex -3883.93 677.614 -1289.88
  endloop
 endfacet
 facet normal -1 0 0
  outer loop
   vertex -3883.93 472.233 -1386.98
   vertex -3883.93 677.614 -1289.88
   vertex -3883.93 584.698 -1411.59
  endloop
 endfacet
 facet normal -1 0 0
  outer loop
   vertex -3883.93 677.614 -1289.88
   vertex -3883.93 472.233 -1386.98
   vertex -3883.93 487.577 -1199.52
  endloop
 endfacet
 facet normal -1 0 0
  outer loop
   vertex -3883.93 252.431 -1316.43
   vertex -3883.93 487.577 -1199.52
   vertex -3883.93 472.233 -1386.98
  endloop
 endfacet
 facet normal -1 0 0
  outer loop
   vertex -3883.93 487.577 -1199.52
   vertex -3883.93 252.431 -1316.43
   vertex -3883.93 250.324 -1063.75
  endloop
 endfacet
 facet normal -1 0 -0
  outer loop
   vertex -3883.93 0.00146168 -1206.42
   vertex -3883.93 250.324 -1063.75
   vertex -3883.93 252.431 -1316.43
  endloop
 endfacet
 facet normal -1 0 0
  outer loop
   vertex -3883.93 250.324 -1063.75
   vertex -3883.93 0.00146168 -1206.42
   vertex -3883.93 0.00116989 -893.407
  endloop
 endfacet
 facet normal -1 0 -0
  outer loop
   vertex -3883.93 -250.321 -1063.75
   vertex -3883.93 0.00116989 -893.407
   vertex -3883.93 0.00146168 -1206.42
  endloop
 endfacet
 facet normal -1 0 0
  outer loop
   vertex -3883.93 0.00116989 -893.407
   vertex -3883.93 -250.321 -1063.75
   vertex -3883.93 -246.04 -696.85
  endloop
 endfacet
 facet normal -1 0 0
  outer loop
   vertex -3883.93 -485.236 -893.87
   vertex -3883.93 -246.04 -696.85
   vertex -3883.93 -250.321 -1063.75
  endloop
 endfacet
 facet normal -1 0 0
  outer loop
   vertex -3883.93 -246.04 -696.85
   vertex -3883.93 -485.236 -893.87
   vertex -3883.93 -479.747 -479.747
  endloop
 endfacet
 facet normal -1 0 0
  outer loop
   vertex -3883.93 -485.236 -893.87
   vertex -3883.93 -700.348 -700.348
   vertex -3883.93 -479.747 -479.747
  endloop
 endfacet
 facet normal -1 -0 0
  outer loop
   vertex -3883.93 -696.85 -246.04
   vertex -3883.93 -479.747 -479.747
   vertex -3883.93 -893.87 -485.236
  endloop
 endfacet
 facet normal -1 0 0
  outer loop
   vertex -3883.93 -893.87 -485.236
   vertex -3883.93 -479.747 -479.747
   vertex -3883.93 -700.348 -700.348
  endloop
 endfacet
 facet normal -1 -0 0
  outer loop
   vertex -3883.93 -893.407 0.00116989
   vertex -3883.93 -696.85 -246.04
   vertex -3883.93 -1063.75 -250.321
  endloop
 endfacet
 facet normal -1 0 0
  outer loop
   vertex -3883.93 -893.87 -485.236
   vertex -3883.93 -1063.75 -250.321
   vertex -3883.93 -696.85 -246.04
  endloop
 endfacet
 facet normal -1 0 0
  outer loop
   vertex -3883.93 -1063.75 250.324
   vertex -3883.93 -893.407 0.00116989
   vertex -3883.93 -1206.42 0.00146168
  endloop
 endfacet
 facet normal -1 0 0
  outer loop
   vertex -3883.93 -1063.75 -250.321
   vertex -3883.93 -1206.42 0.00146168
   vertex -3883.93 -893.407 0.00116989
  endloop
 endfacet
 facet normal -1 0 0
  outer loop
   vertex -3883.93 -1199.52 487.577
   vertex -3883.93 -1063.75 250.324
   vertex -3883.93 -1316.43 252.431
  endloop
 endfacet
 facet normal -1 0 0
  outer loop
   vertex -3883.93 -1206.42 0.00146168
   vertex -3883.93 -1316.43 252.431
   vertex -3883.93 -1063.75 250.324
  endloop
 endfacet
 facet normal -1 -0 0
  outer loop
   vertex -3883.93 -1289.88 677.614
   vertex -3883.93 -1199.52 487.577
   vertex -3883.93 -1386.98 472.233
  endloop
 endfacet
 facet normal -1 0 0
  outer loop
   vertex -3883.93 -1316.43 252.431
   vertex -3883.93 -1386.98 472.233
   vertex -3883.93 -1199.52 487.577
  endloop
 endfacet
 facet normal -1 -0 0
  outer loop
   vertex -3883.93 -1323.19 763.945
   vertex -3883.93 -1289.88 677.614
   vertex -3883.93 -1411.59 584.698
  endloop
 endfacet
 facet normal -1 0 0
  outer loop
   vertex -3883.93 -1386.98 472.233
   vertex -3883.93 -1411.59 584.698
   vertex -3883.93 -1289.88 677.614
  endloop
 endfacet
 facet normal -1 0 0
  outer loop
   vertex -3883.93 930.12 -1212.16
   vertex -3883.93 763.945 -1323.19
   vertex -3883.93 861.883 -1168.9
  endloop
 endfacet
 facet normal -1 0 0
  outer loop
   vertex -3883.93 677.614 -1289.88
   vertex -3883.93 861.883 -1168.9
   vertex -3883.93 763.945 -1323.19
  endloop
 endfacet
 facet normal -1 0 0
  outer loop
   vertex -3883.93 861.883 -1168.9
   vertex -3883.93 677.614 -1289.88
   vertex -3883.93 700.128 -1056.57
  endloop
 endfacet
 facet normal -1 0 0
  outer loop
   vertex -3883.93 487.577 -1199.52
   vertex -3883.93 700.128 -1056.57
   vertex -3883.93 677.614 -1289.88
  endloop
 endfacet
 facet normal -1 0 -0
  outer loop
   vertex -3883.93 250.324 -1063.75
   vertex -3883.93 485.238 -893.87
   vertex -3883.93 487.577 -1199.52
  endloop
 endfacet
 facet normal -1 0 0
  outer loop
   vertex -3883.93 700.128 -1056.57
   vertex -3883.93 487.577 -1199.52
   vertex -3883.93 485.238 -893.87
  endloop
 endfacet
 facet normal -1 0 -0
  outer loop
   vertex -3883.93 0.00116989 -893.407
   vertex -3883.93 246.042 -696.85
   vertex -3883.93 250.324 -1063.75
  endloop
 endfacet
 facet normal -1 0 0
  outer loop
   vertex -3883.93 485.238 -893.87
   vertex -3883.93 250.324 -1063.75
   vertex -3883.93 246.042 -696.85
  endloop
 endfacet
 facet normal -1 0 -0
  outer loop
   vertex -3883.93 -246.04 -696.85
   vertex -3883.93 0.000573858 -477.308
   vertex -3883.93 0.00116989 -893.407
  endloop
 endfacet
 facet normal -1 0 0
  outer loop
   vertex -3883.93 246.042 -696.85
   vertex -3883.93 0.00116989 -893.407
   vertex -3883.93 0.000573858 -477.308
  endloop
 endfacet
 facet normal -1 0 0
  outer loop
   vertex -3883.93 0.000573858 -477.308
   vertex -3883.93 -246.04 -696.85
   vertex -3883.93 -243.131 -243.131
  endloop
 endfacet
 facet normal -1 0 0
  outer loop
   vertex -3883.93 -479.747 -479.747
   vertex -3883.93 -243.131 -243.131
   vertex -3883.93 -246.04 -696.85
  endloop
 endfacet
 facet normal -1 -0 0
  outer loop
   vertex -3883.93 -477.308 0.000573858
   vertex -3883.93 -243.131 -243.131
   vertex -3883.93 -696.85 -246.04
  endloop
 endfacet
 facet normal -1 0 0
  outer loop
   vertex -3883.93 -479.747 -479.747
   vertex -3883.93 -696.85 -246.04
   vertex -3883.93 -243.131 -243.131
  endloop
 endfacet
 facet normal -1 0 0
  outer loop
   vertex -3883.93 -696.85 -246.04
   vertex -3883.93 -893.407 0.00116989
   vertex -3883.93 -477.308 0.000573858
  endloop
 endfacet
 facet normal -1 0 0
  outer loop
   vertex -3883.93 -696.85 246.042
   vertex -3883.93 -477.308 0.000573858
   vertex -3883.93 -893.407 0.00116989
  endloop
 endfacet
 facet normal -1 0 0
  outer loop
   vertex -3883.93 -893.407 0.00116989
   vertex -3883.93 -1063.75 250.324
   vertex -3883.93 -696.85 246.042
  endloop
 endfacet
 facet normal -1 0 0
  outer loop
   vertex -3883.93 -893.87 485.238
   vertex -3883.93 -696.85 246.042
   vertex -3883.93 -1063.75 250.324
  endloop
 endfacet
 facet normal -1 0 0
  outer loop
   vertex -3883.93 -1063.75 250.324
   vertex -3883.93 -1199.52 487.577
   vertex -3883.93 -893.87 485.238
  endloop
 endfacet
 facet normal -1 0 0
  outer loop
   vertex -3883.93 -1056.57 700.128
   vertex -3883.93 -893.87 485.238
   vertex -3883.93 -1199.52 487.577
  endloop
 endfacet
 facet normal -1 -0 0
  outer loop
   vertex -3883.93 -1168.9 861.883
   vertex -3883.93 -1056.57 700.128
   vertex -3883.93 -1289.88 677.614
  endloop
 endfacet
 facet normal -1 0 0
  outer loop
   vertex -3883.93 -1199.52 487.577
   vertex -3883.93 -1289.88 677.614
   vertex -3883.93 -1056.57 700.128
  endloop
 endfacet
 facet normal -1 -0 0
  outer loop
   vertex -3883.93 -1212.16 930.12
   vertex -3883.93 -1168.9 861.883
   vertex -3883.93 -1323.19 763.945
  endloop
 endfacet
 facet normal -1 0 0
  outer loop
   vertex -3883.93 -1289.88 677.614
   vertex -3883.93 -1323.19 763.945
   vertex -3883.93 -1168.9 861.883
  endloop
 endfacet
 facet normal -1 0 0
  outer loop
   vertex -3883.93 861.883 -1168.9
   vertex -3883.93 1025.8 -1025.8
   vertex -3883.93 930.12 -1212.16
  endloop
 endfacet
 facet normal -1 0 -0
  outer loop
   vertex -3883.93 930.12 -1212.16
   vertex -3883.93 1025.8 -1025.8
   vertex -3883.93 1080.38 -1080.38
  endloop
 endfacet
 facet normal -1 0 0
  outer loop
   vertex -3883.93 700.128 -1056.57
   vertex -3883.93 889.791 -889.791
   vertex -3883.93 861.883 -1168.9
  endloop
 endfacet
 facet normal -1 0 0
  outer loop
   vertex -3883.93 1025.8 -1025.8
   vertex -3883.93 861.883 -1168.9
   vertex -3883.93 889.791 -889.791
  endloop
 endfacet
 facet normal -1 0 0
  outer loop
   vertex -3883.93 485.238 -893.87
   vertex -3883.93 700.348 -700.348
   vertex -3883.93 700.128 -1056.57
  endloop
 endfacet
 facet normal -1 -0 0
  outer loop
   vertex -3883.93 700.348 -700.348
   vertex -3883.93 889.791 -889.791
   vertex -3883.93 700.128 -1056.57
  endloop
 endfacet
 facet normal -1 0 -0
  outer loop
   vertex -3883.93 246.042 -696.85
   vertex -3883.93 479.747 -479.747
   vertex -3883.93 485.238 -893.87
  endloop
 endfacet
 facet normal -1 0 0
  outer loop
   vertex -3883.93 700.348 -700.348
   vertex -3883.93 485.238 -893.87
   vertex -3883.93 479.747 -479.747
  endloop
 endfacet
 facet normal -1 0 -0
  outer loop
   vertex -3883.93 0.000573858 -477.308
   vertex -3883.93 243.132 -243.132
   vertex -3883.93 246.042 -696.85
  endloop
 endfacet
 facet normal -1 0 0
  outer loop
   vertex -3883.93 479.747 -479.747
   vertex -3883.93 246.042 -696.85
   vertex -3883.93 243.132 -243.132
  endloop
 endfacet
 facet normal -1 0 -0
  outer loop
   vertex -3883.93 -243.131 -243.131
   vertex -3883.93 1.2779e-12 1.31991e-12
   vertex -3883.93 0.000573858 -477.308
  endloop
 endfacet
 facet normal -1 0 0
  outer loop
   vertex -3883.93 243.132 -243.132
   vertex -3883.93 0.000573858 -477.308
   vertex -3883.93 1.2779e-12 1.31991e-12
  endloop
 endfacet
 facet normal -1 0 0
  outer loop
   vertex -3883.93 -243.131 -243.131
   vertex -3883.93 -477.308 0.000573858
   vertex -3883.93 1.2779e-12 1.31991e-12
  endloop
 endfacet
 facet normal -1 0 0
  outer loop
   vertex -3883.93 -243.132 243.132
   vertex -3883.93 1.2779e-12 1.31991e-12
   vertex -3883.93 -477.308 0.000573858
  endloop
 endfacet
 facet normal -1 0 0
  outer loop
   vertex -3883.93 -477.308 0.000573858
   vertex -3883.93 -696.85 246.042
   vertex -3883.93 -243.132 243.132
  endloop
 endfacet
 facet normal -1 0 0
  outer loop
   vertex -3883.93 -479.747 479.747
   vertex -3883.93 -243.132 243.132
   vertex -3883.93 -696.85 246.042
  endloop
 endfacet
 facet normal -1 0 0
  outer loop
   vertex -3883.93 -696.85 246.042
   vertex -3883.93 -893.87 485.238
   vertex -3883.93 -479.747 479.747
  endloop
 endfacet
 facet normal -1 0 0
  outer loop
   vertex -3883.93 -700.348 700.348
   vertex -3883.93 -479.747 479.747
   vertex -3883.93 -893.87 485.238
  endloop
 endfacet
 facet normal -1 0 0
  outer loop
   vertex -3883.93 -893.87 485.238
   vertex -3883.93 -1056.57 700.128
   vertex -3883.93 -700.348 700.348
  endloop
 endfacet
 facet normal -1 0 0
  outer loop
   vertex -3883.93 -700.348 700.348
   vertex -3883.93 -1056.57 700.128
   vertex -3883.93 -889.791 889.791
  endloop
 endfacet
 facet normal -1 0 0
  outer loop
   vertex -3883.93 -1056.57 700.128
   vertex -3883.93 -1168.9 861.883
   vertex -3883.93 -889.791 889.791
  endloop
 endfacet
 facet normal -1 -0 0
  outer loop
   vertex -3883.93 -1025.8 1025.8
   vertex -3883.93 -889.791 889.791
   vertex -3883.93 -1168.9 861.883
  endloop
 endfacet
 facet normal -1 0 0
  outer loop
   vertex -3883.93 -1168.9 861.883
   vertex -3883.93 -1212.16 930.12
   vertex -3883.93 -1025.8 1025.8
  endloop
 endfacet
 facet normal -1 0 0
  outer loop
   vertex -3883.93 -1025.8 1025.8
   vertex -3883.93 -1212.16 930.12
   vertex -3883.93 -1080.38 1080.38
  endloop
 endfacet
 facet normal -1 -0 0
  outer loop
   vertex -3883.93 1168.9 -861.883
   vertex -3883.93 1212.16 -930.12
   vertex -3883.93 1025.8 -1025.8
  endloop
 endfacet
 facet normal -1 0 0
  outer loop
   vertex -3883.93 1025.8 -1025.8
   vertex -3883.93 1212.16 -930.12
   vertex -3883.93 1080.38 -1080.38
  endloop
 endfacet
 facet normal -1 -0 0
  outer loop
   vertex -3883.93 1056.57 -700.128
   vertex -3883.93 1168.9 -861.883
   vertex -3883.93 889.791 -889.791
  endloop
 endfacet
 facet normal -1 0 0
  outer loop
   vertex -3883.93 1025.8 -1025.8
   vertex -3883.93 889.791 -889.791
   vertex -3883.93 1168.9 -861.883
  endloop
 endfacet
 facet normal -1 -0 0
  outer loop
   vertex -3883.93 893.87 -485.238
   vertex -3883.93 1056.57 -700.128
   vertex -3883.93 700.348 -700.348
  endloop
 endfacet
 facet normal -1 0 0
  outer loop
   vertex -3883.93 700.348 -700.348
   vertex -3883.93 1056.57 -700.128
   vertex -3883.93 889.791 -889.791
  endloop
 endfacet
 facet normal -1 0 0
  outer loop
   vertex -3883.93 696.85 -246.042
   vertex -3883.93 893.87 -485.238
   vertex -3883.93 479.747 -479.747
  endloop
 endfacet
 facet normal -1 0 0
  outer loop
   vertex -3883.93 700.348 -700.348
   vertex -3883.93 479.747 -479.747
   vertex -3883.93 893.87 -485.238
  endloop
 endfacet
 facet normal -1 0 0
  outer loop
   vertex -3883.93 477.308 -0.000573858
   vertex -3883.93 696.85 -246.042
   vertex -3883.93 243.132 -243.132
  endloop
 endfacet
 facet normal -1 0 0
  outer loop
   vertex -3883.93 479.747 -479.747
   vertex -3883.93 243.132 -243.132
   vertex -3883.93 696.85 -246.042
  endloop
 endfacet
 facet normal -1 0 0
  outer loop
   vertex -3883.93 243.131 243.131
   vertex -3883.93 477.308 -0.000573858
   vertex -3883.93 1.2779e-12 1.31991e-12
  endloop
 endfacet
 facet normal -1 0 0
  outer loop
   vertex -3883.93 243.132 -243.132
   vertex -3883.93 1.2779e-12 1.31991e-12
   vertex -3883.93 477.308 -0.000573858
  endloop
 endfacet
 facet normal -1 0 0
  outer loop
   vertex -3883.93 243.131 243.131
   vertex -3883.93 1.2779e-12 1.31991e-12
   vertex -3883.93 -0.000573858 477.308
  endloop
 endfacet
 facet normal -1 0 -0
  outer loop
   vertex -3883.93 -243.132 243.132
   vertex -3883.93 -0.000573858 477.308
   vertex -3883.93 1.2779e-12 1.31991e-12
  endloop
 endfacet
 facet normal -1 0 0
  outer loop
   vertex -3883.93 -0.000573858 477.308
   vertex -3883.93 -243.132 243.132
   vertex -3883.93 -246.042 696.85
  endloop
 endfacet
 facet normal -1 0 -0
  outer loop
   vertex -3883.93 -479.747 479.747
   vertex -3883.93 -246.042 696.85
   vertex -3883.93 -243.132 243.132
  endloop
 endfacet
 facet normal -1 0 0
  outer loop
   vertex -3883.93 -246.042 696.85
   vertex -3883.93 -479.747 479.747
   vertex -3883.93 -485.238 893.87
  endloop
 endfacet
 facet normal -1 0 -0
  outer loop
   vertex -3883.93 -700.348 700.348
   vertex -3883.93 -485.238 893.87
   vertex -3883.93 -479.747 479.747
  endloop
 endfacet
 facet normal -1 0 0
  outer loop
   vertex -3883.93 -485.238 893.87
   vertex -3883.93 -700.348 700.348
   vertex -3883.93 -700.128 1056.57
  endloop
 endfacet
 facet normal -1 0 0
  outer loop
   vertex -3883.93 -700.348 700.348
   vertex -3883.93 -889.791 889.791
   vertex -3883.93 -700.128 1056.57
  endloop
 endfacet
 facet normal -1 0 0
  outer loop
   vertex -3883.93 -700.128 1056.57
   vertex -3883.93 -889.791 889.791
   vertex -3883.93 -861.883 1168.9
  endloop
 endfacet
 facet normal -1 0 0
  outer loop
   vertex -3883.93 -1025.8 1025.8
   vertex -3883.93 -861.883 1168.9
   vertex -3883.93 -889.791 889.791
  endloop
 endfacet
 facet normal -1 0 0
  outer loop
   vertex -3883.93 -861.883 1168.9
   vertex -3883.93 -1025.8 1025.8
   vertex -3883.93 -930.12 1212.16
  endloop
 endfacet
 facet normal -1 0 0
  outer loop
   vertex -3883.93 -930.12 1212.16
   vertex -3883.93 -1025.8 1025.8
   vertex -3883.93 -1080.38 1080.38
  endloop
 endfacet
 facet normal -1 0 0
  outer loop
   vertex -3883.93 1212.16 -930.12
   vertex -3883.93 1168.9 -861.883
   vertex -3883.93 1323.19 -763.945
  endloop
 endfacet
 facet normal -1 -0 0
  outer loop
   vertex -3883.93 1289.88 -677.614
   vertex -3883.93 1323.19 -763.945
   vertex -3883.93 1168.9 -861.883
  endloop
 endfacet
 facet normal -1 0 0
  outer loop
   vertex -3883.93 1168.9 -861.883
   vertex -3883.93 1056.57 -700.128
   vertex -3883.93 1289.88 -677.614
  endloop
 endfacet
 facet normal -1 -0 0
  outer loop
   vertex -3883.93 1199.52 -487.577
   vertex -3883.93 1289.88 -677.614
   vertex -3883.93 1056.57 -700.128
  endloop
 endfacet
 facet normal -1 0 0
  outer loop
   vertex -3883.93 1063.75 -250.324
   vertex -3883.93 1199.52 -487.577
   vertex -3883.93 893.87 -485.238
  endloop
 endfacet
 facet normal -1 0 0
  outer loop
   vertex -3883.93 1056.57 -700.128
   vertex -3883.93 893.87 -485.238
   vertex -3883.93 1199.52 -487.577
  endloop
 endfacet
 facet normal -1 0 0
  outer loop
   vertex -3883.93 893.407 -0.00116989
   vertex -3883.93 1063.75 -250.324
   vertex -3883.93 696.85 -246.042
  endloop
 endfacet
 facet normal -1 0 0
  outer loop
   vertex -3883.93 893.87 -485.238
   vertex -3883.93 696.85 -246.042
   vertex -3883.93 1063.75 -250.324
  endloop
 endfacet
 facet normal -1 0 0
  outer loop
   vertex -3883.93 696.85 246.04
   vertex -3883.93 893.407 -0.00116989
   vertex -3883.93 477.308 -0.000573858
  endloop
 endfacet
 facet normal -1 0 0
  outer loop
   vertex -3883.93 696.85 -246.042
   vertex -3883.93 477.308 -0.000573858
   vertex -3883.93 893.407 -0.00116989
  endloop
 endfacet
 facet normal -1 0 0
  outer loop
   vertex -3883.93 477.308 -0.000573858
   vertex -3883.93 243.131 243.131
   vertex -3883.93 696.85 246.04
  endloop
 endfacet
 facet normal -1 -0 0
  outer loop
   vertex -3883.93 479.747 479.747
   vertex -3883.93 696.85 246.04
   vertex -3883.93 243.131 243.131
  endloop
 endfacet
 facet normal -1 0 0
  outer loop
   vertex -3883.93 -0.000573858 477.308
   vertex -3883.93 246.04 696.85
   vertex -3883.93 243.131 243.131
  endloop
 endfacet
 facet normal -1 0 0
  outer loop
   vertex -3883.93 479.747 479.747
   vertex -3883.93 243.131 243.131
   vertex -3883.93 246.04 696.85
  endloop
 endfacet
 facet normal -1 0 0
  outer loop
   vertex -3883.93 246.04 696.85
   vertex -3883.93 -0.000573858 477.308
   vertex -3883.93 -0.00116989 893.407
  endloop
 endfacet
 facet normal -1 0 -0
  outer loop
   vertex -3883.93 -246.042 696.85
   vertex -3883.93 -0.00116989 893.407
   vertex -3883.93 -0.000573858 477.308
  endloop
 endfacet
 facet normal -1 0 0
  outer loop
   vertex -3883.93 -0.00116989 893.407
   vertex -3883.93 -246.042 696.85
   vertex -3883.93 -250.324 1063.75
  endloop
 endfacet
 facet normal -1 0 -0
  outer loop
   vertex -3883.93 -485.238 893.87
   vertex -3883.93 -250.324 1063.75
   vertex -3883.93 -246.042 696.85
  endloop
 endfacet
 facet normal -1 0 0
  outer loop
   vertex -3883.93 -250.324 1063.75
   vertex -3883.93 -485.238 893.87
   vertex -3883.93 -487.577 1199.52
  endloop
 endfacet
 facet normal -1 0 -0
  outer loop
   vertex -3883.93 -700.128 1056.57
   vertex -3883.93 -487.577 1199.52
   vertex -3883.93 -485.238 893.87
  endloop
 endfacet
 facet normal -1 0 0
  outer loop
   vertex -3883.93 -861.883 1168.9
   vertex -3883.93 -677.614 1289.88
   vertex -3883.93 -700.128 1056.57
  endloop
 endfacet
 facet normal -1 0 0
  outer loop
   vertex -3883.93 -487.577 1199.52
   vertex -3883.93 -700.128 1056.57
   vertex -3883.93 -677.614 1289.88
  endloop
 endfacet
 facet normal -1 0 0
  outer loop
   vertex -3883.93 -930.12 1212.16
   vertex -3883.93 -763.945 1323.19
   vertex -3883.93 -861.883 1168.9
  endloop
 endfacet
 facet normal -1 0 0
  outer loop
   vertex -3883.93 -677.614 1289.88
   vertex -3883.93 -861.883 1168.9
   vertex -3883.93 -763.945 1323.19
  endloop
 endfacet
 facet normal -1 0 0
  outer loop
   vertex -3883.93 1323.19 -763.945
   vertex -3883.93 1289.88 -677.614
   vertex -3883.93 1411.59 -584.698
  endloop
 endfacet
 facet normal -1 -0 0
  outer loop
   vertex -3883.93 1386.98 -472.233
   vertex -3883.93 1411.59 -584.698
   vertex -3883.93 1289.88 -677.614
  endloop
 endfacet
 facet normal -1 0 0
  outer loop
   vertex -3883.93 1289.88 -677.614
   vertex -3883.93 1199.52 -487.577
   vertex -3883.93 1386.98 -472.233
  endloop
 endfacet
 facet normal -1 -0 0
  outer loop
   vertex -3883.93 1316.43 -252.431
   vertex -3883.93 1386.98 -472.233
   vertex -3883.93 1199.52 -487.577
  endloop
 endfacet
 facet normal -1 0 0
  outer loop
   vertex -3883.93 1199.52 -487.577
   vertex -3883.93 1063.75 -250.324
   vertex -3883.93 1316.43 -252.431
  endloop
 endfacet
 facet normal -1 0 0
  outer loop
   vertex -3883.93 1206.42 -0.00146168
   vertex -3883.93 1316.43 -252.431
   vertex -3883.93 1063.75 -250.324
  endloop
 endfacet
 facet normal -1 0 0
  outer loop
   vertex -3883.93 1063.75 -250.324
   vertex -3883.93 893.407 -0.00116989
   vertex -3883.93 1206.42 -0.00146168
  endloop
 endfacet
 facet normal -1 0 0
  outer loop
   vertex -3883.93 1063.75 250.321
   vertex -3883.93 1206.42 -0.00146168
   vertex -3883.93 893.407 -0.00116989
  endloop
 endfacet
 facet normal -1 0 0
  outer loop
   vertex -3883.93 893.407 -0.00116989
   vertex -3883.93 696.85 246.04
   vertex -3883.93 1063.75 250.321
  endloop
 endfacet
 facet normal -1 -0 0
  outer loop
   vertex -3883.93 893.87 485.236
   vertex -3883.93 1063.75 250.321
   vertex -3883.93 696.85 246.04
  endloop
 endfacet
 facet normal -1 0 0
  outer loop
   vertex -3883.93 696.85 246.04
   vertex -3883.93 479.747 479.747
   vertex -3883.93 893.87 485.236
  endloop
 endfacet
 facet normal -1 0 0
  outer loop
   vertex -3883.93 893.87 485.236
   vertex -3883.93 479.747 479.747
   vertex -3883.93 700.348 700.348
  endloop
 endfacet
 facet normal -1 0 0
  outer loop
   vertex -3883.93 246.04 696.85
   vertex -3883.93 485.236 893.87
   vertex -3883.93 479.747 479.747
  endloop
 endfacet
 facet normal -1 -0 0
  outer loop
   vertex -3883.93 485.236 893.87
   vertex -3883.93 700.348 700.348
   vertex -3883.93 479.747 479.747
  endloop
 endfacet
 facet normal -1 0 0
  outer loop
   vertex -3883.93 -0.00116989 893.407
   vertex -3883.93 250.321 1063.75
   vertex -3883.93 246.04 696.85
  endloop
 endfacet
 facet normal -1 0 0
  outer loop
   vertex -3883.93 485.236 893.87
   vertex -3883.93 246.04 696.85
   vertex -3883.93 250.321 1063.75
  endloop
 endfacet
 facet normal -1 0 -0
  outer loop
   vertex -3883.93 -250.324 1063.75
   vertex -3883.93 -0.00146168 1206.42
   vertex -3883.93 -0.00116989 893.407
  endloop
 endfacet
 facet normal -1 0 0
  outer loop
   vertex -3883.93 250.321 1063.75
   vertex -3883.93 -0.00116989 893.407
   vertex -3883.93 -0.00146168 1206.42
  endloop
 endfacet
 facet normal -1 0 -0
  outer loop
   vertex -3883.93 -487.577 1199.52
   vertex -3883.93 -252.431 1316.43
   vertex -3883.93 -250.324 1063.75
  endloop
 endfacet
 facet normal -1 0 0
  outer loop
   vertex -3883.93 -0.00146168 1206.42
   vertex -3883.93 -250.324 1063.75
   vertex -3883.93 -252.431 1316.43
  endloop
 endfacet
 facet normal -1 0 0
  outer loop
   vertex -3883.93 -677.614 1289.88
   vertex -3883.93 -472.233 1386.98
   vertex -3883.93 -487.577 1199.52
  endloop
 endfacet
 facet normal -1 0 0
  outer loop
   vertex -3883.93 -252.431 1316.43
   vertex -3883.93 -487.577 1199.52
   vertex -3883.93 -472.233 1386.98
  endloop
 endfacet
 facet normal -1 0 0
  outer loop
   vertex -3883.93 -763.945 1323.19
   vertex -3883.93 -584.698 1411.59
   vertex -3883.93 -677.614 1289.88
  endloop
 endfacet
 facet normal -1 0 0
  outer loop
   vertex -3883.93 -472.233 1386.98
   vertex -3883.93 -677.614 1289.88
   vertex -3883.93 -584.698 1411.59
  endloop
 endfacet
 facet normal -1 0 0
  outer loop
   vertex -3883.93 1411.59 -584.698
   vertex -3883.93 1386.98 -472.233
   vertex -3883.93 1475.83 -395.447
  endloop
 endfacet
 facet normal -1 -0 0
  outer loop
   vertex -3883.93 1458.12 -244.346
   vertex -3883.93 1475.83 -395.447
   vertex -3883.93 1386.98 -472.233
  endloop
 endfacet
 facet normal -1 0 0
  outer loop
   vertex -3883.93 1386.98 -472.233
   vertex -3883.93 1316.43 -252.431
   vertex -3883.93 1458.12 -244.346
  endloop
 endfacet
 facet normal -1 0 0
  outer loop
   vertex -3883.93 1458.12 -244.346
   vertex -3883.93 1316.43 -252.431
   vertex -3883.93 1403.95 -0.000844048
  endloop
 endfacet
 facet normal -1 0 0
  outer loop
   vertex -3883.93 1316.43 -252.431
   vertex -3883.93 1206.42 -0.00146168
   vertex -3883.93 1403.95 -0.000844048
  endloop
 endfacet
 facet normal -1 0 0
  outer loop
   vertex -3883.93 1403.95 -0.000844048
   vertex -3883.93 1206.42 -0.00146168
   vertex -3883.93 1316.43 252.429
  endloop
 endfacet
 facet normal -1 -0 0
  outer loop
   vertex -3883.93 1199.52 487.574
   vertex -3883.93 1316.43 252.429
   vertex -3883.93 1063.75 250.321
  endloop
 endfacet
 facet normal -1 0 0
  outer loop
   vertex -3883.93 1206.42 -0.00146168
   vertex -3883.93 1063.75 250.321
   vertex -3883.93 1316.43 252.429
  endloop
 endfacet
 facet normal -1 0 0
  outer loop
   vertex -3883.93 1063.75 250.321
   vertex -3883.93 893.87 485.236
   vertex -3883.93 1199.52 487.574
  endloop
 endfacet
 facet normal -1 0 0
  outer loop
   vertex -3883.93 1199.52 487.574
   vertex -3883.93 893.87 485.236
   vertex -3883.93 1056.58 700.126
  endloop
 endfacet
 facet normal -1 0 0
  outer loop
   vertex -3883.93 893.87 485.236
   vertex -3883.93 700.348 700.348
   vertex -3883.93 1056.58 700.126
  endloop
 endfacet
 facet normal -1 0 0
  outer loop
   vertex -3883.93 889.79 889.79
   vertex -3883.93 1056.58 700.126
   vertex -3883.93 700.348 700.348
  endloop
 endfacet
 facet normal -1 0 -0
  outer loop
   vertex -3883.93 485.236 893.87
   vertex -3883.93 700.126 1056.58
   vertex -3883.93 700.348 700.348
  endloop
 endfacet
 facet normal -1 0 0
  outer loop
   vertex -3883.93 889.79 889.79
   vertex -3883.93 700.348 700.348
   vertex -3883.93 700.126 1056.58
  endloop
 endfacet
 facet normal -1 0 0
  outer loop
   vertex -3883.93 250.321 1063.75
   vertex -3883.93 487.574 1199.52
   vertex -3883.93 485.236 893.87
  endloop
 endfacet
 facet normal -1 0 -0
  outer loop
   vertex -3883.93 485.236 893.87
   vertex -3883.93 487.574 1199.52
   vertex -3883.93 700.126 1056.58
  endloop
 endfacet
 facet normal -1 0 0
  outer loop
   vertex -3883.93 487.574 1199.52
   vertex -3883.93 250.321 1063.75
   vertex -3883.93 252.429 1316.43
  endloop
 endfacet
 facet normal -1 0 0
  outer loop
   vertex -3883.93 -0.00146168 1206.42
   vertex -3883.93 252.429 1316.43
   vertex -3883.93 250.321 1063.75
  endloop
 endfacet
 facet normal -1 0 0
  outer loop
   vertex -3883.93 -252.431 1316.43
   vertex -3883.93 -0.000844048 1403.95
   vertex -3883.93 -0.00146168 1206.42
  endloop
 endfacet
 facet normal -1 0 -0
  outer loop
   vertex -3883.93 -0.00146168 1206.42
   vertex -3883.93 -0.000844048 1403.95
   vertex -3883.93 252.429 1316.43
  endloop
 endfacet
 facet normal -1 0 0
  outer loop
   vertex -3883.93 -472.233 1386.98
   vertex -3883.93 -244.346 1458.12
   vertex -3883.93 -252.431 1316.43
  endloop
 endfacet
 facet normal -1 0 -0
  outer loop
   vertex -3883.93 -252.431 1316.43
   vertex -3883.93 -244.346 1458.12
   vertex -3883.93 -0.000844048 1403.95
  endloop
 endfacet
 facet normal -1 0 0
  outer loop
   vertex -3883.93 -584.698 1411.59
   vertex -3883.93 -395.447 1475.83
   vertex -3883.93 -472.233 1386.98
  endloop
 endfacet
 facet normal -1 0 0
  outer loop
   vertex -3883.93 -244.346 1458.12
   vertex -3883.93 -472.233 1386.98
   vertex -3883.93 -395.447 1475.83
  endloop
 endfacet
 facet normal -1 0 0
  outer loop
   vertex -3883.93 1475.83 -395.447
   vertex -3883.93 1458.12 -244.346
   vertex -3883.93 1514.82 -199.43
  endloop
 endfacet
 facet normal -1 -0 0
  outer loop
   vertex -3883.93 1501.19 0.000517724
   vertex -3883.93 1514.82 -199.43
   vertex -3883.93 1458.12 -244.346
  endloop
 endfacet
 facet normal -1 0 0
  outer loop
   vertex -3883.93 1458.12 -244.346
   vertex -3883.93 1403.95 -0.000844048
   vertex -3883.93 1501.19 0.000517724
  endloop
 endfacet
 facet normal -1 -0 0
  outer loop
   vertex -3883.93 1458.12 244.345
   vertex -3883.93 1501.19 0.000517724
   vertex -3883.93 1403.95 -0.000844048
  endloop
 endfacet
 facet normal -1 0 0
  outer loop
   vertex -3883.93 1386.99 472.231
   vertex -3883.93 1458.12 244.345
   vertex -3883.93 1316.43 252.429
  endloop
 endfacet
 facet normal -1 0 0
  outer loop
   vertex -3883.93 1403.95 -0.000844048
   vertex -3883.93 1316.43 252.429
   vertex -3883.93 1458.12 244.345
  endloop
 endfacet
 facet normal -1 0 0
  outer loop
   vertex -3883.93 1289.89 677.612
   vertex -3883.93 1386.99 472.231
   vertex -3883.93 1199.52 487.574
  endloop
 endfacet
 facet normal -1 0 0
  outer loop
   vertex -3883.93 1316.43 252.429
   vertex -3883.93 1199.52 487.574
   vertex -3883.93 1386.99 472.231
  endloop
 endfacet
 facet normal -1 0 0
  outer loop
   vertex -3883.93 1168.9 861.882
   vertex -3883.93 1289.89 677.612
   vertex -3883.93 1056.58 700.126
  endloop
 endfacet
 facet normal -1 0 0
  outer loop
   vertex -3883.93 1199.52 487.574
   vertex -3883.93 1056.58 700.126
   vertex -3883.93 1289.89 677.612
  endloop
 endfacet
 facet normal -1 0 0
  outer loop
   vertex -3883.93 1056.58 700.126
   vertex -3883.93 889.79 889.79
   vertex -3883.93 1168.9 861.882
  endloop
 endfacet
 facet normal -1 0 -0
  outer loop
   vertex -3883.93 889.79 889.79
   vertex -3883.93 1025.8 1025.8
   vertex -3883.93 1168.9 861.882
  endloop
 endfacet
 facet normal -1 0 -0
  outer loop
   vertex -3883.93 700.126 1056.58
   vertex -3883.93 861.882 1168.9
   vertex -3883.93 889.79 889.79
  endloop
 endfacet
 facet normal -1 0 0
  outer loop
   vertex -3883.93 889.79 889.79
   vertex -3883.93 861.882 1168.9
   vertex -3883.93 1025.8 1025.8
  endloop
 endfacet
 facet normal -1 0 0
  outer loop
   vertex -3883.93 861.882 1168.9
   vertex -3883.93 700.126 1056.58
   vertex -3883.93 677.612 1289.89
  endloop
 endfacet
 facet normal -1 0 -0
  outer loop
   vertex -3883.93 487.574 1199.52
   vertex -3883.93 677.612 1289.89
   vertex -3883.93 700.126 1056.58
  endloop
 endfacet
 facet normal -1 0 0
  outer loop
   vertex -3883.93 677.612 1289.89
   vertex -3883.93 487.574 1199.52
   vertex -3883.93 472.231 1386.99
  endloop
 endfacet
 facet normal -1 0 -0
  outer loop
   vertex -3883.93 252.429 1316.43
   vertex -3883.93 472.231 1386.99
   vertex -3883.93 487.574 1199.52
  endloop
 endfacet
 facet normal -1 0 0
  outer loop
   vertex -3883.93 472.231 1386.99
   vertex -3883.93 252.429 1316.43
   vertex -3883.93 244.345 1458.12
  endloop
 endfacet
 facet normal -1 0 -0
  outer loop
   vertex -3883.93 -0.000844048 1403.95
   vertex -3883.93 244.345 1458.12
   vertex -3883.93 252.429 1316.43
  endloop
 endfacet
 facet normal -1 0 0
  outer loop
   vertex -3883.93 -244.346 1458.12
   vertex -3883.93 0.000517724 1501.19
   vertex -3883.93 -0.000844048 1403.95
  endloop
 endfacet
 facet normal -1 0 0
  outer loop
   vertex -3883.93 244.345 1458.12
   vertex -3883.93 -0.000844048 1403.95
   vertex -3883.93 0.000517724 1501.19
  endloop
 endfacet
 facet normal -1 0 0
  outer loop
   vertex -3883.93 -395.447 1475.83
   vertex -3883.93 -199.43 1514.82
   vertex -3883.93 -244.346 1458.12
  endloop
 endfacet
 facet normal -1 0 0
  outer loop
   vertex -3883.93 0.000517724 1501.19
   vertex -3883.93 -244.346 1458.12
   vertex -3883.93 -199.43 1514.82
  endloop
 endfacet
 facet normal -1 0 0
  outer loop
   vertex -3883.93 1514.82 199.43
   vertex -3883.93 1527.89 3.3926e-13
   vertex -3883.93 1501.19 0.000517724
  endloop
 endfacet
 facet normal -1 -0 0
  outer loop
   vertex -3883.93 1501.19 0.000517724
   vertex -3883.93 1527.89 3.3926e-13
   vertex -3883.93 1514.82 -199.43
  endloop
 endfacet
 facet normal -1 0 0
  outer loop
   vertex -3883.93 1475.83 395.447
   vertex -3883.93 1514.82 199.43
   vertex -3883.93 1458.12 244.345
  endloop
 endfacet
 facet normal -1 0 0
  outer loop
   vertex -3883.93 1501.19 0.000517724
   vertex -3883.93 1458.12 244.345
   vertex -3883.93 1514.82 199.43
  endloop
 endfacet
 facet normal -1 0 0
  outer loop
   vertex -3883.93 1411.59 584.698
   vertex -3883.93 1475.83 395.447
   vertex -3883.93 1386.99 472.231
  endloop
 endfacet
 facet normal -1 0 0
  outer loop
   vertex -3883.93 1458.12 244.345
   vertex -3883.93 1386.99 472.231
   vertex -3883.93 1475.83 395.447
  endloop
 endfacet
 facet normal -1 0 0
  outer loop
   vertex -3883.93 1323.19 763.945
   vertex -3883.93 1411.59 584.698
   vertex -3883.93 1289.89 677.612
  endloop
 endfacet
 facet normal -1 0 0
  outer loop
   vertex -3883.93 1386.99 472.231
   vertex -3883.93 1289.89 677.612
   vertex -3883.93 1411.59 584.698
  endloop
 endfacet
 facet normal -1 0 0
  outer loop
   vertex -3883.93 1212.16 930.12
   vertex -3883.93 1323.19 763.945
   vertex -3883.93 1168.9 861.882
  endloop
 endfacet
 facet normal -1 0 0
  outer loop
   vertex -3883.93 1289.89 677.612
   vertex -3883.93 1168.9 861.882
   vertex -3883.93 1323.19 763.945
  endloop
 endfacet
 facet normal -1 0 0
  outer loop
   vertex -3883.93 1168.9 861.882
   vertex -3883.93 1025.8 1025.8
   vertex -3883.93 1212.16 930.12
  endloop
 endfacet
 facet normal -1 0 0
  outer loop
   vertex -3883.93 1212.16 930.12
   vertex -3883.93 1025.8 1025.8
   vertex -3883.93 1080.38 1080.38
  endloop
 endfacet
 facet normal -1 0 -0
  outer loop
   vertex -3883.93 861.882 1168.9
   vertex -3883.93 930.12 1212.16
   vertex -3883.93 1025.8 1025.8
  endloop
 endfacet
 facet normal -1 0 0
  outer loop
   vertex -3883.93 1025.8 1025.8
   vertex -3883.93 930.12 1212.16
   vertex -3883.93 1080.38 1080.38
  endloop
 endfacet
 facet normal -1 0 0
  outer loop
   vertex -3883.93 930.12 1212.16
   vertex -3883.93 861.882 1168.9
   vertex -3883.93 763.945 1323.19
  endloop
 endfacet
 facet normal -1 0 -0
  outer loop
   vertex -3883.93 677.612 1289.89
   vertex -3883.93 763.945 1323.19
   vertex -3883.93 861.882 1168.9
  endloop
 endfacet
 facet normal -1 0 0
  outer loop
   vertex -3883.93 763.945 1323.19
   vertex -3883.93 677.612 1289.89
   vertex -3883.93 584.698 1411.59
  endloop
 endfacet
 facet normal -1 0 -0
  outer loop
   vertex -3883.93 472.231 1386.99
   vertex -3883.93 584.698 1411.59
   vertex -3883.93 677.612 1289.89
  endloop
 endfacet
 facet normal -1 0 0
  outer loop
   vertex -3883.93 584.698 1411.59
   vertex -3883.93 472.231 1386.99
   vertex -3883.93 395.447 1475.83
  endloop
 endfacet
 facet normal -1 0 -0
  outer loop
   vertex -3883.93 244.345 1458.12
   vertex -3883.93 395.447 1475.83
   vertex -3883.93 472.231 1386.99
  endloop
 endfacet
 facet normal -1 0 0
  outer loop
   vertex -3883.93 395.447 1475.83
   vertex -3883.93 244.345 1458.12
   vertex -3883.93 199.43 1514.82
  endloop
 endfacet
 facet normal -1 0 -0
  outer loop
   vertex -3883.93 0.000517724 1501.19
   vertex -3883.93 199.43 1514.82
   vertex -3883.93 244.345 1458.12
  endloop
 endfacet
 facet normal -1 0 0
  outer loop
   vertex -3883.93 199.43 1514.82
   vertex -3883.93 0.000517724 1501.19
   vertex -3883.93 -1.87113e-13 1527.89
  endloop
 endfacet
 facet normal -1 0 -0
  outer loop
   vertex -3883.93 -199.43 1514.82
   vertex -3883.93 -1.87113e-13 1527.89
   vertex -3883.93 0.000517724 1501.19
  endloop
 endfacet
endsolid
