solid ascii
 facet normal 0.866021 -0.500008 0
  outer loop
   vertex 30520.7 -9019.29 -1514.82
   vertex 30421 -9192 -1501.19
   vertex 30421 -9192 -1527.89
  endloop
 endfacet
 facet normal 0.866021 -0.500008 0
  outer loop
   vertex 30321.3 -9364.71 -1514.82
   vertex 30421 -9192 -1527.89
   vertex 30421 -9192 -1501.19
  endloop
 endfacet
 facet normal 0.866019 -0.500012 1.73298e-05
  outer loop
   vertex 30618.7 -8849.54 -1475.83
   vertex 30543.1 -8980.39 -1458.12
   vertex 30520.7 -9019.29 -1514.82
  endloop
 endfacet
 facet normal 0.866021 -0.500007 1.3028e-05
  outer loop
   vertex 30421 -9192 -1501.19
   vertex 30520.7 -9019.29 -1514.82
   vertex 30543.1 -8980.39 -1458.12
  endloop
 endfacet
 facet normal 0.866021 -0.500007 8.33137e-06
  outer loop
   vertex 30713.3 -8685.64 -1411.59
   vertex 30657.1 -8783.04 -1386.99
   vertex 30618.7 -8849.54 -1475.83
  endloop
 endfacet
 facet normal 0.866018 -0.500012 1.30528e-05
  outer loop
   vertex 30543.1 -8980.39 -1458.12
   vertex 30618.7 -8849.54 -1475.83
   vertex 30657.1 -8783.04 -1386.99
  endloop
 endfacet
 facet normal 0.866019 -0.500012 2.0115e-06
  outer loop
   vertex 30803 -8530.41 -1323.19
   vertex 30759.8 -8605.18 -1289.89
   vertex 30713.3 -8685.64 -1411.59
  endloop
 endfacet
 facet normal 0.86602 -0.500009 -4.36568e-07
  outer loop
   vertex 30759.8 -8605.18 -1289.89
   vertex 30657.1 -8783.04 -1386.99
   vertex 30713.3 -8685.64 -1411.59
  endloop
 endfacet
 facet normal 0.866022 -0.500006 -6.45026e-06
  outer loop
   vertex 30886 -8386.5 -1212.16
   vertex 30851.9 -8445.59 -1168.9
   vertex 30803 -8530.41 -1323.19
  endloop
 endfacet
 facet normal 0.866018 -0.500013 -1.27086e-06
  outer loop
   vertex 30759.8 -8605.18 -1289.89
   vertex 30803 -8530.41 -1323.19
   vertex 30851.9 -8445.59 -1168.9
  endloop
 endfacet
 facet normal 0.866024 -0.500003 -3.09487e-07
  outer loop
   vertex 30851.9 -8445.59 -1168.9
   vertex 30886 -8386.5 -1212.16
   vertex 30933.9 -8303.64 -1025.8
  endloop
 endfacet
 facet normal 0.866022 -0.500006 1.48622e-06
  outer loop
   vertex 30961.2 -8256.37 -1080.38
   vertex 30933.9 -8303.64 -1025.8
   vertex 30886 -8386.5 -1212.16
  endloop
 endfacet
 facet normal 0.866019 -0.50001 6.18358e-06
  outer loop
   vertex 31005.4 -8179.71 -861.882
   vertex 30933.9 -8303.64 -1025.8
   vertex 31027.1 -8142.25 -930.12
  endloop
 endfacet
 facet normal 0.866021 -0.500007 -5.44925e-07
  outer loop
   vertex 30961.2 -8256.37 -1080.38
   vertex 31027.1 -8142.25 -930.12
   vertex 30933.9 -8303.64 -1025.8
  endloop
 endfacet
 facet normal 0.866019 -0.50001 6.22786e-06
  outer loop
   vertex 31027.1 -8142.25 -930.12
   vertex 31082.6 -8046.09 -763.945
   vertex 31005.4 -8179.71 -861.882
  endloop
 endfacet
 facet normal 0.866023 -0.500004 -5.05322e-06
  outer loop
   vertex 31065.9 -8074.93 -677.612
   vertex 31005.4 -8179.71 -861.882
   vertex 31082.6 -8046.09 -763.945
  endloop
 endfacet
 facet normal 0.866021 -0.500008 -6.73315e-06
  outer loop
   vertex 31082.6 -8046.09 -763.945
   vertex 31126.8 -7969.54 -584.698
   vertex 31065.9 -8074.93 -677.612
  endloop
 endfacet
 facet normal 0.866018 -0.500013 7.23154e-07
  outer loop
   vertex 31114.5 -7990.84 -472.231
   vertex 31065.9 -8074.93 -677.612
   vertex 31126.8 -7969.54 -584.698
  endloop
 endfacet
 facet normal 0.866022 -0.500007 2.29139e-06
  outer loop
   vertex 31126.8 -7969.54 -584.698
   vertex 31158.9 -7913.9 -395.447
   vertex 31114.5 -7990.84 -472.231
  endloop
 endfacet
 facet normal 0.866024 -0.500002 -4.20219e-06
  outer loop
   vertex 31158.9 -7913.9 -395.447
   vertex 31150 -7929.24 -244.345
   vertex 31114.5 -7990.84 -472.231
  endloop
 endfacet
 facet normal 0.866023 -0.500004 -4.49274e-06
  outer loop
   vertex 31158.9 -7913.9 -395.447
   vertex 31178.4 -7880.14 -199.43
   vertex 31150 -7929.24 -244.345
  endloop
 endfacet
 facet normal 0.866022 -0.500005 -2.34625e-06
  outer loop
   vertex 31171.6 -7891.94 -0.000517724
   vertex 31150 -7929.24 -244.345
   vertex 31178.4 -7880.14 -199.43
  endloop
 endfacet
 facet normal 0.866043 -0.49997 4.53763e-07
  outer loop
   vertex 31178.4 -7880.14 -199.43
   vertex 31184.9 -7868.82 -2.12037e-13
   vertex 31171.6 -7891.94 -0.000517724
  endloop
 endfacet
 facet normal 0.866043 -0.49997 -4.53762e-07
  outer loop
   vertex 31178.4 -7880.14 199.43
   vertex 31171.6 -7891.94 -0.000517724
   vertex 31184.9 -7868.82 -2.12037e-13
  endloop
 endfacet
 facet normal 0.866022 -0.500006 1.80822e-05
  outer loop
   vertex 30223.2 -9534.47 -1475.83
   vertex 30321.3 -9364.71 -1514.82
   vertex 30298.8 -9403.61 -1458.12
  endloop
 endfacet
 facet normal 0.86602 -0.500009 1.52715e-05
  outer loop
   vertex 30421 -9192 -1501.19
   vertex 30298.8 -9403.61 -1458.12
   vertex 30321.3 -9364.71 -1514.82
  endloop
 endfacet
 facet normal 0.866019 -0.500012 -5.02159e-06
  outer loop
   vertex 30298.8 -9403.61 -1458.12
   vertex 30421 -9192 -1501.19
   vertex 30421 -9192 -1403.95
  endloop
 endfacet
 facet normal 0.866023 -0.500004 -5.02152e-06
  outer loop
   vertex 30543.1 -8980.39 -1458.12
   vertex 30421 -9192 -1403.95
   vertex 30421 -9192 -1501.19
  endloop
 endfacet
 facet normal 0.866022 -0.500006 -8.85582e-06
  outer loop
   vertex 30657.1 -8783.04 -1386.99
   vertex 30547.2 -8973.39 -1316.43
   vertex 30543.1 -8980.39 -1458.12
  endloop
 endfacet
 facet normal 0.866022 -0.500005 -8.93605e-06
  outer loop
   vertex 30421 -9192 -1403.95
   vertex 30543.1 -8980.39 -1458.12
   vertex 30547.2 -8973.39 -1316.43
  endloop
 endfacet
 facet normal 0.866021 -0.500008 -4.47721e-06
  outer loop
   vertex 30759.8 -8605.18 -1289.89
   vertex 30664.8 -8769.75 -1199.52
   vertex 30657.1 -8783.04 -1386.99
  endloop
 endfacet
 facet normal 0.866022 -0.500005 -4.69962e-06
  outer loop
   vertex 30547.2 -8973.39 -1316.43
   vertex 30657.1 -8783.04 -1386.99
   vertex 30664.8 -8769.75 -1199.52
  endloop
 endfacet
 facet normal 0.866017 -0.500015 1.4538e-06
  outer loop
   vertex 30851.9 -8445.59 -1168.9
   vertex 30771 -8585.68 -1056.58
   vertex 30759.8 -8605.18 -1289.89
  endloop
 endfacet
 facet normal 0.866022 -0.500005 4.39529e-07
  outer loop
   vertex 30664.8 -8769.75 -1199.52
   vertex 30759.8 -8605.18 -1289.89
   vertex 30771 -8585.68 -1056.58
  endloop
 endfacet
 facet normal 0.866018 -0.500013 4.05374e-06
  outer loop
   vertex 30771 -8585.68 -1056.58
   vertex 30851.9 -8445.59 -1168.9
   vertex 30865.9 -8421.42 -889.79
  endloop
 endfacet
 facet normal 0.866022 -0.500005 3.15243e-06
  outer loop
   vertex 30933.9 -8303.64 -1025.8
   vertex 30865.9 -8421.42 -889.79
   vertex 30851.9 -8445.59 -1168.9
  endloop
 endfacet
 facet normal 0.866022 -0.500006 -5.15781e-06
  outer loop
   vertex 30949.3 -8276.99 -700.126
   vertex 30865.9 -8421.42 -889.79
   vertex 31005.4 -8179.71 -861.882
  endloop
 endfacet
 facet normal 0.866022 -0.500006 1.9924e-06
  outer loop
   vertex 31005.4 -8179.71 -861.882
   vertex 30865.9 -8421.42 -889.79
   vertex 30933.9 -8303.64 -1025.8
  endloop
 endfacet
 facet normal 0.866023 -0.500005 -4.52547e-06
  outer loop
   vertex 31005.4 -8179.71 -861.882
   vertex 31065.9 -8074.93 -677.612
   vertex 30949.3 -8276.99 -700.126
  endloop
 endfacet
 facet normal 0.866022 -0.500005 -1.34018e-06
  outer loop
   vertex 31020.7 -8153.19 -487.574
   vertex 30949.3 -8276.99 -700.126
   vertex 31065.9 -8074.93 -677.612
  endloop
 endfacet
 facet normal 0.866021 -0.500007 -2.42402e-06
  outer loop
   vertex 31065.9 -8074.93 -677.612
   vertex 31114.5 -7990.84 -472.231
   vertex 31020.7 -8153.19 -487.574
  endloop
 endfacet
 facet normal 0.866021 -0.500007 2.94998e-06
  outer loop
   vertex 31079.2 -8051.95 -252.429
   vertex 31020.7 -8153.19 -487.574
   vertex 31114.5 -7990.84 -472.231
  endloop
 endfacet
 facet normal 0.866017 -0.500014 3.62833e-07
  outer loop
   vertex 31114.5 -7990.84 -472.231
   vertex 31150 -7929.24 -244.345
   vertex 31079.2 -8051.95 -252.429
  endloop
 endfacet
 facet normal 0.866017 -0.500014 5.55835e-07
  outer loop
   vertex 31123 -7976.16 0.000844048
   vertex 31079.2 -8051.95 -252.429
   vertex 31150 -7929.24 -244.345
  endloop
 endfacet
 facet normal 0.866016 -0.500017 -9.64876e-07
  outer loop
   vertex 31150 -7929.24 244.346
   vertex 31123 -7976.16 0.000844048
   vertex 31171.6 -7891.94 -0.000517724
  endloop
 endfacet
 facet normal 0.866016 -0.500017 -3.4318e-08
  outer loop
   vertex 31171.6 -7891.94 -0.000517724
   vertex 31123 -7976.16 0.000844048
   vertex 31150 -7929.24 -244.345
  endloop
 endfacet
 facet normal 0.866026 -0.499999 5.50947e-06
  outer loop
   vertex 31158.9 -7913.9 395.447
   vertex 31150 -7929.24 244.346
   vertex 31178.4 -7880.14 199.43
  endloop
 endfacet
 facet normal 0.866024 -0.500002 2.06699e-06
  outer loop
   vertex 31171.6 -7891.94 -0.000517724
   vertex 31178.4 -7880.14 199.43
   vertex 31150 -7929.24 244.346
  endloop
 endfacet
 facet normal 0.866024 -0.500002 1.08339e-05
  outer loop
   vertex 30128.6 -9698.36 -1411.59
   vertex 30223.2 -9534.47 -1475.83
   vertex 30184.9 -9600.97 -1386.98
  endloop
 endfacet
 facet normal 0.866023 -0.500005 8.02921e-06
  outer loop
   vertex 30298.8 -9403.61 -1458.12
   vertex 30184.9 -9600.97 -1386.98
   vertex 30223.2 -9534.47 -1475.83
  endloop
 endfacet
 facet normal 0.866019 -0.500011 -1.36997e-05
  outer loop
   vertex 30184.9 -9600.97 -1386.98
   vertex 30298.8 -9403.61 -1458.12
   vertex 30294.8 -9410.61 -1316.43
  endloop
 endfacet
 facet normal 0.86602 -0.50001 -1.36769e-05
  outer loop
   vertex 30421 -9192 -1403.95
   vertex 30294.8 -9410.61 -1316.43
   vertex 30298.8 -9403.61 -1458.12
  endloop
 endfacet
 facet normal 0.866021 -0.500008 0
  outer loop
   vertex 30547.2 -8973.39 -1316.43
   vertex 30421 -9192 -1206.42
   vertex 30421 -9192 -1403.95
  endloop
 endfacet
 facet normal 0.866022 -0.500006 0
  outer loop
   vertex 30294.8 -9410.61 -1316.43
   vertex 30421 -9192 -1403.95
   vertex 30421 -9192 -1206.42
  endloop
 endfacet
 facet normal 0.866021 -0.500008 3.03891e-06
  outer loop
   vertex 30664.8 -8769.75 -1199.52
   vertex 30546.1 -8975.22 -1063.75
   vertex 30547.2 -8973.39 -1316.43
  endloop
 endfacet
 facet normal 0.866022 -0.500007 3.05688e-06
  outer loop
   vertex 30547.2 -8973.39 -1316.43
   vertex 30546.1 -8975.22 -1063.75
   vertex 30421 -9192 -1206.42
  endloop
 endfacet
 facet normal 0.866021 -0.500008 3.11541e-06
  outer loop
   vertex 30546.1 -8975.22 -1063.75
   vertex 30664.8 -8769.75 -1199.52
   vertex 30663.6 -8771.78 -893.87
  endloop
 endfacet
 facet normal 0.866021 -0.500007 3.12777e-06
  outer loop
   vertex 30771 -8585.68 -1056.58
   vertex 30663.6 -8771.78 -893.87
   vertex 30664.8 -8769.75 -1199.52
  endloop
 endfacet
 facet normal 0.866019 -0.50001 -1.98525e-06
  outer loop
   vertex 30663.6 -8771.78 -893.87
   vertex 30771 -8585.68 -1056.58
   vertex 30771.2 -8585.49 -700.348
  endloop
 endfacet
 facet normal 0.866021 -0.500008 -1.98667e-06
  outer loop
   vertex 30865.9 -8421.42 -889.79
   vertex 30771.2 -8585.49 -700.348
   vertex 30771 -8585.68 -1056.58
  endloop
 endfacet
 facet normal 0.86602 -0.500009 5.43972e-06
  outer loop
   vertex 30867.9 -8417.89 -485.236
   vertex 30771.2 -8585.49 -700.348
   vertex 30949.3 -8276.99 -700.126
  endloop
 endfacet
 facet normal 0.86602 -0.500009 -2.14991e-06
  outer loop
   vertex 30949.3 -8276.99 -700.126
   vertex 30771.2 -8585.49 -700.348
   vertex 30865.9 -8421.42 -889.79
  endloop
 endfacet
 facet normal 0.866019 -0.500011 -1.66198e-06
  outer loop
   vertex 30952.9 -8270.77 -250.321
   vertex 30867.9 -8417.89 -485.236
   vertex 31020.7 -8153.19 -487.574
  endloop
 endfacet
 facet normal 0.866019 -0.500011 3.28392e-06
  outer loop
   vertex 30949.3 -8276.99 -700.126
   vertex 31020.7 -8153.19 -487.574
   vertex 30867.9 -8417.89 -485.236
  endloop
 endfacet
 facet normal 0.866022 -0.500006 1.9218e-06
  outer loop
   vertex 31020.7 -8153.19 -487.574
   vertex 31079.2 -8051.95 -252.429
   vertex 30952.9 -8270.77 -250.321
  endloop
 endfacet
 facet normal 0.866022 -0.500006 4.55742e-08
  outer loop
   vertex 31024.2 -8147.22 0.00146168
   vertex 30952.9 -8270.77 -250.321
   vertex 31079.2 -8051.95 -252.429
  endloop
 endfacet
 facet normal 0.86602 -0.500009 -3.09444e-07
  outer loop
   vertex 31079.2 -8051.95 252.431
   vertex 31024.2 -8147.22 0.00146168
   vertex 31123 -7976.16 0.000844048
  endloop
 endfacet
 facet normal 0.86602 -0.500009 -1.62491e-06
  outer loop
   vertex 31079.2 -8051.95 -252.429
   vertex 31123 -7976.16 0.000844048
   vertex 31024.2 -8147.22 0.00146168
  endloop
 endfacet
 facet normal 0.866018 -0.500013 -1.99677e-06
  outer loop
   vertex 31114.5 -7990.85 472.233
   vertex 31079.2 -8051.95 252.431
   vertex 31150 -7929.24 244.346
  endloop
 endfacet
 facet normal 0.866018 -0.500013 -1.9198e-06
  outer loop
   vertex 31123 -7976.16 0.000844048
   vertex 31150 -7929.24 244.346
   vertex 31079.2 -8051.95 252.431
  endloop
 endfacet
 facet normal 0.866027 -0.499997 1.66896e-06
  outer loop
   vertex 31126.8 -7969.54 584.698
   vertex 31114.5 -7990.85 472.233
   vertex 31158.9 -7913.9 395.447
  endloop
 endfacet
 facet normal 0.866029 -0.499994 4.79204e-06
  outer loop
   vertex 31158.9 -7913.9 395.447
   vertex 31114.5 -7990.85 472.233
   vertex 31150 -7929.24 244.346
  endloop
 endfacet
 facet normal 0.866021 -0.500008 7.40931e-06
  outer loop
   vertex 30039 -9853.59 -1323.19
   vertex 30128.6 -9698.36 -1411.59
   vertex 30082.2 -9778.83 -1289.88
  endloop
 endfacet
 facet normal 0.866024 -0.500002 1.24686e-05
  outer loop
   vertex 30184.9 -9600.97 -1386.98
   vertex 30082.2 -9778.83 -1289.88
   vertex 30128.6 -9698.36 -1411.59
  endloop
 endfacet
 facet normal 0.866022 -0.500006 1.97006e-06
  outer loop
   vertex 30082.2 -9778.83 -1289.88
   vertex 30184.9 -9600.97 -1386.98
   vertex 30177.2 -9614.25 -1199.52
  endloop
 endfacet
 facet normal 0.866017 -0.500015 1.19356e-06
  outer loop
   vertex 30294.8 -9410.61 -1316.43
   vertex 30177.2 -9614.25 -1199.52
   vertex 30184.9 -9600.97 -1386.98
  endloop
 endfacet
 facet normal 0.866018 -0.500014 3.70452e-06
  outer loop
   vertex 30177.2 -9614.25 -1199.52
   vertex 30294.8 -9410.61 -1316.43
   vertex 30295.8 -9408.79 -1063.75
  endloop
 endfacet
 facet normal 0.866021 -0.500007 3.64545e-06
  outer loop
   vertex 30421 -9192 -1206.42
   vertex 30295.8 -9408.79 -1063.75
   vertex 30294.8 -9410.61 -1316.43
  endloop
 endfacet
 facet normal 0.86602 -0.500009 0
  outer loop
   vertex 30295.8 -9408.79 -1063.75
   vertex 30421 -9192 -1206.42
   vertex 30421 -9192 -893.407
  endloop
 endfacet
 facet normal 0.866022 -0.500005 0
  outer loop
   vertex 30421 -9192 -893.407
   vertex 30421 -9192 -1206.42
   vertex 30546.1 -8975.22 -1063.75
  endloop
 endfacet
 facet normal 0.866023 -0.500005 8.09795e-07
  outer loop
   vertex 30421 -9192 -893.407
   vertex 30546.1 -8975.22 -1063.75
   vertex 30544 -8978.93 -696.85
  endloop
 endfacet
 facet normal 0.866021 -0.500007 7.78143e-07
  outer loop
   vertex 30546.1 -8975.22 -1063.75
   vertex 30663.6 -8771.78 -893.87
   vertex 30544 -8978.93 -696.85
  endloop
 endfacet
 facet normal 0.866021 -0.500008 -1.23386e-06
  outer loop
   vertex 30544 -8978.93 -696.85
   vertex 30663.6 -8771.78 -893.87
   vertex 30660.9 -8776.53 -479.747
  endloop
 endfacet
 facet normal 0.866019 -0.500011 -1.27269e-06
  outer loop
   vertex 30771.2 -8585.49 -700.348
   vertex 30660.9 -8776.53 -479.747
   vertex 30663.6 -8771.78 -893.87
  endloop
 endfacet
 facet normal 0.866021 -0.500007 3.88634e-07
  outer loop
   vertex 30769.4 -8588.52 -246.04
   vertex 30660.9 -8776.53 -479.747
   vertex 30867.9 -8417.89 -485.236
  endloop
 endfacet
 facet normal 0.866022 -0.500007 3.56767e-06
  outer loop
   vertex 30771.2 -8585.49 -700.348
   vertex 30867.9 -8417.89 -485.236
   vertex 30660.9 -8776.53 -479.747
  endloop
 endfacet
 facet normal 0.86602 -0.50001 -1.93819e-06
  outer loop
   vertex 30867.7 -8418.29 0.00116989
   vertex 30769.4 -8588.52 -246.04
   vertex 30952.9 -8270.77 -250.321
  endloop
 endfacet
 facet normal 0.86602 -0.50001 -2.59936e-06
  outer loop
   vertex 30867.9 -8417.89 -485.236
   vertex 30952.9 -8270.77 -250.321
   vertex 30769.4 -8588.52 -246.04
  endloop
 endfacet
 facet normal 0.866022 -0.500007 -2.62513e-06
  outer loop
   vertex 30952.9 -8270.77 250.324
   vertex 30867.7 -8418.29 0.00116989
   vertex 31024.2 -8147.22 0.00146168
  endloop
 endfacet
 facet normal 0.866022 -0.500007 6.74501e-07
  outer loop
   vertex 30952.9 -8270.77 -250.321
   vertex 31024.2 -8147.22 0.00146168
   vertex 30867.7 -8418.29 0.00116989
  endloop
 endfacet
 facet normal 0.866022 -0.500006 5.24172e-06
  outer loop
   vertex 31020.7 -8153.19 487.577
   vertex 30952.9 -8270.77 250.324
   vertex 31079.2 -8051.95 252.431
  endloop
 endfacet
 facet normal 0.866022 -0.500006 -1.98698e-06
  outer loop
   vertex 31024.2 -8147.22 0.00146168
   vertex 31079.2 -8051.95 252.431
   vertex 30952.9 -8270.77 250.324
  endloop
 endfacet
 facet normal 0.866016 -0.500016 -2.65401e-06
  outer loop
   vertex 31065.9 -8074.94 677.614
   vertex 31020.7 -8153.19 487.577
   vertex 31114.5 -7990.85 472.233
  endloop
 endfacet
 facet normal 0.866016 -0.500016 -8.02772e-07
  outer loop
   vertex 31079.2 -8051.95 252.431
   vertex 31114.5 -7990.85 472.233
   vertex 31020.7 -8153.19 487.577
  endloop
 endfacet
 facet normal 0.866026 -0.5 1.14933e-05
  outer loop
   vertex 31082.6 -8046.09 763.945
   vertex 31065.9 -8074.94 677.614
   vertex 31126.8 -7969.54 584.698
  endloop
 endfacet
 facet normal 0.866023 -0.500005 3.72931e-06
  outer loop
   vertex 31114.5 -7990.85 472.233
   vertex 31126.8 -7969.54 584.698
   vertex 31065.9 -8074.94 677.614
  endloop
 endfacet
 facet normal 0.86602 -0.500009 9.54862e-07
  outer loop
   vertex 29955.9 -9997.51 -1212.16
   vertex 30039 -9853.59 -1323.19
   vertex 29990 -9938.41 -1168.9
  endloop
 endfacet
 facet normal 0.866022 -0.500006 2.95075e-06
  outer loop
   vertex 30082.2 -9778.83 -1289.88
   vertex 29990 -9938.41 -1168.9
   vertex 30039 -9853.59 -1323.19
  endloop
 endfacet
 facet normal 0.866021 -0.500007 1.45339e-06
  outer loop
   vertex 29990 -9938.41 -1168.9
   vertex 30082.2 -9778.83 -1289.88
   vertex 30070.9 -9798.33 -1056.57
  endloop
 endfacet
 facet normal 0.866022 -0.500006 1.56152e-06
  outer loop
   vertex 30177.2 -9614.25 -1199.52
   vertex 30070.9 -9798.33 -1056.57
   vertex 30082.2 -9778.83 -1289.88
  endloop
 endfacet
 facet normal 0.866019 -0.500011 -1.49504e-06
  outer loop
   vertex 30295.8 -9408.79 -1063.75
   vertex 30178.4 -9612.23 -893.87
   vertex 30177.2 -9614.25 -1199.52
  endloop
 endfacet
 facet normal 0.866021 -0.500008 -1.52094e-06
  outer loop
   vertex 30070.9 -9798.33 -1056.57
   vertex 30177.2 -9614.25 -1199.52
   vertex 30178.4 -9612.23 -893.87
  endloop
 endfacet
 facet normal 0.866019 -0.50001 1.92974e-06
  outer loop
   vertex 30421 -9192 -893.407
   vertex 30298 -9405.08 -696.85
   vertex 30295.8 -9408.79 -1063.75
  endloop
 endfacet
 facet normal 0.86602 -0.500009 1.90938e-06
  outer loop
   vertex 30178.4 -9612.23 -893.87
   vertex 30295.8 -9408.79 -1063.75
   vertex 30298 -9405.08 -696.85
  endloop
 endfacet
 facet normal 0.866019 -0.500011 1.1735e-06
  outer loop
   vertex 30298 -9405.08 -696.85
   vertex 30421 -9192 -893.407
   vertex 30421 -9192 -477.308
  endloop
 endfacet
 facet normal 0.866023 -0.500005 1.17348e-06
  outer loop
   vertex 30544 -8978.93 -696.85
   vertex 30421 -9192 -477.308
   vertex 30421 -9192 -893.407
  endloop
 endfacet
 facet normal 0.866021 -0.500008 -2.97458e-06
  outer loop
   vertex 30421 -9192 -477.308
   vertex 30544 -8978.93 -696.85
   vertex 30542.5 -8981.45 -243.131
  endloop
 endfacet
 facet normal 0.866021 -0.500007 -2.96669e-06
  outer loop
   vertex 30660.9 -8776.53 -479.747
   vertex 30542.5 -8981.45 -243.131
   vertex 30544 -8978.93 -696.85
  endloop
 endfacet
 facet normal 0.866022 -0.500005 1.9779e-07
  outer loop
   vertex 30659.6 -8778.64 0.000573858
   vertex 30542.5 -8981.45 -243.131
   vertex 30769.4 -8588.52 -246.04
  endloop
 endfacet
 facet normal 0.866022 -0.500005 -1.10248e-06
  outer loop
   vertex 30660.9 -8776.53 -479.747
   vertex 30769.4 -8588.52 -246.04
   vertex 30542.5 -8981.45 -243.131
  endloop
 endfacet
 facet normal 0.86602 -0.500009 -3.13508e-06
  outer loop
   vertex 30769.4 -8588.52 -246.04
   vertex 30867.7 -8418.29 0.00116989
   vertex 30659.6 -8778.64 0.000573858
  endloop
 endfacet
 facet normal 0.86602 -0.500009 3.13508e-06
  outer loop
   vertex 30659.6 -8778.64 0.000573858
   vertex 30867.7 -8418.29 0.00116989
   vertex 30769.4 -8588.52 246.042
  endloop
 endfacet
 facet normal 0.866019 -0.500011 8.84818e-07
  outer loop
   vertex 30867.7 -8418.29 0.00116989
   vertex 30952.9 -8270.77 250.324
   vertex 30769.4 -8588.52 246.042
  endloop
 endfacet
 facet normal 0.866019 -0.500011 3.70619e-06
  outer loop
   vertex 30867.9 -8417.89 485.238
   vertex 30769.4 -8588.52 246.042
   vertex 30952.9 -8270.77 250.324
  endloop
 endfacet
 facet normal 0.866021 -0.500008 6.56011e-06
  outer loop
   vertex 30952.9 -8270.77 250.324
   vertex 31020.7 -8153.19 487.577
   vertex 30867.9 -8417.89 485.238
  endloop
 endfacet
 facet normal 0.866021 -0.500008 -6.50167e-07
  outer loop
   vertex 30949.3 -8276.99 700.128
   vertex 30867.9 -8417.89 485.238
   vertex 31020.7 -8153.19 487.577
  endloop
 endfacet
 facet normal 0.866018 -0.500012 1.2436e-07
  outer loop
   vertex 31005.4 -8179.71 861.883
   vertex 30949.3 -8276.99 700.128
   vertex 31065.9 -8074.94 677.614
  endloop
 endfacet
 facet normal 0.866018 -0.500013 -4.62649e-06
  outer loop
   vertex 31065.9 -8074.94 677.614
   vertex 30949.3 -8276.99 700.128
   vertex 31020.7 -8153.19 487.577
  endloop
 endfacet
 facet normal 0.866022 -0.500006 -2.55606e-06
  outer loop
   vertex 31027.1 -8142.25 930.12
   vertex 31005.4 -8179.71 861.883
   vertex 31082.6 -8046.09 763.945
  endloop
 endfacet
 facet normal 0.866026 -0.499998 1.08876e-05
  outer loop
   vertex 31065.9 -8074.94 677.614
   vertex 31082.6 -8046.09 763.945
   vertex 31005.4 -8179.71 861.883
  endloop
 endfacet
 facet normal 0.866021 -0.500007 -2.46221e-06
  outer loop
   vertex 29990 -9938.41 -1168.9
   vertex 29908.1 -10080.4 -1025.8
   vertex 29955.9 -9997.51 -1212.16
  endloop
 endfacet
 facet normal 0.866022 -0.500006 -1.48622e-06
  outer loop
   vertex 29880.8 -10127.6 -1080.38
   vertex 29955.9 -9997.51 -1212.16
   vertex 29908.1 -10080.4 -1025.8
  endloop
 endfacet
 facet normal 0.866022 -0.500006 -1.44019e-06
  outer loop
   vertex 30070.9 -9798.33 -1056.57
   vertex 29976.1 -9962.58 -889.791
   vertex 29990 -9938.41 -1168.9
  endloop
 endfacet
 facet normal 0.866022 -0.500007 -1.562e-06
  outer loop
   vertex 29908.1 -10080.4 -1025.8
   vertex 29990 -9938.41 -1168.9
   vertex 29976.1 -9962.58 -889.791
  endloop
 endfacet
 facet normal 0.866021 -0.500007 -2.76075e-06
  outer loop
   vertex 30178.4 -9612.23 -893.87
   vertex 30070.8 -9798.52 -700.348
   vertex 30070.9 -9798.33 -1056.57
  endloop
 endfacet
 facet normal 0.866022 -0.500007 -2.76021e-06
  outer loop
   vertex 30070.9 -9798.33 -1056.57
   vertex 30070.8 -9798.52 -700.348
   vertex 29976.1 -9962.58 -889.791
  endloop
 endfacet
 facet normal 0.866022 -0.500006 -1.70353e-06
  outer loop
   vertex 30298 -9405.08 -696.85
   vertex 30181.1 -9607.47 -479.747
   vertex 30178.4 -9612.23 -893.87
  endloop
 endfacet
 facet normal 0.866022 -0.500006 -1.70139e-06
  outer loop
   vertex 30178.4 -9612.23 -893.87
   vertex 30181.1 -9607.47 -479.747
   vertex 30070.8 -9798.52 -700.348
  endloop
 endfacet
 facet normal 0.86602 -0.500009 -7.43299e-07
  outer loop
   vertex 30421 -9192 -477.308
   vertex 30299.4 -9402.56 -243.132
   vertex 30298 -9405.08 -696.85
  endloop
 endfacet
 facet normal 0.866022 -0.500006 -7.72022e-07
  outer loop
   vertex 30181.1 -9607.47 -479.747
   vertex 30298 -9405.08 -696.85
   vertex 30299.4 -9402.56 -243.132
  endloop
 endfacet
 facet normal 0.86602 -0.500009 0
  outer loop
   vertex 30299.4 -9402.56 -243.132
   vertex 30421 -9192 -477.308
   vertex 30421 -9192 1.31991e-12
  endloop
 endfacet
 facet normal 0.866019 -0.500011 0
  outer loop
   vertex 30542.5 -8981.45 -243.131
   vertex 30421 -9192 1.31991e-12
   vertex 30421 -9192 -477.308
  endloop
 endfacet
 facet normal 0.866021 -0.500008 3.02927e-06
  outer loop
   vertex 30542.5 -8981.45 -243.131
   vertex 30659.6 -8778.64 0.000573858
   vertex 30421 -9192 1.31991e-12
  endloop
 endfacet
 facet normal 0.866021 -0.500008 -1.02094e-06
  outer loop
   vertex 30542.5 -8981.44 243.132
   vertex 30421 -9192 1.31991e-12
   vertex 30659.6 -8778.64 0.000573858
  endloop
 endfacet
 facet normal 0.866022 -0.500006 7.68013e-07
  outer loop
   vertex 30659.6 -8778.64 0.000573858
   vertex 30769.4 -8588.52 246.042
   vertex 30542.5 -8981.44 243.132
  endloop
 endfacet
 facet normal 0.866022 -0.500006 2.18562e-06
  outer loop
   vertex 30660.9 -8776.53 479.747
   vertex 30542.5 -8981.44 243.132
   vertex 30769.4 -8588.52 246.042
  endloop
 endfacet
 facet normal 0.866021 -0.500008 5.93281e-07
  outer loop
   vertex 30769.4 -8588.52 246.042
   vertex 30867.9 -8417.89 485.238
   vertex 30660.9 -8776.53 479.747
  endloop
 endfacet
 facet normal 0.866021 -0.500008 -2.37274e-06
  outer loop
   vertex 30771.2 -8585.49 700.348
   vertex 30660.9 -8776.53 479.747
   vertex 30867.9 -8417.89 485.238
  endloop
 endfacet
 facet normal 0.866021 -0.500007 -1.36215e-06
  outer loop
   vertex 30867.9 -8417.89 485.238
   vertex 30949.3 -8276.99 700.128
   vertex 30771.2 -8585.49 700.348
  endloop
 endfacet
 facet normal 0.866021 -0.500007 -2.43155e-06
  outer loop
   vertex 30865.9 -8421.42 889.791
   vertex 30771.2 -8585.49 700.348
   vertex 30949.3 -8276.99 700.128
  endloop
 endfacet
 facet normal 0.866021 -0.500008 -3.48418e-06
  outer loop
   vertex 30949.3 -8276.99 700.128
   vertex 31005.4 -8179.71 861.883
   vertex 30865.9 -8421.42 889.791
  endloop
 endfacet
 facet normal 0.866021 -0.500008 -4.01964e-07
  outer loop
   vertex 30933.9 -8303.64 1025.8
   vertex 30865.9 -8421.42 889.791
   vertex 31005.4 -8179.71 861.883
  endloop
 endfacet
 facet normal 0.866021 -0.500008 -7.85091e-07
  outer loop
   vertex 31005.4 -8179.71 861.883
   vertex 31027.1 -8142.25 930.12
   vertex 30933.9 -8303.64 1025.8
  endloop
 endfacet
 facet normal 0.866021 -0.500007 5.44926e-07
  outer loop
   vertex 30961.2 -8256.37 1080.38
   vertex 30933.9 -8303.64 1025.8
   vertex 31027.1 -8142.25 930.12
  endloop
 endfacet
 facet normal 0.866021 -0.500008 -7.85091e-07
  outer loop
   vertex 29836.5 -10204.3 -861.883
   vertex 29814.9 -10241.8 -930.12
   vertex 29908.1 -10080.4 -1025.8
  endloop
 endfacet
 facet normal 0.866021 -0.500007 5.44926e-07
  outer loop
   vertex 29880.8 -10127.6 -1080.38
   vertex 29908.1 -10080.4 -1025.8
   vertex 29814.9 -10241.8 -930.12
  endloop
 endfacet
 facet normal 0.866021 -0.500008 -3.48418e-06
  outer loop
   vertex 29892.7 -10107 -700.128
   vertex 29836.5 -10204.3 -861.883
   vertex 29976.1 -9962.58 -889.791
  endloop
 endfacet
 facet normal 0.866021 -0.500008 -4.01964e-07
  outer loop
   vertex 29908.1 -10080.4 -1025.8
   vertex 29976.1 -9962.58 -889.791
   vertex 29836.5 -10204.3 -861.883
  endloop
 endfacet
 facet normal 0.866021 -0.500007 -1.36215e-06
  outer loop
   vertex 29974 -9966.11 -485.238
   vertex 29892.7 -10107 -700.128
   vertex 30070.8 -9798.52 -700.348
  endloop
 endfacet
 facet normal 0.866021 -0.500007 -2.43155e-06
  outer loop
   vertex 29976.1 -9962.58 -889.791
   vertex 30070.8 -9798.52 -700.348
   vertex 29892.7 -10107 -700.128
  endloop
 endfacet
 facet normal 0.866021 -0.500007 -3.88635e-07
  outer loop
   vertex 30072.5 -9795.49 -246.042
   vertex 29974 -9966.11 -485.238
   vertex 30181.1 -9607.47 -479.747
  endloop
 endfacet
 facet normal 0.866021 -0.500007 -1.32449e-06
  outer loop
   vertex 29974 -9966.11 -485.238
   vertex 30070.8 -9798.52 -700.348
   vertex 30181.1 -9607.47 -479.747
  endloop
 endfacet
 facet normal 0.866022 -0.500006 2.76401e-06
  outer loop
   vertex 30182.3 -9605.36 -0.000573858
   vertex 30072.5 -9795.49 -246.042
   vertex 30299.4 -9402.56 -243.132
  endloop
 endfacet
 facet normal 0.866022 -0.500006 1.08664e-07
  outer loop
   vertex 30181.1 -9607.47 -479.747
   vertex 30299.4 -9402.56 -243.132
   vertex 30072.5 -9795.49 -246.042
  endloop
 endfacet
 facet normal 0.86602 -0.500009 2.00626e-06
  outer loop
   vertex 30299.4 -9402.56 243.131
   vertex 30182.3 -9605.36 -0.000573858
   vertex 30421 -9192 1.31991e-12
  endloop
 endfacet
 facet normal 0.86602 -0.500009 2.07091e-09
  outer loop
   vertex 30182.3 -9605.36 -0.000573858
   vertex 30299.4 -9402.56 -243.132
   vertex 30421 -9192 1.31991e-12
  endloop
 endfacet
 facet normal 0.86602 -0.50001 1.02301e-06
  outer loop
   vertex 30299.4 -9402.56 243.131
   vertex 30421 -9192 1.31991e-12
   vertex 30421 -9192 477.308
  endloop
 endfacet
 facet normal 0.86602 -0.50001 1.02301e-06
  outer loop
   vertex 30542.5 -8981.44 243.132
   vertex 30421 -9192 477.308
   vertex 30421 -9192 1.31991e-12
  endloop
 endfacet
 facet normal 0.866019 -0.50001 3.39095e-07
  outer loop
   vertex 30421 -9192 477.308
   vertex 30542.5 -8981.44 243.132
   vertex 30544 -8978.92 696.85
  endloop
 endfacet
 facet normal 0.866023 -0.500005 2.97793e-07
  outer loop
   vertex 30660.9 -8776.53 479.747
   vertex 30544 -8978.92 696.85
   vertex 30542.5 -8981.44 243.132
  endloop
 endfacet
 facet normal 0.866022 -0.500006 -1.70353e-06
  outer loop
   vertex 30544 -8978.92 696.85
   vertex 30660.9 -8776.53 479.747
   vertex 30663.6 -8771.78 893.87
  endloop
 endfacet
 facet normal 0.866021 -0.500008 -1.67165e-06
  outer loop
   vertex 30771.2 -8585.49 700.348
   vertex 30663.6 -8771.78 893.87
   vertex 30660.9 -8776.53 479.747
  endloop
 endfacet
 facet normal 0.866021 -0.500008 -1.39066e-06
  outer loop
   vertex 30663.6 -8771.78 893.87
   vertex 30771.2 -8585.49 700.348
   vertex 30771 -8585.68 1056.57
  endloop
 endfacet
 facet normal 0.866021 -0.500008 -1.39034e-06
  outer loop
   vertex 30865.9 -8421.42 889.791
   vertex 30771 -8585.68 1056.57
   vertex 30771.2 -8585.49 700.348
  endloop
 endfacet
 facet normal 0.866021 -0.500008 -1.72242e-06
  outer loop
   vertex 30771 -8585.68 1056.57
   vertex 30865.9 -8421.42 889.791
   vertex 30851.9 -8445.59 1168.9
  endloop
 endfacet
 facet normal 0.866022 -0.500007 -1.562e-06
  outer loop
   vertex 30933.9 -8303.64 1025.8
   vertex 30851.9 -8445.59 1168.9
   vertex 30865.9 -8421.42 889.791
  endloop
 endfacet
 facet normal 0.866021 -0.500007 -2.46221e-06
  outer loop
   vertex 30851.9 -8445.59 1168.9
   vertex 30933.9 -8303.64 1025.8
   vertex 30886 -8386.5 1212.16
  endloop
 endfacet
 facet normal 0.866022 -0.500006 -1.48622e-06
  outer loop
   vertex 30961.2 -8256.37 1080.38
   vertex 30886 -8386.5 1212.16
   vertex 30933.9 -8303.64 1025.8
  endloop
 endfacet
 facet normal 0.866022 -0.500007 -1.84075e-06
  outer loop
   vertex 29814.9 -10241.8 -930.12
   vertex 29836.5 -10204.3 -861.883
   vertex 29759.4 -10337.9 -763.945
  endloop
 endfacet
 facet normal 0.866021 -0.500008 -4.36046e-06
  outer loop
   vertex 29776 -10309.1 -677.614
   vertex 29759.4 -10337.9 -763.945
   vertex 29836.5 -10204.3 -861.883
  endloop
 endfacet
 facet normal 0.866021 -0.500007 -3.91267e-06
  outer loop
   vertex 29836.5 -10204.3 -861.883
   vertex 29892.7 -10107 -700.128
   vertex 29776 -10309.1 -677.614
  endloop
 endfacet
 facet normal 0.866021 -0.500007 1.06333e-06
  outer loop
   vertex 29821.2 -10230.8 -487.577
   vertex 29776 -10309.1 -677.614
   vertex 29892.7 -10107 -700.128
  endloop
 endfacet
 facet normal 0.866021 -0.500008 5.98565e-06
  outer loop
   vertex 29889.1 -10113.2 -250.324
   vertex 29821.2 -10230.8 -487.577
   vertex 29974 -9966.11 -485.238
  endloop
 endfacet
 facet normal 0.866021 -0.500008 -4.18559e-08
  outer loop
   vertex 29892.7 -10107 -700.128
   vertex 29974 -9966.11 -485.238
   vertex 29821.2 -10230.8 -487.577
  endloop
 endfacet
 facet normal 0.866019 -0.500011 8.84818e-07
  outer loop
   vertex 29974.3 -9965.71 -0.00116989
   vertex 29889.1 -10113.2 -250.324
   vertex 30072.5 -9795.49 -246.042
  endloop
 endfacet
 facet normal 0.866019 -0.500011 3.70619e-06
  outer loop
   vertex 29974 -9966.11 -485.238
   vertex 30072.5 -9795.49 -246.042
   vertex 29889.1 -10113.2 -250.324
  endloop
 endfacet
 facet normal 0.866021 -0.500008 -4.07256e-06
  outer loop
   vertex 30072.5 -9795.49 246.04
   vertex 29974.3 -9965.71 -0.00116989
   vertex 30182.3 -9605.36 -0.000573858
  endloop
 endfacet
 facet normal 0.866021 -0.500008 4.07256e-06
  outer loop
   vertex 30072.5 -9795.49 -246.042
   vertex 30182.3 -9605.36 -0.000573858
   vertex 29974.3 -9965.71 -0.00116989
  endloop
 endfacet
 facet normal 0.866022 -0.500005 -1.7982e-06
  outer loop
   vertex 30182.3 -9605.36 -0.000573858
   vertex 30299.4 -9402.56 243.131
   vertex 30072.5 -9795.49 246.04
  endloop
 endfacet
 facet normal 0.866022 -0.500005 -1.10248e-06
  outer loop
   vertex 30181.1 -9607.47 479.747
   vertex 30072.5 -9795.49 246.04
   vertex 30299.4 -9402.56 243.131
  endloop
 endfacet
 facet normal 0.866022 -0.500006 -2.96179e-06
  outer loop
   vertex 30421 -9192 477.308
   vertex 30298 -9405.08 696.85
   vertex 30299.4 -9402.56 243.131
  endloop
 endfacet
 facet normal 0.866021 -0.500007 -2.96669e-06
  outer loop
   vertex 30181.1 -9607.47 479.747
   vertex 30299.4 -9402.56 243.131
   vertex 30298 -9405.08 696.85
  endloop
 endfacet
 facet normal 0.86602 -0.50001 0
  outer loop
   vertex 30544 -8978.92 696.85
   vertex 30421 -9192 893.407
   vertex 30421 -9192 477.308
  endloop
 endfacet
 facet normal 0.866023 -0.500004 0
  outer loop
   vertex 30298 -9405.08 696.85
   vertex 30421 -9192 477.308
   vertex 30421 -9192 893.407
  endloop
 endfacet
 facet normal 0.86602 -0.50001 5.88232e-07
  outer loop
   vertex 30421 -9192 893.407
   vertex 30544 -8978.92 696.85
   vertex 30546.1 -8975.22 1063.75
  endloop
 endfacet
 facet normal 0.866021 -0.500008 5.65615e-07
  outer loop
   vertex 30546.1 -8975.22 1063.75
   vertex 30544 -8978.92 696.85
   vertex 30663.6 -8771.78 893.87
  endloop
 endfacet
 facet normal 0.866019 -0.50001 -3.09961e-06
  outer loop
   vertex 30546.1 -8975.22 1063.75
   vertex 30663.6 -8771.78 893.87
   vertex 30664.8 -8769.75 1199.52
  endloop
 endfacet
 facet normal 0.866021 -0.500007 -3.12778e-06
  outer loop
   vertex 30771 -8585.68 1056.57
   vertex 30664.8 -8769.75 1199.52
   vertex 30663.6 -8771.78 893.87
  endloop
 endfacet
 facet normal 0.86602 -0.500009 -7.81072e-07
  outer loop
   vertex 30851.9 -8445.59 1168.9
   vertex 30759.8 -8605.17 1289.88
   vertex 30771 -8585.68 1056.57
  endloop
 endfacet
 facet normal 0.866022 -0.500005 -4.39531e-07
  outer loop
   vertex 30664.8 -8769.75 1199.52
   vertex 30771 -8585.68 1056.57
   vertex 30759.8 -8605.17 1289.88
  endloop
 endfacet
 facet normal 0.86602 -0.500009 9.54862e-07
  outer loop
   vertex 30886 -8386.5 1212.16
   vertex 30803 -8530.41 1323.19
   vertex 30851.9 -8445.59 1168.9
  endloop
 endfacet
 facet normal 0.866022 -0.500006 2.95075e-06
  outer loop
   vertex 30759.8 -8605.17 1289.88
   vertex 30851.9 -8445.59 1168.9
   vertex 30803 -8530.41 1323.19
  endloop
 endfacet
 facet normal 0.866015 -0.500017 -9.71797e-08
  outer loop
   vertex 29759.4 -10337.9 -763.945
   vertex 29776 -10309.1 -677.614
   vertex 29715.2 -10414.5 -584.698
  endloop
 endfacet
 facet normal 0.866017 -0.500015 4.09826e-06
  outer loop
   vertex 29727.5 -10393.2 -472.233
   vertex 29715.2 -10414.5 -584.698
   vertex 29776 -10309.1 -677.614
  endloop
 endfacet
 facet normal 0.866018 -0.500014 4.72097e-06
  outer loop
   vertex 29776 -10309.1 -677.614
   vertex 29821.2 -10230.8 -487.577
   vertex 29727.5 -10393.2 -472.233
  endloop
 endfacet
 facet normal 0.866017 -0.500014 5.47161e-07
  outer loop
   vertex 29762.8 -10332.1 -252.431
   vertex 29727.5 -10393.2 -472.233
   vertex 29821.2 -10230.8 -487.577
  endloop
 endfacet
 facet normal 0.866022 -0.500007 4.76332e-06
  outer loop
   vertex 29821.2 -10230.8 -487.577
   vertex 29889.1 -10113.2 -250.324
   vertex 29762.8 -10332.1 -252.431
  endloop
 endfacet
 facet normal 0.866022 -0.500006 -1.56435e-06
  outer loop
   vertex 29817.8 -10236.8 -0.00146168
   vertex 29762.8 -10332.1 -252.431
   vertex 29889.1 -10113.2 -250.324
  endloop
 endfacet
 facet normal 0.866021 -0.500007 2.09435e-06
  outer loop
   vertex 29889.1 -10113.2 250.321
   vertex 29817.8 -10236.8 -0.00146168
   vertex 29974.3 -9965.71 -0.00116989
  endloop
 endfacet
 facet normal 0.866021 -0.500007 -2.09435e-06
  outer loop
   vertex 29889.1 -10113.2 -250.324
   vertex 29974.3 -9965.71 -0.00116989
   vertex 29817.8 -10236.8 -0.00146168
  endloop
 endfacet
 facet normal 0.866019 -0.500011 -8.84817e-07
  outer loop
   vertex 29974.3 -9965.71 -0.00116989
   vertex 30072.5 -9795.49 246.04
   vertex 29889.1 -10113.2 250.321
  endloop
 endfacet
 facet normal 0.866019 -0.500011 -3.70619e-06
  outer loop
   vertex 29974 -9966.11 485.236
   vertex 29889.1 -10113.2 250.321
   vertex 30072.5 -9795.49 246.04
  endloop
 endfacet
 facet normal 0.866021 -0.500007 3.88634e-07
  outer loop
   vertex 30072.5 -9795.49 246.04
   vertex 30181.1 -9607.47 479.747
   vertex 29974 -9966.11 485.236
  endloop
 endfacet
 facet normal 0.866022 -0.500007 3.56767e-06
  outer loop
   vertex 30070.8 -9798.52 700.348
   vertex 29974 -9966.11 485.236
   vertex 30181.1 -9607.47 479.747
  endloop
 endfacet
 facet normal 0.866021 -0.500008 -1.23386e-06
  outer loop
   vertex 30298 -9405.08 696.85
   vertex 30178.4 -9612.23 893.87
   vertex 30181.1 -9607.47 479.747
  endloop
 endfacet
 facet normal 0.866019 -0.500011 -1.27269e-06
  outer loop
   vertex 30070.8 -9798.52 700.348
   vertex 30181.1 -9607.47 479.747
   vertex 30178.4 -9612.23 893.87
  endloop
 endfacet
 facet normal 0.866023 -0.500005 8.09795e-07
  outer loop
   vertex 30421 -9192 893.407
   vertex 30295.8 -9408.79 1063.75
   vertex 30298 -9405.08 696.85
  endloop
 endfacet
 facet normal 0.866021 -0.500007 7.78143e-07
  outer loop
   vertex 30295.8 -9408.79 1063.75
   vertex 30178.4 -9612.23 893.87
   vertex 30298 -9405.08 696.85
  endloop
 endfacet
 facet normal 0.86602 -0.500009 0
  outer loop
   vertex 30546.1 -8975.22 1063.75
   vertex 30421 -9192 1206.42
   vertex 30421 -9192 893.407
  endloop
 endfacet
 facet normal 0.866022 -0.500005 0
  outer loop
   vertex 30421 -9192 893.407
   vertex 30421 -9192 1206.42
   vertex 30295.8 -9408.79 1063.75
  endloop
 endfacet
 facet normal 0.866018 -0.500014 3.70452e-06
  outer loop
   vertex 30664.8 -8769.75 1199.52
   vertex 30547.2 -8973.39 1316.43
   vertex 30546.1 -8975.22 1063.75
  endloop
 endfacet
 facet normal 0.866021 -0.500007 3.64545e-06
  outer loop
   vertex 30421 -9192 1206.42
   vertex 30546.1 -8975.22 1063.75
   vertex 30547.2 -8973.39 1316.43
  endloop
 endfacet
 facet normal 0.866022 -0.500006 1.97006e-06
  outer loop
   vertex 30759.8 -8605.17 1289.88
   vertex 30657.1 -8783.04 1386.98
   vertex 30664.8 -8769.75 1199.52
  endloop
 endfacet
 facet normal 0.866017 -0.500015 1.19356e-06
  outer loop
   vertex 30547.2 -8973.39 1316.43
   vertex 30664.8 -8769.75 1199.52
   vertex 30657.1 -8783.04 1386.98
  endloop
 endfacet
 facet normal 0.866021 -0.500008 7.40931e-06
  outer loop
   vertex 30803 -8530.41 1323.19
   vertex 30713.3 -8685.64 1411.59
   vertex 30759.8 -8605.17 1289.88
  endloop
 endfacet
 facet normal 0.866024 -0.500002 1.24686e-05
  outer loop
   vertex 30657.1 -8783.04 1386.98
   vertex 30759.8 -8605.17 1289.88
   vertex 30713.3 -8685.64 1411.59
  endloop
 endfacet
 facet normal 0.866024 -0.500002 8.54395e-07
  outer loop
   vertex 29715.2 -10414.5 -584.698
   vertex 29727.5 -10393.2 -472.233
   vertex 29683 -10470.1 -395.447
  endloop
 endfacet
 facet normal 0.866026 -0.5 3.90977e-06
  outer loop
   vertex 29691.9 -10454.8 -244.346
   vertex 29683 -10470.1 -395.447
   vertex 29727.5 -10393.2 -472.233
  endloop
 endfacet
 facet normal 0.866019 -0.500011 -3.5838e-07
  outer loop
   vertex 29727.5 -10393.2 -472.233
   vertex 29762.8 -10332.1 -252.431
   vertex 29691.9 -10454.8 -244.346
  endloop
 endfacet
 facet normal 0.866019 -0.500012 -2.29705e-06
  outer loop
   vertex 29691.9 -10454.8 -244.346
   vertex 29762.8 -10332.1 -252.431
   vertex 29719 -10407.8 -0.000844048
  endloop
 endfacet
 facet normal 0.866021 -0.500008 -8.48096e-07
  outer loop
   vertex 29762.8 -10332.1 -252.431
   vertex 29817.8 -10236.8 -0.00146168
   vertex 29719 -10407.8 -0.000844048
  endloop
 endfacet
 facet normal 0.866021 -0.500008 -1.08626e-06
  outer loop
   vertex 29762.8 -10332.1 252.429
   vertex 29719 -10407.8 -0.000844048
   vertex 29817.8 -10236.8 -0.00146168
  endloop
 endfacet
 facet normal 0.866023 -0.500005 1.44341e-06
  outer loop
   vertex 29821.2 -10230.8 487.574
   vertex 29762.8 -10332.1 252.429
   vertex 29889.1 -10113.2 250.321
  endloop
 endfacet
 facet normal 0.866023 -0.500005 4.68197e-07
  outer loop
   vertex 29817.8 -10236.8 -0.00146168
   vertex 29889.1 -10113.2 250.321
   vertex 29762.8 -10332.1 252.429
  endloop
 endfacet
 facet normal 0.866019 -0.500012 -3.15468e-06
  outer loop
   vertex 29889.1 -10113.2 250.321
   vertex 29974 -9966.11 485.236
   vertex 29821.2 -10230.8 487.574
  endloop
 endfacet
 facet normal 0.866019 -0.500012 2.6756e-06
  outer loop
   vertex 29892.7 -10107 700.126
   vertex 29821.2 -10230.8 487.574
   vertex 29974 -9966.11 485.236
  endloop
 endfacet
 facet normal 0.86602 -0.500009 5.43972e-06
  outer loop
   vertex 29974 -9966.11 485.236
   vertex 30070.8 -9798.52 700.348
   vertex 29892.7 -10107 700.126
  endloop
 endfacet
 facet normal 0.86602 -0.500009 -2.14991e-06
  outer loop
   vertex 29892.7 -10107 700.126
   vertex 30070.8 -9798.52 700.348
   vertex 29976.1 -9962.58 889.79
  endloop
 endfacet
 facet normal 0.866019 -0.50001 -1.98525e-06
  outer loop
   vertex 30178.4 -9612.23 893.87
   vertex 30070.9 -9798.33 1056.58
   vertex 30070.8 -9798.52 700.348
  endloop
 endfacet
 facet normal 0.866021 -0.500008 -1.98667e-06
  outer loop
   vertex 29976.1 -9962.58 889.79
   vertex 30070.8 -9798.52 700.348
   vertex 30070.9 -9798.33 1056.58
  endloop
 endfacet
 facet normal 0.866021 -0.500008 3.11541e-06
  outer loop
   vertex 30295.8 -9408.79 1063.75
   vertex 30177.2 -9614.25 1199.52
   vertex 30178.4 -9612.23 893.87
  endloop
 endfacet
 facet normal 0.866021 -0.500007 3.12777e-06
  outer loop
   vertex 30070.9 -9798.33 1056.58
   vertex 30178.4 -9612.23 893.87
   vertex 30177.2 -9614.25 1199.52
  endloop
 endfacet
 facet normal 0.866021 -0.500008 3.03891e-06
  outer loop
   vertex 30177.2 -9614.25 1199.52
   vertex 30295.8 -9408.79 1063.75
   vertex 30294.8 -9410.61 1316.43
  endloop
 endfacet
 facet normal 0.866022 -0.500007 3.05688e-06
  outer loop
   vertex 30294.8 -9410.61 1316.43
   vertex 30295.8 -9408.79 1063.75
   vertex 30421 -9192 1206.42
  endloop
 endfacet
 facet normal 0.866021 -0.500008 0
  outer loop
   vertex 30294.8 -9410.61 1316.43
   vertex 30421 -9192 1206.42
   vertex 30421 -9192 1403.95
  endloop
 endfacet
 facet normal 0.866022 -0.500006 0
  outer loop
   vertex 30547.2 -8973.39 1316.43
   vertex 30421 -9192 1403.95
   vertex 30421 -9192 1206.42
  endloop
 endfacet
 facet normal 0.866017 -0.500014 -1.9769e-06
  outer loop
   vertex 30657.1 -8783.04 1386.98
   vertex 30543.1 -8980.39 1458.12
   vertex 30547.2 -8973.39 1316.43
  endloop
 endfacet
 facet normal 0.866022 -0.500007 -1.49843e-06
  outer loop
   vertex 30421 -9192 1403.95
   vertex 30547.2 -8973.39 1316.43
   vertex 30543.1 -8980.39 1458.12
  endloop
 endfacet
 facet normal 0.866024 -0.500002 1.08339e-05
  outer loop
   vertex 30713.3 -8685.64 1411.59
   vertex 30618.7 -8849.54 1475.83
   vertex 30657.1 -8783.04 1386.98
  endloop
 endfacet
 facet normal 0.866018 -0.500013 -7.55879e-07
  outer loop
   vertex 30657.1 -8783.04 1386.98
   vertex 30618.7 -8849.54 1475.83
   vertex 30543.1 -8980.39 1458.12
  endloop
 endfacet
 facet normal 0.866025 -0.5 4.03099e-06
  outer loop
   vertex 29683 -10470.1 -395.447
   vertex 29691.9 -10454.8 -244.346
   vertex 29663.6 -10503.9 -199.43
  endloop
 endfacet
 facet normal 0.866024 -0.500003 9.05685e-07
  outer loop
   vertex 29691.9 -10454.8 -244.346
   vertex 29670.4 -10492.1 0.000517724
   vertex 29663.6 -10503.9 -199.43
  endloop
 endfacet
 facet normal 0.866017 -0.500015 -1.52154e-06
  outer loop
   vertex 29691.9 -10454.8 -244.346
   vertex 29719 -10407.8 -0.000844048
   vertex 29670.4 -10492.1 0.000517724
  endloop
 endfacet
 facet normal 0.866017 -0.500015 1.52154e-06
  outer loop
   vertex 29691.9 -10454.8 244.345
   vertex 29670.4 -10492.1 0.000517724
   vertex 29719 -10407.8 -0.000844048
  endloop
 endfacet
 facet normal 0.866017 -0.500014 -7.2795e-07
  outer loop
   vertex 29727.5 -10393.2 472.231
   vertex 29691.9 -10454.8 244.345
   vertex 29762.8 -10332.1 252.429
  endloop
 endfacet
 facet normal 0.866017 -0.500014 1.54254e-06
  outer loop
   vertex 29719 -10407.8 -0.000844048
   vertex 29762.8 -10332.1 252.429
   vertex 29691.9 -10454.8 244.345
  endloop
 endfacet
 facet normal 0.866022 -0.500006 -3.06453e-06
  outer loop
   vertex 29776 -10309.1 677.612
   vertex 29727.5 -10393.2 472.231
   vertex 29821.2 -10230.8 487.574
  endloop
 endfacet
 facet normal 0.866022 -0.500006 2.27503e-06
  outer loop
   vertex 29762.8 -10332.1 252.429
   vertex 29821.2 -10230.8 487.574
   vertex 29727.5 -10393.2 472.231
  endloop
 endfacet
 facet normal 0.866023 -0.500005 -4.52547e-06
  outer loop
   vertex 29836.5 -10204.3 861.882
   vertex 29776 -10309.1 677.612
   vertex 29892.7 -10107 700.126
  endloop
 endfacet
 facet normal 0.866023 -0.500005 -2.56852e-06
  outer loop
   vertex 29821.2 -10230.8 487.574
   vertex 29892.7 -10107 700.126
   vertex 29776 -10309.1 677.612
  endloop
 endfacet
 facet normal 0.866022 -0.500006 -5.15781e-06
  outer loop
   vertex 29892.7 -10107 700.126
   vertex 29976.1 -9962.58 889.79
   vertex 29836.5 -10204.3 861.882
  endloop
 endfacet
 facet normal 0.866022 -0.500006 1.9924e-06
  outer loop
   vertex 29836.5 -10204.3 861.882
   vertex 29976.1 -9962.58 889.79
   vertex 29908.1 -10080.4 1025.8
  endloop
 endfacet
 facet normal 0.866018 -0.500013 4.05374e-06
  outer loop
   vertex 30070.9 -9798.33 1056.58
   vertex 29990 -9938.41 1168.9
   vertex 29976.1 -9962.58 889.79
  endloop
 endfacet
 facet normal 0.866022 -0.500005 3.15243e-06
  outer loop
   vertex 29908.1 -10080.4 1025.8
   vertex 29976.1 -9962.58 889.79
   vertex 29990 -9938.41 1168.9
  endloop
 endfacet
 facet normal 0.866017 -0.500015 1.4538e-06
  outer loop
   vertex 29990 -9938.41 1168.9
   vertex 30070.9 -9798.33 1056.58
   vertex 30082.2 -9778.83 1289.89
  endloop
 endfacet
 facet normal 0.866022 -0.500005 4.39529e-07
  outer loop
   vertex 30177.2 -9614.25 1199.52
   vertex 30082.2 -9778.83 1289.89
   vertex 30070.9 -9798.33 1056.58
  endloop
 endfacet
 facet normal 0.866021 -0.500008 -4.47721e-06
  outer loop
   vertex 30082.2 -9778.83 1289.89
   vertex 30177.2 -9614.25 1199.52
   vertex 30184.9 -9600.96 1386.99
  endloop
 endfacet
 facet normal 0.866022 -0.500005 -4.69962e-06
  outer loop
   vertex 30294.8 -9410.61 1316.43
   vertex 30184.9 -9600.96 1386.99
   vertex 30177.2 -9614.25 1199.52
  endloop
 endfacet
 facet normal 0.866022 -0.500006 -8.85582e-06
  outer loop
   vertex 30184.9 -9600.96 1386.99
   vertex 30294.8 -9410.61 1316.43
   vertex 30298.8 -9403.61 1458.12
  endloop
 endfacet
 facet normal 0.866022 -0.500005 -8.93605e-06
  outer loop
   vertex 30421 -9192 1403.95
   vertex 30298.8 -9403.61 1458.12
   vertex 30294.8 -9410.61 1316.43
  endloop
 endfacet
 facet normal 0.866022 -0.500006 -5.02153e-06
  outer loop
   vertex 30543.1 -8980.39 1458.12
   vertex 30421 -9192 1501.19
   vertex 30421 -9192 1403.95
  endloop
 endfacet
 facet normal 0.866023 -0.500004 -5.02152e-06
  outer loop
   vertex 30298.8 -9403.61 1458.12
   vertex 30421 -9192 1403.95
   vertex 30421 -9192 1501.19
  endloop
 endfacet
 facet normal 0.866019 -0.500012 -1.73296e-05
  outer loop
   vertex 30618.7 -8849.54 1475.83
   vertex 30520.7 -9019.29 1514.82
   vertex 30543.1 -8980.39 1458.12
  endloop
 endfacet
 facet normal 0.866021 -0.500007 -1.30278e-05
  outer loop
   vertex 30421 -9192 1501.19
   vertex 30543.1 -8980.39 1458.12
   vertex 30520.7 -9019.29 1514.82
  endloop
 endfacet
 facet normal 0.866038 -0.499978 1.05295e-06
  outer loop
   vertex 29663.6 -10503.9 199.43
   vertex 29657 -10515.2 2.12037e-13
   vertex 29670.4 -10492.1 0.000517724
  endloop
 endfacet
 facet normal 0.866038 -0.499978 -1.05295e-06
  outer loop
   vertex 29663.6 -10503.9 -199.43
   vertex 29670.4 -10492.1 0.000517724
   vertex 29657 -10515.2 2.12037e-13
  endloop
 endfacet
 facet normal 0.866025 -0.5 -4.03098e-06
  outer loop
   vertex 29683 -10470.1 395.447
   vertex 29663.6 -10503.9 199.43
   vertex 29691.9 -10454.8 244.345
  endloop
 endfacet
 facet normal 0.866024 -0.500003 -9.0569e-07
  outer loop
   vertex 29663.6 -10503.9 199.43
   vertex 29670.4 -10492.1 0.000517724
   vertex 29691.9 -10454.8 244.345
  endloop
 endfacet
 facet normal 0.86602 -0.500009 1.78586e-06
  outer loop
   vertex 29715.2 -10414.5 584.698
   vertex 29683 -10470.1 395.447
   vertex 29727.5 -10393.2 472.231
  endloop
 endfacet
 facet normal 0.866023 -0.500004 -4.49462e-06
  outer loop
   vertex 29691.9 -10454.8 244.345
   vertex 29727.5 -10393.2 472.231
   vertex 29683 -10470.1 395.447
  endloop
 endfacet
 facet normal 0.86602 -0.500009 -4.54861e-06
  outer loop
   vertex 29759.4 -10337.9 763.945
   vertex 29715.2 -10414.5 584.698
   vertex 29776 -10309.1 677.612
  endloop
 endfacet
 facet normal 0.866018 -0.500013 7.23154e-07
  outer loop
   vertex 29727.5 -10393.2 472.231
   vertex 29776 -10309.1 677.612
   vertex 29715.2 -10414.5 584.698
  endloop
 endfacet
 facet normal 0.866019 -0.500011 5.51256e-06
  outer loop
   vertex 29814.9 -10241.8 930.12
   vertex 29759.4 -10337.9 763.945
   vertex 29836.5 -10204.3 861.882
  endloop
 endfacet
 facet normal 0.866022 -0.500006 -3.27191e-06
  outer loop
   vertex 29776 -10309.1 677.612
   vertex 29836.5 -10204.3 861.882
   vertex 29759.4 -10337.9 763.945
  endloop
 endfacet
 facet normal 0.866019 -0.50001 6.18358e-06
  outer loop
   vertex 29836.5 -10204.3 861.882
   vertex 29908.1 -10080.4 1025.8
   vertex 29814.9 -10241.8 930.12
  endloop
 endfacet
 facet normal 0.866021 -0.500007 -5.44925e-07
  outer loop
   vertex 29880.8 -10127.6 1080.38
   vertex 29814.9 -10241.8 930.12
   vertex 29908.1 -10080.4 1025.8
  endloop
 endfacet
 facet normal 0.866024 -0.500003 -3.09487e-07
  outer loop
   vertex 29990 -9938.41 1168.9
   vertex 29955.9 -9997.51 1212.16
   vertex 29908.1 -10080.4 1025.8
  endloop
 endfacet
 facet normal 0.866022 -0.500006 1.48622e-06
  outer loop
   vertex 29880.8 -10127.6 1080.38
   vertex 29908.1 -10080.4 1025.8
   vertex 29955.9 -9997.51 1212.16
  endloop
 endfacet
 facet normal 0.866022 -0.500006 -6.45026e-06
  outer loop
   vertex 29955.9 -9997.51 1212.16
   vertex 29990 -9938.41 1168.9
   vertex 30039 -9853.59 1323.19
  endloop
 endfacet
 facet normal 0.866018 -0.500013 -1.27086e-06
  outer loop
   vertex 30082.2 -9778.83 1289.89
   vertex 30039 -9853.59 1323.19
   vertex 29990 -9938.41 1168.9
  endloop
 endfacet
 facet normal 0.866019 -0.500012 2.0115e-06
  outer loop
   vertex 30039 -9853.59 1323.19
   vertex 30082.2 -9778.83 1289.89
   vertex 30128.6 -9698.36 1411.59
  endloop
 endfacet
 facet normal 0.86602 -0.500009 -4.36568e-07
  outer loop
   vertex 30082.2 -9778.83 1289.89
   vertex 30184.9 -9600.96 1386.99
   vertex 30128.6 -9698.36 1411.59
  endloop
 endfacet
 facet normal 0.866021 -0.500007 8.33137e-06
  outer loop
   vertex 30128.6 -9698.36 1411.59
   vertex 30184.9 -9600.96 1386.99
   vertex 30223.2 -9534.47 1475.83
  endloop
 endfacet
 facet normal 0.866018 -0.500012 1.30528e-05
  outer loop
   vertex 30298.8 -9403.61 1458.12
   vertex 30223.2 -9534.47 1475.83
   vertex 30184.9 -9600.96 1386.99
  endloop
 endfacet
 facet normal 0.866019 -0.500012 1.73298e-05
  outer loop
   vertex 30223.2 -9534.47 1475.83
   vertex 30298.8 -9403.61 1458.12
   vertex 30321.3 -9364.71 1514.82
  endloop
 endfacet
 facet normal 0.866021 -0.500007 1.3028e-05
  outer loop
   vertex 30421 -9192 1501.19
   vertex 30321.3 -9364.71 1514.82
   vertex 30298.8 -9403.61 1458.12
  endloop
 endfacet
 facet normal 0.866021 -0.500008 0
  outer loop
   vertex 30520.7 -9019.29 1514.82
   vertex 30421 -9192 1527.89
   vertex 30421 -9192 1501.19
  endloop
 endfacet
 facet normal 0.866021 -0.500008 0
  outer loop
   vertex 30321.3 -9364.71 1514.82
   vertex 30421 -9192 1501.19
   vertex 30421 -9192 1527.89
  endloop
 endfacet
endsolid
